<?xml version="1.0" encoding="utf-8"?>
<!-- Generator: Adobe Illustrator 19.0.0, SVG Export Plug-In . SVG Version: 6.00 Build 0)  -->
<svg version="1.1" id="Layer_1" xmlns="http://www.w3.org/2000/svg" xmlns:xlink="http://www.w3.org/1999/xlink" x="0px" y="0px"
	 viewBox="0 0 612 792" style="enable-background:new 0 0 612 792;" xml:space="preserve">
<g id="XMLID_1_">
	<path id="XMLID_115_" d="M154.2,486c-1,0.1-3.2,2.2-3.3,3.3c0,0.3,0.3,0.7,0.4,0.9c0.5-0.1,0.8,0,0.9-0.1c1-1,2.1-1.9,3-3
		C155.6,486.5,155,485.9,154.2,486z"/>
	<path id="XMLID_202_" d="M152.6,483.4c0-0.9-0.7-1.5-1.3-1.1c-1.2,0.9-2.4,1.9-3.5,3c-0.2,0.2,0.1,0.8,0.1,1.3
		c0.4-0.1,0.8-0.1,1.1-0.3c0.9-0.6,1.8-1.3,2.6-2C152.1,484,152.4,483.6,152.6,483.4z"/>
	<path id="XMLID_203_" d="M143.8,446.4c0.7,0,1.3-0.2,1.7-0.3c0.5,0.1,0.7,0.2,0.9,0.2c0.2,0,0.4,0,0.6-0.1c0.6-0.2,0.9-1,0.5-1.5
		c-1.4-1.7-3.5-1.6-4.7,0.3c-0.2,0.3-0.3,0.9-0.1,1.1C142.9,446.3,143.4,446.4,143.8,446.4z"/>
	<path id="XMLID_204_" d="M178.6,478c1.9-1.2,4-1.8,5.7-3.2c2-1.5,4.2-2.4,6.6-2.8c0.3-0.1,0.6-0.1,0.8-0.2c2.5-1.2,5.1-1.2,7.8-1.1
		c0.8,0,1.6,0,2.4-0.1c0.2,0,0.6-0.3,0.6-0.4c0-0.3-0.2-0.6-0.4-0.7c-0.8-0.4-1.7-0.9-2.5-0.9c-1.4,0.1-2.7-0.1-4.1-0.1
		c-1.7-0.1-3.5,0.8-5.2,1.4c-2.7,1-5.2,2.4-7.8,3.4c-3.6,1.4-6.4,3.9-9.4,6.2c-0.5,0.4-0.9,1-1.3,1.5c-0.4,0.5-0.6,1.1,0.4,1.5
		C174.3,481,176.4,479.4,178.6,478z"/>
	<path id="XMLID_205_" d="M247.6,541.5c-0.8,0.5-1.5,1.2-2.1,1.9c-0.1,0.1,0.5,1,0.8,1.1c0.6,0.2,2.2-1.6,2.2-2.5
		C248.4,541.9,247.8,541.4,247.6,541.5z"/>
	<path id="XMLID_206_" d="M251.1,542.6c-1,0-2.1,1.4-2,2.3c0,0.3,0.2,0.7,0.3,0.8c0.3,0.1,0.8,0,0.9-0.1c0.5-0.5,0.9-1.1,1.3-1.7
		c0.2-0.2,0.3-0.7,0.1-0.8C251.7,542.8,251.3,542.7,251.1,542.6z"/>
	<path id="XMLID_207_" d="M244.8,525.8c0.4-0.1,0.8-0.5,1.2-0.8c-0.3-0.4-0.5-0.8-0.9-1.1c-5.8-3.4-9.8-8.4-12.5-14.4
		c-0.8-1.6-1.5-3.3-2.1-4.7c0.2-0.8,0.5-1.6,0.4-2.2c-0.5-2.6-0.5-5.1,1.2-7.3c0.2-0.3,0.4-0.6,0.6-0.9c1.4-3.4,3.1-6.6,5.4-9.4
		c1.5-1.8,3.2-3.1,5.5-3.6c0.6-0.1,1.3-0.3,1.9-0.7c0.3-0.2,0.4-0.7,0.4-1.1c0-0.2-0.5-0.6-0.7-0.6c-1.2,0.1-2.5,0.1-3.6,0.6
		c-3.8,1.9-6.3,5.1-8.2,8.8c-1,2-2,4-3.1,6c-0.4,0.6-1.1,1.3-1.8,1.4c-2.1,0.1-4.4,0.4-6.3-0.8c-1.8-1.1-3.6-2.3-5.2-3.7
		c-3.4-3.2-6.8-6.5-10.7-9.3c-0.8-0.6-1.8-1.3-2-2.9c0.6,0.3,0.9,0.5,1.2,0.5c0.6,0.2,1.4,0.5,1.7,0.3c0.6-0.4,1.2-1.3,1.1-1.9
		c-0.1-1.1,0.4-1.2,1.2-1.2c0.7,0.1,1.3-0.1,1.6-0.9c0.4-0.9,1-1.2,2-0.9c0.9,0.3,1.9-0.3,2.2-1.1c0.4-1.1-0.4-3-1.5-3.5
		c-0.6-0.3-1.1-0.2-1.1,0.7c0,0.5,0,1.1,0,1.7c-0.5-0.2-0.7-0.2-1-0.3c-0.3-0.1-0.5-0.3-0.8-0.5c-1.1-0.5-1.6-0.2-1.6,1
		c0,0.5,0,0.9,0,1.7c-1.1-0.6-1.9-1-2.8-1.4c-0.7-0.3-1.4-0.4-1.9,0.4c-0.4,0.8,0.1,1.2,0.7,1.7c0.6,0.5,1.1,0.9,1.7,1.4
		c-0.6,1-1.3,0.8-1.9,0.4c-1.2-0.8-2.6-0.6-3.9-0.6c-0.3,0-0.8,0.7-0.7,0.8c0.3,0.7,0.8,1.3,1.2,1.9c0.3,0.5,0.9,1.4,0.7,1.6
		c-0.4,0.5-1.2,1-1.8,1c-1.6,0.1-3.2,0-4.8,0c-4.2,0-8.3-0.4-12.2-2.2c-0.4-0.2-1-0.2-1.5-0.2c-0.2,1.9,1.6,3.1,3.2,2.7
		c0.4-0.1,0.8,0,1.2,0c0,0.5,0.1,1.1-0.1,1.5c-0.2,0.3-0.9,0.6-1.3,0.6c-1.3,0-2.5-0.3-3.8-0.3c-0.4,0-0.8,0.4-1.2,0.6
		c0.2,0.4,0.4,0.9,0.7,1.1c0.8,0.4,1.6,0.6,2.4,0.9c0.4,0.2,0.8,0.5,1.2,0.8c-0.3,0.4-0.5,0.9-0.9,1.2c-1.5,1-3.1,1.4-4.8,0.9
		c-2.9-0.8-2.9-0.8-4.6,1.6c-0.8,1.1-1.7,1.4-3,1.5c-2.6,0.2-4.6-0.8-6.6-2.3c-1.7-1.3-3.8-1.9-5.8-1.1c-1.4,0.6-2.6,1.8-3.8,2.8
		c-0.9,0.8-0.9,1.5-0.1,2.5c2.4,2.8,4.8,5.6,7.2,8.4c0.7,0.8,1.6,1.3,2.2,2.1c0.9,1,1.6,2,2.4,3.1c0.6,0.8,1.3,1,2.2,0.3
		c1.2-0.9,2.5-1.6,3.8-2.4c2.1-1.2,4-2.7,6.5-3.1c1.4-0.2,2.9-0.2,4.3-0.4c2.5-0.3,5,0,7.3,0.9c3.4,1.4,6.3,3.5,8.8,6.1
		c2.9,3,5.8,6,8.7,8.9c0.8,0.8,2,1.3,2.8,2.2c1.4,1.4,2.5,3.1,3.9,4.5c1.7,1.8,3.5,3.4,5.4,5c2.5,2.1,5.1,4.1,7.7,6.1
		c0.3,0.3,1,0.4,1.4,0.2c0.3-0.1,0.3-0.8,0.5-1.2c0.3-0.9,0.4-1.9,0.9-2.7c1.6-2.5,4.2-3.7,6.8-4.8
		C239.9,527,242.4,526.6,244.8,525.8z"/>
	<path id="XMLID_208_" d="M249.8,352.4c0-1-0.1-2.2-0.6-3.1c-1.5-2.6-2.9-5.2-4.8-7.4c-2.4-2.6-5.3-4.8-8-7.2
		c-0.3-0.3-1-0.4-1.3-0.2c-0.3,0.2-0.4,0.8-0.3,1.2c0.1,1.6,0.4,3.3,0.4,4.9c0.1,2.7-0.8,5.2-2.3,7.4c-0.5,0.8-1.4,1.4-2.2,1.9
		c-1.4,0.7-3,1.2-4.5,1.9c-3.2,1.5-6.4,2.9-9.6,4.5c-2.1,1.1-3.5,2.8-4.3,5c-0.9,2.5,0.7,5.6,3.2,6.3c0.3,0.1,0.6,0.3,0.9,0.4
		c1.2,0.5,2,1.6,3.5,1.5c1-0.1,2-0.1,3.1,0c1.7,0.1,3.3,1.8,3.5,3.5c0.2,1.6,0.7,2,2.3,2c2.6,0,5.3,0,7.9,0c0.6,0,1.5-0.2,1.6-0.5
		c0.5-1.6,1.2-3.2,1.2-4.8c-0.1-1.7-1.5-2.4-3.3-2.2c-1.8,0.2-3.6,0-5.3-0.6c-1.3-0.5-1.5-1.7-0.4-2.5c0.3-0.3,0.7-0.5,1-0.9
		c0.2-0.3,0.4-0.7,0.3-1c-0.1-0.2-0.6-0.4-0.9-0.4c-1.2,0.2-2.2,0.1-3.4-0.2c-1.5-0.3-2.9-0.7-4.2-1.5c-0.8-0.5-0.7-0.9-0.2-1.4
		c0.9-0.9,1.9-1.8,3.3-1.9c0.6-0.1,1.3-0.2,1.7-0.6c1.7-1.5,3.4-3.2,5.1-4.8c3-3,4-6.8,3.9-10.9c0-0.4,0.2-1,0.5-1.2
		c0.3-0.2,0.9-0.1,1.2,0.2c1.2,1,2.5,1.9,3.6,3.1c1.6,1.8,2.2,3.9,1.5,6.3c-0.4,1.3-1.2,2.5-1.7,3.7c-0.3,0.6-0.5,1.3-0.5,1.9
		c-0.1,0.9,0,1.8,0,2.6c-0.1,2.5,0.7,4.6,2.6,6.2c0.7,0.6,1.3,1.3,1.9,2c0.8,0.9,1.3,2,1.3,3.3c-0.1,1.5,0.1,3.1,0.2,4.6
		c0.1,0.4,0.5,1,0.9,1.2c0.3,0.1,0.9-0.4,1.1-0.8c0.3-0.4,0.3-1.1,0.3-1.6c0-2.5-0.2-4.9-0.2-7.4c0-2.1,0-4.2,0-6.2
		C249.8,356.7,249.9,354.5,249.8,352.4z"/>
	<path id="XMLID_210_" d="M251.9,309.7c1.6-1.1,3.1-2.5,5.3-1.7c0.3,0.1,0.6,0,1.4,0c-0.5-0.8-0.8-1.5-1.3-1.9
		c-1.7-1.3-4.8-1-6.4,0.5c-1.6,1.5-3.1,3.1-5.3,3.6c-0.4,0.1-0.7,0.7-1,1c0.5,0.3,0.9,0.7,1.4,0.8
		C248.3,312.3,250.1,310.9,251.9,309.7z"/>
	<path id="XMLID_211_" d="M344.7,260.9c-0.8,0.6-1.6,0.4-2.2-0.6c-0.2-0.3-0.3-0.6-0.4-1c-0.5-1-1.2-1.2-1.9-0.3
		c-0.6,0.7-1.2,1.5-1.6,2.3c-0.3,0.5-0.5,1.3-0.3,1.8c0.2,0.5,1,0.6,1.5,0.8c1.7-0.3,3.2-0.4,4.6-0.8c3-0.9,4.5-3.3,5.7-6
		c0.3-0.7-0.4-1.5-1.2-1.5c-0.7,0-1.4,0.1-2.1,0.2c-2.1,0.2-2.5,1-1.4,2.7C345.6,259.4,345.5,260.3,344.7,260.9z"/>
	<path id="XMLID_214_" d="M360.7,373.5c0.1,1.4,0.7,1.9,2,1.9c3.4,0,6.8,0,10.2,0c1,0,2.1,0,3.1,0c1.3,0,2.6-0.1,3.9-0.2
		c2.1,0,4.2,0,6.3-0.1c0.3,0,0.6-0.5,0.7-0.8c0.2-0.5,0.2-1.1,0.5-1.6c0.9-1.5,2-3,2.7-4.6c1.7-3.5,2.6-7.2,2.7-11.1
		c0-1.3-0.2-2.8,0.3-3.7c1-1.6,1-3.2,0.8-4.9c-0.3-3.2-1.7-5.9-4.1-8c-2.2-1.9-4.8-2.4-7.5-2.7c-0.6-0.1-1.3,0-1.9,0.1
		c-1.6,0.4-3.2,0.8-4.8,1.2c-0.3,0.1-0.7,0.3-1,0.5c-1.2,0.9-2.4,1.7-3.6,2.7c-2.3,1.7-4,3.9-5.1,6.6c-0.8,2-1.9,3.9-3.6,5.2
		c-0.4,0.3-0.9,0.6-1.2,1c-1,1.7-0.7,3.6-0.7,5.5c0,1,0.6,1.9,0.3,3.1c-0.4,1.7-0.2,3.6-0.3,5.4c0,0,0.1,0,0.1,0
		C360.7,370.5,360.7,372,360.7,373.5z M366.4,352.4c1-2.4,2-4.8,4-6.7c2.5-2.4,5.4-3.9,8.9-4.3c0.5,0,0.9-0.2,1.5-0.3
		c0.2,0.2,0.5,0.5,0.8,0.6c2.2,0.5,3.2,2.2,4.2,3.9c1.2,2.2,2.1,4.4,1.9,7c-0.1,1.1,0.4,1.4,1.5,1c1.3-0.5,1.8-0.3,1.9,1.1
		c0.1,6.3-1.1,12.2-5.2,17.2c-0.4,0.5-1.6,1.3-1.8,1.1c-0.9-0.6-0.2-1.5,0.1-2.2c1.3-2.6,1.5-5.4,0.9-8.2c-0.2-1-1.1-1.9-1.8-2.8
		c-0.3-0.4-0.8-0.5-1.2-0.8c-1.6-1.1-1.6-2,0.2-2.9c0.9-0.4,1.7-0.8,2-1.9c0-0.2,0.1-0.4,0.1-0.6c-0.1-2-2.7-5-4.6-5.2
		c-2-0.2-3.5,0.9-4.7,2.4c-1.8,2.2-1.7,4.7-1.2,7.2c0.4,2.4,1.8,4.1,4,4.8c1.1,0.3,2.3,0.3,3.5,0.2c1.9-0.2,3,1,2.5,2.9
		c-0.6,2-1.2,4.1-1.9,6.1c-0.5,1.6-1.6,2.2-3,2.2c-4.8,0.1-8.1-2.3-10.6-6.1c-0.9-1.3-1.5-2.8-2.2-4.3
		C364,360,364.8,356.2,366.4,352.4z"/>
	<path id="XMLID_215_" d="M311.8,321.7c3.1-0.1,6.2-0.1,9.4,0c1.4,0,2-0.2,2.3-1.5c0.4-1.4,0.8-2.8,1.2-4.2
		c1.7-5.3,4.6-9.9,8.4-13.8c2.2-2.3,4.7-4.5,7.2-6.6c2.9-2.4,6-4.5,9.4-6.1c1.4-0.7,2.9-1.4,4.3-2.1c1.5-0.8,2.9-1.8,4.4-2.4
		c3-1.2,6.2-2.2,9.2-3.3c3.8-1.4,7.6-2.9,11.4-4.3c5.4-2,10.6-4.2,15.2-7.8c3.6-2.9,4.6-6.9,4.3-11c-0.3-3.8-3-6.3-6.3-8
		c-2.1-1.1-4.5-1.5-6.9-1.4c-5.1,0-9.8,1.4-14.1,4c-4.3,2.6-8.3,5.5-12.4,8.3c-3.1,2.1-6.2,4.3-9.4,6.5c-3.2,2.2-6.8,3.7-10.6,4.6
		c-3.6,0.9-7.2,1.4-10.3,3.9c-2.4,1.9-4.7,3.5-6.1,6.3c-0.3,0.6-0.5,1.5-0.3,2.2c0.4,1.6,2.3,2.7,4,2.7c0.4,0,0.9,0.4,1.3,0.7
		c-0.2,0.3-0.4,0.9-0.7,1c-1.3,0.3-2.6,0.7-3.9,0.5c-1.1-0.1-1.8-0.1-2.4,0.9c-1,1.9-2.8,2.9-4.8,3.4c-0.4,0.1-1-0.3-1.6-0.5
		c0.2-0.4,0.3-1.1,0.7-1.3c1.9-1.3,2.8-3.2,2.8-5.4c0.1-4.8,2.2-8.5,5.9-11.4c0.8-0.6,0.8-1.2,0.1-1.8c-2.3-1.8-2.6-5.1-0.7-7.3
		c1.7-2,3.5-3.8,5.1-5.8c2.4-2.8,4.7-5.6,7.1-8.5c2-2.5,4.4-4.6,7.4-5.9c3.8-1.7,7.9-2.5,12-3.4c1-0.2,2.1-0.3,3.1-0.7
		c5.1-2.1,10.2-4.2,15.3-6.4c0.8-0.3,1.7-0.6,2.6-0.9c3-0.8,6-0.8,9.1-1.1c3.2-0.3,6.3,0.3,9.2,1.2c3.3,1,6.4,2.5,9.5,3.8
		c0.6,0.2,1.2,0.5,1.6,0.9c4.4,3.5,7.7,8,9.5,13.4c0.3,1,0.9,2,0.9,3c0.1,3.2,0.2,6.4,0,9.6c-0.2,2.3-0.7,4.5-1.9,6.5
		c-1.9,3.4-5,5.8-7.7,8.5c-0.8,0.7-1.6,1.4-2.6,1.9c-3,1.8-6,3.5-9.1,5.2c-1.9,1-3.7,2.1-5.7,2.9c-4.7,1.9-9.5,3.5-14.1,5.5
		c-5,2.2-9.9,4.6-14.8,7c-2.3,1.1-4.2,2.6-5.6,4.8c-0.7,1.2-0.7,2,0.2,3c1.1,1.2,2.2,2.5,3.4,3.7c2.8,2.7,5.6,5.3,8.4,7.9
		c1.8,1.7,2.1,1.7,4.2,0.3c3.2-2.2,6.8-3.3,10.6-3.3c3,0,5.9,0.4,8.9,0.7c1.2,0.1,2.5,0.1,3.4,0.6c2.2,1.2,4.4,2.6,6.4,4.3
		c1.7,1.5,3.4,3.2,4.6,5.1c2.6,4.1,3.2,8.9,3.4,13.7c0.2,3.2-0.1,6.4-0.6,9.6c-0.5,3.7-1.9,6.9-3.8,10c-1.9,3.1-4.6,5.6-7.6,7.6
		c-1,0.7-2.1,1.3-3.1,1.9c-1.2,0.6-2.5,1-3.7,1.5c0,0.2,0,0.3,0,0.5c0.8,0.1,1.6,0.3,2.4,0.3c3.2,0,6.5-0.1,9.7,0
		c3.2,0.1,6.3-0.4,9.5,0.1c2.4,0.4,4.8-0.1,7.2-0.1c1.4,0,1.7-0.4,1.5-1.8c-0.1-0.5-0.3-1-0.5-1.4c-0.5-1.2-1.1-2.4-1.5-3.6
		c-0.8-2-1.6-4-2.3-6.1c-1.2-3.5-2.3-7-3.3-10.5c-0.9-3.2-1.8-6.4-2-9.8c-0.2-2.5-0.6-5-0.9-7.5c-0.1-1.6,0-3.2-0.1-4.8
		c0-1.8-0.2-3.6-0.2-5.4c0.1-2.9,0.5-5.8,0.6-8.7c0.1-2.9,0-5.8,0-8.7c0-0.7,0.3-1.5,0.4-2.2c0.1-0.6,0.1-1.2,0.1-1.8
		c0-0.8-0.1-1.6,0-2.4c0.3-1.9,0.7-3.9,1-5.8c0.4-2.3,0.6-4.5,1.1-6.8c0.5-2.3,1.3-4.5,1.7-6.9c0.6-3.3,1.7-6.3,3.3-9.2
		c1.6-2.9,3.3-5.7,5.1-8.5c1.9-2.9,3.6-5.9,6.2-8.3c2-1.8,3.7-3.8,5.7-5.7c1.8-1.7,3.6-3.5,5.6-5c1.6-1.3,3.5-2.3,5.3-3.4
		c3.1-2,6.4-3.3,9.9-4.3c0.3-0.1,0.7-0.3,0.9-0.6c0.1-0.1-0.3-0.6-0.5-0.8c-0.2-0.2-0.6-0.4-0.9-0.6c-4.5-2.8-9.3-5.3-12.9-9.5
		c-2.5-3-5.2-5.9-7.8-8.9c-1.1-1.2-1.9-2.6-2.9-4c-1.2-1.7-2.4-3.4-3.5-5.2c-1.1-1.9-2-3.9-3.3-5.7c-1.1-1.6-2.3-3.3-3.9-4.2
		c-4.6-2.6-9.3-1.9-13.3,1.1c-3.8,2.8-7.2,6.1-10.8,9.2c-2.3,2-4.6,4.2-7,6.2c-3.5,3-7.1,6-10.6,9c-2.9,2.4-5.8,5-8.8,7.2
		c-4.3,3.2-8.8,6.2-13.6,8.5c-2.3,1.1-4.5,2.2-6.9,3.1c-3.2,1.2-6.4,2.1-9.6,3.1c-3,0.9-6.1,1.5-9.3,1.3c-1.1-0.1-2.2,0.1-3.3,0.2
		c-0.4,0-0.8,0.4-1,0.3c-0.8-0.4-1.4-0.1-1.8,0.5c-0.3,0.4-0.5,1-0.9,1.2c-1.9,0.9-2.7,2.9-4.2,4.3c-2.2,1.9-4.3,3.6-7,4.7
		c-1.3,0.5-1.6,1.4-1.6,2.6c0,2.6,0,5.1,0,7.7c0,17.5,0,35,0,52.4C309.8,321.4,310.3,321.7,311.8,321.7z"/>
	<path id="XMLID_216_" d="M265.9,257.4c0.2,0,0.3,0,0.5,0c0.4-0.2,0.9-0.4,1.3-0.6c-0.2-0.4-0.3-1-0.6-1.3c-0.8-0.6-1.7-1-2.6-1.4
		c-0.9-0.3-1.6,0.4-1.4,1.2C263.5,256.6,264.5,257.4,265.9,257.4z"/>
	<path id="XMLID_217_" d="M249.8,300.2c0.5,0,1-0.2,1.4-0.5c0.7-0.4,0.7-1.1,0-1.4c-0.5-0.2-1.1-0.2-1.9-0.4
		c-0.8,0.2-1.9,0.3-2.7,0.9c-1.9,1.6-3.6,3.3-5.4,5.1c-0.2,0.2-0.2,1,0,1.1c0.3,0.2,1,0.2,1.3,0c0.8-0.5,1.5-1.2,2.2-1.8
		C246.2,301.9,247.5,300.2,249.8,300.2z"/>
	<path id="XMLID_218_" d="M243.6,308.8c0.3-0.1,0.5-0.2,0.7-0.2c1.5-0.4,2.6-1.4,3.7-2.5c1.7-1.6,3.5-2.8,6-2.7c0.5,0,1-0.5,1.6-0.7
		c-0.5-0.4-0.9-0.8-1.4-1.1c-0.1-0.1-0.3,0-0.5,0c-2.1-0.1-3.9,0.6-5.5,2c-1.5,1.2-3.1,2.2-4.6,3.4c-0.4,0.3-0.6,0.8-0.7,1.3
		C242.8,308.3,243.4,308.6,243.6,308.8z"/>
	<path id="XMLID_221_" d="M198.3,283.6c0.7,2.9,1.3,5.8,1.8,8.8c0.4,2.4,0.7,4.9,1,7.3c0.3,2.6,0.5,5.1,0.7,7.7
		c0.1,0.8,0.3,1.2,0.9,1.1c-0.2,0.4-0.5,0.8-0.7,1.3c-1,3.9,0.6,7.8,0.1,11.8c0,0,0,0.1,0,0.1c0.1,2.1,0.3,4.1,0.2,6.2
		c-0.2,4.4-0.5,8.7-0.9,13.1c-0.1,1.4-0.5,2.9-0.8,4.3c-0.3,1.3-0.8,2.5-1,3.7c-1,4.3-1.8,8.6-3.5,12.7c-1.5,3.7-2.8,7.4-4.2,11.2
		c-0.6,1.7-0.1,2.4,1.7,2.4c1.9,0,3.9,0,5.8,0c1.2,0,2-0.8,1.6-1.9c-0.7-2.2,0.2-4.1,1.3-5.8c2.5-4,3.4-8.3,3.5-13
		c0.1-3.7-0.4-7.3-1-10.9c-0.3-2.2,0.4-3.4,2.6-4c0.5-0.1,1-0.2,1.5-0.4c1.7-0.6,3.1-3,2.6-4.6c-0.3-1-0.8-2-1.4-3
		c-1.9-3.1-3.2-6.4-4-9.9c-0.5-1.9-0.2-3.9-0.2-5.9c0-0.2,0.2-0.3,0.2-0.5c0.1-1.8,2.6-3.4,0.6-5.5c0,0,0-0.1,0-0.1
		c-0.3-1-0.6-1.9-0.9-2.9c-0.4-1.4-1.1-2.8-1.3-4.2c-0.2-1.4-0.1-2.9,0-4.4c0-0.3,0-0.6,0.1-0.8c0.9-2.7,1.8-5.3,2.6-8
		c1.4-4.6,3.3-9.1,4.2-13.9c0.8-4.5,2.2-8.9,3.1-13.4c0.5-2.3,0.2-4.7,0.6-7c0.7-4-0.3-7.6-2-11.1c-0.5-1-1.2-1.6-2.2-1.9
		c-1.2-0.4-2,0-2.2,1.3c-0.1,1.1-0.1,2.3,0.2,3.4c1.1,3.5,2.6,6.8,2.3,10.6c-0.1,2.1,0,4.2,0,6.3c0,0.2,0,0.3,0,0.5
		c-1.2,3.5-3,6.7-6.1,8.9c-0.4,0.3-1,0.1-1.6,0.1c0-0.6-0.1-1.2,0.1-1.6c0.9-1.6,1.9-3.1,2.8-4.6c2.3-4,2-8.5,1.5-12.8
		c-0.3-2.9-1.6-5.6-2.1-8.5c-0.3-1.6,0.1-3.4,0.1-5.1c0-0.5-0.3-1-0.4-1.5c-0.5,0.2-1.1,0.3-1.3,0.7c-1.4,2.3-1.2,4.8-0.7,7.2
		c0.6,2.7,1.7,5.2,1.9,8c0.2,3.3,0.2,6.6-0.6,9.8c-0.5,2.1-1.4,4.1-3.1,5.6c-0.3,0.3-1,0.2-1.5,0.3c0-0.5-0.2-1-0.1-1.5
		c0.1-0.4,0.5-0.6,0.7-1c0.7-2,1.9-4,2-6c0.1-3.1-0.3-6.3-1.6-9.3c-0.4-0.9-0.7-1.9-0.7-2.8c-0.1-3.1,0-6.1,0.1-9.2
		c0-0.5,0.3-1.1,0.6-1.5c1-1.3,2.1-2.6,3.2-3.9c0,0,0-0.1-0.1-0.1c-2.3-0.7-5.2,1.8-4.9,4.2c0.1,0.4-0.1,0.9-0.3,1.3
		c-0.2,0.5-0.5,1-0.7,1.5c-1.1,2.3-0.3,4.6-0.1,6.9c0.2,2.3,0.7,4.5,1.2,6.8c0.4,1.9,0,3.6-1.2,5c-0.6,0.7-1.4,1.3-2.3,0.7
		c-0.9-0.7,0-1.4,0.4-2c1.7-2.3,1.8-4.9,0.3-7.2c-1.4-2.1-2.8-4.3-4.1-6.4c-0.1-0.1-0.1-0.2-0.1-0.3c-0.3-3.3-0.3-6.4,2-9.3
		c2-2.5,3.7-5,7.4-5.5c3.9-0.5,9,1.6,11.3,4.8c1.9,2.6,2.8,5.5,4,8.4c1.6,3.6,1.2,7.5,1.7,11.2c0.6,5.6-0.6,11-1.6,16.4
		c-0.8,4.8-2.3,9.5-3.7,14.2c-1.3,4.4-1.4,8.9-2.1,13.3c-0.3,1.8,0.6,3.3,1.4,4.8c0.8,1.6,3.9,3.2,5.2,2.8c2-0.5,3.7-1.5,4.6-3.4
		c0.9-1.9,2.2-3.7,2.2-5.9c0-0.1,0.1-0.3,0.2-0.4c0.3-0.6,0.6-1.1,0.8-1.7c0.3-0.6,0.5-1.2,0.7-1.7c0.6-1.3,1.4-2.5,1.8-3.8
		c0.6-1.8,1.8-3.1,3.1-4.4c1.1-1.1,2.6-1.8,3.6-3c2.6-2.9,3.1-6.5,3.4-10.2c0.1-1.2,0.3-2.5,0.7-3.6c0.9-2.4,3-3.4,5.1-2.5
		c-0.5,0.7-1.1,1.3-1.6,1.9c-0.8,1.1-2.3,1.9-2.4,3.4c-0.1,2.1-0.2,4.2-0.2,6.3c0,1.6,0,3.2,0,4.7c-0.1,2.9-1.6,4.4-4.5,4.5
		c-2.2,0.1-4.4,1.5-5.1,3.7c0.6,0,1.1,0,1.6-0.1c0.4-0.1,0.8-0.6,1.3-0.6c2.8,0,5.7,0,8.5,0.1c1.4,0.1,2.7,0.1,3.8-0.9
		c1.2-1,1.2-1.1,2.3,0.1c0.2,0.3,0.5,0.5,0.8,0.8c0.7,0.6,1.4,0.7,2.1,0.1c0.7-0.6,1.4-1.2,2.1-1.8c0.9-0.7,1.4-0.5,1.8,0.5
		c0.3,0.7,0.4,1.4,0.6,2.2c0.4,1.5,0.7,3.1,1.2,4.5c0.5,1.3,2.1,1.8,3,0.9c0.9-0.9,1.9-1.9,2.4-3.1c0.7-1.7,0.9-3.5,1.3-5.2
		c0.2-1,0.8-1.4,1.8-1.3c1.1,0.1,2.1,0,3.2,0.2c1.5,0.2,3.2-0.6,4.6,0.9c0.6,0.6,1.3,0.3,1.7-0.5c0.2-0.5,0.3-1.1,0.6-1.7
		c2.1-4.3,4-8.7,7.5-12.1c0.5-0.5,1.3-0.9,1.9-1c1.8-0.1,3.7-0.1,5.5,0c2.1,0,3.5,1.4,3.5,3.5c0,0.6,0,1.1,0,1.7
		c0,2-1.1,2.9-3.1,2.6c-0.5-0.1-1,0.2-1.6,0.3c0.1,0.5,0.2,1,0.4,1.4c0.1,0.3,0.4,0.6,0.6,0.9c1,1.3,0.6,2.6,0,3.9
		c-0.4,0.8-0.9,1.5-1.5,2.1c-1.4,1.6-2.6,3.3-2.5,5.5c0,0.4-0.2,1-0.5,1.3c-0.3,0.3-1,0.8-1.2,0.7c-0.5-0.3-1.2-0.7-1-1.6
		c0.4-1.5,0.3-3.1,1.2-4.5c0.5-0.9,0.7-2.1-0.3-3.1c-1.1,0.9-1.5,2-1.6,3.3c-0.1,1.3-0.2,2.7-0.6,4c-0.6,1.9-2,3.5-1.4,5.7
		c0,0.2-0.4,0.7-0.7,0.7c-0.4,0-1-0.2-1.1-0.5c-0.3-1.1-0.5-2.3-0.8-3.5c-0.1-0.5-0.2-1.1-0.3-1.6c-0.5,0.2-1,0.4-1.3,0.7
		c-2.6,2.6-4.6,3-7.9,1.3c-1.4-0.7-1.8-0.5-1.8,1.1c0.1,4.6,3.1,7.4,6.4,10c1.7,1.3,3.4,2.6,5.2,3.7c2,1.2,4.2,2.2,6.4,3
		c1.7,0.6,3.6,0.7,5.4,1c1.6,0.3,2.3,1.1,2.3,2.7c0,0.4,0,0.8,0,1.2c0,0.9,0.4,1.4,1.3,1.4c1.8,0,3.7,0,5.5,0c0.7,0,1.3-0.2,1.3-1.1
		c0-1.2,0-2.4,0-3.5c0-7.6,0.1-15.2,0.1-22.8c0-11.3-0.1-22.6,0-33.9c0-2.2-0.8-3.3-2.6-4c-3.7-1.5-6.3-4.3-8.9-7.2
		c-1.7-2-3.5-3.8-6.5-3.4c-1,0.1-2,0-3,0c-3.2,0.1-6.2-0.8-9.3-1.7c-1.5-0.5-3-0.8-4.4-1.3c-1.7-0.7-3.7-1-5.3-1.8
		c-4.1-2-8.1-4.1-12-6.3c-2.2-1.2-4.4-2.6-6.5-4.1c-2.7-2-5.2-4.2-7.8-6.3c-2.2-1.8-4.6-3.6-6.6-5.6c-2-2.1-4.6-3.5-6.7-5.5
		c-3.8-3.8-7.8-7.3-11.8-10.8c-3.2-2.7-6.2-5.8-10.7-6.5c-3.6-0.6-6.8,0-9.4,2.6c-2.9,3-4.8,6.7-6.8,10.2c-1.3,2.3-2.7,4.5-4.3,6.5
		c-2.6,3.3-5.4,6.4-8.2,9.5c-1.4,1.5-2.8,3-4.5,4.1c-3.1,2.1-6.3,4-9.5,6c-0.3,0.2-0.7,0.7-0.6,1c0.1,0.3,0.6,0.6,1,0.7
		c1.8,0.6,3.7,1.1,5.4,1.8c1.8,0.8,3.6,1.7,5.2,2.8c2.7,1.8,5.5,3.7,8,5.9c2.5,2.2,4.8,4.8,7.2,7.1c0.6,0.6,1.4,1,1.9,1.6
		c0.8,0.9,1.5,1.8,2.2,2.7c0.4,0.5,1.1,1,1.2,1.6c0.7,2.9,2.6,5,4.2,7.4C195.1,272.5,197,277.9,198.3,283.6z M224.4,261.3
		c2.3-0.1,3.5-1.9,5-3.2c2-1.5,3.7-3.4,5.8-4.7c2.2-1.4,4.7-2.5,7.3-0.5c0.5,0.4,1.3,0.7,2,0.7c1,0,1.9-0.2,2.8-0.5
		c0.4-0.1,0.8-0.9,0.7-1.2c-0.1-0.4-0.9-0.9-1.2-0.8c-2.9,0.6-5.2-0.8-7.6-2.1c-1.7-0.9-3.1-0.3-4.5,1.4c-1.5,1.8-3.1,3.4-4.8,5
		c-1.4,1.3-5.1,0.7-6.1-0.9c-0.5-0.7-0.2-1.8,0.7-1.7c2.6,0.3,4-1.5,5.6-2.8c1.5-1.2,2.7-2.7,4.1-4c2.1-2.1,4.6-3.2,7.5-2
		c1.1,0.5,1.9,1.7,2.9,2.6c0.8,0.8,1.6,1.7,2.5,2.3c0.4,0.3,1.1,0.4,1.6,0.2c0.8-0.3,0.6-1,0.1-1.4c-2.1-2-4.1-4-6.3-5.9
		c-1.1-1-2.5-0.9-3.8-0.5c-2,0.6-3.9,1.5-5.9,1.8c-1.1,0.2-2.3-0.6-3.5-1c-0.1-0.1-0.2-0.8-0.1-0.9c0.3-0.3,0.9-0.7,1.2-0.6
		c1.4,0.5,2.5-0.1,3.7-0.7c2.3-1.2,4.6-2.2,7-3.3c1.8-0.8,3.4-0.3,4.5,1.4c1.1,1.7,2.1,3.4,3.1,5.2c1.2,2.1,2.8,3.8,5.2,4.3
		c1.9,0.3,3.9,0.2,5.8,0.4c1.1,0.1,2.1,0.5,3.1,0.9c1.8,0.8,2.7,2.7,4.2,3.9c1.6,1.3,2.9,2.9,4.4,4.3c0.7,0.7,1.5,1.3,2.4,1.7
		c4.5,1.8,5.4,5.3,3.4,9.7c-0.6,1.3-1.6,2.4-2.5,3.5c-0.3,0.3-1.2,0.4-1.7,0.2c-0.4-0.2-0.8-1-0.8-1.5c0-1.3-0.2-2.3-1.6-2.7
		c-1.4-0.4-3.5,1.2-3.5,2.6c0,1.4-0.4,3,1,3.9c0.7,0.5,1.7,0.8,2.5,1c0.8,0.2,1.6,0,2.4,0c2.1,0,3,1,2.4,3.1
		c-0.4,1.3-0.8,2.5-1.3,3.8c-0.6,1.7-1.9,2.6-3.6,2.6c-1.8,0.1-3.5-0.2-5.3-0.4c-2.2-0.3-3.2-1.9-4-3.8c-0.3-0.8-0.4-1.8-0.8-2.6
		c-0.2-0.5-0.8-0.7-1.2-1.1c-0.2,0.4-0.7,0.9-0.6,1.3c0.3,1.4,0.6,3,1.4,4.2c1.6,2.4,1.2,4.8,0.8,7.3c-0.2,1.4-0.6,2.7-1.1,4
		c-0.1,0.3-0.7,0.5-1,0.7c-0.2-0.4-0.7-0.8-0.7-1.1c0.7-2.9-0.6-5.2-2.1-7.4c-0.8-1.1-1.1-2.3-1.1-3.7c-0.1-2.7,0.2-5.2,1.7-7.5
		c0.2-0.4,0.1-1.3-0.2-1.5c-0.3-0.3-1.2-0.3-1.6-0.1c-1.4,0.9-2.4,2.1-2.3,4c0.1,2,0.3,4,0.2,6c-0.1,1.4-0.7,2.7-1.2,4
		c-0.1,0.4-0.9,0.7-1.3,0.6c-0.3-0.1-0.6-0.8-0.8-1.3c-0.1-0.3,0.2-0.7,0.2-1c0-1.3,0.1-2.6-0.1-3.8c-0.2-1.8-0.6-3.5-0.9-5.2
		c-0.3-1.8,0.7-3.1,2.1-4.1c0.6-0.4,1.2-0.9,1.7-1.5c0.2-0.3,0.3-0.9,0.1-1.2c-0.1-0.2-0.7-0.3-1.1-0.2c-2.6,0.6-5.1,3.7-5,6.5
		c0.1,2.1,0.4,4.2,0.7,6.3c0.6,4-2.5,6-5.4,6.3c-0.3,0-0.8-0.2-1-0.5c-0.1-0.2,0-0.8,0.3-1c2.2-2.1,2.2-4.7,1.9-7.5
		c-0.2-2.3-0.9-4.6-0.2-7c0.5-1.6,1.6-2.5,2.6-3.6c0.7-0.8,1.6-1.5,2.4-2.3c0,0.1,0.1,0.1,0.1,0.2c0.6-0.2,1.3-0.2,1.7-0.6
		c0.3-0.2,0.3-1.2,0.1-1.4c-0.4-0.3-1.1-0.4-1.7-0.5c-1,0-2.1,0.1-3.1,0.1c-1.3,0-2.6-0.4-3.9-0.2c-0.8,0.1-1.6,0.8-2.2,1.5
		c-1.8,1.8-2.6,4-2.5,6.7c0.1,3.5-1.1,6.7-3.3,9.4c-0.3,0.3-0.6,0.6-0.9,0.9c-0.6,0.5-1.2,0.7-1.8,0c-0.5-0.6-1-1.2-0.1-2
		c1.6-1.5,2.5-3.4,2.4-5.7c-0.1-1.9-0.2-4,0.2-5.8c0.8-3.7,3.1-6.4,6.6-7.7c1.4-0.5,3-0.2,4.6-0.1c1.5,0.1,2.9,0.3,4.5,0.4
		c0.2-1.5-0.7-2.3-1.5-2.6c-2.1-0.9-4.4-1.5-6.6-0.7c-1.5,0.5-2.8,1.6-4.1,2.5c-1.2,0.9-2.2,2.2-3.5,3c-2.8,1.5-5.8,1.7-8.7,0.4
		c-0.5-0.2-0.9-1.1-1.1-1.7C223,262.1,223.9,261.4,224.4,261.3z M222,279.3c1.7-1.7,2.4-3.8,2.9-6.1c0.3-1.6,1.1-3.2,1.9-4.7
		c0.6-1.2,1.7-1.8,3.1-1.9c1-0.1,1.3,0.6,1.1,1.5c-0.3,1-0.4,2-0.5,3c-0.1,1.7,0,3.4-0.3,5.1c-0.1,0.8-0.8,1.6-1.4,2.3
		c-1.5,1.7-3.4,2.6-6,3c-0.3-0.2-0.9-0.4-1-0.7C221.6,280.5,221.7,279.7,222,279.3z"/>
	<path id="XMLID_223_" d="M246.2,502c0.1-0.8,0.4-1.7-0.5-1.9c-0.4-0.1-1.2,0.9-1.5,1.5c-1,2.2-1.2,4.6-1.1,7c0.1,1.7,0.4,3.3,0.3,5
		c-0.1,2,1.2,3.4,2.2,4.8c0.2,0.3,0.8,0.3,1.2,0.5c0.1-0.4,0.3-0.9,0.2-1.3c-0.6-2.9-1.3-5.7-1.9-8.6c-0.1-0.3,0-0.6,0-0.8
		C245.6,506,245.9,504,246.2,502z"/>
	<path id="XMLID_226_" d="M334.4,435.7c1.3,0,2.6,0.3,3.8,0.6c3.3,0.9,5.6,3.4,8.3,5.4c1.7,1.3,3.2,3,4.8,4.5
		c0.8,0.8,1.4,0.7,2.1-0.2c0.1-0.2,0.2-0.5,0.4-0.6c2.5-1,3.4-3.7,5.6-5.2c1.8-1.2,3-3.1,4.7-4.6c2-1.7,3.8-3.8,5.7-5.6
		c0.7-0.6,1.1-1.4,0.3-2.1c-1.3-1.2-2.7-2.4-4-3.6c-1-1-2.2-1.9-3-3c-1-1.3-1.9-2.2-3.7-2c-0.9,0.1-1.7-1.2-1.1-1.8
		c1.2-1.2,1.1-2.2,0.2-3.4c-0.1-0.2-0.2-0.4-0.2-0.6c-0.4-2-0.8-2.2-2.7-1.8c-0.4,0.1-1-0.1-1.2-0.3c-0.2-0.3-0.3-1-0.2-1.3
		c0.4-0.6,0.9-1.1,1.4-1.5c0.9-0.7,1.5-1.5,1.4-2.8c-0.1-5.6,0-11.2,0-16.8c0-6.8,0-13.6,0-20.4c0-1.5-0.2-3.1-0.2-4.6
		c0-2.4,0.2-4.9,0.2-7.3c-0.1-3.7,0.1-7.4,2-10.6c1.7-2.9,3.9-5.4,6.2-7.9c1.5-1.7,3.4-3,5.1-4.5c1-0.9,1.1-1.5,0.3-2.3
		c-1.9-1.8-3.8-3.7-5.7-5.5c-2.3-2.1-4.6-4.2-6.8-6.4c-1.4-1.3-2.7-2.7-4.1-4.1c-1.1-1.1-1.7-1.1-2.9-0.2c-1.1,0.9-2.1,1.8-3.2,2.6
		c-2.7,2.1-5.5,4.3-8.3,6.4c-1.3,1-2.8,1.5-4.5,1.3c-1-0.1-1.9-0.1-2.9-0.1c-2.7,0.1-5.5,0.5-8.2,0.1c-1.6-0.2-3.3,0.9-4.8-0.3
		c-0.1-0.1-0.4,0-0.6,0c-0.7,0.1-1.4,0.2-2.1,0.2c-4.9,0-9.8,0-14.7,0c-8.9,0-17.8,0-26.6,0c-1.1,0-2.4-0.3-3.4-0.8
		c-4.8-2.3-8.3-6.4-12.6-9.4c-1.2-0.8-1.5-1-2.5,0c-2.8,2.7-5.5,5.3-8.3,8c-2.8,2.7-5.7,5.5-8.6,8.2c-0.7,0.7-0.8,1.3,0,1.9
		c1.3,1.2,2.6,2.4,4,3.5c1.1,0.8,1.6,2.4,3.3,2.4c0.1,0,0.1,0.3,0.2,0.4c0.7,1,1.4,2.1,2.1,3.1c1.4,1.8,3.1,3.5,3.5,5.8
		c0.4,2.3,0.2,4.7,0.2,7.1c0,6.7-0.1,13.4-0.1,20.1c0,3.7,0.2,7.4,0.1,11.1c-0.2,4.6,0.3,9.3,0,13.9c-0.1,1.6,0.3,3.1,0.3,4.7
		c0,1.6-0.1,3.2-0.2,4.9c0,0.7,0,1.4-0.1,2.1c-0.6,2.8-2,5.1-4,7.2c-2.7,2.7-5.4,5.4-8.1,8.1c-1.1,1-1.1,1.4,0,2.4
		c0.9,0.9,2,1.6,2.9,2.5c4,3.9,8,7.9,12,11.9c2.3,2.3,2.6,2.1,4.5,0.4c0.1-0.1,0.1-0.1,0.2-0.1c2.6-2.1,5.3-4.3,7.9-6.4
		c1.6-1.2,3.1-2.6,5.3-2.7c2.7,0,5.4-0.1,8,0c2.6,0.1,5.2-0.4,7.9,0c2,0.3,4-0.3,6,0c1.4,0.2,2.8,0,4.2,0
		C311.5,435.6,322.9,435.6,334.4,435.7z M314,420.5c0.1-0.7,0.5-1.3,0.8-1.9c0.6,0.3,1.3,0.4,1.7,0.9c2.6,2.5,3.6,2.5,4.8-1
		c1.4-4.2,2.5-8.7,2.7-13.1c0.4-8.6,0.1-17.3,0.1-26.7c-3,0.5-5.5,0.8-8,1.4c-3.2,0.8-6.3,2.3-9.5,2.8c-1.9,0.3-4.1-0.7-6.1-1.2
		c-3.6-0.9-7.1-2.1-10.7-3c-1.3-0.3-2.3,0.1-2.3,1.8c0.3,11,0.4,22.1,1,33.1c0.2,2.8,1.8,5.6,3,8.3c0.8,1.7,2.1,1.9,3.7,0.8
		c1.1-0.8,2.3-1.3,3.6-1.9c0.9,3.4-0.6,5.6-3.5,5.8c-1.7,0.1-3.4,0.2-5.1,0.2c-4.8-0.1-9.4,0.8-14,1.8c-2.9,0.6-6.1-0.3-9.2-0.6
		c-0.5-0.1-1.4-0.9-1.3-1.3c0.1-0.6,0.7-1.4,1.3-1.7c5-2.1,7-6.3,7.1-11.2c0.2-8.8-0.1-17.6-0.2-26.5c0-0.7-0.1-1.4-0.1-2
		c-0.2-4.1-0.5-4.4-4.5-2.8c-2,0.8-3.9,1.7-5.8,2.5c-0.2-0.3-0.5-0.7-0.7-1c1.1-1.3,1.9-3.1,3.3-3.9c7.1-4,7.9-10.6,7.5-17.6
		c-0.4-7.9-1.7-15.7-6-22.6c-2-3.3-2.3-3.4-4.8-0.6c-0.3,0.4-0.6,0.9-1.1,1.1c-0.6,0.2-1.4,0.2-1.9,0c-0.3-0.1-0.4-1.1-0.3-1.6
		c0.7-2.9,3.4-4.9,6.4-4.6c3,0.4,6,1.1,9,1.7c4,0.8,7.9,0.4,11.7-1.3c2-0.9,4.2-1.3,6.3-1.6c1.9-0.3,3.4,0.7,3.4,2.5
		c0,2.5-0.5,5.1-1,7.6c-0.1,0.5-1.1,1.2-1.7,1.2c-0.5,0-1-0.9-1.3-1.6c-0.4-1.1-0.6-2.2-1-3.8c-2.7,1.7-3.8,3.9-4.1,6.3
		c-0.7,6.9-1,13.8-1.5,21.4c2.8-0.7,4.8-1,6.7-1.7c3.5-1.3,7-2.6,10.4-4.1c2.1-1,3.4-0.4,4.7,1.4c2.9,4.4,7,7.1,12.2,8.1
		c2.8,0.5,3.3,0.2,3.3-2.5c-0.1-7.1,0-14.2-0.6-21.3c-0.2-2.5-2-5-3.5-7.1c-1.1-1.6-2.8-1.8-4.1,0.3c-0.4,0.7-1.3,1.1-2.1,1.7
		c-1.5-5.3,1.3-8.8,6.2-8.1c2,0.3,4,0.8,6,1.1c3.7,0.7,7.2,0.5,10.8-0.8c1.3-0.5,2.8-0.9,4.2-1.1c3.3-0.5,4.9,0.2,6.4,3.2
		c1.4,2.7,1.3,5.7,0.4,9.3c-2.2-1.9-4-3.4-6.1-5.2c-4.5,10.3-4,20.7-2.5,31.3c2.2,0.5,4.3,0.6,5.2-1.3c0.6-1.4,0.1-3.3-0.1-5
		c-0.1-1-0.6-2-1.1-3.3c3.2-0.3,5,1.3,6.6,3.2c1.6,2,1.3,4.1,0.3,6.2c-1.5,3.2-4.4,4.9-7.6,5.9c-2.5,0.8-3.3,2.2-3.2,4.7
		c0.2,8.8,0.2,17.6,0.6,26.4c0.2,4.3,1.5,8.5,4.1,12.1c0.8,1.1,1.9,2.1,3,3.4c1-1.1,1.6-2,2.5-2.8c0.4-0.4,1.2-0.6,1.8-0.5
		c0.3,0,0.6,1.1,0.5,1.5c-0.4,1.2-0.7,2.6-1.5,3.3c-3.2,2.7-9.5,3.8-13.2,0.7c-2-1.7-3.7-2.3-6.3-0.7c-4,2.5-8.4,2-12.8,0.4
		C314.7,424.6,313.7,423,314,420.5z"/>
	<path id="XMLID_227_" d="M360.9,411.6c0,1.8,1.8,3.3,3.1,2.6c2.2-1.3,4.5-2.6,6.7-4c0.4-0.2,0.5-0.8,0.8-1.3
		c-0.5-0.2-1.1-0.5-1.5-0.5c-2.4,0.4-4.7,0.8-7,1.3C362,410,360.8,410.1,360.9,411.6z"/>
	<path id="XMLID_228_" d="M369.5,416.9c-0.8,0.4-1.7,0.7-2.5,1c-1,0.4-1.2,1.2-0.5,1.9c1,1,2,2,3,2.9c0.3,0.3,1,0.5,1.3,0.4
		c0.3-0.2,0.6-0.8,0.6-1.3c0-1.2-0.1-2.4-0.2-3.6C371.5,416.6,371,416.3,369.5,416.9z"/>
	<path id="XMLID_229_" d="M369,405.4c1.3-0.7,2.6-1.5,3.9-2.3c0.3-0.2,0.4-0.9,0.3-1.1c-0.3-0.3-0.8-0.5-1.2-0.5
		c-1.6,0.3-2.9,1-3.9,2.3c-0.2,0.3-0.4,0.7-0.3,0.9C367.9,405.1,368.4,405.2,369,405.4z"/>
	<path id="XMLID_230_" d="M359.6,538.1c-3.5-0.9-5.6-3.6-7.6-6.3c-3.5-4.8-5.8-10.1-8.1-15.5c-2-4.7-3.6-9.5-5.3-14.3
		c-0.5-1.4-0.8-2.8-1.2-4.2c-0.1-0.3,0-0.8,0.2-1c0.7-1,1.5-1.9,2.3-2.9c0.6-0.8,1.3-0.7,1.9,0.1c0.3,0.3,0.4,0.7,0.6,1.1
		c2.1,5.7,4.3,11.4,7.2,16.8c1,1.8,2,3.7,3.2,5.4c1.9,2.5,3.9,4.9,6,7.2c2.2,2.4,4.7,4.3,8.3,3.7c0.4-0.1,0.8-0.5,1.2-0.8
		c-0.2-0.4-0.4-0.8-0.8-1c-0.5-0.3-1.1-0.5-1.7-0.5c-1.7-0.2-3.1-0.8-4.3-2.1c-2.2-2.5-4.5-4.9-6.5-7.6c-3.2-4.3-5.4-9.1-7.6-13.9
		c-1.2-2.6-2.1-5.4-3-8.1c-0.1-0.4-0.1-1.1,0.1-1.4c1.2-1.6,2.4-3.1,2.6-5.2c0-0.2,0.4-0.6,0.6-0.6c0.3,0,0.7,0.2,0.8,0.5
		c0.4,0.6,0.6,1.3,0.9,1.9c1.7,3.1,3.5,6.2,5.2,9.3c0.9,1.5,1.8,3,2.7,4.5c0.8,1.2,1.7,2.4,2.5,3.6c0.7,1.1,1.2,2.3,2,3.3
		c1.5,2,3.1,3.9,4.9,5.7c1.1,1.1,2.4,1.9,3.7,2.7c0.3,0.2,1-0.1,1.6-0.2c-0.2-0.5-0.3-1-0.5-1.5c-0.1-0.2-0.3-0.2-0.5-0.4
		c-1.9-1.8-4-3.5-5.8-5.6c-1.6-1.9-2.9-4.2-4.3-6.3c-1.7-2.6-3.3-5.2-4.9-7.9c-1.6-2.8-3-5.6-4.6-8.4c-1.2-2.1-1.2-2.3,0.7-3.7
		c1-0.8,1.7-1.8,1.7-3.2c0-0.3,0.3-0.6,0.5-1c0.3,0.2,0.8,0.4,0.9,0.7c0.7,1.2,1.2,2.5,1.9,3.7c1.8,3.1,3.5,6.2,5.5,9.1
		c2.2,3.3,4.6,6.4,7.1,9.5c1.2,1.5,2.7,2.8,4.1,4.1c0.3,0.2,1,0.3,1.3,0.1c0.3-0.2,0.3-0.8,0.3-1.3c0-0.4-0.3-0.7-0.6-1
		c-1.3-1.5-2.6-3.1-4.1-4.5c-3-3.1-5.5-6.6-7.8-10.3c-1.8-3-3.3-6.1-5-9.1c-0.8-1.4-0.7-1.8,0.6-2.6c0.9-0.6,1.4-1.4,1.5-2.5
		c0-0.4,0.3-0.8,0.5-1.3c0.4,0.4,0.6,0.5,0.8,0.7c1.3,2,2.7,3.9,4,5.9c3.3,4.9,6.5,9.7,9.8,14.6c0.8,1.2,1.5,2.4,2.4,3.5
		c0.2,0.2,0.6,0.3,0.9,0.4c0.1-0.3,0.4-0.7,0.4-0.9c-0.1-0.7-0.3-1.4-0.6-2c-2.4-3.8-4.8-7.5-7.3-11.2c-2.7-3.9-5.4-7.8-8.1-11.7
		c-0.2-0.3,0-1.2,0.3-1.5c0.6-0.8,1.4-1.3,2.2-2c0.6-0.5,1.1-0.4,1.5,0.2c2.1,3.1,4.3,6.3,6.4,9.5c1.8,2.8,3.5,5.7,5.3,8.5
		c0.3,0.5,0.7,1.2,1.5,0.7c0.7-0.5,0.8-1.7,0.2-2.2c-1.2-1-2.1-2-2.7-3.6c-0.6-1.6-2-2.9-2.8-4.4c-2.1-3.9-4.8-7.4-7.5-11
		c-1-1.4-1-1.6,0.6-2.1c0.3-0.1,0.5-0.2,0.8-0.3c1.4-0.9,1.7-0.8,2.5,0.7c1,1.6,2,3.2,3,4.8c1.2,1.9,2.4,3.7,3.7,5.5
		c0.5,0.7,1.2,1.4,1.7,2.1c1.2,1.7,2.2,3.5,3.5,5.1c0.3,0.4,1.4,0.6,1.7,0.3c0.6-0.4,0.3-1.1-0.2-1.6c-1.9-2.5-3.8-4.9-5.6-7.5
		c-2.5-3.8-4.8-7.6-7.1-11.5c-0.2-0.4,0-1,0-1.6c0.4,0.3,1,0.5,1.3,1c0.4,0.7,0.6,1.6,1,2.2c2.1,3.5,4.3,7,6.5,10.4
		c0.9,1.3,2,2.4,2.9,3.8c0.9,1.3,2.6,1.8,3.2,3.3c0,0.1,0.2,0.2,0.3,0.2c0.4,0,1,0.2,1.1,0c0.2-0.3,0.3-0.9,0.2-1.3
		c-0.1-0.4-0.5-0.7-0.8-1c-0.9-0.8-1.9-1.5-2.6-2.4c-1.4-1.8-2.8-3.7-4-5.7c-1.5-2.4-3-4.8-4.4-7.3c-1.3-2.4-2.6-4.8-3.6-7.3
		c-0.8-1.9-1.1-3.9-1.6-5.9c-0.2-0.7-0.7-1.5-1.6-1.2c-0.9,0.3-0.6,1.2-0.5,1.8c0.2,0.9,0.7,1.8,0.7,2.7c0.1,1.8,0.3,3.6,0.1,5.3
		c-0.2,1.9-1.8,2.9-3.6,3c-1.2,0.1-1.8,0.7-1.9,2c-0.2,3-1.4,4.3-4.3,4.7c-1.1,0.2-1.7,0.7-1.7,1.9c0,0.3,0,0.6,0,0.8
		c-0.2,1.3-0.4,2.7-1.5,3.7c-0.9,0.9-1.9,0.3-2.9,0.1c-1.1-0.2-2,0.6-2.1,1.7c0,0.4,0,0.8,0,1.2c-0.1,2.4-1.8,3.8-4.2,3.3
		c-1.3-0.3-2.3,0.4-2.5,1.6c-0.2,1.2-0.4,2.5-0.8,3.7c-0.5,1.7-1.9,2.7-3.5,2.3c-1.3-0.3-2.1,0.2-2.8,1.2c-0.6,0.8-1.2,1.7-1.9,2.4
		c-1.7,1.7-2.6,1.6-4.1-0.4c-0.4-0.6-1.1-0.9-1.9-1.6c-0.1,0.8-0.1,1.2-0.1,1.5c0.2,2,0.3,3.9,0.7,5.9c0.6,3.6,1.2,7.2,2.2,10.6
		c1.3,4.5,2.9,9,4.5,13.5c1,2.8,2.2,5.6,3.5,8.4c1.5,3.1,3.1,6.2,4.9,9.2c1.4,2.2,3.1,4.1,4.8,6.1c0.5,0.6,1.3,0.9,2,0.3
		c0.6-0.7,0.2-1.3-0.3-2c-1.8-2.2-3.6-4.3-5.2-6.6c-4.2-6.3-6.5-13.6-9.3-20.5c-1.6-4.1-2.5-8.5-3.7-12.8c-0.6-2.1-0.9-4.3-1.2-6.5
		c-0.1-0.3,0.3-1,0.4-1c0.4,0,0.9,0.2,1.3,0.4c0.2,0.2,0.3,0.6,0.4,0.9c0.5,1.8,0.9,3.7,1.6,5.4c1.8,4.7,3.7,9.4,5.6,14.1
		c1.1,2.7,2.7,5.2,3.9,7.8c1.7,3.5,3.7,6.8,6.4,9.6c1.7,1.8,3.8,2.7,6.1,3.2c0.4,0.1,1.2-0.3,1.3-0.7
		C360.7,538.9,360.4,538.3,359.6,538.1z"/>
	<path id="XMLID_231_" d="M343.5,542.8c-1.1-1.7-2-3.6-3-5.4c-0.9-1.7-2-3.3-2.6-5.1c-0.6-1.8-1.8-3.3-2.3-5.1
		c-1.3-4.3-3-8.5-4.4-12.7c-1.1-3.4-2.1-6.9-3-10.4c-0.6-2.2-1-4.4-1.4-6.6c-0.3-1.7-0.9-3.4-0.9-5.1c-0.1-2.9,0.1-5.9,0.1-8.8
		c0-2.3-0.3-4.6-0.1-6.9c0.2-2.8,0.7-5.7,1-8.5c0.1-0.5-0.2-1.1,0-1.6c0.3-1.2,0.9-2.3,1-3.5c0.1-1.2,0.8-2.1,1.1-3.2
		c0.7-2.6,1.6-5.2,3.1-7.4c2.1-3,4.6-5.8,7.2-8.5c1.6-1.6,1-2.2-0.3-3.2c-0.3-0.2-0.6-0.4-0.9-0.5c-1.8-1-3.8-1.2-5.7-1.2
		c-6.4-0.1-12.7,0-19.1,0c-3.2,0-3.2,0-3.2,3.1c0,6.3,0,12.6,0,18.8c0,8.8,0,17.7,0,26.5c0,5.3,0,10.6,0,16
		c0.1,17.1,0.2,34.1,0.1,51.2c0,2.3,0.1,4.7-0.1,7.1c-0.2,3.3,0,6.6-0.1,9.8c0,0.8-0.1,1.5,0,2.3c0,0.4,0.4,0.8,0.6,1.2
		c0.4-0.2,0.9-0.4,1.2-0.7c1.7-2,3.1-4.2,5-5.9c3.5-3.2,7.1-6.3,11-9.1c3-2.1,6.4-3.9,9.8-5.4c3-1.3,6.3-2.1,9.5-3.1
		c1.8-0.6,1.9-1.2,0.7-2.7C346.2,546.3,344.7,544.7,343.5,542.8z"/>
	<path id="XMLID_232_" d="M412.4,492c-2,0-4,0.1-6-0.1c-1.3-0.1-2.1,0.1-2.2,1.3c-0.1,1.6-1.1,2.7-1.8,4c-0.9,1.6-2,3.1-1,5.2
		c0.3,0.7,0.3,2-0.1,2.7c-1.2,1.8-0.8,3.4,0.1,5c1.3,2.4,2.1,4.8,1.2,7.5c0,0.1,0.5,0.6,0.6,0.6c0.4-0.1,0.8-0.4,1.1-0.7
		c2-2.2,4.1-4.4,6.1-6.6c0.3-0.4,0.5-0.9,0.7-1.3c0.5-1,0.9-2,1.5-2.9c0.4-0.7,1.1-1.3,1.5-2c0.2-0.3,0.1-0.8,0.2-1.2
		c-0.4,0-1-0.2-1.3,0c-1.7,1.3-3.6,2.5-4.7,4.4c-0.2,0.3-0.5,0.4-0.7,0.6c-0.2-0.2-0.5-0.4-0.6-0.7c-0.8-1.9-0.6-3.1,0.9-4.6
		c0.7-0.6,1.4-1.2,2-1.8c0.3-0.3,0.4-0.8,0.6-1.3c-0.5-0.2-1.1-0.6-1.6-0.5c-1.9,0.4-2.7,2-3.6,3.4c-0.3,0.4-0.7,0.8-1.1,1.2
		c-0.5-1.3-0.8-2.2-1.2-3.1c-0.1-0.2,0-0.5,0.1-0.8c0.8-2,2-3.6,4-4.4c1.2-0.5,2.4-0.5,3.5,0.3c0.7,0.5,1.4,0.9,2.1,1.3
		c1,0.5,2.3-0.1,2.7-1.2C416.1,494.6,414.4,492.1,412.4,492z"/>
	<path id="XMLID_235_" d="M300.9,441.3c0-1.8-0.8-2.5-2.6-2.2c-0.3,0.1-0.6,0.1-1,0.1c-3.3,0-6.6,0-9.8,0c-4.5,0-9,0-13.4,0
		c-0.5,0-1.1,0.1-1.5,0.4c-1.3,1-2.4,2.2-3.7,3.2c-3.2,2.5-6.5,5-9.8,7.3c-0.9,0.6-1.9,0.6-2.8-0.3c-1.4-1.4-2.8-2.7-4.3-4.1
		c-2.2-2.1-4.4-4.2-6.6-6.4c-1.2-1.2-2.3-2.4-3.5-3.6c-1.9-1.9-3.8-3.8-5.6-5.7c-0.7-0.7-0.6-1.5,0.1-2.2c0.3-0.3,0.6-0.6,0.9-0.9
		c1.2-1.1,2.3-2.2,3.5-3.3c1.2-1.1,2.2-2.3,3.4-3.4c1.2-1,1.7-2.5,2.7-3.6c1.4-1.5,2-3.5,2.2-5.5c0-0.2,0.1-0.6-0.1-0.7
		c-0.9-1-0.1-2.1-0.3-3.1c-0.2-0.9,0.3-1.9,0.3-2.9c0-5,0-10,0-15c0-1.9-0.4-2.3-2.3-2.3c-16.2,0-32.4,0-48.6,0c-3.7,0-7.4,0-11,0
		c-1.3,0-1.9,0.5-2.5,1.6c-1.9,3.9-3.6,7.8-5.8,11.5c-2.5,4.3-5.3,8.5-8.2,12.6c-3.7,5.2-7.3,10.5-11.8,15.1
		c-3.7,3.8-7.1,7.8-10.6,11.8c-0.2,0.2-0.4,0.4-0.5,0.6c-0.5,0.8-0.2,1.3,0.7,1.3c0.5,0,0.9-0.1,1.4-0.2c0.3,0,0.8-0.1,1,0.1
		c1.4,0.9,2.7,1.9,4,2.9c0.7,0.6,1.3,1.5,2.1,2c2.2,1.4,4.6,2.1,7.1,2.7c2.1,0.5,4.2,1.1,6.2,1.8c1.4,0.5,3.1,2.1,3,4.1
		c-0.1,2.1,0.1,4.2,0.2,6.3c0,1.1,0.1,2.1,0.1,3.2c0,0.6,0.1,1.2,0,1.8c-0.1,0.6-0.3,1.2-0.5,1.8c-0.5-0.2-1.2-0.2-1.6-0.6
		c-2.7-2.5-5.2-5.1-7.9-7.6c-0.5-0.5-1.1-1.4-2-0.8c-1,0.7,0,1.3,0.3,2c0.1,0.3,0.3,0.8,0.1,1.1c-0.2,0.3-0.7,0.6-1,0.5
		c-0.7-0.3-1.4-0.7-2-1.3c-1.5-1.6-2.8-3.4-4.5-4.9c-1.9-1.7-4-3.1-6.8-3c-1.9,0.1-3.9,0.1-5.8,0c-0.8-0.1-1.7-0.4-2.4-0.9
		c-0.9-0.7-0.6-1.6,0.6-2c0.3-0.1,0.8-0.1,1-0.3c0.3-0.3,0.5-0.7,0.5-1.1c0-0.3-0.3-0.8-0.5-0.8c-0.7,0-1.6-0.2-2.2,0.2
		c-1.1,0.7-2.1,1.7-3,2.6c-1,1-1.7,2.2-2.7,3.1c-2,1.9-4.1,3.7-6,5.6c-1,1-1,1.7-0.1,2.8c2.3,2.7,4.7,5.3,7,8
		c3.5,4,6.9,8.1,10.4,12.1c1.1,1.2,1.5,1.2,2.5,0c1.1-1.3,2.2-2.6,3.5-3.6c0.8-0.6,2-1.1,3-1.2c3.2-0.1,6.4,0.2,9.5,0.1
		c0.9,0,1.9-0.3,2.6-0.8c2.4-1.9,4.7-3.9,7.1-5.8c1.8-1.4,2.8-2.9,2.6-5.3c-0.2-2.7,0-5.5,0-8.2c0-1.2,0-2.4,0-3.6
		c0-0.4,0.2-0.9,0.4-1.2c1-1.1,2-2.2,3-3.3c0.3-0.3,0.5-0.7,0.9-1c0.2-0.2,0.6-0.2,0.9-0.1c0.2,0.1,0.2,0.5,0.2,0.8
		c-0.1,0.6-0.2,1.2-0.3,1.9c-0.3,1.4-0.6,2.8-1,4.1c-0.4,1.6-0.9,3.3-1.1,4.9c-0.2,1.3,0.4,1.9,1.7,1.8c0.9,0,1.7,0,2.4,0.8
		c0.3,0.3,0.9,0.5,1.4,0.6c1.4,0.3,2.5-0.3,3.5-1.1c1-0.8,1.5-0.8,2,0.3c0.5,0.9,1.1,1,2,0.7c0.8-0.3,1.6-0.4,2.3-0.8
		c2.2-1.2,4.7-1.8,6.4-3.8c1.3-1.5,2.5-3.4,4.9-3.4c0.6-1,1.6-1.9,1.8-2.9c0.3-1.3-0.1-2.8,0-4.2c0.3-3.2-0.5-6.2-1.1-9.3
		c-0.5-2.7,0-5.3,2.1-7.3c0.6-0.6,1.3-1.3,2-1.4c1.4-0.2,3-0.3,4.4,0.1c3.3,0.8,6.5,1.8,9.8,2.7c2.3,0.7,4.6,1.5,6.2,3.4
		c0.2,0.2,0.5,0.3,0.7,0.4c4.5,2.4,9,4.8,13.5,7.3c4,2.2,8,4.4,11.9,6.7c4.5,2.6,8.5,6,12.7,9.2c0.9,0.7,1.8,1.4,2.6,2.2
		c1,1,1.8,2.2,2.8,3.2c3.8,4,7.4,8.1,9.6,13.3c1.4,3.3,2.9,6.6,2.6,10.3c-0.2,2.7-0.2,5.4,0.7,8c1,3.2,2,6.3,2,9.7
		c0,0.7,0.4,1.4,0.6,2.2c0.2,0.6,0.6,1.3,0.4,1.8c-0.5,2.2,0.6,4.6-0.6,6.7c-0.1,0.2-0.1,0.4,0,0.6c0.3,2.7-1,5.1-1.6,7.6
		c-0.9,3.6-3,6.7-5.2,9.6c-0.8,1-1.9,1.8-3,2.4c-0.5,0.3-1.4-0.2-2.1-0.4c0.1-0.5,0.2-1.1,0.4-1.6c0.1-0.3,0.4-0.6,0.5-0.9
		c1.1-2.3,2.6-4.5,2.1-7.2c-0.2-1.1-0.4-2.1-0.1-3.4c0.6-2.8,0.6-5.8-0.6-8.7c-0.4-1.1-0.9-2.1-1.2-3.2c-1.1-3.2-2.3-6.4-3.4-9.5
		c-0.6-1.6-1.2-3.2-1.7-4.8c-0.2-0.6-0.2-1.3,0-1.8c0.7-1.9,1.6-3.7,2.3-5.5c0.5-1.3,1.1-2.7,1.3-4.2c0.3-2.2,0.2-4.5,0.3-6.8
		c0-1.1,0.2-2.2,0-3.2c-0.6-3-1.9-5.8-3.6-8.3c-1.5-2.1-3-4.4-5.8-5.3c0.6,1.1,1.1,2.3,1.9,3.3c1.5,1.9,3,3.7,3.9,6
		c0.4,1.2,1.1,2.3,1.4,3.5c0.3,1,0.5,2.2,0.4,3.3c-0.1,1.5-0.4,3-0.6,4.6c-0.5,4.1-1.8,7.9-3.7,11.6c-0.4,0.7-0.3,1.7-0.2,2.5
		c0.1,0.9,0.6,1.7,0.9,2.5c1,2.9,1.8,5.9,2.8,8.7c0.4,1.1,0.3,2.1-0.3,3c-1.7,2.5-3.4,5-5.1,7.5c-0.7,1-1.6,2-2.5,2.9
		c-0.8,0.8-1.3,1.5-1.4,2.6c-0.1,0.8-0.5,1.6-0.9,2.3c-1.7,2.8-4.7,3.4-7.4,4.6c-1.5,0.7-2.2,0.1-2.7-1.5c-0.1-0.3-0.5-0.8-0.9-0.8
		c-1-0.1-2.2-0.3-3.1,0.1c-3.1,1.1-5.7,3.2-8.2,5.3c-0.5,0.4-0.9,0.9-0.5,1.6c0.4,0.7,0.3,1.4-0.6,1.7c-0.8,0.3-1.4,0.1-1.8-0.8
		c-0.2-0.5-1-1-1.5-1c-0.8,0-0.6,0.8-0.7,1.4c-0.1,0.4-0.3,0.7-0.5,1.1c-0.3-0.2-0.8-0.4-0.9-0.6c-0.4-0.9-0.6-1.9-1-2.8
		c-0.2-0.5-0.6-1-0.8-1.5c-0.3,0.3-0.7,0.5-0.9,0.8c-0.8,1.6,0.7,4.7,2.3,5.3c1.5,0.5,2.9,1,4.3,1.5c2.5,0.9,2.5,1,4.2-1
		c1.5-1.7,3.6-2.6,5.7-3.4c1.6-0.6,3.4-1.1,4.9-0.9c3.9,0.6,7.3-0.4,10.6-2.4c0.6-0.4,1.1-1.1,1.4-1.8c1.2-2.2,1.6-4.6,1.4-7.1
		c0-0.8,0.4-1.7,0.9-2.3c2.2-3,4.5-6,6.7-9c0.5-0.7,1-0.9,1.4,0c0.5,1.2,1,2.5,1.3,3.8c0.3,1.5,0,3.1,0.3,4.6c0.5,2.8,0,5.5-0.7,8.1
		c-1.1,3.9-3.9,6.7-7.1,8.8c-2,1.3-4.3,2-6.6,2.7c-1.1,0.3-2.3,0.1-3.5,0c-2.6-0.2-4.2,1.3-5.8,2.9c-0.2,0.2-0.4,1-0.3,1
		c0.9,0.6,1.8,1.2,2.8,1.6c1.1,0.4,2.3,0.5,3.4,0.9c2.9,0.9,5.7,2.1,8.6,2.9c5.2,1.4,9.9,3.9,14.2,7.1c2.4,1.8,4.8,3.7,7.1,5.7
		c2.1,1.9,4,3.9,6,5.9c1,1.1,1.9,2.4,2.8,3.5c0.2,0.2,0.6,0.3,0.9,0.4c0.1-0.3,0.3-0.6,0.3-0.8c0.1-2.8,0.2-5.6,0.2-8.5
		c0-7.2-0.1-14.5-0.1-21.7c0-11.4-0.1-22.7-0.1-34.1c0-8.7,0-17.3,0-26C300.8,469.6,300.9,455.4,300.9,441.3z M242.8,416.7
		c0,1.4-0.8,2.8-1.4,2.5c-0.6-0.2-1-0.9-1.5-1.4c0.6-0.6,1.2-1.3,2-1.8C242,415.9,242.7,416.6,242.8,416.7z M231.7,421.3
		c-1.6-0.7-3.3-1.1-5.1-1.5c-0.9-0.2-1.8,0-2.8,0c-2,0-3.5,1.5-3.6,3.5c-0.1,1.5,1,2.2,1.9,3c2.1,2,4.6,3.1,7.5,3.1
		c0.9,0,1.8-0.2,2.7-0.2c0.4,0,1.1,0.4,1.1,0.5c-0.1,0.5-0.3,1.1-0.6,1.3c-0.7,0.4-1.5,0.5-2.2,0.7c-0.3,0.1-0.6,0-0.9,0.1
		c-1.5,0.5-2.8,0.6-4.4-0.2c-2-1-4.3-1.3-6.5-1.9c-0.5-0.1-1-0.3-1.5-0.5c-2.3-0.7-4.6-1.6-7.1-1c-3.5,0.9-5.4,3.5-6.4,6.7
		c-0.9,2.9,0,5.8,0.4,8.6c0.2,1.3,0.3,2.6,0.3,3.9c0.1,1.6,0.1,3.3,0,4.9c0,0.4-0.4,0.9-0.7,1.6c-0.4-0.9-0.6-1.4-0.9-1.9
		c-0.2-0.3-0.6-0.8-0.9-0.8c-0.3,0-0.7,0.4-0.9,0.8c-0.2,0.4-0.2,0.9-0.3,1.4c-0.5,1.5-0.9,2.9-1.5,4.3c-0.1,0.4-0.8,0.5-1.2,0.8
		c-1.7,0.8-3.4,1.7-5.1,2.4c-0.4,0.2-1,0.1-1.4,0.1c0.1-0.4,0.1-0.9,0.2-1.3c0.2-0.6,0.4-1.3,0.7-1.9c0.3-0.7,0.3-1.5-0.5-1.7
		c-0.3-0.1-1.1,0.5-1.3,0.9c-0.7,1.6-1.9,2.7-3.3,3.6c-0.6,0.4-1.3,0.7-1.9,0.8c-0.5,0.1-1.1-0.2-1.4-0.6c-0.2-0.2,0-1,0.3-1.3
		c1.3-1.2,2-2.6,2.4-4.3c0.1-0.4-0.1-0.8-0.1-1.2c-0.4,0.2-0.9,0.2-1.2,0.5c-0.6,0.7-1,1.6-1.6,2.4c-0.5,0.7-1.1,1.4-1.7,2.1
		c-0.2,0.2-0.8,0.3-1,0.1c-0.2-0.1-0.3-0.6-0.3-0.9c0.2-0.8,0.4-1.5,0.7-2.2c1.3-3.1,1.2-6.3,1.1-9.6c0-0.7,0.1-1.4,0-2
		c-0.1-0.5-0.6-0.9-0.9-1.4c-0.4,0.3-1,0.6-1.3,1c-1.5,2.6-3.5,4.9-5.6,6.9c-0.9-0.3-0.9-0.8-0.6-1.5c0.5-1.2,1.1-2.4,1.5-3.6
		c0.1-0.4-0.2-1-0.3-1.4c-0.4,0.3-0.9,0.5-1.2,0.8c-0.5,0.5-0.9,1.2-1.4,1.6c-0.3,0.2-0.8,0.2-1.2,0.2c0-0.5-0.2-1-0.1-1.4
		c0.5-1,1.1-1.9,1.6-2.9c0.2-0.4,0.5-0.9,0.5-1.3c0-0.6-0.1-1.3-0.5-1.7c-0.2-0.2-1,0-1.5,0.1c-0.6,0.1-1.1,0.5-1.7,0.5
		c-0.9,0-1.2-0.9-0.6-1.5c1.8-1.9,2.6-4.1,3.2-6.6c0.8-3.3,2.7-6.1,6.1-7.5c2.1-0.9,3.5-2.5,4.7-4.2c1.2-1.7,2.5-3.4,3.4-5.3
		c0.6-1.2,0.4-2.8,0.6-4.2c0.2-1.8,0.4-3.6,0.6-5.4c0-0.3,0.4-0.5,0.6-0.7c1-1.2,1.8-2.4,1-4.1c-0.1-0.3,0.1-0.9,0.3-1.3
		c0.6-0.8,1.3-1.7,2.1-2.3c0.8-0.7,1.9-1.1,2.8-1.6c2.2-1.2,4,0.3,6,0.7c1.3,0.2,2.7,0.7,4,0.7c4.3-0.1,8,1.5,11.9,3.2
		c3.6,1.5,5.9,4.4,8.8,6.8c3.1,2.5,6.4,4.7,10.6,5c1.4,0.1,2.7,0.8,4.2,1.2c-0.9,1.1-1.6,2.1-2.5,2.8c-0.5,0.4-1.3,0.5-2,0.5
		c-1.3-0.1-2.6-0.4-3.8-0.8c-1.9-0.7-3.8-1.5-5.5-2.5c-3-2-6.7-2.9-9.1-6c-0.5-0.7-1.3-1.3-2.1-1.7c-3.7-1.7-7.4-3.4-11.2-5.1
		c-1.5-0.7-3-1.3-4.5-1.9c-1.5-0.7-3.2-1.1-4.7-0.4c-0.9,0.4-1.9,1.3-2.2,2.2c-0.5,1.4,0.6,2.8,1.7,3.5c1.3,0.9,2.8,1.3,4.3,1.8
		c0.4,0.1,1-0.3,1.5-0.4c-0.2-0.4-0.2-1.1-0.6-1.3c-1.2-0.7-2.5-1.2-3.8-1.8c-0.5-0.3-1-0.6-1.5-0.9c0.5-0.4,0.9-1,1.5-1.2
		c1.9-0.6,3.1,0.6,4.4,1.7c0.6,0.6,1.2,1.2,1.6,1.9c1.5,2.2,3.6,3.6,6,4.6c1.5,0.6,3.1,1,4.6,1.4c1,0.3,1.5,0.8,0.9,1.9
		c-0.4,0.8,0.5,1.6,1.7,1.5c0.5-0.1,1-0.2,1.3-0.5c1-0.9,1.7-0.6,2.8-0.1c1.8,0.9,3.7,1.5,5.5,2.3c0.8,0.4,1.7,0.7,2.4,1.2
		c3.1,1.8,6.5,2.4,10,3.1c0.7,0.1,1.4,0.3,2,0.6c0.8,0.4,1,1.2,0.4,1.9c-1.4,1.8-3.1,3.4-5.2,4.2c-1,0.4-2.2,0.3-3.4,0.4
		c-0.3,0-0.7-0.3-0.8-0.6c-0.1-0.2,0.1-0.6,0.3-0.8c0.4-0.4,0.8-0.7,1.3-1.1C233.1,423.3,233.2,422,231.7,421.3z"/>
	<path id="XMLID_237_" d="M473.3,451.2c-0.7-0.7-1.2-1.5-1.9-2.2c-2.3-2.3-4.8-4.4-7.1-6.8c-2.6-2.6-5-5.3-7.5-8
		c-2.9-3.3-5.9-6.5-8.7-9.9c-1.7-2.1-3.3-4.4-4.8-6.6c-3.7-5.4-7.6-10.6-11-16.2c-2.4-3.9-4.3-8.2-6.3-12.3
		c-0.6-1.1-1.2-1.7-2.6-1.6c-1.8,0.1-3.7,0-5.5,0c-6.4,0.1-12.7,0.2-19.1,0.2c-2.1,0-4.2-0.2-6.3-0.2c-9.4,0-18.9,0-28.3,0
		c-3.4,0-3.8-0.4-3.7,3.7c0.1,3.6,0,7.3,0,10.9c0,0.9-0.5,1.9,0.5,2.3c1.1,0.4,1.5-0.8,2-1.4c2-2.3,4.5-3.9,7.4-4.8
		c2.9-0.9,5.8-0.3,8.7-0.4c0.2,0,0.4,0.1,0.6,0.2c3.5,0.8,6.2,3.1,8.7,5.4c0.4,0.4,0.8,0.8,1.1,1.3c1.1,2,2.3,4,3.3,6
		c1.3,2.5,2.4,5,3.7,7.5c0.9,1.8,1.7,3.6,3.2,4.9c1.5,1.3,3,1.4,4.5,0.3c1.8-1.2,1.9-3.2,1.2-4.6c-2.3-4.7-3.8-9.5-3.9-14.8
		c-0.1-1.8,0.4-3.2,1.7-4.4c3.7-3.4,8.3-3.1,12.7-2.9c3.1,0.2,6.2,1.4,8.9,2.9c2.4,1.4,5,2.6,6.7,4.9c3,4,5.9,8,8.8,12.1
		c2.1,2.8,4.1,5.6,6.2,8.4c2.3,3.2,3.7,6.9,5.5,10.4c2.3,4.6,3,9.5,2.6,14.5c-0.3,3.4-2.9,5.5-6.1,3.6c-0.8-0.5-1.4-1.6-2-2.4
		c-0.9-1.4-1.3-1.5-2.5-0.2c-0.7,0.7-1.4,1.5-2.3,2c-2,1.1-3.7,0.3-4.3-1.9c-0.2-0.9-0.1-1.9-0.3-2.8c-0.1-0.6-0.3-1.4-0.7-1.6
		c-0.4-0.2-1.2,0.1-1.7,0.3c-0.7,0.4-1.4,1-2.1,1.4c-2.1,1.1-3.9,0-3.9-2.3c0-1,0.2-2,0.2-3c0-1-0.7-1.4-1.5-0.9
		c-0.8,0.5-1.4,1.1-2.1,1.7c-1.7,1.5-3.7,1-4.1-1.2c-0.3-1.4,0-3-0.1-4.5c-0.1-0.9-0.2-1.9-0.7-2.5c-0.6-0.7-1.3,0.1-1.9,0.5
		c-1.3,0.8-2.5,1.6-3.9,2.3c-0.6,0.3-1.5,0.2-2.1-0.1c-0.7-0.4-1-1.1-0.6-2c0.2-0.5,0.3-1.1,0.3-1.6c0-1.8,0.2-3.5,0-5.3
		c-0.3-2.2-1-4.4-1.6-6.5c-0.1-0.3-0.7-0.7-1.1-0.7c-0.3,0-0.6,0.5-0.8,0.8c-1,1.8-1.7,3.9-2.9,5.5c-1.5,2-3.8,2.7-6.3,2.4
		c-1.7-0.2-3-1.2-4.3-2.3c-0.4-0.3-1.1-0.6-1.5-0.4c-0.4,0.2-0.6,0.9-0.6,1.4c-0.2,1.1-0.1,2.3-0.3,3.4c-0.2,0.8-0.5,1.6-1,2.4
		c-0.4,0.7-1,0.9-1.5,0.1c-0.7-1.1-1.2-2.3-2-3.3c-0.4-0.5-0.9-1-1.4-1.4c-0.4,0.5-0.8,1.1-1.1,1.7c-0.6,1.3-1.1,2.7-1.7,4
		c-0.4,0.8-1.3,0.9-1.8,0c-0.7-1-1.2-2-1.9-3c-0.2-0.3-0.7-0.7-1.1-0.7c-0.3,0-0.8,0.4-1,0.7c-1.5,2.7-3.6,4.7-6.5,5.7
		c-1.6,0.6-2.6,0-3-1.6c-0.2-0.8-0.7-1-1.4-0.5c-1.3,1-1,3.3,0.5,4.1c1.4,0.7,2.9,0.7,4.3,0.2c2.2-0.9,4.3-1.9,5.9-3.9
		c0.8-1,1.3-0.9,2,0.2c1.7,2.7,4.5,2.7,6.3,0.1c0.9-1.4,1.7-1.5,3-0.3c0.2,0.2,0.3,0.3,0.5,0.5c0.6,0.6,1.3,0.7,2,0.1
		c1.4-1.1,2.4-2.5,3-4.2c0.5-1.8,1-2.1,2.7-1.3c2,0.9,3.9,0.8,5.9,0.4c0.4-0.1,0.8,0.1,1.2,0.1c-0.1,0.5-0.2,1-0.4,1.4
		c-0.4,0.7-1.1,1.4-1.2,2.1c-0.3,2-0.5,3.9-0.5,5.9c0,3.2,0,6.4,0.3,9.6c0.1,1.5,0.7,3,1.9,3.9c0.5,0.4,1.2,0.6,1.8,1
		c-1.1,2-0.6,5.5,1.2,7.2c1.2,1.3,1.8,2.7,1.4,4.4c-0.1,0.2,0,0.5,0,0.7c0.1,2.1,1.3,3.5,3.1,4.4c0.7,0.3,1.2,0.7,1,1.6
		c-0.5,2,0,3.8,1.3,5.4c0.8,1,1,2,0.8,3.3c-0.2,1-0.3,2.3,0.1,3.2c0.8,1.6,2,2.9,3.7,3.8c0.9,0.5,1.8,1.1,2.6,1.6
		c0.9,0.5,1.4,1.1,1.2,2.2c-0.1,0.7-0.2,1.4,0,2c0.3,0.8,0,1.3-0.5,1.9c-0.3,0.4-0.6,0.9-0.6,1.3c0.2,2.2,1.9,3.2,4.1,2.7
		c0.8-0.2,1-0.6,0.9-1.3c-0.1-0.6-0.2-1.3-0.3-1.9c-0.1-0.6-0.1-1.3-0.4-1.7c-1-1.4-1.5-2.9-1.3-4.7c0.1-0.4,0.1-0.9,0-1.3
		c-0.1-0.8-0.4-1.3-1.3-1.4c-0.5,0-0.9-0.2-1.4-0.2c-2.8-0.5-4.9-3.5-4.6-6.3c0.1-1.3,0.9-2.8-0.6-4c-1.9-1.6-2.3-3.8-1.6-6.1
		c0.5-1.7,0.4-2-1.4-2c-1.7-0.1-3-1.9-2.8-3.6c0.2-1.4-0.1-2.8-0.2-4.2c0-0.3-0.4-0.6-0.7-0.7c-1.9-1.2-2.9-3.7-2.1-5.8
		c0.4-1,0.1-1.6-0.8-2.1c-2-1-3.2-3.6-2.5-5.8c0.1-0.5,0.5-0.9,0.7-1.3c0.5-1.2,0.9-2.5,1.4-3.8c0.8-1.9,1.7-3.7,2.5-5.6
		c0.2-0.5,0.3-1,0.6-1.4c0.2-0.3,0.6-0.4,0.9-0.6c0.1,0.6,0,0.8-0.1,1.1c-0.6,1.5,0.1,3,1.7,3c1,0,2.2,0.1,3.1-0.7
		c0.6-0.6,1.3-1,2.1-1.3c0.2-0.1,0.9,0.2,0.9,0.3c-0.1,1.8,0.1,3.7-0.4,5.3c-0.6,1.8-1.7,3.5-2.8,5.1c-0.7,1.1-1.5,2-2.3,3
		c-0.7,0.9-1.6,1.8-2.2,2.8c-0.2,0.4,0,1.2,0.3,1.7c0.1,0.2,1.1,0.1,1.4-0.2c1-0.9,2.1-1.9,2.9-3c1.2-1.8,2.3-3.8,3.3-5.8
		c1.2-2.3,1.8-2.6,3.8-1.5c0.7,0.4,0.9,0.9,0.6,1.7c-1.1,2.6-2.1,5.1-3.2,7.7c-0.8,2-2.2,3.5-3.8,4.9c-0.9,0.8-1.8,1.6-2.6,2.5
		c-0.4,0.4-0.9,1.1-0.2,1.5c0.4,0.2,1.2,0.1,1.5-0.2c1.8-1.8,3.6-3.6,5.4-5.5c1.3-1.4,1.9-3.3,2.6-5.1c0.7-1.7,1.3-3.3,2-5
		c0.3-0.7,0.6-1.4,1-2.3c0.9,1.2,1.6,2,2.2,3c0.2,0.4,0.2,1,0.1,1.4c-1.3,3.5-2,7.1-3.7,10.4c-1.4,2.7-2.5,5.4-4.8,7.5
		c-0.5,0.5-0.9,1.2-1,1.9c-0.2,0.8,0.5,1.3,1.2,0.8c0.5-0.3,0.9-0.8,1.4-1.3c4.2-3.9,6.1-9.1,7.7-14.5c0.8-2.7,1.2-5.6,4.6-6.4
		c0.7-0.2,1.2-0.1,1.3,0.5c0.2,1.3,0.7,2.9,0.3,4c-1.5,4.5-3.2,9.1-5.1,13.4c-2,4.5-4.3,8.7-8.3,11.8c-0.4,0.3-0.8,0.7-1.1,1.1
		c-0.2,0.3-0.3,0.8-0.1,1.1c0.2,0.2,0.8,0.4,1,0.3c0.6-0.3,1.2-0.7,1.8-1.1c2.4-2,4.2-4.4,5.7-7.1c1.3-2.2,2.7-4.3,3.8-6.6
		c1.5-3.3,2.7-6.7,4-10.1c0.7-1.7,0.7-1.8,2.6-1.7c1.4,0,2,0.6,1.8,2c-0.1,1.1-0.4,2.3-0.6,3.4c-0.9,3.5-1.9,6.9-2.9,10.3
		c-1.3,4.9-3.4,9.4-6.7,13.3c-0.9,1.2-1.9,2.4-2.7,3.6c-0.2,0.4,0,1,0,1.5c0.4-0.1,1-0.1,1.2-0.3c1.1-1.1,2.1-2.3,3-3.5
		c2-2.8,4.3-5.5,5.5-8.8c1.1-3,2.2-6.1,3.1-9.2c1.1-4,2.6-7.9,2.3-12.1c0-0.6,0.3-1.2,0.6-1.8c0.3-0.5,0.9-0.8,1.4-0.3
		c0.6,0.7,1.5,1.5,1.5,2.3c0.2,2.1,0,4.2-0.1,6.3c0,0.7-0.3,1.5-0.3,2.2c-0.2,4-1,7.9-2.3,11.7c-1.2,3.6-2.8,7-4.3,10.5
		c-1.3,3.1-3.1,5.9-5.6,8.1c-1.1,0.9-2.4,1.6-3.5,2.5c-0.4,0.4-0.9,1.2-0.7,1.6c0.3,0.9,1.2,0.7,1.8,0.2c1.7-1.2,3.7-2.3,5.1-3.9
		c1.9-2.1,3.4-4.5,4.9-6.8c0.7-1,1.1-2.2,1.6-3.4c0.7-1.5,1.5-2.9,2-4.5c0.4-1.3,0.3-2.6,0.9-4c1.9-4,2-8.6,2.5-12.9
		c0.2-1.9,0.2-3.8,0.4-5.7c0.1-1.2,0.6-1.9,2-1.7c0.5,0.1,1.1-0.3,1.6-0.4c1-0.3,1.6,0.1,1.6,1c0,1.5,0,3.1,0,4.6
		c-0.1,2.6-0.1,5.3-0.2,7.9c0,2-0.9,4-0.5,6.1c0,0.2-0.1,0.4-0.2,0.7c-0.4,0.8-1,1.6-1.1,2.5c-0.3,2.2-1.1,4-1.9,6.1
		c-1.6,4-3,8-5,11.7c-1.6,2.9-3.2,5.9-5,8.7c-1.3,2-1.4,2,0.5,3.2c0.1,0.1,0.2,0.1,0.3,0.1c1.6,1,1.8,1,3-0.4c2.4-2.6,4.7-5.3,7-8
		c2.5-2.9,4.9-5.8,7.4-8.7c2.8-3.2,5.5-6.5,8.3-9.7c2.7-3.1,5.4-6.2,8-9.3c2.6-3,5.1-6.1,7.7-9.1c1.3-1.5,1.4-2.2-0.1-3.5
		C479.7,457.1,476.5,454.2,473.3,451.2z"/>
	<path id="XMLID_238_" d="M255,520.2c0.8-0.5,0.7-1.3-0.1-2.8c-0.7-1.5-1.3-3-1.7-4.6c-0.4-1.4-0.4-3-0.7-4.4
		c-0.1-0.3-0.5-0.5-0.8-0.8c-0.2,0.3-0.6,0.5-0.7,0.8c-0.3,1.3-0.4,2.6-0.5,3.3c0,3,1,5,2.2,7C253.5,519.9,254.3,520.5,255,520.2z"
		/>
	<path id="XMLID_239_" d="M260.5,493.3c-0.2-0.3-0.5-0.7-0.8-1c-0.4,0.3-0.9,0.5-1,0.9c-0.7,2-1.4,4.1-2,6.2
		c-0.3,1.1-0.2,2.2-0.2,3.4c0,0.9,0.2,1.9,0.2,2.8c-0.1,1.5,0.2,2.9,1,4.2c1.1,2,2.2,3.9,2.2,6.3c0,0.3,0.3,0.8,0.5,0.8
		c0.3,0.1,0.8-0.2,0.9-0.4c0.5-1.1,0.9-2.3,1.2-3.5c0.5-1.7,0.2-3.3-1-4.6c-2.9-3.2-2.6-6.9-2.2-10.8
		C259.6,496.1,260.1,494.8,260.5,493.3z"/>
	<path id="XMLID_240_" d="M399.1,516.6c-0.1-0.4-0.5-0.6-0.7-1c-0.3,0.3-0.8,0.5-0.9,0.8c-0.7,2.2-1.5,4.4-3.3,6.1
		c-0.3,0.3-0.8,0.7-1.1,0.6c-0.3-0.1-0.9-0.6-0.8-0.9c0-1.4-0.4-2.8,0.4-4.2c0.5-0.9,0.6-1.9,0.9-2.8c-0.2-0.1-0.3-0.2-0.5-0.3
		c-3.5,1.7-6.3,4.2-8.7,7.7c-0.3-0.6-0.5-1-0.6-1.4c-0.1-0.7-0.3-1.3-0.3-2c0-0.6,0-1.3,0.3-1.9c0.3-0.6,0.8-1.2,1.2-1.7
		c2.1-2.3,4.6-4,7.2-5.5c1.2-0.7,2.2-1.7,2.3-3.2c0-0.9-0.6-1.3-1.4-0.9c-0.4,0.2-0.8,0.6-1.2,0.7c-0.3,0.1-0.8,0.2-1,0
		c-0.2-0.2-0.3-0.6-0.2-1c0-0.3,0.4-0.6,0.5-0.9c0.3-0.8,0.6-1.5,0.7-2.3c0.1-0.8-0.3-1.4-1.3-1.4c-0.4,0-1-0.2-1-0.4
		c0-0.4,0.1-0.9,0.4-1.2c0.3-0.4,0.9-0.7,1.3-1.1c1.1-1.2,0.9-2.8-0.4-3.1c-1.4-0.3-1.6-0.7-1-2.1c0.9-2,1.8-4,2.6-6
		c0.2-0.5,0.2-1.3-0.1-1.6c-0.5-0.5-1.5-1.1-2-1c-1.3,0.5-2.7,1-2.9,2.8c-0.2,1.4-1,2-2.4,2.2c-2,0.2-2.2,0.7-2,2.7
		c0.1,1.3,0.2,2.8-1,3.9c-0.6,0.6-0.8,1.4-0.6,2.4c0.3,1.6,0.2,3.3,0,4.8c-0.1,0.7-0.8,1.5-1.5,1.9c-1.4,0.8-1.3,0.9-1.1,2.4
		c0.3,1.9,0.5,3.8,0.4,5.8c-0.1,1.7-1.8,2.2-3.1,3c-0.5,0.3-1,0.8-1.1,1.3c-0.2,0.8-0.1,1.8,0,2.6c0.5,2.6,0,4.6-2.6,5.7
		c-1.1,0.4-1.2,1.4-1,2.4c0.8,2.7,0.3,5.3-1.2,7.6c-0.5,0.8-1.3,1.5-2.2,1.9c-1.2,0.5-2.5,0.6-3.7,1c-0.5,0.2-1.2,0.5-1.3,0.9
		c-0.4,1.6-1,3-1.9,4.3c-0.2,0.3-0.2,1,0,1.2c0.2,0.2,0.9,0.3,1.3,0.2c1.5-0.5,3-1,4.5-1.5c4.8-1.6,9.3-3.8,13.8-6.1
		c3.2-1.7,6.1-3.6,8.7-6.1c1.8-1.7,3.6-3.5,5.4-5.2c1.5-1.4,3-2.8,4.5-4.3c0.6-0.6,1.4-1.3,1.1-2.4
		C399.8,518.8,399.5,517.7,399.1,516.6z"/>
	<path id="XMLID_47_" d="M509.7,454.7c-0.5-0.5-1.1-1.1-1.7-1.6c-0.8-0.6-1.6-1.2-2.4-1.9c-1.4-1.1-2.8-2.2-4.1-3.3
		c-4.6-4.1-9.2-8.3-13.6-12.4c-2.3-2.1-4.6-4.5-7.7-7.7c-3-3.1-5.4-5.8-7.7-8.3c-3.5-4-6.9-8.2-9.9-11.8c-1.3-1.6-3-3.7-4.5-5.9
		c-0.6-0.9-1.3-2-1.9-3.2c-0.3-0.5-0.6-1.1-0.9-1.6c-0.9-1.6-1.9-3.2-2.8-4.8c-2.2-3.8-4.3-7.3-6.3-11c-2.4-4.6-4.5-9.4-6.5-13.9
		c-0.4-0.8-0.7-1.8-1-2.9c-0.6-2-1.3-4.3-2.6-6.6c-1.2-2.1-1.9-4.6-2.6-7.2c-0.5-1.9-0.9-3.7-1.4-5.6c-0.4-1.7-0.8-3.4-1.3-5.1
		c-0.8-3.2-0.9-6.7-1-10c-0.1-3.9,0.1-7.7,0.2-11.8c0.1-1.7,0.1-3.5,0.2-5.2c0.1-2.6,0.1-5.2,0.2-7.9c0-0.3,0.1-0.5,0.1-0.8l0.1-0.8
		c0.2-1.8,0.4-3.6,0.6-5.4c0-0.2,0-0.5,0.1-0.7c0.7-1.8,1-3.5,1.2-4.8c0.1-0.6,0.2-1.3,0.3-1.6c0.3-0.8,0.4-1.6,0.4-2.2
		c0.8-1.7,1.1-3.3,1.3-4.7c0.2-0.4,0.4-0.8,0.6-1.2c0.8-1.5,1.5-2.9,2.3-4c1-1.4,1.9-2.8,2.7-4.2c1.3-2.1,2.4-4,3.8-5.2
		c1.3-1.1,2.3-2.3,3.2-3.3c0.5-0.5,0.9-1,1.3-1.4c0.6-0.5,1.3-1.1,2.1-1.8c0.3-0.2,0.6-0.5,0.9-0.7c1.1-0.9,2-1.6,2.8-2.1
		c0.2-0.1,0.4-0.2,0.5-0.3c0,0,0.1,0,0.1-0.1c0.4-0.1,0.9-0.3,1.4-0.6c0.5-0.3,0.9-0.5,1.4-0.8c0.3-0.2,0.7-0.4,0.8-0.5
		c1.5-0.5,3.4-0.6,5.2-0.6c0.5,0,1.1,0,1.6,0c0.5,0.2,1,1,1.3,1.5c1.1,1.8,1.4,2.6,1.4,3c0.5,3.5,0.3,6.6-0.6,9.6
		c-0.8,2.8-2.2,5.2-4.2,7.4c-2.4,2.6-5.1,4.7-8.3,6.3l-1,0.5c-2.7,1.4-5.5,2.7-8.3,4c-0.7,0.4-1.5,0.7-2.2,1c-1,0.4-1.9,0.9-3,1.4
		c-7.3,3.6-10.9,12.9-8,20.7c1.6,4.5,5,7.6,9.6,9.1c0.9,0.3,1.8,0.4,2.7,0.4c1.7,0,3.3-0.5,4.7-1.3c2.4-1.6,4.2-4.6,3.4-8.2
		c2.1-1,4-1.8,5.7-2.4c8.3-2.9,14.8-6.3,20.3-10.7c3.9-3.1,6.7-6.2,9-9.7c1.7-2.6,2.7-5.3,3.5-7.7c0.4-1.2,0.9-2.3,1.3-3.3
		c0.8-1.9,1.2-3.8,1.5-5c0.2-1.2,0.4-2.4,0.5-3.5c0.1-0.4,0.1-0.9,0.2-1.3c0.5-3.7,1-7.7,0-12.1c-0.5-2.2-1.1-4.1-1.7-6L493,250
		c-2-6.3-6.1-11.4-12.6-15.4c-2.1-1.3-4.4-2.6-7.1-3.7l-0.3-0.2c-1.1-0.5-2.9-1.4-5.4-1.4c-0.4,0-0.8,0-1.1,0.1c-0.1,0-0.2,0-0.2,0
		c-3.4-0.1-6.7-2-10.6-4.3l-1-0.6c-4.1-2.4-7.8-5.6-11-9.8c-2.5-3.1-4.9-6.2-6.9-9.4c-1.1-1.7-2.1-3.6-3.2-5.5
		c-2.1-3.7-4.3-7.5-7.1-11.1c-2.8-3.5-5.9-6-9.5-7.7c-3.3-1.5-6.4-1.6-8.9-1.6c-0.4,0-0.7,0-1.1,0c-0.2,0-0.3,0-0.5,0
		c-3.7,0-7,1.2-10,3.7l-1.7,1.4c-1.7,1.4-3.5,2.9-5.3,4.4c-2,1.8-4,3.5-6,5.3c-2.3,2.1-4.7,4.2-7,6.2c-2.2,1.9-4.5,3.9-6.8,5.8
		c-2.2,1.9-4.5,3.8-6.7,5.7c-3.4,2.9-7.2,6.3-11.3,8.4c-3.6,1.9-7.9,4.1-12.2,5.7c-0.8,0.3-1.5,0.6-2.3,0.9
		c-1.4,0.6-2.7,1.1-3.8,1.3c-0.4,0-1-0.1-1.7-0.1l-0.2,0c-2.5,0.1-5.2,0.1-7.9,0.3c-5.2,0.2-9.5,2.1-12.8,5.6
		c-1.8,1.9-3.6,3.9-5.2,5.8c0,0-0.1,0-0.1,0.1c-0.6-0.4-1.2-0.9-1.9-1.7c-0.9-1-1.8-2-2.7-2.9l-1.4-1.5c-3.8-4.2-8.6-5.2-12-5.7
		c-1.8-0.2-3.5-0.3-5.2-0.4c-0.6,0-1.3-0.1-1.9-0.1l-0.3,0h-0.2c-0.4,0-0.7,0-1,0.1c-0.4,0-0.8,0.1-1.2,0.1c-0.3,0-0.7,0.1-1,0.1
		c-1.8-0.4-3.7-1.1-5.4-1.8c-2.7-1.1-5.3-2.2-8.1-3.5l-0.6-0.2c-1-0.5-2.2-1-3.1-1.6c-1.6-1-3.1-2-4.6-3.1c-2.3-1.7-4.8-3.6-7.2-5.6
		c-2.7-2.2-5.4-4.6-8.1-6.8c-1.4-1.2-2.9-2.5-4.3-3.7c-1-0.8-2-1.6-3-2.5c-1.7-1.4-3.3-2.8-4.9-4.2c-2.2-1.9-4.3-3.9-6.5-5.8
		c-2.1-1.9-4.3-3.9-6.4-5.8c-2.8-2.5-5.9-3.8-9.1-3.9l-0.4,0c-0.8,0-1.6,0-2.5,0c-1.8,0-3.3,0.1-4.7,0.3c-2.3,0.4-4.8,1.3-7.1,2.7
		c-4.4,2.6-7.2,6.4-9.6,10.1c-1.6,2.5-3,5-4.4,7.5c-0.9,1.6-1.8,3.2-2.7,4.7c-2.7,4.5-6,8.8-9.9,12.8c-3.7,3.8-8,6.9-13,9.3
		c-1.3,0.6-2.7,1.1-4.1,1.7l-0.4,0.1c-0.4,0.2-0.9,0.3-1.5,0.4c-1.6,0.4-3.4,0.7-5.3,1.1l0,0c-0.9,0.1-3.2,0.3-5.3,2
		c-2.3,1-5.3,2.5-8.1,4.7c-2,1.7-3.5,3.5-4.8,5.1c-0.5,0.6-1,1.2-1.4,1.7c-0.3,0.3-0.9,1-1.4,2l-0.3,0.7c-0.6,1.4-1.3,2.9-1.9,4.3
		c-0.5,1.2-0.7,2.4-0.7,3.7c-0.2,0.4-0.4,1-0.6,1.6c-0.4,1.5-0.5,2.8-0.6,3.8l0,0.2c-0.1,1.1,0.1,2,0.3,2.6c0.1,1,0.2,2.1,0.3,3.1
		c0.1,1.4,0.3,2.8,0.4,4.2c0.3,3,0.9,7,2.8,10.9c0.5,1.1,1.1,2.5,1.6,4c1.3,3.9,3.7,7.5,7,10.6c2.4,2.3,4.9,4.1,7.4,6
		c0.6,0.4,1.1,0.8,1.7,1.2c1.6,1.2,3.5,2.7,5.9,3.7c2,0.9,4,1.6,5.9,2.3c1,0.4,2.1,0.7,3.1,1.1c0.8,0.3,1.6,0.6,2.4,0.9
		c-0.3,0.3-0.5,0.7-0.8,1c-1.4,2.2-1.8,5.8,0.2,8.6c0.7,1,1.6,1.9,2.6,2.7c3.1,2.5,6.6,2.8,8.9,2.8c0.3,0,0.6,0,0.8,0
		c6.2-0.1,11.3-3.8,13.5-9.4c0.7-1.9,2.6-6.8,0-12.1c-0.2-0.4-0.4-0.9-0.6-1.3c-0.7-1.5-1.5-3.3-2.8-5.1c-2.7-3.5-6.2-5.9-9.5-7.9
		c-0.3-0.2-0.5-0.3-0.7-0.4c-1.1-1-2.4-1.7-4.1-2.2c-0.3-0.1-0.7-0.3-1-0.4c-0.5-0.2-1-0.4-1.3-0.5c-0.3-0.1-0.6-0.3-0.9-0.5
		c-0.6-0.4-1.4-0.8-2.4-1.2c-3-1.3-5.8-3.6-9.2-7.3c-0.7-0.8-1.5-2-2.1-3.4c-1.3-2.9-1.9-6.2-1.9-9.9c0-2.4,0.6-4.3,1.9-6
		c0.8-1.1,1.2-1.1,1.7-1.1c0,0,0.5,0,0.5,0c1.1,0,2.1,0.1,3,0.2c1,0.1,2,0.4,2.9,0.6c1.8,0.6,3.6,1.9,5.7,3.4l0.2,0.1
		c3.4,2.4,7.2,5.5,9.7,9.3c2.2,3.4,4.3,6.8,6.4,10.2l0.1,0.1c0.7,1.1,1.3,2.2,1.6,3c1.1,3.3,1.8,6.4,2.2,9.4c0.2,2,0.6,3.9,1,5.7
		c0.3,1.7,0.7,3.2,0.8,4.7c0.3,2.8,0.4,5.6,0.6,8.7c0.1,1.2,0.1,2.4,0.2,3.6l0.1,1.9c0.1,1.4,0.2,2.8,0.2,4.2l-1.8-0.6l1.2,11.2
		c0,0.4,0.1,0.8,0.2,1.2c0,0.1,0,0.2,0.1,0.4c-0.2,1.4-0.4,2.8-0.7,4.4c-0.2,1.1-0.5,2.2-0.9,3.4c-0.2,0.7-0.4,1.5-0.6,2.2
		c-0.3,1.2-0.6,2.4-0.9,3.6c-0.6,2.4-1.1,4.6-1.8,6.7c-1.1,3.4-2.5,6.7-4,10.2l-0.8,1.8c-0.5,1.1-1,2.2-1.5,3.3
		c-0.7,1.5-1.5,3.1-2.1,4.7c-1.8,4.4-4,8.7-6.9,13.7c-4,7-8.6,13.6-12.1,18.6c-2.4,3.3-5.1,6.4-8,9.7c-1.1,1.3-2.3,2.6-3.4,3.9
		c-1.5,1.8-3.2,3.5-4.9,5.3l-1.5,1.6l-1.2,1.3c-1.6,1.7-3.1,3.3-4.7,4.8c-3.3,3-6.7,6.1-10,9.1l-1.6,1.4c-2,1.8-4.3,3.8-7.2,6.3
		c-0.6,0.5-1.2,1-1.8,1.5c-0.8,0.6-1.6,1.3-2.3,1.9c-1.9,1.7-3,3.7-3.2,5.9c-0.1,2.2,0.7,4.4,2.4,6.3c0.3,0.3,0.6,0.7,0.9,1
		c0.4,0.4,0.8,0.9,1.2,1.3c0.9,1,1.8,2.1,2.7,3.1c1.6,1.8,3.1,3.6,4.7,5.4c0.6,0.7,1.3,1.4,1.8,1.9c0.6,0.6,1.2,1.2,1.6,1.7
		c0.2,0.3,0.5,0.8,0.9,1.3c0.4,0.7,0.9,1.5,1.6,2.3c0.7,0.9,1.5,1.6,2,2.1c0.2,0.2,0.4,0.3,0.5,0.5c0.6,0.7,1.2,1.4,1.8,2.1
		c0.5,0.6,1,1.2,1.5,1.8c0.8,0.9,1.6,1.9,2.5,2.8c1.2,1.3,2.4,2.6,3.5,4c1.8,2.1,3.6,4.2,5.3,6.2c1,1.2,2.1,2.5,3.1,3.7
		c0.8,0.9,1.5,1.8,2.3,2.6c1.5,1.7,2.9,3.3,4.2,4.9c0.6,0.8,1.3,1.6,1.9,2.5c0.9,1.1,1.7,2.3,2.7,3.5c0.9,1,1.8,1.8,2.5,2.5
		c0.5,0.5,1,0.9,1.3,1.2c1.9,2.1,3.7,4.4,5.5,6.5l1.9,2.2c2.2,2.6,4.8,3,6.2,3c1.3,0,3.3-0.3,5.2-2c0.6-0.5,1.4-1.2,2.2-1.8
		c2.9-2.3,6.8-5.1,11-7.4c3.2,3.1,6.3,6.2,9.7,9.6c0.5,1,1.3,2.4,2.9,3.4c1.3,0.8,2.6,2.1,4,3.6l0.8,0.8c1.5,1.5,3.1,2.8,4.5,3.9
		c0.4,0.3,0.8,0.7,1.2,1l0.2,0.2c3.7,3.1,7.5,6.3,12.2,8.6c1.1,0.6,2.3,1.2,3.4,1.8c2.8,1.5,5.8,3,8.9,4.3c2.8,1.2,5.6,2,8.3,2.8
		c1,0.3,2.1,0.6,3.1,1c0.4,0.1,0.9,0.3,1.3,0.4c0.1,0,0.2,0,0.2,0.1c0.6,0.5,1.4,0.9,2.5,1.2c0.8,0.2,1.6,0.4,2.4,0.6
		c0.7,0.2,1.3,0.3,1.8,0.5c2.1,0.7,4.2,1.4,6.3,2c1.1,0.4,2.2,0.7,3.3,1.1c0.7,0.2,1.4,0.4,2,0.6c1.1,0.3,2.2,0.7,3.1,1
		c4.4,1.8,8.1,5.1,11.9,8.6c3.1,2.9,5.7,6,7.7,9.2c0.1,0.2,0.2,0.4,0.3,0.6c0.3,0.6,0.7,1.5,1.2,2.4c1.4,2.3,2.4,4.6,2.9,7.1
		c1.1,5.2,4.1,9.1,8.7,10.9c1.9,0.8,3.9,1.3,6,1.4c0.7,0.1,1.3,0.1,1.9,0.1c1.8,0,3.4-0.3,4.9-0.8c3.3-1.2,7.6-4,9.4-10.6
		c0.6-2.2,1.4-4.4,2.3-6.7c0.2-0.5,0.7-1.3,1.2-2.1c0.3-0.5,0.7-1,1-1.6c1.7-2.8,3.8-6,6.4-8.4c2.1-2,4.4-3.9,6.9-5.9l0.8-0.7
		c2-1.7,4.2-2.9,6.6-3.7c0.7-0.2,1.5-0.5,2.2-0.7c1.4-0.4,2.7-0.9,4-1.3c0.7-0.3,1.5-0.5,2.2-0.8c0.8-0.3,1.6-0.6,2.3-0.8
		c1.4-0.4,2.8-0.8,4.1-1.2c1.4-0.4,2.7-0.8,4.1-1.2c0.8-0.3,1.5-0.6,2.1-0.8c0.2-0.1,0.5-0.2,0.7-0.3c1-0.3,1.9-0.5,2.9-0.8
		c3-0.8,6.4-1.7,9.7-3.5c0.2-0.1,0.5-0.1,0.7-0.2c0.5-0.1,1-0.2,1.5-0.3l4.1-1.1l0.3-1.4c1.1-0.6,2.3-1.3,3.5-2
		c0.8-0.2,1.9-0.5,3-1.4c0.8-0.6,1.6-1.2,2.4-1.8c4.7-2.8,8.4-5.3,8.4-5.3s0-0.4-0.1-0.9c3.1-2.5,5.9-5.3,8.6-8.1
		c0.9-0.9,1.8-1.8,2.7-2.7c1.1-1.1,2.3-2.3,3.4-3.4c2.6-2.6,5.4-5.4,8.1-8c4.4,2.5,8.7,5.5,13.2,9.1c2,1.6,3.9,1.9,5.2,1.9
		c0,0,0,0,0,0c1.3,0,3.9-0.4,6.1-2.9c0.9-1,1.8-2.1,2.7-3.1c0.9-1,1.8-2,2.7-3.1c1.9-2.2,3.8-4.4,5.6-6.5c2-2.4,4.1-4.7,6.1-7.1
		c1-1.2,2.1-2.4,3.1-3.6c1.3-1.5,2.6-2.9,3.9-4.4c1.2-1.4,2.5-2.9,3.7-4.4c1.3-1.6,2.6-3.1,4-4.7c1-1.1,2-2.2,3-3.3
		c1.1-1.2,2.1-2.3,3.1-3.5c1.5-1.8,3-3.5,4.5-5.3c1.6-1.9,3.3-3.9,4.9-5.8c3.2-3.6,6.3-7.2,9.5-10.9l1.6-1.8
		C513,462.6,512.9,457.8,509.7,454.7z M504.8,461.3c-3.7,4.2-7.5,8.5-11.2,12.7c-3.2,3.7-6.3,7.4-9.5,11.1c-2,2.3-4.1,4.6-6.1,6.9
		c-2.6,3-5.1,6.1-7.7,9.1c-2.3,2.7-4.7,5.3-7,8c-3.9,4.5-7.8,9.1-11.8,13.6c-1.8,2.1-3.6,4.1-5.4,6.2c-0.5,0.6-1,0.6-1.6,0.1
		c-4.8-4-10-7.5-15.5-10.5c-2-1.1-3.9-1.2-5.5,0.4c-4.4,4.2-8.7,8.6-13,12.9c-0.9,0.9-1.9,1.9-2.8,2.8c-3.3,3.4-6.6,6.7-10.6,9.4
		c-0.3,0.2-0.5,0.4-0.8,0.6c-0.5,0.3-1,0.7-1.6,1.1c-0.2,0.2-0.4,0.3-0.6,0.5c-0.1,0.1-0.2,0.1-0.2,0.2c-9,6.7-25.2,12.3-25.2,12.3
		c-1,0.3-2,0.5-3,0.8c-1,0.3-1.9,0.8-2.8,1.1c-2.7,0.9-5.5,1.6-8.2,2.5c-1.6,0.5-3.1,1.1-4.7,1.7c-2.1,0.7-4.1,1.3-6.2,2
		c-3.3,1.1-6.2,2.7-8.8,4.9c-2.8,2.3-5.6,4.5-8.1,7c-3,2.9-5.3,6.3-7.5,9.8c-0.9,1.5-2.1,2.9-2.7,4.6c-1.1,2.5-2,5-2.7,7.6
		c-0.8,2.8-2.3,4.9-5,5.8c-1.2,0.4-2.6,0.4-3.8,0.3c-1.4-0.1-2.7-0.4-4-1c-2.6-1-3.9-3.2-4.4-5.8c-0.7-3.4-2-6.5-3.8-9.5
		c-0.6-0.9-0.9-2-1.5-2.9c-2.5-4-5.5-7.5-8.9-10.7c-4.2-3.9-8.6-7.7-14-9.9c-1.8-0.7-3.7-1.2-5.6-1.8c-3.2-1-6.4-2.1-9.6-3.1
		c-1.4-0.4-2.9-0.7-4.3-1.1c-0.4-0.1-0.6-0.6-0.9-0.8c-0.9-0.4-1.9-0.6-2.9-0.9c-3.6-1.2-7.4-2.1-10.9-3.5
		c-4.1-1.7-7.9-3.9-11.9-5.9c-4.1-2.1-7.6-5-11.1-7.9c-1.7-1.4-3.5-2.8-5.1-4.4c-1.9-2-3.8-4-6.1-5.5c-0.4-0.3-0.4-1.1-0.8-1.5
		c-4-3.9-7.9-7.9-11.9-11.7c-1.9-1.8-3.3-1.9-5.6-0.7c-4.8,2.4-9.1,5.5-13.3,8.8c-0.8,0.7-1.7,1.3-2.5,2c-0.6,0.5-1,0.4-1.5-0.2
		c-2.5-3-5-6-7.5-8.9c-1.1-1.3-2.6-2.4-3.7-3.7c-1.6-1.9-3-4-4.6-5.9c-2.1-2.6-4.4-5.1-6.6-7.7c-2.8-3.3-5.7-6.7-8.5-10
		c-2-2.3-4-4.5-6-6.8c-1.2-1.3-2.3-2.7-3.4-4c-0.7-0.8-1.6-1.4-2.2-2.2c-0.9-1.2-1.6-2.5-2.5-3.7c-1.1-1.3-2.4-2.5-3.6-3.8
		c-2.5-2.8-4.9-5.7-7.4-8.6c-0.7-0.8-1.4-1.6-2.2-2.4c-0.9-1-0.9-1.4,0.1-2.3c1.3-1.2,2.8-2.2,4.1-3.4c2.5-2.1,4.9-4.2,7.3-6.4
		c3.9-3.5,7.8-7,11.7-10.5c2.2-2,4.2-4.2,6.2-6.4c2.3-2.4,4.6-4.7,6.7-7.2c4-4.6,8.2-9.1,11.7-14.1c4.4-6.2,8.7-12.5,12.5-19.1
		c2.7-4.7,5.3-9.5,7.3-14.6c1.1-2.7,2.5-5.3,3.6-8c1.7-4.1,3.5-8.3,5-12.5c1.2-3.5,1.9-7.2,2.8-10.8c0.5-1.9,1.1-3.9,1.5-5.8
		c0.4-1.8,0.7-3.6,0.9-5.5c0.1-0.9-0.2-1.9-0.3-2.8c0.1,0,0.1,0,0.2,0.1c0-0.3,0.1-0.6,0.1-0.8c0-0.4-0.1-0.8,0-1.1
		c0.2-1.1,0.5-2.2,0.5-3.2c-0.1-3.7-0.3-7.4-0.5-11c-0.2-4.2-0.3-8.4-0.8-12.6c-0.4-3.5-1.4-7-1.8-10.5c-0.4-3.7-1.3-7.3-2.5-10.8
		c-0.5-1.6-1.4-3.1-2.3-4.5c-2.1-3.5-4.2-7-6.5-10.4c-3-4.5-7.1-8-11.4-11.1c-2.5-1.8-5-3.6-8-4.6c-1.3-0.4-2.7-0.7-4-0.9
		c-1.4-0.2-2.8-0.2-4.2-0.3c-3.3-0.1-5.8,1.4-7.7,4c-2.2,3-3.2,6.3-3.2,10c-0.1,4.5,0.6,8.8,2.5,12.9c0.8,1.8,1.9,3.7,3.3,5.2
		c3.3,3.7,7,7.1,11.6,9.1c1,0.5,2,1.1,3,1.6c1,0.5,2,0.8,2.9,1.2c0.8,0.3,1.7,0.2,2.1,1.3c0.1,0.4,1.1,0.4,1.6,0.7
		c2.8,1.7,5.6,3.6,7.6,6.2c1.2,1.5,1.8,3.5,2.7,5.2c1.1,2.2,0.6,4.4-0.2,6.5c-1.2,3-3.9,4.9-7.1,4.9c-1.9,0-3.7,0-5.2-1.3
		c-0.5-0.4-1-0.9-1.3-1.4c-0.1-0.2-0.1-0.7,0.1-0.9c0.1-0.1,0.6-0.1,0.8-0.1c0.7,0.2,1.4,0.5,2.1,0.8c2,0.7,5.8-0.3,6.4-2.8
		c0.4-1.6-0.6-3.5-1.8-4.2c-2-1.2-4.2-2.2-6.3-3.2c-2.1-1-4.2-1.8-6.4-2.6c-2.9-1.1-5.8-2-8.7-3.3c-1.6-0.7-3.1-1.8-4.6-2.9
		c-2.9-2.1-5.8-4.2-8.4-6.6c-2.3-2.2-4.1-4.8-5.2-7.8c-0.6-1.6-1.2-3.3-1.9-4.8c-1.3-2.7-1.8-5.6-2.1-8.6c-0.3-2.6-0.5-5.2-0.7-7.8
		c0-0.4-0.2-0.7-0.2-1c0-0.8,0.1-1.6,0.3-2.4c0.4-1.3,1.4-2.3,0.9-3.8c-0.1-0.2,0-0.5,0.1-0.7c0.7-1.6,1.4-3.3,2.2-4.9
		c0-0.1,0.1-0.1,0.1-0.2c1.8-2.1,3.3-4.4,5.4-6.2c2-1.6,4.2-2.7,6.5-3.8c0.5-0.2,1.1-0.3,1.3-0.7c0.6-0.8,1.5-0.6,2.4-0.8
		c1.9-0.4,3.8-0.8,5.7-1.2c0.8-0.2,1.7-0.4,2.5-0.7c1.7-0.7,3.4-1.3,5-2.1c5.7-2.7,10.7-6.2,15.1-10.8c4.1-4.3,7.8-9,10.8-14.1
		c2.4-4,4.5-8.1,7-12c1.9-3,4.1-6,7.3-7.9c1.4-0.8,3.1-1.5,4.7-1.8c2-0.3,4.2-0.2,6.3-0.2c1.8,0,3.3,1,4.6,2.2
		c4.3,3.9,8.6,7.8,12.9,11.7c2.6,2.3,5.3,4.5,8,6.7c4.1,3.5,8.3,7.1,12.4,10.6c2.4,2,5,3.9,7.5,5.8c1.6,1.2,3.4,2.4,5.1,3.4
		c1.2,0.8,2.6,1.4,3.9,2c3,1.3,5.9,2.7,8.9,3.9c2.2,0.9,4.4,1.7,6.6,2.2c1.3,0.3,2.8,0,4.3-0.1c0.1,0,0.2-0.1,0.3,0
		c2.3,0.2,4.5,0.2,6.8,0.5c2.9,0.4,5.6,1.1,7.6,3.4c1.4,1.5,2.7,3,4.1,4.5c1.6,1.8,3.4,3.3,5.8,4.1c1.5,0.5,5.1-0.8,6.4-2.3
		c1.7-2,3.5-4,5.3-5.9c2.2-2.3,4.9-3.2,8-3.4c2.6-0.1,5.2-0.2,7.8-0.2c0.7,0,1.4,0.2,2.1,0.1c2.9-0.3,5.5-1.7,8.1-2.7
		c4.5-1.7,8.9-3.9,13.1-6.1c4.6-2.5,8.6-5.9,12.6-9.3c4.5-3.9,9-7.6,13.5-11.5c4.4-3.8,8.7-7.7,13-11.5c2.2-2,4.5-3.8,6.8-5.7
		c1.7-1.4,3.6-2.1,5.8-2.1c2.5,0.1,4.9-0.1,7.2,1c2.8,1.3,5,3.3,6.9,5.7c3.9,5,6.6,10.7,9.9,16c2.2,3.5,4.8,6.8,7.3,10.1
		c3.6,4.6,8,8.5,13,11.5c4.6,2.7,9.2,5.6,14.8,5.8c0.4,0,0.7,0.1,1.1,0c1.3-0.2,2.4,0.4,3.4,0.9c2.1,1,4.2,2,6.2,3.3
		c4.5,2.8,8,6.5,9.6,11.6c0.7,2.1,1.4,4.2,1.8,6.3c0.7,3.2,0.3,6.4-0.1,9.6c-0.2,1.5-0.4,3-0.6,4.5c-0.2,1.2-0.5,2.4-1,3.5
		c-1.5,3.4-2.4,7-4.4,10.2c-2,3.1-4.5,5.7-7.4,8c-5.5,4.4-11.7,7.3-18.3,9.5c-3.1,1.1-6.1,2.5-9.1,4c-2.8,1.5-3.1,3-1.5,5.8
		c0.3,0.6,0.6,1.2,0,1.6c-0.4,0.2-1,0.3-1.5,0.1c-2.5-0.8-4.2-2.2-5.1-4.8c-1.6-4.5,0.4-10,4.5-12c1.7-0.8,3.5-1.5,5.2-2.3
		c3.1-1.5,6.2-3,9.3-4.6c4-2,7.4-4.6,10.4-7.9c2.7-2.9,4.6-6.3,5.7-10.1c1.2-4.2,1.4-8.4,0.9-12.6c-0.3-2-1.3-4-2.4-5.7
		c-1.3-2.1-3.1-4-5.7-4.6c-0.2,0-0.4-0.2-0.6-0.2c-3.4,0-6.9-0.2-10.2,1c-1.1,0.4-2.1,1.2-3.2,1.8c-0.2,0.1-0.4,0.1-0.6,0.2
		c-0.7,0.3-1.4,0.6-2,1c-1.1,0.8-2.2,1.6-3.3,2.5c-1.2,1-2.5,1.9-3.6,2.9c-1.4,1.4-2.5,3.1-4,4.3c-3.5,2.9-5.1,7.1-7.7,10.6
		c-1.5,2.1-2.6,4.5-3.8,6.8c-0.2,0.4-0.3,0.8-0.3,1.2c-0.1,1.4-0.4,2.7-1.3,3.9c-0.3,0.5,0.1,1.4-0.2,2.1c-0.7,2.2-0.5,4.6-1.8,6.7
		c-0.3,0.4,0,1.1-0.1,1.7c-0.2,2-0.5,4.1-0.7,6.1c0,0.4-0.2,0.7-0.2,1.1c-0.1,2.7-0.2,5.5-0.2,8.2c-0.2,5.8-0.5,11.6-0.4,17.3
		c0.1,3.9,0.2,7.8,1.2,11.7c0.9,3.6,1.7,7.2,2.7,10.8c0.8,3.1,1.6,6.1,3.3,9c1.6,2.7,2,5.9,3.2,8.8c2.1,4.9,4.2,9.7,6.7,14.4
		c2.9,5.4,6.1,10.7,9.3,16c1,1.8,2,3.6,3.2,5.3c1.5,2.2,3.2,4.3,4.9,6.3c3.3,4,6.6,8,10,11.9c2.5,2.9,5.2,5.8,7.9,8.6
		c2.6,2.7,5.2,5.4,8,8c4.5,4.2,9.1,8.4,13.7,12.5c2.1,1.9,4.5,3.6,6.7,5.4c0.4,0.3,0.8,0.7,1.1,1.1
		C505.3,460.2,505.3,460.7,504.8,461.3z"/>
</g>
</svg>
