<?xml version="1.0" encoding="UTF-8" standalone="no"?>
<!DOCTYPE svg PUBLIC "-//W3C//DTD SVG 1.1//EN" "http://www.w3.org/Graphics/SVG/1.1/DTD/svg11.dtd">
<svg width="100%" height="100%" viewBox="0 0 8334 8334" version="1.1" xmlns="http://www.w3.org/2000/svg" xmlns:xlink="http://www.w3.org/1999/xlink" xml:space="preserve" xmlns:serif="http://www.serif.com/" style="fill-rule:evenodd;clip-rule:evenodd;stroke-linejoin:round;stroke-miterlimit:2;">
    <g id="Gryffindor-Color" serif:id="Gryffindor Color" transform="matrix(10.5079,0,0,10.5079,-1928.19,-77.2128)">
        <g id="Silhouette" transform="matrix(1.07618,0,0,1.07618,280.196,32.2445)">
            <path d="M501.575,112.9C508.852,125.362 516.184,138.776 528.547,153.022C525.561,158.789 523.484,164.319 523.728,173.252C523.835,177.182 522.685,180.81 520.769,182.628C525.663,187.741 521.64,191.073 521.64,196.602C521.64,229.112 520.203,262.656 515.107,294.765C551.852,283.86 569.152,328.846 538.744,353.577C532.869,358.355 525.918,357.866 520.922,357.346C515.645,356.797 516.641,355.461 511.424,351.658C513.407,356.166 517.429,361.698 526.521,367.298C518.535,368.107 502.257,376.423 500.689,377.936C503.647,382.337 504.934,390.577 501.771,400.979C506.827,404.744 512.82,405.369 520.704,405.932C528.578,406.495 531.732,407.463 532.792,410.925C546.658,409.94 564.749,411.812 579.425,422.625C563.404,429.142 546.238,439.198 545.991,457.974C545.462,498.407 541.381,540.043 545.394,584.718L482.633,569.865C473.577,571.74 462.361,568.807 448.674,561.991C441.222,558.279 430.248,566.301 425.139,576.161C411.767,591.403 396.899,604.765 382.404,618.939C379.309,621.965 375.425,625.634 373.719,629.192C369.02,638.991 364.969,624.819 361.536,614.837C351.458,624.635 341.517,634.305 330.284,637.911C313.306,653.95 294.815,672.663 281.239,691.717C270.982,683 263.333,672.908 253.351,662.791C238.217,647.452 220.696,633.989 206.496,615.982L194.411,631.466L164.06,601.145L164.533,593.96L159.182,595.78L134.002,563.467C100.501,566.375 68.052,570.541 39.825,579.759L43.504,568.492C32.99,571.258 24.889,575.049 18.984,579.773C27.73,563.719 29.399,539.556 27.733,511.573C27.338,504.939 29.021,499.145 31.962,495.73C24.005,492.794 27.376,488.54 29.492,478.537C28.691,463.295 28.688,447.116 32.961,436.179C24.534,424.461 13.492,418.124 0,416.832C4.468,410.17 18.608,404.468 47.818,400.264L47.38,388.957L71.59,388.026C69.736,380.16 69.504,373.175 73.587,371.825C69.203,363.795 62.311,359.371 54.403,356.408C54.965,352.78 56.177,351.056 59.518,348.488C6.564,357.558 17.883,274.599 65.393,289.459L60.405,198.276C60.953,179.547 60.846,152.209 56.43,144.909C64.693,135.97 72.334,124.754 79.49,111.766C103.181,123.372 125.373,109.515 134.254,85.385C140.584,68.184 138.455,46.24 132.981,22.411C219.42,-7.388 340.981,-7.826 457.137,23.233C437.582,83.046 467.194,134.529 501.575,112.9Z"/>
        </g>
        <g id="Gold" transform="matrix(0.0951667,0,0,0.0951667,183.499,7.34808)">
            <path d="M6297.51,4713.24L6250.16,4570.1C6340.11,4498.93 6408.5,4406.84 6458.61,4297.02C6492.05,4432.52 6536.97,4633.82 6506.58,4659.99C6456.31,4703.27 6420.93,4734 6403.84,4787.98C6457.28,4793.23 6480.95,4764.05 6508.11,4729.75C6539.69,4780.09 6564.09,4846.35 6597.59,4806.11C6672.98,4715.58 6667.11,4612.69 6601.78,4515.35C6677.48,4467.16 6761.52,4434.53 6827.03,4389.78C6767.73,4321.34 6670.51,4174.01 6694.71,4028.76C6725.78,3842.27 6835.1,3795.52 6969.77,3814.96C7040.53,3825.17 7107.5,3889.39 7093.65,3994.09C7081.47,4086.1 6883.6,4152.39 6880.2,4013.43C6945.94,4056.39 7029.53,4007.06 7008.91,3937.05C6959.89,3770.65 6670.96,3977.38 6778.01,4133.24C6889.8,4296 7047.45,4234.28 7114.87,4147.93C7191.09,4050.29 7225.45,3886.35 7183.15,3805.04C7097.4,3640.2 7010.29,3583.68 6761.34,3719.59C6761.34,3505.56 6818.78,3365 6838.32,3238.83C6857.44,3115.33 6858.64,2696.97 6856.52,2579.82C6887.93,2563.54 6879.32,2521.62 6844.64,2457.05C6883.52,2426.49 6887.42,2384.85 6846,2328.86C6892.87,2310.68 6909.96,2267.09 6899.8,2200.71C6885.36,2106.39 6906.93,2037.21 6942.64,1996.48C6818.82,1902.65 6737.23,1781.18 6666.08,1645.61C6063.17,1769.87 5951.29,1037.58 6085.52,588.046C5763.35,459.608 5352.39,412.587 4920.14,360.986C4761.98,349.93 4619.63,330.003 4317.39,326.425C3991.71,328.646 3656.2,346.88 3310.93,390.579C3102.74,416.93 2851.81,449.398 2595.13,538.18C2782.2,1176.03 2523.11,1711.76 1951.38,1613.24L1727.78,1914.76C1747.27,2408.2 1769.1,2889.1 1804.95,3338.54C1847.74,3401.46 1866.43,3449.94 1830.83,3531.24L1822.22,3677.67C1538.56,3396.26 1269.77,3784.97 1408.9,4052.07C1496.24,4219.73 1901.4,4175.53 1753.2,3830.23C1624.2,3730.19 1488.25,3816.87 1596.37,3952.25C1631.67,3996.45 1660.95,3970.9 1691.33,3900.02C1747.17,3997.96 1621.29,4135.44 1526.44,3976.76C1459.32,3864.47 1548.97,3633.57 1747.76,3756.17C1897.21,3848.34 1851.08,4083.92 1730.37,4257.45C1829.21,4316.03 1897.94,4393.71 1951.89,4480.77C1862.24,4556.81 1844.47,4608.82 1898.58,4636.82C1927.39,4651.72 1962.71,4620.21 1986.56,4586.1C2118.3,4673.2 2138.66,4610.23 2005.26,4531.13C1996.23,4451.74 2033.21,4265.06 2125.95,4146.1L2295.15,4478.07C2286.7,4519.42 2262.32,4554.38 2229.88,4586.1C2283.77,4556.97 2340.76,4543.89 2385.41,4578.6C2372.86,4473.54 2356.86,4375.26 2351.64,4282.58C2306.39,4089.42 2274.48,3856.61 2271,3644.64C2219.95,3644.94 2171.54,3634.25 2129.9,3595.59C2062.96,3654.72 2079.06,3697.11 2234.74,3766.16L2071.5,3849.83C2048.3,4000.17 2227.37,4146.49 2180.27,3922.03C2327.55,4062.7 2124.54,4205.75 2059.42,4005.89C2061.7,4318.9 1772.7,4259.8 1886.99,4054.08C1929.37,4245.44 2032.31,4108.39 2009.51,3854.22L1884.85,3760.45C2081.24,3714.34 2082.2,3570.08 1951.16,3612.14C1911.23,3624.95 1940.43,3662.86 1971.08,3664.8C1917.63,3734.46 1800.51,3587.65 1941.99,3529.95C1980.36,3514.3 2024.89,3561.62 2063.44,3615.65C2096.37,3604.52 2075.5,3565.07 2026.54,3494.27C1998.85,3454.23 1996.41,3379.6 1999.62,3320.78C1972.54,3338.33 1958.91,3370.1 1953.08,3395.71C1932.23,3347.14 1936.3,3270.66 1951.32,3216.34L1906.43,3270.07C1910.45,3204.2 1934.52,3155.6 1967.1,3109.05L1903.95,3144.58C1921.73,2977.8 1923.41,2849.55 2188.02,2730.56L2181.04,2232.65C2199.07,2138.52 2204.31,2113.11 2297.6,2109.26C2420.65,2104.19 2551.45,2042.61 2621.54,1935.71C2608.9,1866.62 2633.28,1904.27 2711.88,1869.77C2828.6,1706.31 2952.29,1553.7 2978.55,1249.53C3040.91,1154.28 3065.39,1042.97 3053.72,916.339C3483.07,711.524 4960.18,753.325 5594.83,923.832C5561.95,1265.12 5662.27,1548.63 5837.37,1799.7C5885.91,1869.3 5963.43,1841.49 6000.26,1794.8C5974.1,1728.63 5960.61,1660.2 5967.06,1588.23L6151.61,1630.6L6324.43,1851.66L6239.65,1864.94C6288.48,1940.16 6301.34,2022.56 6284.4,2110.92L6412.03,2145.3L6332.88,3624.04L6492.76,3802.38C6595.21,3614.95 6462.79,3445.55 6441.93,3646.39C6344.65,3588.58 6465.34,3423.34 6556.82,3571.12C6657.86,3326.38 6848.22,3628.28 6645.82,3661.78C6794.11,3513.48 6550.28,3463.24 6571.47,3721.98C6604.82,3774.85 6649.48,3811.5 6696.48,3844.78L6578.45,3895.91C6546.37,3914.45 6527.48,4035.47 6551.43,4158.08C6572.51,4266.03 6721.35,4195.92 6595.65,4127.37C6677.74,4122.7 6745.22,4221.42 6647.43,4266.83C6585.75,4295.47 6532.11,4252.26 6493.8,4159.07C6434.96,4275.55 6376.34,4325.19 6318.14,4249.59C6402.66,4247.42 6450.09,4201.9 6449.43,4100.2C6393.64,4154.11 6332.43,4196.18 6261.5,4216.99L6236.04,4183.16C6215.61,4376.61 6193.7,4578.66 6110.13,4748.31C6146.78,4781.57 6177.31,4728.64 6212.18,4668.52C6225.25,4680.74 6238.15,4703.88 6244.85,4741.19C6255.88,4802.54 6311.51,4784.08 6297.51,4713.24ZM2584.14,6609.07L2829.77,6927.65L2911.98,6938.88L2920.71,7035.18L3191.99,7326.41L3355.78,7094.06C3417.54,7172.42 3472.51,7296.88 3545.05,7368.08C3757.33,7576.47 3971.6,7762.17 4177.63,8007.46C4310.93,7783.23 4514.92,7595.54 4723,7409.96C4769.53,7451.36 4930.56,7304.2 5115.34,7117.91C5157.12,7171.52 5186.25,7248.29 5209.65,7335.59C5417.03,7086.09 5642.42,6885.91 5853.6,6640.86C5917.85,6566.32 5859.02,6553.27 5746,6665.71C5736,6675.67 5715.19,6701.81 5696.2,6686.84C5672.48,6668.12 5766.4,6584.69 5711.44,6559.44C5686.45,6547.95 5643.07,6648.69 5642.69,6720.5C5498.12,6721.48 5429.62,6828.06 5453.24,7006.84C5358.57,7015.09 5273.36,7023.59 5196.72,7068.29C5242.84,6963.97 5075.01,7019.58 4977.04,7094.28C4847.08,7193.36 4695.37,7369.31 4551.02,7332.43C4549.53,7216.03 4632.35,7110.38 4737.06,7002.9C4773.76,6965.23 4650.4,6941.21 4553.01,7047.49L4205.7,7360.61L3981.81,7160.55C3896.97,7042.71 3842.45,7098.67 3945.69,7188.85C3992.32,7229.57 3908.17,7286.86 3875.78,7169.31C3856.55,7099.52 3821.82,7070.82 3789.06,7098.21C3844.91,7190.53 3874.95,7281.31 3875.6,7370.35C3765.59,7361.47 3629.08,7268.7 3473.2,7114.59C3488.38,7036.17 3442.25,7025.5 3359.99,7001.59C3246.56,6968.63 3169.27,6883.29 3127.83,6787.04L3057.48,6766.81C3240.75,6978.15 2996.72,7131.98 2966.57,6939.6C3093.53,7078.01 3084.68,6848.01 2974.27,6742.65C2915.31,6686.4 2847.3,6670.22 2772.7,6653.48C2784.47,6603.23 2790.28,6538.86 2771.03,6501.79L2669.8,6517.61L2709.34,6598.6L2584.14,6609.07ZM3601.23,4700.27C3305.84,4718.39 3005.7,4719.51 2734.39,4753.28L2734.59,4722.09C3538.05,4659.16 4327.7,4609.74 5160.63,4681.29L5240.85,4762.19L5329.14,4708.39L6151.75,4787.99L6305.17,4864.52L6392.65,4835.08C6605.83,4856.87 6832.14,4866.09 6984.01,4946.66C7154.04,4947.57 7340.17,4953.21 7469.73,5024.13L7317.77,5068.72C7061.78,4984.52 6776.81,4937.68 6475.4,4912.03C6759.5,4964.88 7046.72,5012.39 7296.94,5123.41C7109.05,5074.74 6921.41,5046.55 6733.97,5032.86C6933.68,5076.06 7119.15,5125.26 7203.64,5189.52L7047.48,5213.39L7168.76,5261.33L7149.95,5333.83L7009.97,5346.86L7136.66,5386.98L7138.45,5468.55L7025.47,5476.6L7134.24,5520.15L7128.49,5583.03L7022.56,5597.51L7123.71,5634.81L7129.57,5703.61L7034.75,5712.08L7125.33,5749.47L7128.99,6646.13L6606.66,6520.02C6793.9,6593.8 6970.09,6660.07 7138.73,6721.22L6581.79,6591.56L7131.67,6770.66L7138.83,6826.15C6916.23,6780.08 6696.5,6706.31 6457.4,6660.08C6382.94,6645.69 6308.43,6685.88 6210.86,6600.97C6113.01,6515.81 5915.84,6499.15 5716.51,6476.84L4827.63,6405.42L4581.25,6382.9C4515.41,6344.28 4462.4,6343.22 4426.03,6390.84C4324.09,6357.74 4215.98,6365.99 4104.93,6393.95L2651.22,6465.2L2663.77,6415.27L3506.28,6352.06L2654.51,6367.24C3197.29,6296.03 3746.57,6251.74 4305.33,6246.79L2649.96,6296.66L2655.5,6249.51C2939.94,6242.13 3229.96,6243.34 3457.59,6148.59C3491.91,6164.99 3510.41,6173.53 3556.27,6176.58C3868.06,6197.31 4219.95,6209.96 4522.57,6147.95L4581.04,6190.25C4952.13,6189.19 5328.91,6202.75 5734.3,6289.73C5972.2,6352.19 6192.99,6426.92 6321.19,6357.68C6366.54,6424.43 6457.86,6449.8 6592.68,6447.45C6690.66,6500.4 6798.02,6535.74 6918.81,6545.86L6921.23,6473.74L7027,6468.64C7064.77,6435.47 7007.62,6420.59 6942.87,6410.02C6920.5,6389.84 6912.98,6364.09 6921.76,6332.25C7010.9,6311.88 6991.1,6298.02 6920.36,6285.34C6904.83,6259.58 6907.84,6237.82 6921.78,6218.44C6958.6,6220.48 6997.21,6219.93 7040.5,6212.58C7027.58,6176.39 6986.73,6180.21 6935.97,6167.24C6911.89,6139.53 6906.78,6103.06 6920.63,6057.82C6969.4,6071.63 7018.17,6074.07 7066.95,6062.8C7022.33,6058.76 6976.55,6043.03 6929.62,6015.62C6921.89,5997.03 6924.7,5977.58 6936.24,5957.42L7037.54,5943.03L6945.78,5901.49L6940.11,5861.59L7053.19,5834.98L6959.72,5789.48C6939.86,5565.63 6933.71,5353.35 6996.88,5199.53C6838.93,5091.83 6697.55,5047.81 6593.36,5146.8C6629.91,5074.13 6485.85,5050.93 6323.83,5023.56C5612.04,4898.98 4827.13,4832.26 3940.43,4846.11C3885.79,4898.79 3830.49,4894.98 3773.37,4852.93L3188.93,4880.17C3121.09,4949.82 3130.64,4905.37 3069.38,4883.32L2741.71,4912.76L2746.71,4876.99C3102.74,4844.07 3462.58,4815.78 3833.58,4801.1L2741.24,4841.45L2739.24,4797.91L3601.23,4700.27ZM1442.11,5644.25C1482.34,5658.31 1522.07,5663.6 1561.01,5655.11L1557.86,5727.71L1451.56,5766.2C1493.01,5780.99 1529,5790.23 1557.37,5791.72L1555.88,5861.91L1453.05,5905.67C1491.06,5915.35 1527.17,5918.41 1560.84,5912.89L1552.53,5973.34L1437.63,6029.36C1482.64,6034.19 1522.89,6034.31 1555.07,6026.45L1550.58,6084.13L1453.61,6125.09C1494.33,6139.43 1529.17,6141.4 1557.57,6129.79L1549.05,6209.65L1452.03,6273.4C1486.93,6280.48 1522.08,6281.74 1556.31,6271.9L1558.35,6303.36L1453.26,6346.95C1488.4,6361.36 1522.49,6366.61 1555.4,6361.82L1543.72,6425.93C1505.61,6461.5 1459,6481.65 1408.54,6494.78C1451.88,6510.53 1495.66,6507.99 1535.9,6487.43L1534.97,6535.7C1511.36,6566.01 1475.47,6572.42 1434.85,6569.64C1465.69,6593.74 1496.81,6601.53 1528.2,6593.01C1501.54,6645.12 1426.79,6666.34 1349.26,6685.77C1379.86,6496.19 1396.87,6282.98 1398.68,6043.34C1390.34,5979.35 1401.68,5904.34 1440.04,5870.03C1462.22,5850.19 1436.75,5800.72 1397.61,5797.4C1403.26,5594.96 1420.68,5397.62 1462.59,5210.9L1576.96,5197.6C1601.91,5253.1 1559.07,5290.74 1487.61,5308.94C1607.86,5341.12 1589.24,5397.29 1454.96,5417.95C1482.3,5442.07 1512.94,5445.69 1544.65,5442.75C1575.43,5493.77 1528.64,5518.83 1442.61,5530.77L1539.24,5559.04C1585.71,5604.96 1519.48,5625.84 1442.11,5644.25ZM1410.32,5067.69C1455.21,5076.54 1502.27,5073.06 1549.17,5070.48C1585.59,5072.88 1595.27,5097.54 1582.61,5117.79C1572.33,5134.24 1549.94,5158.57 1512.56,5154.9C1438.57,5140.24 1387.88,5079.21 1334.88,5029.62C1297.42,4994.57 1265.45,4959.84 1219.58,4936.93L1504.49,4866.37C1571.74,4825.97 1624.6,4917.12 1523.27,4917.12L1422.61,4935.15C1361.51,4938.89 1367.01,4974.46 1425.31,4973.58L1555.95,4957.66C1613.79,4956.83 1639.97,5023.46 1541.16,5022.95C1478.36,5027.72 1385.22,5035.71 1410.32,5067.69Z" style="fill:rgb(255,191,53);"/>
        </g>
        <g id="Red" transform="matrix(0.0951667,0,0,0.0951667,183.499,7.34808)">
            <path d="M6366.24,2176.89L6298.82,3596.43C6109.67,3614.53 5915.13,3614.74 5725.81,3586.82C5754.95,3537.92 5802.85,3476.88 5817.74,3430.21C5863.36,3287.28 5817.33,3162.95 5898.05,2877.75L5847.61,2875.37C5904.76,2733.99 5994.83,2652.22 6095.94,2605.71C6094.65,2450.66 6181.9,2284.62 6265.35,2154.72L6366.24,2176.89ZM4404.75,829.925L4416.83,1056.73C4477.31,1087.49 4530.17,1105.03 4576.72,1111.61C4666.54,1223.5 4741.8,1313 4841.38,1298.23C4825.38,1246.3 4785.73,1182.89 4765.14,1119.8C4798.31,1068.6 4835.11,1002.25 4873.64,943.694C4898.86,1013.71 4928.22,1073.21 4952.38,1121.6C4930.41,1177.2 4898.12,1236.01 4866.72,1295.16C4896.77,1338.96 4938.68,1378.04 4972.89,1390.01C5099.43,1434.28 5222.39,1471.35 5338.51,1522.09C5341.42,1544.42 5346.96,1571.69 5340.38,1589.03C5334.2,1605.32 5320.71,1618.53 5318.08,1630.16C5278.79,1804.04 5268.73,1995.08 5152.5,2096.16C5175.65,2133.54 5192.18,2194.95 5175.32,2241.19C5144.23,2326.47 5129.02,2376.92 5137.62,2439.64C5025.51,2462.65 4933.4,2491.38 4885.25,2532.68C5104,2580.58 5259.72,2701.03 5323.59,2909.72L5256.57,2883.57C5311.38,2938.27 5318.64,2956.61 5356.87,3029.28C5550.91,2722.09 5738.66,2463.75 5680.11,2228.84C5714.23,2102.5 5781.75,1973.13 5858.51,1888.55C5726.78,1727.95 5476.7,1478.72 5555.65,947.874C5178.7,857.735 4743.18,859.256 4404.75,829.925ZM4205.63,815.853C4050.28,817.533 3893.35,836.548 3716.03,844.512C3686.56,845.835 3643.01,841.038 3642.91,862.061L3760.39,1152.7L3881.02,1134.14L3838.88,1062.68C3815.09,1026.54 3831.72,1002.77 3856.15,1012.16C3916.18,1035.26 3981.82,1047.97 4066.29,1051.95L4205.63,815.853ZM3271.61,1344.47C3375.96,1186.06 3484.2,1028.14 3535.66,863.007C3400.36,860.271 3254.67,893.993 3108.45,929.556C3136.76,1077.69 3187.06,1217.54 3271.61,1344.47ZM2711.1,2423.39L2963.78,1955.5C2934.64,1870.88 2900.21,1790.73 2853.64,1720.83C2779.75,1856.09 2679.38,1981.3 2562.63,2100.3L2711.1,2423.39ZM2890.62,3166.32L2987.73,3011.54L2700.37,2517.18L2541.3,2790.57C2635.49,2945.42 2753.11,3069.09 2890.62,3166.32ZM2693.21,3474.27L2505.77,3165.35C2678.85,3177.4 2828.43,3344.48 2693.21,3474.27ZM3203.68,1810.2C3178.23,1900.43 3136.23,1988.63 3064.01,2046.53L3020.02,1954.06L3218.18,1555.57L3332.22,1576.75C3278.69,1642.13 3234.61,1718.51 3203.68,1810.2ZM3238.01,1514.89L3292.38,1484.19L3272.38,1431.29L3238.01,1514.89ZM4982.15,2025.98C4912.06,1977.87 4843.21,1972.89 4801.24,1979.3C4737.89,1988.99 4745.5,2158.43 4794.32,2165.55C4859.72,2160.66 4909.14,2161.79 4958.79,2175.01C4993.29,2147.47 4992.91,2092.85 4982.15,2025.98ZM3302.26,2754.37C3270.85,2733.67 3238.57,2715.88 3200.89,2707.41L3031.05,3010.8L3282.87,3444.81L3448.21,3133.43C3445.8,3050.27 3386.26,2979.75 3330.37,2908.42C3295.98,2864.53 3295.03,2811.1 3302.26,2754.37ZM3274.33,3499.06L3538.36,3935.85L3079.7,3947.68C3060.76,3803.2 3114.82,3789.24 3274.33,3499.06ZM2527.69,3942.89L2683.39,3553.3C2797.99,3687.32 2859.3,3817.52 2809.64,3939.75L2527.69,3942.89ZM2558.94,4605.56C2586,4561.51 2635.19,4526.33 2730.09,4542.02L2809.23,3992.02L2338.15,4001.22L2433.22,4576.59C2492.82,4566.11 2538.26,4552.81 2558.94,4605.56ZM6074.27,4446.33L5919.02,4710.04L5706.11,4679.39L5585,4429.3L5834.16,4044.32C5917.47,4160.09 5991.5,4307.04 6074.27,4446.33ZM5529.24,4445.23L5341.1,4035.36L5097.15,4420.94L5187.01,4633.14L5229.41,4640.06L5260.36,4687.93L5302.14,4646.36L5384.19,4646.2L5529.24,4445.23ZM3059.3,4004.05C3015.17,4212.66 2983.31,4420.11 3038.1,4631.6L3466.24,4601.04C3663.47,4385.18 3758.87,4186.69 3745.67,4006.74C3575.71,3987.84 3411.25,3978.21 3291.51,4043.79L3253.21,3992.81L3059.3,4004.05ZM3734.31,3673.8C3675.05,3758.31 3617.72,3839.01 3588.93,3939.39L3763.61,3940.6C3768.55,3851.99 3764.67,3757.93 3734.31,3673.8ZM2325.25,3750.95C2321.48,3811.25 2327.2,3878.16 2333.61,3943.81L2454.69,3940.51C2423.4,3868.41 2379.44,3802.83 2325.25,3750.95ZM3726.22,6465.6C3892.58,6446.47 4061.92,6420.4 4206.81,6451.47L4174.65,7251.97L4011.04,7117.15C4036,7090.8 4073.45,7075.09 4121.27,7048.36L4157.4,6895.87C4163.37,6814.15 4002.58,6682.13 3896.52,6604.14L3802.51,6616.83C3744.35,6567.12 3711.95,6516.93 3726.22,6465.6ZM2945.78,6498.87C3029.73,6455.8 3211.83,6606.62 3139.6,6740.05C3026.03,6727.96 2962.93,6645.46 2945.78,6498.87ZM4267.91,6837.35L4420.12,7094.08L4549.92,6879.08C4543.96,6752.22 4505.7,6648.54 4393.39,6598.01L4267.91,6837.35ZM2239.08,3347.78C2177.22,3409.87 2189.2,3461.95 2266.1,3532.08L2239.08,3347.78ZM2688.94,4606.72C2683.1,4795.87 2684.53,5203.31 2656.53,5226.39C2621.47,5255.28 2609.38,5275.71 2636.74,5279.6C2661.24,5283.08 2671.04,5302 2668.68,5333.72C2646.54,5352.32 2616.25,5359.9 2580.39,5359.94C2612.31,5370.6 2643.28,5370.98 2673.6,5364.33C2649.48,5385.94 2621.76,5402.97 2590.1,5414.97C2611.17,5428.39 2635.43,5423.46 2656.55,5412.83C2648,5431.53 2625.44,5447.15 2593.28,5460.66C2610.86,5474.51 2631.63,5478.63 2656.28,5471.01L2613.16,6552.48C2493.36,6568.09 2351.44,6575.47 2200.19,6578.03C2152.31,6610.26 2116.54,6622.63 2043.8,6619.87C1959.12,6616.66 1875.14,6625.5 1793.19,6669.69L1783.47,6613.21C1742.05,6676.08 1662.24,6713.09 1559.35,6734.54C1615.53,6222.16 1647,5673.44 1635.65,5091.77C1712.58,5028.37 1670.41,4971.55 1626.43,4890.84C1606.85,4854.9 1625.17,4759.05 1631.97,4717.69C1922.05,4722.12 2206.99,4690.39 2486.93,4623.34C2515.83,4638.11 2521.55,4668.2 2515.07,4706.34C2555.86,4640.16 2609.95,4599.52 2688.94,4606.72ZM5632.26,6550.51C5503.15,6497.09 5398.32,6552.15 5308.93,6676.19L5437.65,6776.98C5503.26,6728.71 5520.06,6664.11 5510.8,6590.79C5565.72,6593.24 5609.54,6583.47 5632.26,6550.51ZM2222.3,2541.09L2305.52,2722.88L2233.22,2725.67L2222.3,2541.09Z" style="fill:rgb(241,32,6);"/>
        </g>
        <g id="Brown" transform="matrix(0.0951667,0,0,0.0951667,183.499,7.34808)">
            <path d="M3726.32,3258.85C3633.21,3132.32 3665.46,3035.32 3693.04,2937.21C3687.11,3033.95 3700.45,3093.91 3728.67,3125.5C3731.27,3062.35 3745.33,3007.34 3763.5,2955.24C3731.26,2858.28 3757.66,2787.26 3789.84,2718.81C3782.23,2840.95 3796.19,2920.61 3848.84,2924.08L3953.79,2648.37C3888.57,2511.01 3899.51,2385.51 3931.83,2263.35C3964.81,2464.39 3995.56,2636.02 4075.72,2614.9C4011.5,2510.03 4003.81,2412.87 4010.79,2317.71C4027.57,2433.42 4068.31,2524.93 4131.13,2594.15C4095.28,2477.79 4104.23,2395.38 4131.92,2327.17C4130.5,2435.9 4146.06,2533.68 4185.26,2616.22C4165.55,2473.99 4177.92,2381.19 4225.54,2342.67C4242.61,2587.57 4279.36,2744.8 4391.11,2792.76C4354.73,2725.89 4377.39,2652.95 4383.3,2603.49C4461.7,2753.64 4572.36,2861.82 4718.43,2923.9C4638.39,2768.06 4771.12,2878.08 4900.58,2984.01C4879.42,2847.35 5061.65,3046.21 5061.65,3046.21C5061.65,3046.21 4979.49,2859.13 4812.36,2796.1C4999.25,2831.8 5196.54,2994.88 5354.36,3269.68C5330.78,3019.18 5183.75,2802.62 4832.84,2642.1C4963.47,2680.03 5098.16,2719.72 5221.48,2800.84C5119.13,2684.24 5058.33,2581.72 4729.41,2571.56C4409.4,2458.86 4322.71,2294.99 4366.46,2121.24L4253.56,2240.3C4262.25,2195.56 4280.79,2153.45 4318.8,2116.53C4188.02,2124.18 4179.21,2002.1 4229,1839.96C4178.59,1901.17 4137.8,1979.6 4104.43,2071.32C4106.09,2018.28 4111.39,1963.94 4138.64,1901.76C4072.37,1899.93 4055.69,1941.46 4024.91,2000.17L4029.79,1893.4C3977.87,1877.94 3956.7,1915.51 3926.97,1960.79C3938.38,1806.7 3895.43,1810.38 3823.87,1897.05C3838.73,1797.05 3931.26,1715.67 3868.83,1690.38L3898,1606.48C3900.76,1453.73 3907.55,1469.84 4051.13,1480.06C4142.74,1486.58 4019.87,1401.28 3954.85,1377.79C3879.05,1350.41 3892.16,1288.87 4029.37,1362.99C4150.75,1411.7 4323.73,1393.51 4125.77,1309.35C4069.07,1285.24 4088.01,1232.42 4171.24,1288.95C4244.72,1341.72 4314.76,1371.18 4374.02,1327.75C4340.28,1305.68 4295.28,1256.54 4279.58,1224.56C4333.45,1278.03 4580.09,1349.69 4628.98,1340.47C4682.03,1344.01 4771.14,1338.6 4756.01,1330.32C4689.31,1293.79 4634.19,1255.98 4581.8,1175.93L4407.1,1105.16L4448.71,1208.07C4316.07,1127.09 4150.96,1095.46 3954.12,1112.05C4029.52,1132.3 4092.77,1157.67 4117.98,1199.1C3928.1,1168.35 3760.82,1182.21 3626.57,1261.22C3714.78,1252.73 3783.97,1260.41 3813.22,1302.04C3620.22,1246.79 3535.38,1349.85 3411.84,1499.41C3552.93,1418.39 3686.52,1357.93 3792.03,1374.37C3435.75,1498.87 3249.59,1714.73 3201.91,2004.95C3267.63,1990.89 3355.72,1919.76 3448.03,1837.86C3390.26,1954.77 3279.94,2076.88 3128.72,2203.05C3248.31,2174.41 3401.1,2026.9 3486.07,1933.65C3589.72,1819.9 3739.98,1797.36 3783.11,1712.4C3813.04,1812.6 3529.94,1896.16 3364.2,2134.27C3314.33,2220.76 3236.13,2321.24 3149.55,2422.4C3188.88,2412.8 3207.44,2415.47 3246.29,2397.05C3238.35,2456.02 3196.29,2520.17 3137.96,2566.58C3303.93,2661.14 3442.76,2563 3568.49,2428.96C3551.54,2522.6 3491.6,2609.24 3303.31,2674.99C3362.2,2708.19 3436.99,2705.97 3533.93,2654.43C3547.78,2700.24 3480.43,2740.66 3350.44,2776.92C3361.42,2839.1 3386.88,2859.18 3421.41,2898.92C3442.1,2839.45 3475.88,2789.66 3531.84,2756.3C3491.4,2839.5 3469.72,2931.49 3487.36,3041.9L3547.15,3132.22C3510.19,2968.77 3542.06,2803.69 3672.42,2636.28C3480.34,3084.58 3605.39,3279.87 3742.8,3426.87L3726.32,3258.85ZM2064.86,3459.36C2047.39,3415.17 2030.12,3370.28 2035.06,3245.32C2010.89,3254.56 1990.53,3272.06 1971.06,3291.49C1968.38,3226.06 1998.37,3168.45 2052.27,3116.56C2027.96,3117.61 2004.84,3129.55 1981.99,3144.03C2014.4,3075.34 2048.57,3040.35 2091.46,2991.99C2047.28,3001.48 2007.22,3022.36 1968.49,3046.88C1999.24,2954.87 2049.03,2883.09 2126.84,2837.16C2286.48,2742.92 2490.24,2768.51 2634.71,3034.6C2586.87,3039.38 2585.12,3034.52 2517.74,3070.13C2419.49,3122.06 2266.43,3241.24 2205.57,3299.66C2137.35,3365.15 2148.61,3478.67 2175.95,3518.02C2070.22,3405.75 2098.56,3283.7 2195.92,3156.6C2088.37,3214.13 2056.74,3337.66 2064.86,3459.36Z" style="fill:rgb(170,71,6);"/>
        </g>
        <g id="Orange" transform="matrix(0.0951667,0,0,0.0951667,183.499,7.34808)">
            <path d="M4348.87,6482.28C4593.36,6468.49 4884.75,6395.93 5001.37,6577.77C4962.07,6628.09 4893.56,6581.79 4815.37,6544.17C4758.02,6516.58 4787.22,6633.45 5023.66,6624.35L5184.92,6619.78C5224.41,6681.27 5247.02,6714.23 5300.66,6753.86C5363.85,6800.57 5380.74,6919.99 5319.23,6955.77C5311.08,6849.62 5272.92,6794.39 5229.77,6747.61C5248.72,6821.5 5253.08,6890.74 5226.83,6950.22L5109.15,6960.46C5165.13,6869.59 5094.97,6786.04 5009.74,6712.61C5063.52,6856.59 5056.06,6959.35 4848.29,6939.58C4755.68,6930.76 4678.73,6911.58 4608.84,6827.68C4647.06,6638.12 4514.49,6560.47 4348.87,6482.28ZM3495.78,6613.79C3554.05,6733.3 3663.6,6744.34 3841.26,6699.71C4070.36,6793.8 4101.53,6893.33 4075.06,6981.1C4055.2,6905.9 4020.8,6848.49 3971.19,6834.14C4009.41,6938.62 4013.18,7024.75 3856.47,7008.11C3877.1,6906.52 3829.44,6850.15 3757.26,6810.01C3778.66,6901.54 3795.32,6986.68 3740.77,6988.25C3542.18,6994.58 3417.87,6975.97 3371.39,6931.2C3314.72,6869.3 3306.83,6842.76 3237.61,6813.98C3259.91,6721.44 3262.32,6627.62 3197.75,6529.45C3290.5,6487.27 3387.07,6473.98 3501.26,6474.68C3516.24,6536.82 3536.41,6589.56 3607.6,6613.05C3652.56,6627.89 3627.85,6595.48 3590.66,6548.23C3566.88,6518.02 3566.66,6493.84 3592.47,6481.56C3644.9,6555.32 3702.25,6615.23 3774.51,6659.99C3684.97,6721.17 3590.27,6665.12 3495.78,6613.79ZM4752.1,1334.83C4720.38,1331.41 4685.11,1325.15 4623.44,1341.34C4576.15,1353.75 4474.44,1357.05 4424.63,1360.1C4399.46,1361.64 4392.92,1386.28 4369.46,1385.84C4287.82,1384.32 4214.5,1417.26 4156.6,1458.39C4125.35,1480.59 4110.89,1491.96 4103.93,1509.36C4062.6,1612.64 4300.02,1635.19 4300.02,1635.19C4300.02,1635.19 4223.55,1681.52 4150.36,1644.23C4055.45,1595.88 4041.22,1487.16 4000.93,1507.66C3975.49,1520.61 3927.54,1571.34 3947.21,1624.31C3952.58,1638.77 3967.59,1682.39 3955.77,1717.21C3941.05,1760.58 3902.61,1794.44 3921.88,1811.37C3954.05,1839.63 4012.04,1759.79 4012.04,1759.79C4012.04,1790.1 4003.72,1824.33 4018.7,1846.32C4042.74,1881.62 4151.12,1682.04 4165.04,1704.67C4174.82,1720.54 4111.31,1836.71 4119.56,1856.82C4135.09,1894.66 4248.78,1733.01 4266.74,1764.8C4299.24,1822.33 4236.32,2014.77 4297.5,2074.95C4317.08,2094.21 4375.87,2066.59 4429.78,2016.41C4446.84,2057.65 4429.27,2061.82 4409.54,2118.62C4364.62,2311.72 4503.65,2433.7 4736.66,2533.52C4849.15,2483.69 4977.12,2433.15 5098,2401.38C5098,2349.13 5113.64,2282.88 5145.02,2210.03C4892.38,2273.58 4683.23,2320.62 4684.62,2078.07C4685.45,1934.68 4733.88,1804.47 4970.11,1926.76C5074.45,1980.78 5268.08,1904.93 5239.81,1690.11C5222.11,1669.44 5188.22,1660.08 5112.11,1680.15C5168.12,1638.06 5206.83,1569.61 5239.06,1521.2C5146.38,1508.59 5027.68,1467.72 4918.19,1452.97C4891.07,1352.77 4801.05,1340.1 4752.1,1334.83ZM5315.14,3499.9C5295.26,3167.41 5026.61,2987.55 5127.6,3151.28C4969.06,3003.53 4935.4,3017.24 4964.92,3112.62C4771.04,2899.42 4727.4,2907.95 4767.51,3040.06C4454.48,2787.87 4342.23,2735.35 4504.55,2955.94C4198.12,2654.79 4159.98,2763.09 4206.68,2801.71C4126.91,2774.54 4057.46,2781.84 3993.75,2808.37C4060.92,2806.32 4111.9,2819.66 4143.33,2851.57C4026.93,2829.42 3970,2852.55 3920.88,2881.63C4008.08,2865.49 4054.67,2876.41 4077.31,2903.29C4004.47,2893.86 3949.71,2914.38 3907.93,2956.4C3896.73,2986.06 3898.42,3014.47 3908.91,3042.03C3874.22,3034.88 3839.52,3012.89 3804.83,2987.44C3743.93,3119.85 3794.25,3463.92 3835.51,3664.7C3861.73,3792.3 3847.03,3789.52 3842.66,3888.65C3830.65,4161.4 3749.76,4393.83 3546.53,4584.23L3582.74,4587.09L3800.71,4343.25L3632.95,4585.4L3666.32,4584.94L3814.5,4415.88L3718.76,4580.19L3756.45,4581.56L3840.71,4499.32L3825.23,4577.98C4142.53,4564.08 4467.87,4583.71 4794.97,4610.67C4821.62,4535.14 4876.21,4531.09 4940.55,4451.13C4970.12,4414.4 4982.98,4292.88 4993.81,4201.41C5015.67,4243.44 5026.28,4286.03 5027.37,4329.08C5056.01,4259.75 5042.94,4153.99 5015.9,4036.03C5060.48,4096.57 5081.68,4167.87 5078.83,4266.6C5124.17,4198.92 5133,4054.6 5063.81,4004.68C4875.46,3981.59 4716.52,4072.94 4545.79,4185.9C4532.14,4060.1 4636.22,3970.45 4822.56,3906.07C4759.47,3957.9 4703.92,4006.35 4659.39,4049.87C4702.44,4048.42 4829.39,3976.09 4982.19,3881.92C5094.97,3812.42 5241.43,3801.35 5336.51,3872.26C5206.99,3867.23 5082.67,3877.13 4978.44,3944.63C5123.04,3981.42 5345.52,3929.47 5629.01,3918.37C5744.29,3913.86 5868.18,3948.61 5911.58,4031.67L6122.64,4087.91C6179.81,4038.14 6155.11,3961.29 6123.61,3882.2C6178.14,3918.34 6221.53,3974.78 6214.06,4123.94C6323.63,4089.36 6357.64,4003.65 6316.08,3866.82C6354.08,3912.28 6378.61,3983.1 6378.96,4099.4C6485.18,3970.76 6515.35,3844.47 6251.86,3640.06C5833.99,3678.8 5377.61,3583.19 4781.11,3387.46C4744.64,3318.5 4686.03,3236.58 4617.78,3149C4714.6,3208.01 4775.18,3327.17 4884.59,3369.37C4857.48,3312.66 4820.45,3256.36 4782.7,3200.09C4872.5,3305.2 4959.86,3399.93 5023.73,3394.79C4982.5,3317.8 4910.28,3233.93 4839.87,3150.45C4944.14,3236.36 5025.28,3326.27 5078.81,3421.85C5183.16,3493.64 5154.16,3426.75 4991.82,3221.16C5070.08,3281.55 5116.2,3324.97 5181.27,3417.38C5217.69,3455.66 5262.19,3483.34 5315.14,3499.9ZM5387.59,3081.85C5412.16,3170.4 5425.59,3254.04 5429.22,3333.37L5386.22,3318.79C5403.3,3430.28 5427.35,3527.64 5493.28,3540.04C5494.73,3492.43 5507.15,3451.56 5531.48,3418.94C5524.22,3484.08 5534.02,3535.14 5577.51,3558.37C5566.58,3485.25 5567.79,3418.28 5602.79,3368.43C5596.69,3453.76 5602.62,3526.81 5642,3565.61C5636.53,3463.14 5646.4,3367.97 5691.45,3289.55C5678.28,3360.41 5677.15,3422.32 5693.61,3471.15C5751.19,3344.57 5794.56,3151.56 5831.9,2932.14L5783.7,2923.26C5885.41,2683.75 5967.89,2625.97 6054.68,2581.69C6055.39,2434.51 6122.48,2360.44 6172.34,2238.77C6209.93,2147.02 6065.23,2248.16 6011.01,2146.8C6060.95,2111.02 6130.67,2110.23 6212.96,2131.68C6292.53,1937.38 6201.08,1928.99 6054.98,1980.02C6059.89,1929.78 6098.49,1901.8 6174.07,1898.28C6191.03,1798.49 6066.15,1854.26 5994.5,1894.16C5920.12,1935.57 5901.59,1900.67 5834.97,2033.21C5755.94,2170.59 5723.73,2313.39 5753.85,2463.4C5634.2,2673.57 5516.53,2887.01 5387.59,3081.85ZM2897.4,4183.06L2845.68,4223.41C2996.22,3652.48 2923.22,3220.68 2529.68,3109.79C2579.94,3077.63 2617.47,3066.6 2665.18,3058.7C3092.34,3240.55 3080.74,3801.47 2975.81,4223.27C2929.83,4408.08 2929.99,4519.38 2989.2,4645.93L2914.21,4650.18C2829.6,4548.26 2831.14,4381.61 2897.4,4183.06ZM5105.66,4001C5139.14,4042.51 5154.44,4117.06 5158.01,4205.18C5207.9,4132.22 5196.17,3992.41 5105.66,4001ZM2825.15,4503.39C2815.45,4580.96 2808.32,4640.46 2837.11,4646.87C2876.05,4655.54 2855.1,4547 2825.15,4503.39Z" style="fill:rgb(248,153,40);"/>
        </g>
        <g id="White" transform="matrix(0.0951667,0,0,0.0951667,183.499,7.34808)">
            <path d="M4250.56,811.86L4111.27,1044.28C4170.14,1043.88 4225.93,1045.96 4283.53,1062.8L4286.79,1021.06L4371.92,1026.1C4363.94,968.903 4350.46,889.487 4351.35,815.324L4250.56,811.86ZM3317.42,1443.69L3550.22,1291.08C3555.92,1241.61 3610.89,1195.64 3713.7,1168.12C3706.44,1087.74 3655.37,967.438 3616.32,852.859L3581.9,855.85C3533.76,987.953 3463.57,1122.71 3354.91,1262.08C3349.27,1319.27 3370.42,1330.84 3293.2,1374.51L3317.42,1443.69ZM2991.2,1901.5C3072.25,1732.37 3146.86,1565.38 3249.26,1389.16C3186.68,1300.59 3160.4,1191.97 3108.94,1086.95L2896.53,1676.73L2991.2,1901.5ZM2217.82,2449.2C2254.36,2514.43 2295.07,2599.78 2344.97,2729.41L2504.41,2765.55L2685.25,2470.57C2629.52,2352.71 2572.21,2221.02 2494.72,2111.36C2407.94,2145.58 2323.8,2176.21 2231.2,2177.04C2233.89,2272.74 2250.97,2372.51 2217.82,2449.2ZM3097.58,3727.22C3075.93,3543.87 3042.49,3362.92 2919.33,3200.26L3004.34,3053.72L3232.07,3485.73C3201.22,3574.36 3146.54,3649.12 3097.58,3727.22ZM2841.88,3721.33L2711.96,3511.38C2738.79,3469.21 2764.87,3434.24 2772.69,3398.54C2831.05,3480.93 2849.11,3600.04 2841.88,3721.33ZM2500.53,3896.33C2561.65,3760.6 2628.79,3622.83 2668.31,3494.35C2600.97,3374.9 2531.12,3274.43 2457.45,3202.77L2317.51,3278.2C2276.82,3534.78 2295.85,3653.52 2447.61,3536.85C2461.2,3571.88 2391.28,3620.32 2309.55,3641.63C2384.3,3722.88 2445.62,3808.55 2500.53,3896.33ZM2982.32,1986.92L2728.14,2459.83L3013.59,2976.08L3180.36,2663.46C3153.86,2648.3 3134.27,2628.24 3116.9,2606.62C3030.67,2615.18 2966.02,2584.91 2909.38,2540.21C3012.93,2578.69 3089.35,2567.69 3123.72,2496.63C3078.81,2511.24 3032.52,2519.27 2982.75,2510.51C3087.69,2451.09 3156.16,2369.48 3183.84,2263.08C3102.72,2273.26 3022.88,2261.53 2993.1,2208.56C3024.19,2213.93 3051.04,2201.82 3077.83,2184.35C3049.27,2115.75 3017.35,2050.02 2982.32,1986.92ZM3472.82,3166.6L3310.89,3473.76L3568.57,3883.75C3582.84,3852.08 3596.37,3825.85 3611.84,3799.98C3708.17,3638.95 3755.82,3594.08 3716.77,3492.51C3641.63,3374.74 3563.14,3246.98 3472.82,3166.6ZM5944.51,4111.22C5988.09,4225.11 6040.72,4329.26 6109.57,4415.93C6162.89,4356.62 6199.07,4287.35 6189.09,4215.86C6138.43,4202.96 6105.76,4225.51 6080.59,4249.3C6091.95,4205.36 6089.06,4153.72 6074.89,4117.99L5944.51,4111.22ZM6097.2,4486.73L5969.86,4721.01L6065.17,4735.27L6123.46,4640.12L6125.55,4514.33L6097.2,4486.73ZM5788.51,4030.73C5642.54,3989.84 5501.03,3989.17 5361.08,4002.58L5560.8,4393.01L5788.51,4030.73ZM5554.63,4468.81C5594.62,4533.57 5630.49,4601.11 5660.62,4672.52C5583.61,4677.25 5507.27,4669.86 5431.53,4651.82L5554.63,4468.81ZM5040.64,4449.35C5085.88,4511.68 5118.22,4571.59 5119.74,4625.73L4898.57,4609.02C4899.99,4568.64 4962.82,4511.09 5040.64,4449.35ZM4250.1,6882.62L4384.23,7135.37L4223.26,7283.22L4250.1,6882.62ZM4259.55,6764.49L4366.97,6572.56L4265.39,6531.29L4259.55,6764.49ZM4622.11,6932.2L4517.64,7011.79C4545.4,6911.91 4591.6,6899.69 4622.11,6932.2ZM4982.71,6457.63L5404.38,6497.76C5376.73,6550.57 5334.43,6594.41 5282.82,6632.55C5222.53,6597.71 5218.15,6549.31 5143.42,6549.31C5036.39,6549.31 4992.42,6516.91 4982.71,6457.63ZM6920.98,5190.02C6861.65,5161.97 6766.27,5149.4 6675.22,5149.05L6518.77,5246.78C6520.23,5188.46 6463.48,5190.22 6412.74,5185.66C6451.29,5166.49 6481.39,5160.93 6531.89,5165.86C6506.91,5134.73 6378.15,5123.67 6263.41,5109.9C6353.64,5107.96 6444.07,5106.98 6536.5,5115.66C6350.6,5063.27 6159.72,5039.93 5969.26,5014.15C5787.68,4981.4 5601.92,4962.2 5412.28,4955.54L4891.98,4929.42L3928.92,4901.67L3778.34,4981.6L3773.16,4899.34L3205.45,4926.62L3108.17,5025.45L3066.15,4944.17L2771.66,4971.8C2706.17,5004.22 2703.51,5025.53 2834.31,5025.53C2858.03,5025.53 2850.61,5053.34 2809.13,5053.89C2718.97,5055.08 2707.77,5106.85 2815.34,5098.98C2899.14,5101.21 2918.46,5125.12 2817.87,5131.6C2718.79,5112.87 2711.55,5189.19 2788.57,5167C2815.56,5159.22 2828.9,5198.15 2776.9,5202.14C2728.06,5205.88 2715.73,5202.59 2722.5,5254.68L2683.29,5949.41L2767.47,5951.22L2687.79,5993.47L2688.02,6027.26C2719.73,6021.57 2764.57,6017.08 2798.75,6026.13C2754.94,6031.26 2714.97,6042.84 2679.65,6062.2L2683.46,6120.4C2716.01,6132.93 2775.31,6118.81 2811.86,6116.86C2842.63,6115.23 2851.47,6113.72 2882.5,6120.23L2686.73,6156.18L2684.16,6186.1L3232.24,6170.1C3307.73,6170.1 3316.36,6171.36 3383.53,6136.9C3407.18,6124.77 3463.15,6066.33 3484.59,6068.7C3522.43,6072.87 3513.09,6091.42 3511.3,6118.35C3596.14,6130.31 3694.97,6125.24 3794.8,6118.95L4454.28,6130.31L4545.29,6084.27L4616.37,6132.39C5004.04,6158.61 5390.5,6187.81 5762.46,6252.82C5816.42,6289.74 5850.08,6294.31 5938.59,6289.36C6018.48,6284.9 6111.2,6316.84 6181.84,6343.05C6229.1,6360.59 6308.99,6339.31 6358.92,6308.16C6412.76,6416.05 6469.68,6384.49 6603,6384.49C6644.54,6457.4 6753.44,6480.08 6878.91,6489.16L6857.24,6367.83C6815.7,6383.42 6730.9,6364.93 6727.32,6335.24C6725.57,6320.67 6827.63,6360.28 6870.23,6335.88C6904.19,6316.43 6871.55,6299.72 6789.51,6298.77C6737.76,6298.16 6742.69,6259.2 6805.68,6261.58C6891.31,6264.82 6898.22,6240.9 6834.88,6211.14C6826.76,6192.64 6830.81,6176.26 6876.72,6160.83C6915.08,6147.94 6879,6085.12 6824.32,6039.17C6892.73,5989.47 6893.21,5867.98 6896.53,5726.09C6898.87,5625.82 6911.06,5491.5 6907.29,5382.58C6880.98,5365.38 6826.3,5373.78 6760.58,5361.97L6908.77,5336.69C6823.38,5312.31 6742.03,5308.01 6663.45,5317.45C6742.01,5290.17 6826.56,5285.89 6915.48,5298.41L6920.98,5190.02ZM5230.4,1912.75C5224.77,1971.21 5199.19,2019.97 5153.1,2063.15C5154.61,2033.04 5155.97,2013.5 5140.53,1991.2C5168.66,1975.17 5199.15,1946.05 5230.4,1912.75ZM5006.68,2071.25C5016.56,2113.1 5014.56,2153.54 4972.58,2189.27C5004.52,2187.73 5037.45,2194 5075.2,2181.01C5081.48,2132.64 5048.19,2100.28 5006.68,2071.25ZM5067.06,2088.97C5087.86,2060.55 5099.23,2032.35 5102.01,2004.35C5064.8,2024.82 5029.88,2026.47 4995.49,2023.72C5022.7,2042.65 5055.21,2060.18 5067.06,2088.97ZM5103.39,2078.95C5120.6,2120.76 5123.52,2161.01 5102.24,2198.62L5161.03,2185.85C5155.92,2144.83 5139.92,2098.57 5103.39,2078.95Z" style="fill:white;"/>
        </g>
        <g id="Black-Details" serif:id="Black Details" transform="matrix(0.0951667,0,0,0.0951667,183.499,7.34808)">
            <path d="M6388.22,5573.83C6405.21,5537.05 6450.45,5523.91 6508.54,5521.51C6543.42,5520.07 6605.19,5463.26 6641.75,5430.47C6677.78,5398.15 6673.94,5457.34 6616.83,5515.84C6588.63,5544.73 6615.56,5571.23 6700.76,5516.41C6767.61,5473.4 6813.65,5474.37 6822.97,5558.05C6829.67,5593.21 6838.01,5627.37 6855.98,5655.68C6809.59,5695.05 6760.2,5727.57 6707.28,5752.02C6706.29,5682.38 6681.81,5636.5 6636.46,5622.46C6600.34,5611.27 6592.82,5805.43 6597.33,5913.48C6601.36,6010.22 6605.51,6068.2 6675.46,6105.18C6730.93,6136.67 6742.68,6192.57 6650.78,6158.31C6582.72,6111.27 6466.35,6105.47 6345.21,6103.73C6306.95,6103.18 6330.31,6058.93 6392.18,6047.06C6419.66,6026.47 6432.38,5983.25 6434.49,5923.78C6464.07,5903.68 6469.68,5882.53 6440.27,5859.81C6420.31,5791.19 6439.73,5683.69 6452.54,5595.47C6411.47,5597.58 6387.53,5604.77 6388.22,5573.83ZM6343.43,5755.12C6358.4,5802.52 6362.32,5853.94 6357.7,5908.46C6296.69,6063.3 6191.01,6101.74 6064.03,6089.15C5996.15,6055.12 5943.57,6004.3 5912.27,5930.12L5913.03,5713.34C5942.74,5699.52 5945.14,5679.56 5924.92,5654.52C5966.63,5519.81 6043.75,5438.16 6180.87,5446.43C6284.66,5452.69 6387.55,5556.61 6380.14,5739.43C6359.02,5735.69 6343.15,5737.75 6343.43,5755.12ZM6147,5997.78C6120.99,6004.54 6108.53,5982.21 6111.48,5958.32C6096.37,5962.34 6083.3,5962.38 6076.59,5949.98C6077.46,5934.91 6086.48,5921.03 6088.7,5906.97C6094.06,5873.05 6095.36,5841 6104.34,5809.77C6114.38,5656.57 6096.59,5604.27 6161.04,5514.11C6186.44,5530.65 6246.71,5971.85 6147,5997.78ZM5937.53,6070.32L5840.78,5933.13C5842.82,5653.1 5862.65,5391.5 5958.87,5174.55C5975.04,5160.01 5996.62,5153.4 6025.72,5157.81C6093.24,5106.71 5908.19,5089.13 5714.44,5129.76C5619.32,5077.73 5585.16,5147.69 5703.91,5188.7C5739.74,5201.08 5728.18,5208.65 5719.82,5263.01C5715.49,5291.11 5731.49,5323.79 5754.82,5341.34C5729.62,5346.97 5715.5,5389.67 5707.2,5430.44C5662.97,5388.93 5619.32,5360 5577.35,5368.63C5467.54,5391.23 5373.16,5636.5 5387.24,5765.74C5404.9,5927.82 5423.68,6037.06 5499.63,6005.16L5654.42,5971.91L5656.84,6014.58C5765.52,6009.79 5855.08,6034.57 5937.53,6070.32ZM5653.36,5881.68C5699.54,5753.65 5722.69,5616.71 5684.09,5478.62C5639.7,5451.52 5614.59,5532.11 5583.45,5622.01C5550.17,5718.12 5563.03,5909.78 5653.36,5881.68ZM5371.11,5973.02C5364.31,5933.23 5347.83,5914.39 5300.65,5882.19C5289.07,5870.61 5283.83,5867.15 5293.04,5842C5321.78,5763.45 5342.13,5650.27 5309.47,5612.5C5343.83,5521.59 5342.95,5426.95 5317.95,5329.76C5264.78,5324.43 5179.52,5359.89 5151.29,5380.08C5120.91,5401.82 5123.32,5403.22 5083.01,5402.39L5081.75,5312.05C5027.5,5311.16 4966.83,5394.78 4918.41,5406.81C4816.67,5432.09 4814.14,5453.69 4911.21,5493.31C4893.74,5585.34 4891.11,5657.83 4934.88,5669.2C4878.18,5701.49 4877.91,5780.76 4885.1,5858.42C4804.15,5921.05 4762.09,5957.49 4863.33,5942.43C4935.13,5927.57 5005.85,5917.82 5075.58,5912.73C5103.28,5888.67 5082.73,5861.07 5042.01,5831.98C5041.92,5644.59 5058.28,5460.85 5170.81,5455.71L5155.73,5654.51C5186.83,5686.92 5179.06,5712.59 5144.68,5733.66C5155.61,5814.81 5135.07,5897.05 5078.73,5980.52C5180.37,5962.6 5277.5,5961.33 5371.11,5973.02ZM4634.62,5341.46C4685.7,5298.92 4739.52,5263.18 4803.92,5253.64L4796.57,5372.21L4751.09,5444.27L4765.66,5679.87C4752.42,5724.66 4750.79,5766.57 4755.04,5807.01C4772.28,5827.12 4787.73,5848.64 4801.57,5871.44C4806.32,5908.31 4706.8,5897.73 4611.48,5889.07L4501.22,5882.45C4498.13,5851.61 4537.51,5818.53 4579.77,5785.31C4577.57,5710.79 4588.88,5638.44 4629.53,5609.76C4565.9,5579.05 4592.13,5578.51 4596.22,5456.04C4597.24,5425.46 4579.12,5409.12 4555.58,5394.29C4516.76,5369.83 4580.53,5350.32 4634.62,5341.46ZM4606.36,5173.51L4668.47,5275.49C4716.04,5249.38 4758.86,5221.75 4795.1,5192.01L4740.5,5044.47C4686.37,5088.08 4642.05,5131.07 4606.36,5173.51ZM4640.33,5008.82C4785.44,4975.23 4687.19,5040.95 4548.47,5123.18C4541.89,4969.82 4450.53,5072.99 4479.4,5221.74C4517.08,5221.97 4555.59,5207.26 4594.21,5190.43C4615.02,5207.98 4604.05,5238.05 4564.16,5279.53C4581.93,5305.68 4560.59,5316.38 4506.85,5314.27C4455.54,5312.26 4449.59,5368.22 4460.45,5415.6C4471.58,5464.14 4464.11,5492.58 4424.7,5509.89C4466.67,5549.9 4463.65,5554.57 4460.35,5699.48C4469.47,5937.87 4376.24,6050.69 4203.66,6041.44C4132.88,5974.69 4109.26,5920 4208.62,5866.79L4210.3,5948.19C4258.36,5946.66 4269.89,5853.93 4264.01,5717.74C4282.65,5677.88 4293.43,5641.78 4275.64,5619.32L4288.83,5426.79C4260.87,5419.76 4232.01,5448.64 4203.06,5481.06C4168.65,5430.75 4206.18,5387.01 4292.91,5331.82L4318.36,5100.9C4362.27,5047.83 4427.34,5007.35 4508.72,4976.57C4577.15,4960.56 4621.02,4971.31 4640.33,5008.82ZM4064.83,5002.81C4135.47,4967.27 4244.76,4987.92 4298.77,5032.55C4251.77,5076.13 4202.57,5117.03 4140.24,5141.79C4108.85,4963.95 4061.78,5103.92 4061.06,5263.18C4126.34,5244.74 4192.96,5224.83 4245.13,5220.79C4197.26,5270.25 4171.37,5320.16 4157.04,5370.31C4030.93,5251.23 4032.31,5440.58 4045.28,5636.5C4058.51,5727.22 4044.14,5807.3 3996.47,5874.56L4013.13,5930.46C3938.1,6035.58 3842.5,6066.13 3786.55,6041.05C3723.01,6012.58 3687.76,5981.47 3681.32,5919.61L3745.29,5839.65C3769.16,5846.66 3758.01,5876.17 3740.02,5929.25C3768.72,5981.44 3821.22,5938.28 3852.14,5814.63C3879.17,5706.51 3882.03,5535.8 3881.71,5414.36L3773.46,5459.97L3767.55,5385.22L3879.78,5333.24C3901.49,5202.19 3887.26,5092.13 4064.83,5002.81ZM3254.75,5354.45C3215.07,5326.47 3179.89,5292.76 3215.24,5290.04C3286.02,5284.61 3357.46,5276.14 3433.95,5244.57C3491.57,5208.02 3544.83,5219.65 3521.32,5236.93C3424.23,5308.28 3422.13,5327.16 3455.48,5403.3C3479.51,5458.15 3501.63,5548.67 3510.48,5507.79C3518.64,5470.14 3535.9,5417.78 3578.13,5370.28C3538.44,5357.87 3501.07,5319.95 3523.43,5320.48C3631.54,5323 3730.01,5299.81 3809.18,5234.23C3733.72,5381.95 3635.11,5543.33 3538.75,5703.38C3498.79,5701.97 3479.21,5723.43 3473.51,5756.69C3458.32,5845.16 3380.34,5932.71 3309.37,5962.11C3236.1,5992.47 3175.62,6025.46 3115.05,6083.42L2965.54,5917.88C3144.46,5930.14 3299.35,5888.55 3383.64,5744.19C3339.4,5654.48 3298.15,5561.76 3329.47,5513.5C3297.01,5484.75 3269.11,5441.39 3254.75,5354.45ZM2806.91,5410.76C2769.01,5418.94 2732.83,5416.81 2745.15,5394.71C2835.65,5335.22 2921.24,5273.57 2972.48,5196.76L2988.85,5322.9C3085.93,5194.56 3143.16,5234.96 3210.96,5393.51C3166.46,5417.85 3119.78,5475.82 3073.01,5535.26C3066.11,5434.74 3043.68,5358.31 3027.39,5383.05C2973.82,5464.42 2991.01,5658.47 3001.04,5825.69C3050.28,5834.81 3067.28,5844.18 3056.74,5864.56L2767.43,5880.17C2735.41,5871.19 2744.57,5843.42 2803.45,5792.97C2811.99,5654.94 2817.58,5519.82 2806.91,5410.76ZM2490.1,6287.88C2283.45,6280 2110.62,6329.97 1986.17,6462.74C1817.49,6266.59 1668.29,5890.88 1674.6,5631C1698.1,5458.81 1841.07,4985.37 1934.11,4889.6C2016.78,4884.83 2117.09,4836.82 2218.16,4786.94L2424.94,4950.47C2484.44,5034.34 2551.31,5029.59 2570.8,4942.01C2585.62,4875.38 2564.9,4654.94 2619.42,4688.95L2611.36,4984.41C2569.36,5064.19 2514.06,5123.96 2424.13,5131.58C2374.53,5218.31 2323.79,5302.65 2238.01,5313.74C2192.48,5319.63 2230.37,5253.4 2269.81,5192.86C2316.74,5120.82 2280.58,5079.91 2207.02,5049.96C2157.41,5029.76 2159.29,4927.29 2096.13,4950.24C2038.54,4971.15 1933.89,5180.46 1909.39,5344.63L1921.06,5685.25C1878.87,5768.98 1873.62,5812.7 1941.96,5801.18C1978.34,6006.08 2049.14,6270.92 2177.33,6266.74C2268.22,6263.78 2242.61,6090.62 2247.54,5938.42C2226.78,5910.59 2203.57,5896.44 2175.23,5879.01C2187.84,5863.94 2204.19,5855.4 2225.06,5854.76C2191.7,5834.99 2149.29,5827.56 2099.38,5830.36C2126.64,5800.45 2178.55,5777.97 2242.22,5766.45C2205.8,5730.9 2146.02,5737.49 2080.25,5758.74C2063.55,5728.94 2069.08,5698.93 2084.73,5668.83C2292.38,5610.42 2450.47,5560.64 2559.23,5607.83C2580.93,5617.25 2559.28,5633.29 2508.05,5645.49C2491.96,5649.33 2498.36,5727.78 2510.05,5773.72C2441.69,5818.15 2457.31,5890.74 2458.26,6052.44C2458.7,6126.11 2495.7,6165.68 2535.35,6149.94C2549.24,6214.44 2553.47,6272.77 2490.1,6287.88ZM4415.98,7477.95C4529.83,7404.71 4611.14,7548.17 4396.95,7540.63C4442.53,7567.33 4494.23,7574.38 4540.39,7540.54C4645.46,7463.52 4564.56,7390.55 4476.15,7407.94C4541.94,7282.15 4352.87,7225.41 4330.04,7313.08C4330.04,7376.52 4386.47,7379.81 4373.23,7348.23C4331.14,7247.82 4488.67,7296.41 4416.44,7411.87C4295.2,7546.39 4216.9,7534.22 4182.69,7404.56C4164.74,7484.44 4133.78,7531.42 4063.74,7489.04C3901.2,7390.71 4009.75,7216.58 4067.83,7406.52C4087.93,7359.63 4072.33,7267.38 3982.91,7275.39C3933.69,7279.8 3915.05,7362.53 3948.13,7437.12C3862.43,7435.66 3835.51,7464.94 3825.59,7492.31C3815.13,7521.18 3822.89,7564.08 3851.06,7591.44C3903,7641.9 3987.82,7634.81 3970.92,7549.97C3921.55,7653.99 3835.3,7535.89 3911.88,7496.36C4011.51,7444.92 4113.59,7578.17 4179.99,7818.51C4181.35,7694.15 4277.61,7566.95 4415.98,7477.95ZM4630.4,7036.71C4664.04,7054.89 4629.26,7088.15 4573.07,7131.75C4542.67,7155.33 4511.04,7243.98 4460.87,7226.03C4441.62,7181.18 4486.13,7142.96 4549.8,7107.8C4587.78,7086.82 4596.73,7048.43 4630.4,7036.71ZM6255.06,4487.71C6244.33,4467.38 6238.69,4440.9 6251.56,4392.04C6259.67,4344.8 6280.11,4302.06 6292.53,4316.07C6325.26,4353 6308.88,4390.26 6278.56,4439.35C6270.46,4452.47 6259.68,4472.13 6255.06,4487.71ZM6560.61,4499.46C6605.33,4475.23 6639.63,4341.93 6604.42,4319.11C6568.76,4296.01 6541.43,4357.67 6560.14,4426.94C6565.38,4446.35 6566.41,4481.79 6560.61,4499.46ZM6739.62,3133.66C6743.65,3292.58 6736.58,3456.8 6672.21,3432.95C6629.65,3417.17 6699.32,3234.62 6739.62,3133.66ZM6411.72,3157.95C6444.31,3279.41 6510.51,3451.44 6440.02,3447.89C6381.52,3444.93 6399.32,3321.08 6411.72,3157.95ZM6450.63,2972.79C6578.82,2852.62 6560.11,2762.55 6464.13,2688.34C6423.97,2772.08 6426.5,2869.09 6450.63,2972.79ZM6727.19,2697.63C6788.76,2797.37 6743.67,2902.14 6708.08,3004.22C6615.71,2911.61 6613.01,2809.44 6727.19,2697.63ZM6785.57,2528.99C6792.58,2435.2 6819.52,2263.22 6775.22,2258.5C6713.83,2251.95 6751.16,2443.51 6785.57,2528.99ZM6477.18,2303.74C6515.39,2313.5 6478.17,2460.8 6428.45,2575.04C6434.82,2468.58 6436.26,2293.3 6477.18,2303.74ZM6564.74,3480.48C6426.78,3132.03 6372.52,3139.46 6580.59,2869.3C6777.53,3143.39 6710.47,3118.85 6564.74,3480.48ZM6629.81,2235.63C6464.6,2507.36 6438.39,2611.2 6590.12,2791.64C6756.26,2641.49 6783.72,2485.24 6629.81,2235.63ZM6449.24,1993.05C6312.88,2127.84 6227.2,1869.79 6407.3,1856.51C6333.44,1725.68 6558.11,1663.73 6574.04,1794.78C6534.71,1770.41 6490.39,1756.46 6475.28,1787.51C6439.32,1861.36 6587.19,1937.54 6751.63,1866.29C6664.4,1971.33 6613.86,2137.78 6728.96,2155.59C6787.36,2164.62 6798.16,2093.25 6778.54,2033.61C6829.58,2068.45 6844.92,2185.04 6750.86,2213.73C6693.78,2231.14 6660.82,2195.13 6635.61,2137.67C6575.7,2410.71 6364.07,2206.47 6515.07,2113.49C6466.68,2298.52 6632.52,2188.23 6615.03,2046.98C6610.14,2007.45 6510.13,2053.13 6453.09,2089.66C6488.9,2024.66 6548.49,1943.93 6513.97,1922.11C6357.57,1823.23 6306.59,2024.21 6449.24,1993.05ZM6207.57,1586.35C6268.03,1649.71 6407.38,1699.26 6404.44,1709C6377.57,1798.22 6242.21,1684.71 6207.57,1586.35ZM5955.76,1345.32C6070.66,1415.06 6094.82,1415.32 6090.09,1582.19C5962.56,1543.98 5920.68,1493.06 5955.76,1345.32ZM5721.41,1436.85C5777.33,1455.47 5846.15,1485.21 5917.21,1525.95C5932.2,1596.66 5935.76,1665.74 5930.98,1733.63C5822.77,1673.57 5746.27,1574.37 5721.41,1436.85ZM5907.63,1257.79L5912.71,1473.08C5847.65,1458.91 5772.99,1412.01 5701.25,1370.99C5689.52,1271.14 5682.89,1164.58 5694.83,1033.6C5769.77,1101.74 5840.34,1177.06 5907.63,1257.79ZM5882.82,1107.65C5914.06,1168.69 5947.8,1209.73 5982.57,1242.4C5982.47,1191.86 5979.1,1143.31 5964.71,1101.49C5937.83,1095.48 5910.64,1095.67 5882.82,1107.65ZM5413.89,620.38C5349.31,627.942 5274.01,663.259 5278.49,708.913C5287.29,798.657 5351.2,781.09 5423.23,773.938C5374.44,758.17 5325.25,714.216 5355.78,697.485C5453.29,644.05 5707.38,649.139 5671.45,717.162C5647.04,763.372 5621.89,806.291 5595.52,843.735C5663.09,831.773 5727.87,821.87 5758.92,836.769C5727.75,947.007 5705.71,964.662 5662.78,893.556C5657.51,1019.36 5702.17,1007.99 5771.61,941.991C5854.8,1158.8 5991.25,982.554 5909.19,896.656C5918.18,977.556 5855.56,1007.21 5837.95,948.677C5797.02,812.624 5856.98,704.939 5931.58,618.875C5724.86,676.425 5530.1,647.09 5344.13,519.753C5321.48,488.849 5371.95,481.436 5455.83,486.644C5426.64,455.612 5281.87,390.81 5278.08,511.741C5276.53,561.199 5354.03,599.646 5413.89,620.38ZM4965.1,735.939C5062.55,710.31 5155.27,700.495 5228.9,754.527C5275.65,788.842 5059.2,775.175 4965.1,735.939ZM4978.61,440.147C5071.29,475.813 5216.65,503.21 5224.54,479.91C5315.71,444.231 5072.63,425.743 4978.61,440.147ZM4423.76,567.759C4654.23,411.006 4905,405.167 5218.1,601.645C4818.52,745.251 4740.93,750.142 4568.76,644.7C4531.89,622.119 4482.39,588.322 4423.76,567.759ZM4139.98,445.346C4286.85,408.169 4432.95,401.466 4578.17,430.684C4515.07,468.305 4410.84,538.832 4371.41,530.91C4289.08,514.365 4212.94,483.674 4139.98,445.346ZM4186.17,693.815C4241.98,655.285 4302.69,620.224 4374.17,592.792C4455.97,620.338 4520.86,655.207 4568.02,697.752C4461.77,717.74 4343.21,725.269 4186.17,693.815ZM4311.37,553.898C4234.72,522.156 4139.33,478.977 4045.42,443.705C3961.98,412.367 3571.5,470.252 3393.64,570.722C3495.3,618.434 3608.66,646.96 3751.85,626.577C3857.56,693.378 4024.79,731.145 4171.97,659.354C4223.94,634.005 4271.34,593.396 4311.37,553.898ZM3327.61,534.459C3423.99,513.475 3512.05,484.941 3593.69,450.583C3523.02,438.423 3437.66,429.786 3369.53,452.018C3342.29,479.32 3326.78,506.779 3327.61,534.459ZM3420.22,654.854C3531.56,670.425 3659.25,712.051 3740.87,727.619C3666.34,751.362 3595.49,753.652 3486.9,748.282C3478.36,726.248 3436.93,671.565 3420.22,654.854ZM1879.15,3283.16C1898.11,3344.5 1914.84,3408.14 1922.03,3481.62C1900.12,3503.29 1873.68,3485.16 1870.53,3447.85M1867.16,2663.72C1910.02,2691.86 1945.88,2741.07 1966.59,2831.8C1917.01,2918.48 1879.81,2984.74 1860.67,3008.15C1805.27,2952.39 1834.99,2800.41 1867.16,2663.72ZM2001.13,2264.28C1969.87,2407.17 1930.94,2502.25 1878.98,2592.58C1925.22,2654.55 1974.18,2741.16 2001.45,2817.89C2036.37,2784.12 2077.4,2706.95 2113.1,2609.86C2106.57,2472.76 2053.71,2366.22 2001.13,2264.28ZM1881.77,2259.4C1879.04,2365.07 1862.87,2504.51 1832.43,2576.08C1800.45,2527.32 1800.63,2412.34 1820.81,2286.18C1834.77,2261.77 1855.75,2254.45 1881.77,2259.4ZM2953.85,1212.65C2982.39,1149.84 3026.39,1041.89 2980.92,1049.63C2938.58,1056.84 2930.81,1151.27 2953.85,1212.65ZM2714,1062.92C2763.79,1057.66 2698.57,1160.3 2661.83,1230.82C2659.72,1162.03 2684,1066.09 2714,1062.92ZM3045.11,836.699C2980.65,837.25 2915.23,823.369 2849.14,799.613L2868.66,914.998C2882.46,964.935 2909.28,988.972 2943.75,968.371C2972.34,896.078 3005.73,902.388 3005.73,945.159C2974.74,1061.71 2878.9,1041.86 2831.95,965.723C2755.74,1099.74 2665.41,1005.5 2695.3,906.213C2720.2,848.248 2739.93,833.469 2753.42,870.812C2717.56,934.885 2719.65,989.966 2740.16,967.454C2833.75,864.719 2810.39,745.944 2693.51,614.341C2887.99,636.333 3066.04,648.727 3194.69,580.962C3274.5,538.92 3111.68,471.524 3058.26,569.879C3050.58,502.855 3123.52,412.339 3237.01,482.95C3280.27,509.866 3259.43,577.712 3225.36,615.36C3354.48,635.024 3433.36,677.891 3360.47,772.917C3302.68,848.246 3177.43,808.731 3160.34,706.576C3191.56,748.44 3238.45,766.235 3287.9,742.384C3332.22,721.003 3285.38,669.521 3166.86,660.54L2973.49,677.885C2965.22,743.52 3000.63,791.9 3045.11,836.699ZM2856.57,1027.28C2800.18,1106.15 2732.67,1206.42 2654.16,1276.39C2682.07,1344.83 2709.12,1425.95 2709.77,1501.14C2781.3,1476.69 2845.83,1434.64 2903.36,1375C2902.96,1261.32 2894.87,1133.81 2856.57,1027.28ZM2633.44,1329.89C2594.21,1411.4 2551.66,1490.49 2493.92,1558.57C2541.43,1570.38 2600.74,1560.03 2666.64,1537.32C2667.55,1467.95 2662.73,1398.69 2633.44,1329.89ZM2878.85,1450.58C2819.78,1476.3 2762.66,1504.24 2721.69,1550.63L2707.38,1731.35C2821.15,1667.99 2885.42,1578.2 2878.85,1450.58ZM2616.71,1844.85C2565,1900.69 2509.25,1949.86 2432.09,1963.63C2395.36,1911.78 2516.58,1896.86 2616.71,1844.85ZM2311.95,1828.83C2359.22,1761.03 2411.83,1679.8 2465.25,1596.5C2538.07,1606.42 2612,1590.15 2686.04,1571.3C2683.41,1647.47 2675.09,1720.75 2648.99,1785.02C2535.38,1827.75 2408.98,1850.07 2311.95,1828.83ZM2458.1,1560.48C2414.24,1617.65 2339.51,1713.44 2298.58,1699.58C2236.91,1678.7 2343.99,1616.51 2458.1,1560.48ZM2233.16,1851.33C2335.35,1735.25 2185.38,1637.74 2107.48,1738.63C2072.82,1783.51 2133.56,1815.39 2143.79,1784.2C2152.61,1757.29 2173.59,1734.45 2193.72,1756.92C2268.78,1840.69 2092.9,1940.39 1875.3,1791.82C1980.66,1914.38 2026.55,2040.8 1942.56,2138.94C1883.31,2198.19 1835.01,2123.77 1907.97,2066.6C1841.51,2079.54 1791.92,2097.86 1824.26,2187.48C1846.03,2247.81 1922.61,2216.26 1965.56,2156.47C2009.77,2260.81 2130.12,2308.48 2149.8,2200.74C2172.33,2077.36 2012.69,2043.72 2054.19,2173.48C2076.53,2084.58 2160.19,2226.57 2086.65,2219.83C1999.58,2211.85 2011.4,2055.78 2028.89,1999.32L2162.2,2058.5L2109.77,1900.23C2177.19,1885.33 2323.31,1889.04 2316.14,1952.79C2310.59,2002.1 2259.13,1960.95 2226,1928.47C2203.11,1906.02 2187.21,2017.6 2286.39,2019.51C2391.68,2021.53 2424.69,1838.8 2233.16,1851.33ZM6132.54,2975.59L6204.62,3197.82L6123.41,3386.02L6032.27,3191.84L6132.54,2975.59ZM3550.84,4098.4L3635.49,4248.42L3557.53,4412.23L3465.88,4254.56L3550.84,4098.4ZM3178.3,4094.95L3270.32,4262.77L3178.28,4457.77L3082,4272.2L3178.3,4094.95ZM2566.21,4097.32L2662.93,4255.46L2584.55,4459.49L2471.68,4271.75L2566.21,4097.32ZM2300.81,4375.52C2298.44,4291.56 2286.62,4205.9 2256.15,4116.9C2202.66,4164.56 2241.76,4312.48 2300.81,4375.52ZM5780.48,3699.61C5546.9,3622.43 5338.93,3592.62 5196.28,3683.52C5343.4,3643.62 5500.7,3651.25 5669.19,3711.1C5735.17,3734.54 5789.62,3726.08 5780.48,3699.61ZM5843.88,3791.25C5880.1,3715.51 5937.32,3672.85 6056.16,3727.24C5987.59,3726.87 5917.16,3745.02 5843.88,3791.25ZM5871.57,3843.72C5852.83,3819.52 5929.7,3789 5982.27,3780.4C5965.49,3816.12 5890.15,3867.71 5871.57,3843.72ZM4410.48,4348.69C4458.19,4098.07 4632.42,3902.26 4921.86,3756.34C4722.69,3829.34 4538.03,3961.3 4394.73,4208.34C4376.04,4117.66 4407.2,4025.23 4500.72,3930.61C4391.61,3972.65 4323.59,4055.16 4317.87,4199.01L4355.88,4150.71C4348.25,4229.61 4353.84,4301.91 4410.48,4348.69ZM4244.61,4201.7C4288.44,4048.26 4346.72,3904.2 4498.5,3820.84C4440.41,3837.51 4379.78,3863.01 4308.25,3926.26C4344.45,3838.12 4394.08,3757.38 4467.82,3689.89C4410.26,3703.67 4355.27,3758.76 4288.53,3859.21C4276,3808.82 4315.9,3733.24 4410.76,3631.26C4262.26,3709.87 4215.13,3848.33 4274.53,3935.83C4233.12,4036.49 4215.89,4127.89 4244.61,4201.7ZM4066.46,3243.62C4099.8,3362.1 4141.37,3476.2 4232.4,3563.99C4123.02,3554.05 4078.76,3427.47 4066.46,3243.62ZM3962.16,3114.12C3958.28,3246.31 3974.41,3369.78 4057.9,3463.93C3934.58,3403.27 3927.5,3271.46 3962.16,3114.12ZM3863.78,3084.56C3865.32,3185.41 3877.69,3276.14 3912.77,3345.63C3835.48,3292.25 3824.18,3202.45 3863.78,3084.56ZM5914.89,2365.23C5943.77,2402.74 5959.07,2447.29 5950.05,2504.45C5917.53,2471.62 5907.53,2424.09 5914.89,2365.23ZM5880.19,2272.05C5826.36,2355.91 5828.99,2438.81 5890.78,2520.72L5880.19,2272.05ZM5873.91,2109.12C5817.56,2249.1 5813.13,2377.25 5816.11,2503.71C5774.7,2368.62 5781.92,2236.38 5873.91,2109.12ZM5140.09,1581.74C5077.28,1615.49 5019.94,1653.18 4968.53,1695.14C5041.3,1682.68 5100.56,1648.26 5140.09,1581.74ZM4913.03,1676.77C4960.47,1636.04 5012.39,1599.35 5067.38,1569.58C5028.83,1620.44 4976.69,1655.37 4913.03,1676.77ZM4852.25,1657.4C4895.04,1618.7 4944.32,1585.29 5009.14,1564.54C4965.91,1602.63 4913.76,1633.69 4852.25,1657.4ZM4807.94,1624.79C4846.94,1585.79 4878.6,1562.16 4930.85,1544.51C4906.67,1584.25 4863.73,1609.48 4807.94,1624.79ZM4539.32,1511.06C4640.61,1561.09 4736.56,1598.54 4788.28,1531.45L4846.88,1522.73C4763.03,1379.66 4658.43,1391.3 4539.32,1511.06ZM4557.37,1442.83C4503.39,1426.66 4469.13,1450.67 4442.44,1490.1C4487.06,1498.71 4526.21,1486.21 4557.37,1442.83ZM4377.78,1479.45C4395.93,1439.96 4417.57,1419.5 4445.13,1431.29C4424.34,1466.52 4401.69,1480.31 4377.78,1479.45ZM4421.35,1587.09C4465.31,1648.88 4504.34,1712.89 4508.92,1792.49C4444.13,1752.24 4418.63,1680.85 4421.35,1587.09ZM4560.87,1757.59C4558.95,1788.41 4549.4,1814.35 4529.21,1833.49C4572.78,1828.57 4584.38,1803.92 4560.87,1757.59ZM4551.86,1935.28C4570.78,1850.26 4620.68,1793.83 4717.54,1780.75C4663,1818.99 4607.94,1867.24 4551.86,1935.28ZM4622.63,2079.46C4636.48,1973.46 4690.02,1891.25 4755.36,1816.12C4619.35,1904.11 4557.86,1991.93 4622.63,2079.46ZM3695.12,1453.73C3679.73,1487.84 3653.94,1513.07 3613.93,1526.18C3671.12,1538.65 3700.13,1516.87 3695.12,1453.73ZM3579.01,1636.97C3678.75,1586.41 3768.81,1526.74 3816.05,1426.83C3796.58,1551.04 3725.04,1627.88 3579.01,1636.97ZM3560.26,1753.57C3697.13,1683.92 3810.67,1589.42 3881.44,1449.36C3848.99,1613.02 3738.79,1711.81 3560.26,1753.57ZM3503.64,2281.94C3490.57,2396.79 3404.77,2488.23 3277.26,2566.25C3418.3,2519.78 3524.42,2447.6 3503.64,2281.94ZM3761.61,2134.09C3775.12,2274.51 3736.37,2409.22 3638.18,2537.42C3711.58,2478.47 3763.15,2411.23 3780.97,2331.17C3793.95,2272.86 3789.03,2207.75 3761.61,2134.09ZM2435.19,2879.31C2348.78,2804.61 2257.18,2798.13 2160.38,2859.87C2249.36,2847.58 2339.42,2847.09 2435.19,2879.31ZM2141.08,2927.1C2197.42,2872.81 2274.63,2856.87 2391.21,2913.22C2313.44,2912.24 2231.66,2912.18 2141.08,2927.1ZM2089.15,3036.96C2124.27,2962.39 2192.94,2924.2 2321.1,2949.14C2254.56,2967.25 2178.53,2993.06 2089.15,3036.96ZM2165.65,3064.83C2185.37,3036.37 2213.26,3017.47 2257.28,3017.47C2235.19,3043 2207.07,3061.57 2165.65,3064.83ZM5395.78,1916.87L5497.2,2136.59L5392.65,2342.85L5301.47,2128.01L5395.78,1916.87ZM5392.15,957.627L5476.69,1121.55L5391.34,1343.94L5302.55,1144.56L5392.15,957.627Z"/>
        </g>
    </g>
</svg>
