<?xml version="1.0" encoding="UTF-8" standalone="no"?>
<!DOCTYPE svg PUBLIC "-//W3C//DTD SVG 1.1//EN" "http://www.w3.org/Graphics/SVG/1.1/DTD/svg11.dtd">
<svg width="100%" height="100%" viewBox="0 0 8334 8334" version="1.1" xmlns="http://www.w3.org/2000/svg" xmlns:xlink="http://www.w3.org/1999/xlink" xml:space="preserve" xmlns:serif="http://www.serif.com/" style="fill-rule:evenodd;clip-rule:evenodd;stroke-linejoin:round;stroke-miterlimit:2;">
    <g id="Silhouette" transform="matrix(11.511,0,0,11.511,-4863.19,-5534.82)">
        <path d="M992.557,561.198L922.936,536.573C916.094,544.665 912.838,544.038 910.764,534.002C891.769,529.284 873.108,526.512 851.65,523.561L855.925,510.199C821.45,523.076 798.852,513.052 785.751,484.715C768.744,509.945 744.527,520.187 712.621,514.446L717.504,526.326C704.172,526.473 691.155,528.827 678.704,535.141C646.915,538.768 610.9,552.135 576.002,568.12C595.444,603.51 590.982,634.479 548.689,643.137C555.22,656.25 559.977,669.233 563.493,682.125C568.886,681.833 570.921,685.148 564.775,691.293C572.018,735.619 573.159,775.616 573.555,815.004C565.372,821.225 562.141,830.473 560.232,838.386C547.869,842.076 536.815,840.094 525.68,839.404C527.248,864.678 532.194,996.642 528.534,1016.14C542.509,1017.72 556.535,1019.15 571.583,1017.79C576.859,1075.82 607.15,1110.8 662.603,1122.58C720.541,1134.88 773.293,1153.38 791.129,1200.88C811.649,1163.38 848.262,1136.03 907.517,1124.52C909.682,1116.09 910.515,1116.45 918.724,1121.39C976.764,1104.46 1005.61,1069.27 1003.59,1014.78C999.477,1010.96 999.196,1006.88 1004.95,1002.39C998.503,968.324 996.204,933.772 998.859,898.644C1014.85,904.003 1019.81,914.245 1012.16,951.317C1005.75,982.36 1052.13,981.283 1057.85,953.797C1060.62,940.489 1054.15,916.822 1048.71,888.399C1044.15,864.582 1052.4,837.626 1063.52,813.081C1059.4,788.552 1032.91,771.936 1004.19,758.081L1002.69,743.769C996.66,741.622 998.563,738.779 1003.18,734.502C1006.38,706.576 1015.32,671.985 1025.08,635.713C975.265,634.271 974.911,586.49 992.557,561.198Z"/>
    </g>
    <path id="Dark-Blue" serif:id="Dark Blue" d="M5488.72,7253.7C5561.65,7236.85 5639.68,7242.3 5721.07,7262.47C5777.97,7199.81 5852.58,7137.73 5940.13,7076.07C6032.57,7039.98 6128.54,7027.71 6226.3,7027.48C6256.79,6922.08 6304.96,6812.82 6355.65,6703.01C6414.84,6607.93 6492.22,6522.79 6607.21,6441.38C6540.81,6352.6 6510.9,6257.12 6496.58,6146.92C6510.69,6038.15 6550.56,5933.65 6615.03,5833.25C6543.57,5731.48 6478.86,5648.88 6452.77,5574.83C6469.13,5456.73 6496.88,5364.33 6549.03,5285.18C6362.97,5107.52 6348.72,4848.86 6447.93,4854.22C6529.39,4858.62 6568.47,4913.3 6570.13,5028.63L6664.67,5996.6C6651.3,6028.3 6619.57,6045.46 6574.64,6052.18C6616.15,6073.5 6640.71,6106.14 6653.12,6146.92C6662.31,6448.33 6570.44,6701.15 6412.84,6922.35C6233.07,7087.63 6017.53,7247.24 5745.95,7326.28C5604.49,7278.12 5537.05,7296.84 5534.2,7380.06C5111.06,7416.71 4355.08,7857.8 4251.61,8221.76C4066.54,7826.13 3723.02,7624.7 3274.14,7492.52C2941.85,7394.68 2572.43,7319.47 2310.89,7180.46C2066.71,7050.69 1893.03,6816.25 1798.17,6464.82C1761.45,6304.91 1851.01,6147.71 1923.44,6270.17C1950.53,6315.98 1900.35,6431.36 1847.29,6496.8C1951.52,6560.65 2045.29,6652.25 2128.1,6772.94C2189.66,6857.12 2200.64,6961.6 2204.37,7064.02C2329.88,7053.23 2442.52,7071.69 2553.25,7105.32C2635.02,7152.83 2705.05,7213.3 2761.83,7285.08L2992.33,7275.13C3062.74,7308.01 3144.43,7365.29 3206.25,7434.54C3306.61,7428.19 3403.29,7412.51 3497.55,7390.68C3565.48,7433.4 3642.11,7521.53 3723.88,7636.44L3951.1,7656.87C4097.13,7759.92 4181.6,7900.07 4229.18,8053.3C4290.6,7912.47 4383.1,7777.35 4493.94,7645.59C4599.75,7621.8 4703.13,7609.74 4802.68,7616.11C4840.62,7523.37 4891.22,7442.92 4961.74,7381.82C5069.23,7355.84 5185.16,7382.13 5278.64,7425.29C5334.22,7360.25 5398.86,7300.13 5488.72,7253.7ZM2268.2,6253.66C2303.14,6656.13 2827.9,6987.78 3530.1,7068.09C3590.22,7226.03 3598.53,7149.94 3669.41,7114.1C3924.55,7197.33 4088.41,7339 4227.16,7496.76C4412.05,7285.69 4715.45,7116.94 4964.2,7035.06C5089.35,6993.87 5143.06,6991.85 5179.81,7044C5190.28,6984.13 5270.95,6947.81 5407.74,6930.34C5792.15,6864.42 6071.09,6696.28 6131.23,6467.59C6205.47,6185.33 6184.35,5921.04 6160.95,5657.18C6167.35,5618.78 6187.63,5590.23 6219.41,5569.84C6156.3,5548.44 6135.37,5515.53 6123.51,5425.18C6091.37,5180.38 6076.4,4846.75 6117.56,4854.14L6180.44,5397.85L6192.45,4821.55C6347.96,4888.69 6394.71,5157.5 6236.82,5296.18C6303.94,5360.88 6346.81,5427.49 6378.03,5526.91C6425.09,5676.73 6366.29,5805.43 6267.28,5859.38C6355.37,5930.68 6427.29,6013.7 6430.04,6146.92C6432.42,6262.09 6361.74,6350.37 6236.69,6412.9C6308.87,6486.25 6332.74,6582.05 6308.27,6700.28C6245.79,6755.07 6160.01,6776.88 6055.61,6772.32C6035.9,6876.78 6001.51,6975.01 5913.78,7050.57C5866.18,7068.19 5784.66,7020.98 5680.92,6965.55C5627.27,7044.42 5570.93,7130.75 5491.39,7186.94C5412.55,7191.94 5319.89,7162.77 5223.43,7124.19C5150.05,7198.65 5064.33,7269.37 4946.45,7330.35C4861.75,7349.38 4768.07,7338.2 4671.32,7316.73C4563.38,7480.24 4514.12,7641.39 4268.01,7658.59C4395.14,7404.67 4697.27,7251.97 5031.21,7117.66C5081.3,7097.52 5058.45,7062.97 4969.36,7092.77C4764.84,7161.16 4525.9,7244.63 4227.16,7574.04C4211.36,7591.47 4197.96,7581.8 4187.09,7566.7C4071.95,7406.64 3902.3,7270.73 3704.36,7193.62C3673.33,7181.53 3680.95,7228.69 3777.81,7266.83C3888.39,7310.38 4095.35,7459.49 4181.65,7654.41L3983.62,7645.14C3924.48,7549.71 3869.53,7447.21 3816.99,7340.64C3722.62,7362.99 3617.4,7367.05 3506.38,7361.35C3425.16,7299 3350.94,7229.19 3289.28,7145.99C3227.36,7185.97 3153.62,7218.26 3029.31,7217.61C2928.99,7192.49 2857.95,7132.08 2822.26,7029.07C2747.49,7052.47 2661.39,7056.97 2561.93,7039.19C2478.78,6967.12 2424.4,6869.65 2401.44,6765.11C2302.58,6765.11 2203.37,6760.39 2138.27,6682.41C2108.99,6568.69 2122.1,6469.79 2183.45,6387.78C2097.83,6359.68 2032.71,6309.24 2021.7,6233.25L2174.05,6232.18C2211.44,6421.48 2275.41,6572.38 2383.61,6659.42C2307.83,6545.19 2264.47,6421.05 2237.03,6292.04C2220.13,6212.61 2263.84,6203.33 2268.2,6253.66ZM6461.39,3133.02L6636.49,3147.04L6639.91,3062.46L6583.15,2979.68L6641.13,2903.97C6658.37,2568.68 6771.19,2179.31 6861.38,1858.53L6584.36,2066.59C6579.47,2164.34 6613.37,2268.88 6677.76,2345.08C6610.3,2431.39 6552.08,2520.51 6523.89,2618.81C6527.76,2694.1 6554.37,2779.4 6601.93,2873.93L6461.39,3133.02ZM6400.11,3121.09C6393.31,3040.77 6355.13,2969.14 6294.2,2895.02C6366.15,2825.86 6417.46,2728.95 6463.42,2624.84C6475.22,2517.65 6453.89,2419.96 6387.28,2335.27C6469.85,2267.12 6511.02,2189.93 6512.69,2104.12C6286.01,2090.3 6093.31,2654.98 6210.14,2827.22C6243.51,2606.95 6258.93,2393.75 6347.38,2258.12C6310.65,2444.69 6279.03,2630.48 6252.78,2815.47C6183.66,2923.98 6143.53,3007.52 6156.65,3103.2L6193.21,3104.12C6197.22,3051.38 6215.03,2997.09 6237.57,2929.93C6239.65,2990.32 6244.24,3055.41 6266.9,3105.42L6400.11,3121.09ZM2111.65,3762.62C2154.89,3708.52 2185.61,3642.54 2204.36,3565.23L2242.07,3677.74C2278.35,3595.31 2220.37,2923.2 2212.82,2677.41C2096.51,2657.09 2105.06,2631.48 2170.91,2579.04C2160.98,2441.91 2155.31,2312.32 2108.73,2220.55C2079.08,2301.8 2109.41,2421.92 2119.69,2536.1C2081.58,2419.38 2047.82,2305.53 2015.82,2192.84C1935.19,2096.59 1822.45,2117.17 1919.36,2246.75C1945.63,2293.82 1984.19,2334.3 2028.03,2372.7C1978.17,2452.41 1952.81,2548.62 1963.25,2668.94C1993.8,2769.87 2048.37,2863.31 2139.33,2945.39C2071.6,3018 2017.77,3106.72 2013.55,3252.85C2026.25,3358.98 2071.77,3450.22 2163.02,3520.74C2084.98,3620.35 2024.67,3714.43 2111.65,3762.62ZM1842.31,3510.61C1942.68,3423.87 1966.84,3335.61 1948.52,3246.5C1942.9,3106.24 1882.49,3028.5 1798.17,2978.01C1886.04,2881.71 1909.71,2779.94 1897.59,2675.12C1884.72,2535.45 1816.53,2469.96 1737.9,2418.47C1814.27,2341.12 1846.39,2232.45 1826.81,2087.2C1720.56,2022.41 1620.51,1969.61 1526.08,1927.71C1577.39,2034.57 1619.3,2158.76 1653.06,2281.47L1753.48,2311.55L1681.16,2441.15C1741.76,2820.34 1803.27,3410.59 1798.87,3845.21C2018.38,3752.35 1972.83,3643.58 1842.31,3510.61ZM5971.21,1340.83C5949.65,1758.99 6030.22,2061.82 6290.76,2161.41L6325.07,2120.3C5981.66,1910.21 5997.12,1614.21 6048.01,1309.73C5883.38,1218.94 5692.98,1170.66 5506.93,1115.21C5696.68,1145.55 5886.97,1187.89 6078.6,1259.89C6115.09,1219.66 6151.92,1186.87 6203.38,1146.93C6113.24,1137.16 6018.87,1155.09 5947.07,1189.11C5925.61,1069.9 5862.53,995.014 5777.23,943.784C5659.13,935.135 5577.82,997.225 5500.95,1067.83C5471.4,962.909 5397.77,887.616 5287.64,836.87C5155.02,817.917 5075.43,876.98 5003.41,947.188L4837.62,775.717L4800.73,943.688C4940.75,960.271 5041.77,978.852 5116.94,1015.16C5011.28,993.572 4909.73,987.098 4812.1,995.049L4789.41,1028.89C5190.28,1088.2 5601.45,1164.69 5971.21,1340.83ZM5575.64,651.789C5649.76,780.887 5675.14,789.334 5776.3,700.58C6015.99,769.594 6248.12,864.182 6483.94,963.131L6271.82,1098.23C6154.64,1086.63 6106.71,990.01 6059.53,873.997C5964.14,887.813 5875.54,894.378 5792.56,894.936C5691.69,884.013 5611.17,815.637 5542.65,713.362C5464.89,749.882 5387.23,773.154 5309.69,777.067C5219.79,790.536 5158.03,713.738 5056.78,589.507C4990.69,618.881 4936.36,628.087 4892.74,618.929L4930.44,537.143C5136.59,560.727 5349.82,596.822 5575.64,651.789ZM6327.56,1276C6341.91,1284.29 6314.53,1329.96 6305.04,1351.35C6240.51,1496.79 6287.87,1552.58 6408.4,1532.37C6371.25,1379.84 6381,1231.59 6415.93,1078.34C6310.95,1140.79 6201.9,1217.35 6087.93,1310.93C6055.17,1673.36 6060.44,2007.84 6404.88,2092.98C6559.74,2028.44 6697.26,1944.14 6807.76,1829.06C6662.28,1801.78 6551.26,1719.25 6459.06,1606.6C6378.39,1615.42 6326.08,1808.49 6555.17,1785.28C6689.28,1771.69 6555.31,2037.73 6338.06,1945.76C6286.2,1923.8 6272.44,1869.43 6244.56,1802.74C6208.43,1794.85 6175.15,1808.97 6142.97,1831.54C6104.56,1764.83 6124.45,1706.03 6160.4,1649.4C6092.85,1438.75 6170.61,1185.3 6327.56,1276ZM1860.73,1037.55L2001.46,961.731C2066.54,985.9 2115.76,984.616 2115.35,903.689C2406.24,800.278 2695.94,703.215 2973.1,673.153C3114.62,602.136 3255.18,544.73 3387.91,597.879C3456.74,699.623 3407.43,678.311 3290.42,637.775C3260.72,725.004 3183.3,786.615 3058.15,822.608C2960.61,839.966 2845.78,825.502 2757.71,768.884C2728.01,855.504 2667.96,927.072 2548.65,988.321C2452.69,996.13 2358.52,974.825 2266.14,924.407C2217.84,1068.64 2157.7,1153.68 2081.09,1156.32L1860.73,1037.55ZM3402.91,941.398C3398.49,925.61 3496.82,796.39 3492.35,827.828C3490.52,840.702 3527.12,947.009 3527.12,947.009C3368.37,984.532 3236.51,1044.34 3106.57,1105.74C3277.76,1057.13 3440.92,1032.53 3594.6,1036.22C3414.86,1070.89 3247.87,1114.61 3082.45,1159.45C2986.73,1038.48 3000.08,1092.17 2977.65,1190.33L2382.42,1357.83C2568.75,1255.6 2718.54,1201.09 2860.33,1157.03C2700.77,1166.09 2515.59,1233.06 2325.52,1311.09L2136.4,1199.93C2238.77,1189.33 2338.52,1182.88 2411.77,1218.4C2433.99,1140.55 2473.64,1071.96 2565.32,1031.01C2670.44,1010.39 2760.39,1024.73 2833.67,1077.47C2927.89,994.001 2995.41,895.581 3104.03,842.739C3214.09,837.957 3317.35,857.711 3402.91,941.398ZM1578.6,1894.57C1693.61,1822.07 1823.76,1780.37 1901.27,1645.48C2036.58,1658.55 1968.1,1853.03 1785.6,1875.11C1765.02,1974.94 1889.83,2017.22 1986.77,2017.97C2082.39,1913.19 2121.95,1818.69 2239.97,1852.78C2230.74,2001.13 2110.17,2066.93 1930.18,2088.66C1930.18,2088.66 1574.26,1897.3 1578.6,1894.57ZM2285.45,1338.35C2150.07,1245.11 2007.69,1166.44 1861.2,1096.37C1958.62,1292.6 1961.02,1455.22 1922.63,1582.16C2126.85,1647.88 2138.9,1545.81 2043.97,1337.23C2229.45,1303.26 2341.64,1564.89 2191.33,1693.97C2217.2,1744.44 2244.51,1788.25 2272.21,1830.23C2272.73,1941.47 2175.37,2062.32 2052.95,2170.15C2267.93,2120.43 2433.48,1893.42 2398.84,1460.4L2362.23,1402.27C2366.08,1508.9 2350.04,1621.14 2320.88,1737.07C2331.87,1605.84 2332.82,1473.87 2285.45,1338.35Z" style="fill:rgb(32,43,68);"/>
    <g id="Light-Blue" serif:id="Light Blue" transform="matrix(11.511,0,0,11.511,-4863.19,-5534.82)">
        <path d="M718.49,519.45C742.811,522.045 766.529,518.5 784.429,493.852C795.625,512.437 812.341,526.453 848.979,517.747C841.436,536.859 833.319,555.881 828.846,575.908C800.175,571.903 771.5,572.26 742.625,578.775L718.49,519.45Z" style="fill:rgb(61,66,96);"/>
    </g>
    <path id="Yellow" d="M5778.4,6331.63L6002.73,6576.12C6063.48,6498.25 6093.39,6385.72 6106.7,6270.99C5967.83,6264.92 5839.93,6278.01 5778.4,6331.63ZM5421.37,6836.26C5525.94,6826.05 5630.91,6805.8 5698.49,6751.97L5475.29,6478.51C5375.81,6468.67 5281.39,6495.53 5203.47,6537.07L5421.37,6836.26ZM5086.05,6944.38L4814.93,6565.63C4503.66,6564.31 4483.3,6432.55 4626.56,6284.58C4518.18,6119.66 4401.15,6070.12 4330.59,6231.18C4484.27,6481.89 4656.9,6733.67 4871.64,6987.87L5086.05,6944.38ZM4246.49,6695.98C4390.59,6918.51 4693.81,7112.15 4479.06,7198.53L4370.05,7249.75C4267.82,7145.91 4232.58,6945.53 4246.49,6695.98ZM4174.96,6324.32L4223.64,7352.58C3983.84,7201.28 3705.43,7014.47 3615.74,7076.79C3600.1,7011.23 3413.72,6971.81 3337,6965.57C3326.31,6919.56 3264.91,6906.23 3216.95,6934.8C3177.55,6895.25 3172.3,6841.24 3082.74,6896.72C3046.66,6848.71 3025.13,6793.39 2978.96,6787.46C2952.8,6784.09 2957.35,6828.04 2930.77,6827.56C2896.69,6826.95 2903.87,6793.82 2893.49,6741.35C2883.65,6691.64 2828.24,6698.96 2815.83,6783.67C2529.45,6747.2 2329.62,6444.06 2340.2,6137.4C2407.28,6113.4 2488.75,6088.94 2596.08,6063.67L2599.16,5877.05L2811.71,5796.73C2823.49,5802.19 2826.18,5813.17 2826.19,5823.09C2826.28,5963.42 2905.83,5932.47 2877.28,5802.19C2875.3,5793.17 2874.27,5779.28 2879.68,5768.04C2973.42,5743.63 3052.35,5760.5 3097.33,5650.66C3170.3,5673.2 3238.87,5644.88 3305.58,5595.07C3351.59,5602.44 3365.07,5631.19 3363.73,5733.11C3362.61,5818.64 3461.23,5824.68 3429.14,5718.94C3410.88,5658.74 3409.01,5611.45 3437.52,5577.93C3466,5703.46 3515.28,5825.38 3596.49,5927.33C3519.17,6036.08 3387.35,6112.27 3271.85,6200.43C3230.49,6231.99 3142.04,6338.24 3139.93,6376.67C3132.62,6510.03 3150.59,6561.77 3279.7,6596.21C3433.91,6634.48 3668.57,6602.61 3976.54,6511.41C4036.02,6412.44 4096.93,6321.29 4174.96,6324.32ZM6025.39,5123.01L6004.06,4836.37L5832.44,4837.96C5891.01,4945.88 5952.87,5046.42 6025.39,5123.01ZM5769.57,5540.69C5923.85,5490.31 5740.63,5192.79 5652.02,5236.81C5707.12,5310.4 5745.64,5412.85 5769.57,5540.69ZM4374.47,1153.29C4459.06,1142.36 4564.85,1156.32 4669.76,1180.67C4723.68,1180.67 4726.95,1086.39 4774.24,1112.3C4805.26,1129.3 4803.86,1135.68 4810.41,1191.92C4817.12,1249.51 4878.41,1215.56 4898.59,1112.11C5043.12,1115.62 5191.9,1149.53 5453.12,1226.18C5430.23,1384.65 5513.29,1371.9 5550.81,1239.51C5661.24,1262.3 5786.7,1316.1 5915.82,1384.02C5893.18,1812.58 6001.95,2079.63 6233.93,2195.26C6157.25,2634.8 6024.12,2884.78 6168.4,2846.24C6114.74,2921.14 6101.63,3013.58 6102.33,3111.99C5951.84,3132.94 6022.82,3050.8 5960.17,2988.15C5926.42,3002.45 5918.41,3064.49 5909.39,3123.81C5750.23,3137.73 5606.36,3161.73 5524.41,3264.6C5477.76,3203 5330.69,3236.24 5148.94,3281.05C5078.09,3146.84 4969.74,3010.46 4837.09,2898.13C4652.43,2738.43 4469.9,2627.27 4240.94,2534.19C4205.71,2077.18 4215.28,1614.32 4228.21,1151.03L4263.33,1143.07C4322.24,1287.89 4330.37,1225.47 4374.47,1153.29ZM4041.08,1156.06C4084.73,1196.66 4110.72,1239.88 4144.94,1307.24L4153.66,1600.3C4035.95,1460.33 3922.79,1315.65 3815.48,1164.91L4041.08,1156.06ZM3395.15,1163.25C3632.33,1534.04 3875.7,1895.5 4148.89,2212.02L4156.92,2452.33C4099.59,2462.78 4022.64,2410.47 4014.35,2319.69C4001.83,2182.75 3899.53,2124.52 3787.4,2054.68C3798.09,1864.7 3700.94,1732.41 3581.42,1612.1C3531.61,1638.83 3492.53,1675.2 3466.12,1722.93C3334.58,1582.46 3205.19,1407.64 3110.59,1212.04C3191.86,1186.4 3295.54,1174.88 3395.15,1163.25ZM2701.34,1316.92C2877.46,1514.09 3039.06,1725.15 3176.08,1959.74L2956.99,2039.86C2798.35,1851.29 2644.45,1628.1 2481.15,1376.12C2560.07,1374.11 2627.78,1351.96 2701.34,1316.92ZM2437.65,1916.83C2415.93,2061.23 2410.62,2217.86 2421.95,2361.49C2360.99,2292.96 2308.09,2217.27 2262.52,2135.06L2386.76,1899.95L2437.65,1916.83ZM2294.91,2827.94L2710.93,3359.45L2597.29,3581.88C2366.58,3373.81 2275.96,3246.78 2294.91,2827.94ZM1247.18,4196.47L1539.24,4197.77C1666.48,4214.27 1633.41,4336.9 1738.79,4191.06C1768.51,4149.93 1794.43,4191.39 1814.94,4253.17C1825.59,4285.23 1871.57,4229.91 1909.8,4185.55C1936.75,4154.27 1963.82,4190.27 1986.3,4247.15C1997.77,4276.16 2043.04,4212.4 2089.61,4163.76C2127.34,4124.36 2151.53,4151.48 2173.87,4219.32C2187.01,4259.24 2252.24,4170.73 2376.46,4096.43C2421.99,4069.2 2468.23,4052.36 2510.56,4051.44L2520.01,5989.31C2192,6152.94 1785.6,6193.56 1287.62,6090.45C1327.49,5918.63 1321.06,5727.37 1286.79,5524.43L1260.76,4667.24L1247.18,4196.47Z" style="fill:rgb(248,201,53);"/>
    <path id="Light-Yellow" serif:id="Light Yellow" d="M6610.68,3239.01C6236.29,3149.28 5915.61,3175.87 5626.88,3235.75C5519.7,3342.93 5554.19,3340.48 5448.41,3285.56C5215.39,3317.43 4964.08,3376.54 4743.84,3438.51C4153.58,3619.37 3582.08,3825.46 3029.57,4057.09C2687.45,4201.9 2511.52,4305.2 2594.59,4343.82C2821.95,4244.19 3002.43,4162.66 3154.2,4137.57C2838.37,4254.29 2664.11,4346.97 2608.37,4419.53C2766.41,4344.34 2895.64,4301.63 2981.2,4308.18C2767.34,4392.61 2591.85,4475.44 2601.25,4550.48C2704.9,4509.25 2785.28,4475.17 2859.09,4472.43C2761.42,4517.8 2667.44,4564.16 2579.07,4612.03C2571.77,4854.78 2582.17,5071.56 2611.77,5260.14C2554.32,5303.83 2551.27,5338.3 2679.99,5308.75C2599.87,5360.61 2550.4,5413.28 2609.61,5433.38C2764.28,5389.6 2861.12,5348.96 2849.83,5375.19C2700.09,5433.07 2584.58,5486.47 2625.49,5519.43C2840.94,5438.14 2976.36,5383.81 2971.71,5418.29C2759.28,5495.17 2593.46,5563.54 2640.6,5592.99C2742.6,5561.59 2815.31,5532.59 2794.1,5572.67C2657.95,5605.36 2598.13,5640.86 2622.16,5679.43C2678.68,5666.46 2748.99,5641.31 2772.04,5651.03C2678.01,5700.43 2578.24,5764.87 2608.88,5795.48L4177.85,5205.27C4371.99,5146.48 4576.22,5092.37 4792.44,5048.44C4861.36,4998.95 4942.51,4968.6 5037.58,4960.02C5169.84,4958.21 5227.62,4926.21 5240.96,4846.88C5250.63,4889.16 5294,4894.48 5357.26,4877.98C5552.62,4829.08 5751.36,4787.09 5957.48,4760.17C6527.42,4672.53 6898.53,4754.33 7210.12,5072.34C7162.59,4893.21 6965.57,4762.38 6726.61,4645.1C6886.9,4674.06 7035.99,4734.17 7173.14,4827.51C7130.37,4709.74 7004.9,4614.84 6868.67,4511.47C6989.25,4540 7079.39,4593.5 7161.14,4653.87C7087.7,4548.58 6962.05,4439.72 6817.65,4329.57C6961.57,4377.11 7073.03,4454.41 7162.27,4552.11C7123.48,4461.37 7046.74,4372.99 6961.69,4285.14L7150.9,4399.55C7125.95,4324.07 7076.83,4276.93 6997.15,4198.48L7162.49,4290.66L7071.29,4084.2L7187.73,4166.67C7193.31,4086.34 7163.46,3994.03 7114.7,3895.34L7233.77,4017.36C7222.53,3897.88 7157.49,3768.84 7050.55,3632.36C7133.09,3686.01 7200.24,3750.44 7256.34,3822.61C7172.49,3495.88 6940.63,3318.09 6610.68,3239.01ZM7099.87,5172.51C7062.29,4998.65 6988.23,4900.51 6856.21,4968.55C6855.89,5001.44 6909.47,4980.68 6963.1,4992.31C6932.06,5009.32 6893.42,5015.24 6885.4,5049.65C6887.31,5087.7 6884.57,5082.52 6935.95,5041.91C6965.45,5034.32 6990.44,5034.35 7001.34,5053.83C6972.44,5078.5 6938.43,5099.22 6899.78,5116.35C6866.56,5163.78 6876.36,5170.11 6936.63,5144.23C6987.49,5122.39 7053.15,5145.02 7099.87,5172.51ZM7000.53,5192.04C7025,5186.08 7193.26,5256.34 7009.28,5419.62C6997.3,5354.74 6996.3,5276.56 7000.53,5192.04ZM6898.61,5281.48C6918.28,5286.41 6937.13,5286.49 6955.09,5281.25C6973.11,5257.52 6963.34,5238.34 6928.1,5224.84C6915.33,5247.43 6902.44,5263.13 6898.61,5281.48ZM6865.28,5305.66C6897.82,5309.58 6930.62,5317.59 6963.94,5342.11C6965.81,5415.85 6930.49,5417.88 6856.21,5339.51C6850.96,5324.17 6854.84,5313.31 6865.28,5305.66ZM6944.75,5477.56C6956.79,5501.76 7143.36,5405.12 7265.45,5342.87C7241.62,5398.45 7192.19,5458.94 7126.53,5487.46C7077.09,5508.94 7032.22,5522.53 7004.55,5546.17C7045.38,5558.31 7096.79,5557.28 7125.35,5535.43C7176.22,5496.49 7205.29,5473.91 7194.52,5512.43C7174.42,5584.38 7107.8,5611.13 6985.02,5606.04C6893.49,5602.25 6864.44,5584.07 6871.3,5542.26C6962.94,5550.63 6963.17,5521.96 6920.06,5511.19C6864.05,5497.19 6810.03,5484.15 6827.68,5419.62C6879.1,5402.83 6917.74,5423.25 6944.75,5477.56ZM7239.78,5232.28C7185.2,5243.31 7136.04,5266.87 7116.79,5359.45C7171.6,5366.77 7208.71,5310.39 7239.78,5232.28Z" style="fill:rgb(223,194,81);"/>
    <g id="Dark-Grey" serif:id="Dark Grey" transform="matrix(11.511,0,0,11.511,-4863.19,-5534.82)">
        <path d="M742.541,957.288C764.902,949.118 786.929,931.778 793.277,944.298C790.51,931.787 811.013,928.42 850.355,919.397C857.135,926.268 863.218,932.457 868.572,937.929C864.693,931.477 861.727,923.301 862.665,915.3C865.631,914.152 869.687,916.459 873.494,920.556C873.317,919.064 872.762,917.227 871.896,915.105C874.196,916.626 876.15,918.194 877.839,919.797C877.616,917.917 876.893,916.008 875.567,914.064C877.867,916.014 880.07,918.179 882.058,920.817C882.224,918.568 881.421,915.859 879.954,912.834C884.488,917.494 888.683,922.093 892.068,926.545C891.338,922.795 889.582,918.455 887.457,913.905C893.262,920.374 898.385,927.102 901.673,934.528C901.73,928.64 897.774,921.987 893.754,915.118C893.696,909.937 905.484,920.963 912.392,932.063C909.802,929.023 907.055,926.79 904.136,925.444C914.714,941.841 919.149,960.941 917.585,982.683C917.437,984.737 915.788,984.366 915.81,982.049L915.046,975.129C914.14,961.699 912.362,949.235 907.676,943.686C910.178,953.842 910.48,963.671 910.425,973.089C909.641,968.974 908.441,964.525 905.827,960.098C905.696,973.477 909.185,983.349 914.563,993.107C915.81,995.368 916.658,997.995 915.761,999.775C914.187,998.37 913.021,995.942 912.114,992.865C910.716,1000.75 911.59,1016.14 914.524,1015.85C918.93,1015.41 920.118,1000.48 919.529,985.77C921.263,979.513 925.334,974.304 929.253,968.92C928.465,965.416 928.62,961.97 930.846,958.651C932.814,959.076 932.94,961.649 933.342,964.57C940.167,959.228 939.168,938.973 947.338,942.919C953.119,945.711 941.634,963.479 932.561,974.9C936.483,974.813 940.654,969.564 947.064,961.073C949.537,957.796 956.254,964.038 946.708,970.14C939.266,975.29 933.695,980.537 929.897,986.919C937.332,980.797 943.882,976.37 951.153,973.927C956.109,973.927 943.641,984.114 935.738,989.446C940.983,989.113 944.032,985.865 949.645,984.304C958.621,981.809 947.531,998.496 935.917,1003.88C941.008,1003.14 943.977,1000.94 950.857,998.182C956.918,995.757 955.266,1005.94 949.079,1013C946.719,1011.22 945.961,1009.04 948.732,1005.95C945.518,1005.61 943.555,1009.71 940.584,1014.75C939.672,1012.3 939.583,1010.46 941.869,1006.37C937.75,1006.7 932.531,1014.19 927.92,1020.2C927.924,1017.06 929.119,1013.43 931.505,1009.32C925.189,1016.51 919.105,1022.72 914.641,1022.02C912.868,1024.15 913.586,1026.25 915.261,1028.34C909.897,1026.7 905.403,1032.5 899.94,1038.33C895.662,1042.9 893.693,1037.33 898.852,1032.34C893.298,1029.91 884.989,1036.93 876.958,1041.52C874.913,1042.69 875.873,1036.21 871.978,1036.84C868.401,1037.43 866.552,1038.57 862.299,1042.3C858.892,1045.29 858.679,1043.92 858.123,1038.46C857.333,1030.71 854.118,1033.89 846.155,1040.62C841.614,1044.45 842.161,1040.25 845.953,1033.74C849.04,1028.43 839.808,1030.01 833.607,1039.75C831.021,1043.81 827.664,1040.93 832.067,1034.67C835.825,1029.33 831.175,1027.94 826.231,1029.63C828.707,1026 833.596,1025.18 844.874,1023.57C849.906,1022.86 850.637,1020.42 848.006,1016.58C844.938,1012.1 857.367,1014.61 870.6,1011.34C869.472,1005.5 858.028,996.737 846.659,983.874C846.367,992.339 850.339,997.45 859.088,1003.82C863.422,1006.98 856.473,1012.83 852.205,1005.78L847.619,998.945C846.583,1003.15 847.158,1006.21 850.218,1009.44C851.299,1016.29 843.407,1006 841.188,1004.61C843.165,1007.38 843.698,1010.54 842.854,1014.07C842.078,1017.32 835.773,1010.75 832.781,1006.96C833.645,1010.31 833.717,1013.33 832.83,1015.93C828.263,1013.04 823.101,1007.25 818.36,1002.59C819.833,1005.64 820.634,1008.42 820.16,1010.67C817.227,1005.47 813.09,1001.54 807.631,998.983C810.799,1002.15 813.384,1006.39 813.721,1009.4C804.729,1001.89 798.041,994.911 791.992,995.371C800.151,1003.05 806.075,1007.13 799.631,1013.19C788.563,1023.59 772.283,1026.51 766.995,1041.47C761.036,1040.28 753.372,1041.97 745.258,1045.43C747.14,1030.32 743.26,1029.89 733.258,1043.56C731.341,1046.18 729.279,1044.11 731.848,1038.19C735.384,1030.04 725.975,1031.46 721.231,1038.84C719.482,1041.56 716.279,1040.91 719.805,1035.21C723.267,1031.75 715.295,1028.53 710.023,1036.28C707.917,1039.38 705.201,1037.13 709.166,1033.91C711.455,1032.06 708.728,1029.91 704.356,1029.05C699.947,1028.17 704.368,1024.61 715.069,1021.24L727.319,1018.07C727.878,1010.52 731.978,1002.98 741.966,998.138C735.896,987.807 730.081,977.029 727.38,964.621C728.54,962.336 730.639,961.837 732.897,961.643C735.096,964.786 734.907,968.895 734.222,973.205C736.432,970.55 738.528,966.308 738.636,962.513L740.107,968.972C742.639,965.347 744.087,960.33 742.541,957.288Z" style="fill:rgb(74,77,95);fill-opacity:0.42;"/>
    </g>
    <path id="Grey" d="M3942.46,3300.38C3918.35,3256.11 3910.26,3222.47 3921.53,3201.66C3953.82,3239.78 3980.49,3253.83 4003.3,3251.42C3920.34,3152.82 4055.92,3170.77 4112.73,3148.72C4118.69,3094.31 4164.97,3065.21 4236.87,3052.2C4305.62,2971.19 4366.16,2872.8 4340.51,2839.95C4281.92,2764.87 4232.08,2745.32 4215.59,2686.09C4282.37,2706.71 4383.6,2749.51 4389.44,2789.71C4397.43,2844.68 4432.51,2888.8 4475.03,2929.95C4468.16,2962.47 4468.29,2994.24 4486.66,3024.05C4552.39,3216.41 4673.68,3226.88 4624.24,3168.12C4553.4,3083.94 4524.46,3026.7 4556.78,3008.84C4534.79,2957.39 4498.92,2907.79 4452.32,2859.63C4471.09,2850.83 4490.72,2851.54 4511.22,2861.76C4415.77,2737.97 4283.73,2656.95 4144.69,2584.1C4483.78,2666.1 4806.69,2856.22 5046.16,3218.04C5049.45,3312.93 4828.74,3010.63 4592.02,2821.9C4717.84,2953.42 4841.68,3086.21 4926.35,3244.3C4840.07,3140.6 4755.42,3062.54 4671.81,3000.78C4748.14,3083.53 4818.36,3169.54 4853.76,3274.13C4810.82,3222.51 4758.26,3183.11 4697.74,3153.85C4743.31,3206.53 4779.86,3262.09 4786.03,3327.35C4760.71,3298.55 4728.68,3272.63 4683.4,3252.39C4715.61,3291.93 4734.11,3331.24 4725.52,3370.1C4649.23,3388.65 4570.8,3401.03 4491.17,3409.98C4446.23,3404.01 4413.6,3386.24 4385.7,3363.96L4385.61,3416.72C4324.93,3383.88 4261.9,3330.7 4198.53,3274.61C4230.57,3336.37 4287.35,3393.73 4337.87,3443.79C4308.87,3454.64 4273.86,3447.33 4233.38,3423.48C4237.64,3452.27 4258.33,3481.85 4279.86,3496.3C4197.52,3501.73 4078.21,3440.95 4000.36,3357.87C3959.82,3429.02 3849.92,3321.16 3822.65,3224.82C3809.31,3177.69 3832.78,3163.47 3862.29,3191.49C3890.01,3217.82 3884.75,3280.23 3942.46,3300.38ZM3531.76,3732.36C3521.88,3757.98 3562.18,3769.04 3578.36,3733.66C3592.28,3703.22 3613.01,3674.47 3625.99,3697.42C3625.71,3733.52 3629.11,3754.14 3664.68,3740.63C3840.8,3673.7 4083.28,3602.55 4039.77,3562.43C3991.3,3565.2 3941.08,3563.12 3911.34,3541.88C4055.88,3540.05 4063.61,3414.7 3994.85,3448.45C3937.55,3476.58 3911.28,3487.74 3859.16,3484.32C3899.99,3461.36 3935.58,3437.6 3917.95,3405.74C3875.6,3400.93 3840.03,3420.01 3805.88,3444.05C3828.17,3409.02 3852.1,3373.47 3827.51,3341.89C3752.79,3299.38 3666.84,3305.22 3579.41,3317.42C3551.19,3371.55 3517.4,3360.72 3427.77,3334.38C3307.28,3404.79 3245.28,3478.61 3204.2,3545.33C3287.55,3534.56 3258.79,3562.1 3187.01,3604.36C3225.88,3620.44 3251.97,3641.95 3250.15,3673.39C3309.7,3615.53 3396.62,3575.29 3380.66,3651.56C3363.87,3731.8 3378.09,3848.85 3452.16,3675.49C3473.44,3625.69 3566.78,3641.65 3531.76,3732.36ZM1759.62,3971.39C1716.84,3999.41 1678.87,4038.91 1647,4072.84C1649.71,4033.95 1684.38,3997.47 1718.52,3976.19L1679.65,3987.59C1694.87,3954.12 1717.52,3934.69 1746.33,3926.89C1810.66,3917.62 1854.14,3899.18 1897.39,3862.17C1948.65,3802.38 1969.82,3787.35 2008.71,3802.37C2088.31,3828.47 2103.06,3826.72 2140.75,3808.38C2295.96,3768.82 2430.01,3789.49 2554.84,3836.43C2667.08,3895.79 2768.81,3965.97 2860.97,4046.01C2820.74,4078.58 2766.35,4056.7 2705.21,4008.89C2721.4,4043.11 2730.18,4074.03 2726.44,4099.34C2701.22,4051.52 2678.32,4086.76 2644.14,4145.84C2585.72,4194.66 2577.91,4169.74 2579.29,4000.77C2580.08,3902.71 2493,3887.26 2408.43,4000.32C2388.14,4027.44 2371.7,4003.72 2331.14,3962.56C2292.09,3922.93 2249.24,3978.6 2208.52,4041.05C2183.05,4080.11 2179.29,4068.86 2191.58,3979.73C2133.56,3920.59 2054.03,3962.03 2003.66,4053.08C1995.35,3993.95 1969.7,3935.02 1936.54,3938.77C1890.15,3944.03 1862.26,3975.92 1831.04,4036.49C1815.32,3992.83 1787.81,3952.92 1759.62,3971.39Z" style="fill:rgb(83,85,100);"/>
    <path id="Light-Grey" serif:id="Light Grey" d="M3048.04,2415.04C3030.77,2596.51 3072,2730.04 3168.09,2818.63C2937.51,2768.97 3019.4,2987.53 3121.7,3107.46L3131.07,3061.49C3170.41,3108.41 3218.34,3162.78 3270.49,3203.89C3362.09,3178.55 3451.3,3186.35 3535.51,3263.7C3631.01,3200.25 3761.01,3162.09 3729.79,3130.39C3571.47,3085.44 3497.4,3016.65 3556.18,3023.37C3596.9,3028.02 3625.21,3052.47 3664.09,3069.11C3734.87,3099.39 3816.99,3120.49 3869.55,3097.75C3819.14,3064.09 3775.14,3012.01 3771.35,2970.69C3763.92,2889.62 3761.33,2855.13 3708.81,2873.61C3612.18,2907.63 3519.7,2892.65 3456.51,2843.31C3397.28,2797.05 3422.91,2759.81 3455.66,2788.73C3497.39,2825.59 3520.97,2842.19 3553.53,2839.03C3452.14,2711.86 3433.03,2729.67 3318.17,2729.8C3290.24,2693.19 3282.81,2662.92 3286.16,2636C3351.2,2673.07 3412.43,2704.95 3495.08,2697.82C3567.61,2687.81 3552.4,2616.51 3516.53,2632.57C3419.71,2675.93 3382.93,2670.89 3316.53,2607.9C3395,2475.9 3433.67,2523.62 3529.36,2607.03C3584.38,2630.92 3554.68,2577.85 3489.22,2498.96C3387.36,2415.72 3363.08,2542.41 3245.49,2595.65C3137.3,2644.63 3167.32,2500.71 3297.09,2452.63C3273.38,2480.25 3244.49,2519.32 3244.08,2543.62C3289.42,2527.86 3336.7,2481.32 3350.44,2420.31C3354.65,2401.64 3389.49,2402.69 3415.38,2430.31C3438.35,2454.82 3488.17,2467.01 3522.24,2460.82C3456.77,2356.23 3251.85,2288.88 3036.28,2244.54C2962.35,2229.34 2915.6,2233.62 2833.81,2239.14C2850.55,2262.35 2876.15,2277.92 2906.34,2296.1C2747.77,2314.41 2656.86,2292.11 2658.47,2214.25C2714.37,2263.64 2798.14,2239.09 2725.92,2180.79C2649.35,2109.54 2568.81,2058.52 2479.93,2049.92C2460.34,2282.49 2468.17,2502.03 2621.38,2652.53C2626.15,2579.9 2660.17,2588.76 2665.1,2701.97C2749.43,2632.03 2820.12,2528.17 2877.48,2417.11C2925.21,2435.02 2981.07,2436.36 3048.04,2415.04ZM3944.96,2613.18C4136.74,2829.65 4173.8,2819.37 4201.79,2781.48C4035.25,2676.95 3873.45,2516.34 3714.09,2326.88C3589.64,2203.33 3455.05,2151.1 3314.64,2139.77C3311.85,2169.99 3331.43,2184.9 3382.16,2178.52C3376.04,2227.78 3450.14,2266.66 3467.83,2225.73C3527.6,2280.26 3574.13,2315.27 3648.63,2324.02C3726.26,2464.69 3821.78,2592.45 3944.96,2613.18ZM4009.24,2738.47C4051.46,2755.84 4076.72,2787.92 4085.01,2834.71C4055.93,2805.75 4030.67,2773.67 4009.24,2738.47ZM2681.15,2900.64C2647.15,2845.74 2593.13,2820.16 2541.1,2784.5C2560.71,2775.96 2592.7,2763.87 2618.43,2778.48C2601.73,2744.06 2579.49,2719.77 2551.7,2705.62C2635.1,2700.08 2680.03,2748.1 2686.51,2849.66C2723.27,2811.49 2736.47,2862.23 2737.28,2959.75C2775.89,3003.57 2823.98,3042.25 2904.36,3101.99C2929.49,3156.29 2987.12,3199.69 3072.32,3233.85C3174.35,3293.77 3232.49,3366.39 3222.32,3450.14C3160.36,3377.97 3091.25,3327.82 3016.08,3296.38C3106.95,3380.67 3169.29,3462.61 3152.21,3537.96L3056.42,3460.9C3082.4,3546.58 3093.63,3627.07 3060.74,3725.83C3041.11,3814.08 3057.02,3889.88 3094.29,3958.2C3040.62,4031.39 2848.49,4021.3 2792.17,3884.7L2739.82,3881.52C2764.93,3854.43 2782.18,3816.77 2770.84,3783.57L2695.63,3827.01C2721.08,3794.05 2739.5,3749.44 2736.5,3717.68C2712.03,3742.36 2681.73,3763.67 2642.89,3780.05C2692.29,3727.88 2731.36,3672.46 2738.09,3606.91C2705.1,3644.83 2666.68,3678.17 2612.09,3697.8C2616.53,3631.45 2676.72,3581.78 2749.94,3536C2787.68,3512.41 2800.3,3482.99 2813.88,3453.39C2790.59,3469.77 2766.46,3485.08 2727.98,3487.11C2686.8,3489.28 2819.18,3408.04 2884.47,3332.49C2851.65,3354.48 2821.9,3368.39 2781.92,3361.45C2750.18,3355.95 2805.25,3302.09 2841.78,3282.74C2813.07,3270.91 2781.15,3268.64 2740.88,3291.28C2708.99,3241.58 2751.56,3215.22 2902.96,3222.99C2840.61,3164.14 2760.54,3127.66 2671.02,3103.11C2673.49,3069.97 2699.28,3056.19 2741.03,3055.64C2731.96,3036.19 2711.5,3020.86 2661.41,3016.27C2641.22,2977.65 2666.89,2969.15 2719.62,2978.43C2696.77,2949.56 2656.35,2933.72 2592.78,2915.89C2556.32,2905.67 2605.02,2876.68 2681.15,2900.64ZM3476.23,1980.99C3564.74,2007.8 3649.34,2037.66 3721.71,2077.06C3736.75,1912.47 3683.5,1791.38 3570.22,1708.51C3561.61,1816.66 3535.52,1911.49 3476.23,1980.99ZM3931.76,2268.27C3921.99,2240.06 3906.64,2211.17 3863.49,2200.28C3786.85,2270.17 3782.69,2355.36 3861.91,2397.9C3852.85,2330.8 3861.87,2277.06 3931.76,2268.27ZM3751.78,2118.54C3772.07,2159.1 3791.53,2198.34 3808.82,2234.11C3881.25,2134.55 3800.74,2097.5 3751.78,2118.54ZM3934.06,2392.81C3982.72,2390.31 4002.44,2408.25 3993.22,2446.62C3960.58,2489.43 3915.5,2445.65 3934.06,2392.81ZM3548.68,2702.14C3559.09,2723.21 3562.33,2746.55 3553.41,2773.76C3503.22,2756.7 3507.41,2721.56 3548.68,2702.14ZM3676.81,5446.77C3880.17,5359.66 4358.24,5179.6 4675.5,5120.6C4722.94,5170.65 4758.88,5268.69 4779.01,5352.46C4709.87,5470.55 4714.35,5516.72 4754.31,5696.35C4775.52,5791.71 4893.78,5964.06 4893.78,5964.06C4881.84,6012.52 4888.47,6047.72 4923.69,6084.85C4936.13,6163.68 4845.29,6045.27 4819.74,6029.31C4842.5,6061.21 4848.64,6097.58 4838.93,6138.21C4829.99,6175.58 4757.42,6099.91 4722.97,6056.36C4732.92,6094.92 4733.74,6129.61 4723.54,6159.62C4670.97,6126.35 4611.54,6059.71 4556.97,6005.98C4573.92,6041.17 4583.15,6073.14 4577.7,6098.97C4543.93,6039.22 4496.31,5993.93 4433.47,5964.5C4469.94,6000.99 4499.69,6049.75 4503.57,6084.4C4400.06,5997.97 4322.88,5930.37 4253.45,5922.92C4195.05,5916.66 4057.16,5847.32 3933.43,5736C3800.94,5616.8 3781.84,5606.57 3676.81,5446.77ZM5665.27,6229.73C5644.85,6254.15 5630.15,6162.04 5663.91,6158.65C5714.63,6153.56 5728.31,5981.71 5721.54,5812.4C5741.49,5740.38 5788.35,5680.41 5833.46,5618.44C5824.4,5578.11 5826.18,5538.44 5851.81,5500.23C5874.46,5505.14 5875.9,5534.75 5880.53,5568.37C5959.1,5506.88 5947.6,5273.72 6041.64,5319.14C6108.19,5351.28 5975.98,5555.81 5871.54,5687.28C5916.69,5686.27 5964.7,5625.86 6038.49,5528.11C6066.96,5490.4 6144.28,5562.25 6034.39,5632.49C5948.72,5691.77 5884.6,5752.17 5840.88,5825.63C5926.46,5755.16 6001.86,5704.2 6085.56,5676.08C6142.6,5676.08 5999.08,5793.35 5908.11,5854.72C5968.49,5850.89 6003.59,5813.49 6068.2,5795.53C6171.52,5766.81 6012.01,5917.85 5905.77,6023.56C5812.88,6115.98 5716.65,6237.74 5665.27,6229.73Z" style="fill:rgb(215,215,215);"/>
    <path id="Black" d="M6532.55,4509.38C6511.65,4571.9 6508.14,4442.62 6448.31,4471.26C6400.36,4494.21 6481.55,4636.23 6583.43,4584.29C6746.61,4501.1 6710.35,4159.16 6710.35,3806.69C6761.9,3785.54 6816.76,3769.31 6876.24,3759.92C6867.04,3878.01 6872.82,3975.39 6934.9,4039.37C7136.81,3919.69 6996.54,3592.25 6723.09,3728.76L6713.76,3447.74C6751.98,3401.07 6787.28,3438.38 6817.91,3570.01C6924.69,3616.08 6942.2,3488.56 6876.84,3388.09C6687.13,3266.97 6515.78,3487.48 6527.29,3530.41C6528.65,3642.32 6537.32,3728.93 6520.3,3787.77C6511.58,3817.93 6480.24,3817.96 6453.85,3848.3C6423.25,3883.49 6494.47,3907.58 6531.1,3870.03C6539.75,4080.51 6555.66,4288.67 6532.55,4509.38ZM5936.67,4500.74C5947.62,4527.32 5967.71,4545.77 5989.83,4564.03C6067.35,4554.19 6077.09,4130.56 6022.45,3865.19C5914.31,3865.19 5920.43,3801.5 6026.7,3791.06C5975.37,3578.23 6039.62,3416.38 6264.78,3325.53C6361.09,3318.87 6447.03,3337.69 6477.42,3436.93L6331.36,3527.5C6315.1,3497.71 6304.39,3472.97 6287.79,3439.88C6257.19,3378.89 6220.66,3547.23 6233.61,3691.91C6278.57,3649.08 6323.38,3610.46 6366.98,3606.84C6386.39,3615.07 6388.06,3642.52 6383.17,3703.21L6236.4,3778.45C6268.41,4026.79 6268.75,4290.42 6228.03,4573.87C6129.03,4633.3 6038.38,4655.82 5959.97,4652.19C5897.6,4581.15 5892.41,4530.31 5936.67,4500.74ZM5870.91,4170.93C5873.95,4207.13 5918.08,4199.64 5959.42,4176.35C5898.04,4311.48 5737.98,4371.25 5679.26,4253.23C5571.98,4344 5412.46,4391.82 5408.68,4300.43C5401.54,4127.45 5402.98,3956.02 5348.84,3774.62C5418.09,3786.11 5492.67,3721.45 5578.81,3654.07C5553.69,3974.14 5534.47,4312.41 5639.45,4224.66C5733.4,4080.43 5722.61,3924.18 5648.94,3747.53C5752.25,3665.62 5865.82,3551.57 5903.18,3566.18C5857.32,3767.03 5853.92,3968.77 5870.91,4170.93ZM3982.06,4921.09C4057.76,4862.24 4140.06,4814.51 4245.86,4806.39C4282.93,4803.54 4262.96,4745.91 4194.21,4745.3C4180.59,4417.57 4175.44,4093.96 4197.28,3783.52C4141.05,3788.02 4072.09,3895.19 3992.15,4024.01C4035.65,4211.34 4031.67,4496.54 4022.2,4792.87C3959.07,4901.81 3940.84,4924.48 3982.06,4921.09ZM3569.79,4478.6C3646.78,4359.11 3640.88,4195.49 3625.69,4026.92C3705.43,3934.51 3775.11,3863.63 3842.32,3818.03C3896.97,3807.52 3949.57,3807.18 3996.06,3837.19C3971.5,3904.43 3929.04,3965.21 3871.75,4020.62L3828.53,3965.14C3780.39,4010.1 3775.44,4093.24 3795.97,4198.9L3875.03,4146.23C3910.06,4163.75 3902.22,4231.28 3897.12,4295.6L3814.23,4325.7C3817.58,4598.48 3799.46,4865.36 3779.78,5131.81C3711.73,5217.74 3625.14,5267.92 3525.73,5281.42C3630.6,5010.87 3683.89,4742 3569.79,4478.6ZM3422.84,4117.49C3405.26,4190.26 3406.13,4278.12 3423.02,4342.55C3463.26,4312.3 3510.27,4278.9 3544.32,4287.12C3549.91,4328.6 3540.77,4368.72 3521.56,4407.92C3471.33,4399.11 3434.57,4431.9 3405.77,4489.24C3417.76,4652.47 3433.17,4760.62 3407.31,4785.65C3502.26,5204.43 3312.16,5460.56 3110.56,5384.76C3260.7,5306.94 3244.13,4994.53 3223.8,4631C3161.56,4615.76 3140.58,4592.38 3223.56,4520.75C3226.87,4211.06 3325.42,3868.62 3580.85,4048.57C3578.93,4116.8 3548.25,4175 3499.29,4226.81C3466.79,4212.92 3444.84,4160.61 3422.84,4117.49ZM2840.1,4640.9L2629.33,4728.86C2659.33,4772.06 2663.74,4864.7 2661.89,4951.09C2651.51,5116.22 2673.32,5280.89 2717.53,5284.44C2768.95,5306.13 2830.39,5246.17 2914.56,5197.83C2945.77,5179.91 2972.57,5157.4 2982.02,5178.87C2998.6,5216.56 3001.94,5238.11 3031.82,5245.7C3098.22,5192.04 3149.35,5127.74 3180.67,5049.67C3124.85,5038.4 3093.9,4964.9 3117.12,4842.55C3117.87,4720.92 3129.22,4593.98 3152.43,4461.1C3078.37,4484.53 2997.73,4538.32 2911.46,4618.11C2978.96,4800.23 3004.31,4977.39 2917.13,5112.23C2807.65,5166.83 2796.1,4886.57 2840.1,4640.9ZM1447.82,4936.27C1466.02,4811.02 1446.99,4669.58 1378.65,4533.29C1431.77,4536.17 1482.74,4528.23 1534.08,4511.93C1639.82,4417.72 1737.38,4354.97 1837.36,4339.99C1740.68,4535.1 1725.53,4740.74 1746.67,4951.09C1847.69,5004.01 1938.66,5036.68 2017.51,5044.88L2013.75,4952.17C2068.36,4864.28 2059.53,4872.9 1988.72,4801.12C1999.36,4711.03 2007.82,4623.68 1998.14,4559.06C1949.86,4544.28 1921.54,4531.2 1921.75,4503.22C2068.69,4405.84 2313.86,4228.14 2311.12,4296.07C2277.88,4347.85 2248.32,4401.25 2244.49,4465.99L2284.46,5138.89L2388.6,5186.31C2425.01,5235.99 2404.89,5288.09 2288.79,5246.1C2275.47,5437.08 2290.18,5608.03 2382.91,5723.21C2218.77,5787.39 2061.79,5858.18 1925.81,5948.31C1915.01,5911.41 1946.81,5882.28 1999.59,5836.41C2032.65,5708.31 2017.59,5630.42 2013.76,5535.69C2065.01,5459.1 2085.32,5436.9 2025.53,5391L2030.27,5147.28L1749.52,5077.19C1738.95,5321.29 1735.77,5562.82 1841.58,5766.43C1789.77,5816.13 1759.99,5808.31 1659.34,5836.19C1547.85,5929.97 1444.33,5996.61 1364.58,5982.25C1471.18,5886.07 1488.26,5728.19 1478.28,5540.89C1516.53,5427.02 1535.04,5404.07 1469.17,5362.45C1461.01,5265.71 1451.71,5145.39 1443.49,5036.86C1222.56,4969.93 958.55,5242.66 1146.18,5338.01C1220.23,5354.69 1292.95,5276.47 1365.68,5199C1372.38,5310.55 1345.06,5430.53 1258.45,5565.22C926.432,5495.53 823.536,5175.11 1167.46,4960.23C1228.49,4922.1 1389.91,4921.71 1447.82,4936.27ZM4985.71,3738.9C4897.19,3792.17 4818.24,3846.08 4775.87,3947.88C4865.41,4179.28 4834.74,4528.78 4827.9,4844.4C4734.95,4998.26 4725.56,5095.62 4754.15,5167.3C4802.65,4992.69 4899.84,4855.05 5087.32,4799.88C5135.86,4785.59 5053.37,4739.06 4985.09,4710.39C4979.17,4598.99 4995.59,4486.78 5028.05,4373.99C5038.61,4346.18 5096.7,4365.25 5173.41,4389.82C5314.73,4333.39 5378.06,3798.05 5136.03,3707.67C5101.73,3705.87 5068.57,3754.75 5015.63,3818.95C4991.39,3848.34 4977.53,3791.77 4985.71,3738.9ZM5047.69,4289.06C5190.52,4306.84 5144.68,3795.69 5038.55,3845.82C4976.7,3875.03 4996.4,3984.59 5000.62,4088.35C5004.67,4187.75 4990.7,4281.96 5047.69,4289.06ZM4666.68,4484.61C4602.12,4501.05 4601.59,4557.93 4568.24,4660.25C4537.38,4754.96 4471.37,4733.2 4469.33,4574.99C4481.74,4426.86 4612.03,4316.02 4768.12,4213.33C4695.52,4080.89 4622.81,3973.93 4549.52,3983.47C4493.49,3990.76 4394.58,4103.4 4321.25,4197.76C4330.05,4322.52 4322.52,4447.22 4292.43,4569C4319.77,4805.78 4509,4864.07 4639.17,4733.13C4728.5,4643.27 4793.66,4510.97 4666.68,4484.61ZM4460.79,4376.89C4515.03,4366.81 4560.18,4319.79 4596.86,4260.59C4579.27,4168.71 4543.93,4107.07 4505.44,4101.74C4472.62,4183.13 4460.73,4289.42 4460.79,4376.89ZM5178.38,5451.18C5126.46,5492.22 5021.81,5280.15 4971.3,5155.64C5057.38,5244.3 5205.15,5430.01 5178.38,5451.18ZM5057.85,5412.74C5102.12,5468.99 5209.4,5585.6 5193.84,5612.58C5174.28,5646.5 5071.57,5505.82 5057.85,5412.74ZM5538.71,5786.2C5595.31,5874.5 5610.7,6097.01 5560.51,6089.25C5525.91,6083.9 5541.31,5897.24 5538.71,5786.2ZM5480.7,5950.11C5511.55,6003.38 5491.8,6102.92 5459.32,6087.29C5431.9,6074.09 5458.16,5995.34 5480.7,5950.11ZM5248.08,6080.48C5243.68,6027.61 5199.29,5946.1 5178.04,5953.42C5143.62,5965.27 5192.94,6062.57 5248.08,6080.48ZM4678.18,5526.6C4740.85,5596.25 4780.44,5712.5 4737.23,5735.42C4694.54,5758.05 4686.33,5608.71 4678.18,5526.6ZM4472.47,5332.44C4574.8,5403.45 4667.63,5484.15 4617.33,5630.45C4606.56,5591.91 4593.94,5554.12 4568.44,5521.51L4547.58,5582.36C4496.77,5526.7 4477.18,5437.55 4472.47,5332.44ZM4388.69,5313.78C4431.82,5375.22 4484.56,5513.93 4449.57,5522.52C4399.98,5534.71 4397.21,5401.61 4388.69,5313.78ZM4354.73,5469.61C4322.54,5422.48 4296.04,5322.77 4323.22,5314.1C4360.33,5302.26 4365.77,5413.32 4354.73,5469.61ZM3975.17,6321.14C4127.72,6231.4 4253.25,6147.73 4300.65,6036.32C4318.64,5994.05 4277.73,5982.9 4260.56,6021.41C4212.07,6130.16 3993.01,6256.9 3975.17,6321.14ZM4214.47,6027.23C4192.01,6109.47 4122.78,6152.32 4035.31,6180.69C4088.13,6123.84 4154.04,6080.09 4214.47,6027.23ZM4008.59,5640.93C4037.97,5649.62 4066.29,5663.5 4096.25,5664.53C4057.24,5699.21 4029.99,5686.97 4008.59,5640.93ZM3925.61,5683.6C3938.66,5662.24 4031.07,5712.1 4085.86,5752.01C4025.56,5768.45 3905.44,5716.6 3925.61,5683.6ZM3996.94,5818.69C3944.21,5753.54 3829.47,5691.59 3811.78,5726.79C3787.08,5775.91 3934.25,5829.67 3996.94,5818.69ZM3685.31,5632.02C3739.03,5733.52 3803.92,5819.89 3891.53,5875.44C3830.19,5964.81 3595.07,5872.06 3619.83,5710.53C3661.79,5773.19 3705.47,5836.85 3778.34,5853.52C3695.11,5760.73 3673.89,5690.45 3685.31,5632.02ZM3715.85,5994.45C3687.44,5966.05 3613.3,6055.76 3585.29,6121.93C3651.09,6091.73 3742.65,6021.26 3715.85,5994.45ZM6248.97,5755.29C6258.63,6476.06 6234,6813.82 5295.67,7000.62C6079.91,6965.63 6381.02,6536.94 6248.97,5755.29ZM2482.01,6760.69C2757.92,6981.91 3067.07,7104.65 3467.78,7134.75C3106.65,7044.62 2805.36,6927.4 2482.01,6760.69ZM5677.1,2169.58C5715.48,2169.98 5719.64,2229.89 5680.52,2231.73C5634.33,2233.9 5632.78,2169.13 5677.1,2169.58ZM5108.36,2098.8C5146.73,2099.2 5150.9,2159.11 5111.78,2160.95C5065.59,2163.12 5064.03,2098.35 5108.36,2098.8ZM4590.87,2060.44C4629.25,2060.83 4633.42,2120.74 4594.3,2122.58C4548.1,2124.76 4546.55,2059.99 4590.87,2060.44ZM4302.03,1466.82C4340.41,1467.21 4344.58,1527.12 4305.46,1528.96C4259.26,1531.14 4257.71,1466.37 4302.03,1466.82ZM4828.91,1476.41C4867.29,1476.8 4871.45,1536.71 4832.33,1538.55C4786.14,1540.73 4784.59,1475.96 4828.91,1476.41ZM5971.23,2719.72C6009.6,2720.12 6013.77,2780.02 5974.65,2781.87C5928.46,2784.04 5926.9,2719.27 5971.23,2719.72ZM5385.85,2701.02C5424.22,2701.42 5428.39,2761.33 5389.27,2763.17C5343.08,2765.34 5341.53,2700.57 5385.85,2701.02ZM4862.07,2676.59C4900.45,2676.99 4904.62,2736.89 4865.5,2738.74C4819.3,2740.91 4817.75,2676.14 4862.07,2676.59ZM5452.03,1578.45C5490.41,1578.84 5494.58,1638.75 5455.46,1640.59C5409.26,1642.77 5407.71,1577.99 5452.03,1578.45ZM2839.04,6172C2877.42,6172.39 2881.58,6232.3 2842.47,6234.14C2796.27,6236.32 2794.72,6171.55 2839.04,6172ZM3700.29,6863.18C3738.66,6863.58 3742.83,6923.49 3703.71,6925.33C3657.52,6927.5 3655.97,6862.73 3700.29,6863.18ZM5987.21,2215.27C6101.8,2271.92 6131.69,2176.1 5973.93,2122.45C5982.32,1953.86 5883.75,1957.24 5892.13,2129.61C5767.12,2136.76 5747.76,2301.63 5888.83,2223.32C5900.9,2216.61 5907.34,2249.16 5905.57,2267.71C5883.41,2499.82 6010.61,2501.42 5974.94,2261.61C5973.34,2250.85 5974.49,2224.65 5987.21,2215.27ZM4015.45,6866.98C4130.03,6923.63 4159.93,6827.81 4002.16,6774.16C4010.56,6605.57 3911.99,6608.95 3920.36,6781.32C3795.36,6788.47 3776,6953.34 3917.07,6875.03C3929.14,6868.32 3935.58,6900.87 3933.81,6919.42C3911.64,7151.53 4038.85,7153.13 4003.17,6913.32C4001.57,6902.56 4002.72,6876.36 4015.45,6866.98ZM3138.51,6222.59C3253.1,6279.24 3282.99,6183.42 3125.23,6129.77C3133.62,5961.18 3035.05,5964.56 3043.43,6136.94C2918.42,6144.08 2899.06,6308.95 3040.13,6230.64C3052.2,6223.94 3058.64,6256.48 3056.87,6275.03C3034.71,6507.14 3161.91,6508.74 3126.24,6268.93C3124.64,6258.17 3125.79,6231.97 3138.51,6222.59ZM2664.27,6233.34C2778.86,6289.98 2808.76,6194.17 2650.99,6140.51C2659.38,5971.93 2560.82,5975.31 2569.19,6147.68C2444.18,6154.82 2424.82,6319.69 2565.89,6241.38C2577.97,6234.68 2584.4,6267.23 2582.63,6285.78C2560.47,6517.89 2687.67,6519.49 2652,6279.67C2650.4,6268.92 2651.55,6242.72 2664.27,6233.34ZM3504.63,6900.36C3619.21,6957 3649.11,6861.19 3491.35,6807.53C3499.74,6638.95 3401.17,6642.33 3409.54,6814.7C3284.54,6821.84 3265.18,6986.71 3406.24,6908.4C3418.32,6901.7 3424.4,6934.22 3422.99,6952.8C3414.18,7068.31 3499.33,7082.95 3492.35,6946.69C3491.8,6935.83 3491.91,6909.74 3504.63,6900.36ZM5460.78,2169.53C5575.37,2226.18 5605.27,2130.37 5447.5,2076.71C5455.89,1908.12 5357.33,1911.51 5365.7,2083.88C5240.69,2091.02 5221.33,2255.89 5362.4,2177.58C5374.48,2170.88 5380.91,2203.43 5379.14,2221.97C5356.98,2454.08 5484.18,2455.68 5448.51,2215.87C5446.91,2205.11 5448.06,2178.91 5460.78,2169.53ZM4889.89,2120.24C5004.47,2176.89 5034.37,2081.07 4876.6,2027.42C4884.99,1858.84 4786.43,1862.22 4794.8,2034.59C4669.8,2041.73 4650.44,2206.6 4791.51,2128.29C4803.58,2121.59 4810.02,2154.14 4808.25,2172.68C4786.08,2404.79 4913.29,2406.39 4877.61,2166.58C4876.01,2155.82 4877.16,2129.62 4889.89,2120.24ZM4389.35,2111.5C4503.93,2168.15 4533.83,2072.34 4376.06,2018.68C4384.45,1850.1 4285.89,1853.48 4294.26,2025.85C4169.26,2032.99 4149.9,2197.86 4290.96,2119.55C4303.04,2112.85 4309.48,2145.4 4307.71,2163.94C4285.54,2396.05 4412.75,2397.65 4377.07,2157.84C4375.47,2147.08 4376.62,2120.89 4389.35,2111.5ZM5180.5,2708.22C5295.08,2764.87 5324.98,2669.05 5167.21,2615.4C5175.61,2446.81 5077.04,2450.19 5085.41,2622.56C4960.41,2629.71 4941.05,2794.58 5082.11,2716.27C5094.19,2709.56 5100.63,2742.11 5098.86,2760.66C5076.69,2992.77 5203.9,2994.37 5168.22,2754.56C5166.62,2743.8 5167.77,2717.6 5180.5,2708.22ZM5717.09,2739.67C5831.67,2796.32 5861.57,2700.51 5703.81,2646.85C5712.2,2478.26 5613.63,2481.65 5622,2654.02C5497,2661.16 5477.64,2826.03 5618.71,2747.72C5630.78,2741.02 5637.22,2773.57 5635.45,2792.11C5613.28,3024.22 5740.49,3025.82 5704.81,2786.01C5703.21,2775.25 5704.36,2749.05 5717.09,2739.67ZM5784.64,1684.91C5899.22,1741.56 5929.12,1645.75 5771.36,1592.09C5779.74,1423.51 5681.18,1426.89 5689.55,1599.26C5564.55,1606.4 5545.19,1771.27 5686.26,1692.96C5698.33,1686.26 5704.77,1718.81 5703,1737.36C5680.83,1969.47 5808.04,1971.07 5772.36,1731.25C5770.76,1720.5 5771.91,1694.3 5784.64,1684.91ZM5205.62,1566.08C5320.2,1622.73 5350.1,1526.91 5192.34,1473.26C5200.73,1304.67 5102.16,1308.05 5110.54,1480.42C4985.53,1487.57 4966.17,1652.44 5107.24,1574.13C5119.32,1567.42 5125.75,1599.97 5123.98,1618.52C5101.82,1850.63 5229.02,1852.23 5193.35,1612.42C5191.75,1601.66 5192.9,1575.46 5205.62,1566.08ZM4629,1506.56C4743.59,1563.21 4773.49,1467.4 4615.72,1413.74C4624.11,1245.16 4525.55,1248.54 4533.92,1420.91C4408.91,1428.05 4389.55,1592.92 4530.62,1514.61C4542.7,1507.91 4549.14,1540.46 4547.36,1559C4525.2,1791.11 4652.4,1792.72 4616.73,1552.9C4615.13,1542.14 4616.28,1515.95 4629,1506.56ZM4673.97,2708.12C4788.56,2764.77 4818.45,2668.96 4660.69,2615.3C4669.08,2446.72 4570.52,2450.1 4578.89,2622.47C4454.66,2668.32 4492.05,2717.26 4522.19,2709.88C4534.68,2706.83 4570.9,2697.17 4575.59,2716.17C4591.38,2780.18 4665.83,2804.54 4673.97,2708.12ZM5410.02,3188.56C5456.46,3211.52 5488.99,3209.44 5500.75,3195.27C5518.02,3174.47 5490.57,3127.65 5396.74,3095.74C5405.13,2927.15 5306.56,2930.53 5314.94,3102.91C5232.78,3107.6 5196.26,3180.43 5220.92,3207.57C5231.36,3219.06 5252.78,3222.37 5286.37,3208.82C5294.14,3205.69 5310.9,3186.25 5311.64,3196.61C5319.26,3303.27 5391.81,3337.48 5410.02,3188.56ZM3587.62,732.724C3526.65,660.825 3496.62,580.429 3485.18,494.923C3566.63,494.096 3653.18,487.765 3761.75,468.974C3694.37,517.614 3612.54,523.043 3546.4,538.253C3532.54,605.298 3562.76,669.015 3587.62,732.724ZM4648.65,487.711C4716.59,491.522 4769.24,486.798 4836.04,473.819C4814.36,561.89 4775.78,640.229 4716.07,706.394C4721.98,845.053 4702.56,963.804 4603.87,1020.26C4571.33,1028.55 4541.92,1023.68 4513.7,1013.76C4560.7,1009.4 4601.7,998.119 4623.95,965.203C4672.4,876.356 4683.92,786.553 4674.84,696.218C4721.11,648.334 4762.35,581.396 4779.19,516.107C4726.14,517.734 4682.63,508.268 4648.65,487.711ZM3644.83,881.454C3659.65,947.038 3676.21,1011.51 3704.88,1068.23C3801.52,1069.08 3895.49,1058.49 3987.24,1038.41C3915.13,1034.08 3840.02,1026.55 3755.53,1009.02C3699.59,982.659 3672.8,931.558 3644.83,881.454ZM4175.63,1004.38C4026.6,832.078 3922.68,713.208 3806.99,915.877C3518.55,815.634 3791.71,281.311 4068.23,500.256L4151.16,263.502L4272.38,495.093C4548.63,409.917 4767.12,685.951 4515.48,940.253C4443.78,687.175 4206.9,850.488 4175.63,1004.38ZM3612.09,1836.64C3583.17,1876.87 3617.33,1912.72 3649.55,1960.76C3657.24,1972.24 3669.31,2000.15 3659.72,2013.23L3542.45,1963.29C3552.8,1844.23 3580.97,1831.59 3612.09,1836.64ZM4538.3,3212.39C4545.74,3253.81 4560.95,3297.67 4592.97,3295.88C4633.17,3293.63 4592.9,3206.85 4538.3,3212.39ZM3471.29,3628.23C3551.13,3609.34 3629.94,3568.67 3708.33,3518.9C3628.69,3519.34 3549.07,3520.69 3471.29,3628.23ZM3407.32,3622.93C3462.92,3601.68 3499.03,3562 3528.15,3515.69C3443.85,3485.73 3373.15,3543.54 3407.32,3622.93ZM3453.94,3382.14C3373.88,3405.64 3325.37,3452.14 3313.22,3497.14C3389.4,3513.35 3432.47,3453.6 3453.94,3382.14ZM2689.54,2331.07C2694.3,2289.43 2677.04,2281.56 2629.25,2298.01C2624.76,2329.29 2643.47,2341.45 2689.54,2331.07ZM2989.39,2402.06C2963.82,2386.64 2945.03,2393.56 2924.8,2389.66C2960.06,2344.07 2991.4,2349.72 2989.39,2402.06ZM2039.69,3842.8C1990.86,3812.63 1948.65,3842.21 1909.21,3896.79C1925.81,3924.88 1995.44,3900.97 2039.69,3842.8ZM5491.37,4943.3C5511.29,4995.45 5566.63,5090.67 5600.05,5068.31C5634.86,5058.94 5556.51,4952.25 5491.37,4943.3ZM5531.17,4893.36C5565.3,4926.93 5615.55,4981.33 5629.91,4972.6C5661.06,4953.66 5583.39,4899.03 5531.17,4893.36ZM5939.39,6209.44C5925.69,6178.25 6025.42,6158.41 6100.73,6162.46C6065.05,6185.89 5943.27,6218.25 5939.39,6209.44Z"/>
    <path id="White" d="M4691.51,6333.74C4606.76,6331.66 4580.43,6432.55 4606.43,6447.95C4612.6,6451.61 4742.19,6334.99 4691.51,6333.74ZM4764.91,6484.53C4801.84,6441.88 4873.31,6371.15 4841.58,6363.09C4800.22,6352.58 4752.42,6430.61 4764.91,6484.53ZM4975.97,6405.31C4942.41,6377.42 4895.46,6468.3 4892.76,6530.77C4946.11,6495.58 5004.36,6428.9 4975.97,6405.31ZM5168.48,6429.14C5133.28,6399.02 5064.86,6505.15 5069.93,6564.65C5110.76,6527.5 5191.11,6448.5 5168.48,6429.14ZM3170.15,3646.36C3122.22,3633.79 3064.1,3807.06 3108.5,3905.61C3156.74,3811.49 3228.09,3661.54 3170.15,3646.36ZM3323.68,3666.39C3245.17,3672.39 3234.49,3776.44 3281.16,3841.39C3306.06,3780.61 3355.73,3663.95 3323.68,3666.39ZM3500.23,3693.56C3466.06,3686.8 3423.76,3789.26 3435.31,3839.67C3475.54,3796.04 3540.36,3701.49 3500.23,3693.56ZM1663.18,4231.11C1638.5,4152.51 1704.39,4000.95 1770.65,4009.57C1838.78,4018.44 1724.1,4163.12 1663.18,4231.11ZM1919.87,3982.76C1986.3,3983.54 1899.44,4137.85 1835.11,4219.41C1832.9,4131.56 1870.08,3982.17 1919.87,3982.76ZM2007.85,4194.97C2009.23,4106.5 2049.98,3975.51 2127.82,3986.26C2200.36,3996.28 2084.64,4117.08 2007.85,4194.97ZM2304.64,3999.22C2372.02,4017.68 2279.51,4107.77 2198.51,4178.81C2203.74,4115.17 2262.06,3987.55 2304.64,3999.22ZM3599.61,6567.97C3660.8,6508.46 3714.56,6415.76 3691.67,6400.22C3653.96,6374.63 3584.37,6505.53 3599.61,6567.97ZM3422.89,6548.64C3418.9,6484.88 3497.07,6350.2 3535.77,6381.65C3563.1,6403.88 3470.28,6514.21 3422.89,6548.64ZM3389,6366.29C3420.7,6380.42 3334.32,6485.53 3292.04,6542.79C3266.39,6468.14 3341.21,6344.98 3389,6366.29ZM3168.84,6453.98C3167.23,6388.74 3239.57,6299.67 3274.56,6349.37C3283.06,6361.45 3188.64,6458.47 3168.84,6453.98Z" style="fill:white;"/>
</svg>
