<?xml version="1.0" encoding="UTF-8" standalone="no"?>
<!DOCTYPE svg PUBLIC "-//W3C//DTD SVG 1.1//EN" "http://www.w3.org/Graphics/SVG/1.1/DTD/svg11.dtd">
<svg width="100%" height="100%" viewBox="0 0 8334 8334" version="1.1" xmlns="http://www.w3.org/2000/svg" xmlns:xlink="http://www.w3.org/1999/xlink" xml:space="preserve" xmlns:serif="http://www.serif.com/" style="fill-rule:evenodd;clip-rule:evenodd;stroke-linejoin:round;stroke-miterlimit:2;">
    <g id="Ravenclaw-Color" serif:id="Ravenclaw Color" transform="matrix(10.8038,0,0,10.8038,-11436.2,-153.138)">
        <g id="Silhouette" transform="matrix(0.924982,0,0,0.924982,-118.238,-336.179)">
            <path d="M2000,741.856C1970.42,766.693 1959.86,807.209 1967.26,858.704C1960.74,864.133 1952.78,867.821 1942.82,869.128C1946.11,880.283 1946.88,897.191 1944.38,911.001C1939.97,905.729 1929.8,889.647 1926.63,884.32C1922.78,875.206 1926.89,867.15 1933.06,859.368C1936.21,855.402 1937.2,850.798 1936.51,845.363C1927.9,851.482 1919.84,853.694 1912.24,854.841C1911.01,896.241 1911.65,938.018 1898.89,977.085C1907.78,982.519 1917.08,984.107 1926.56,984.016C1915.89,999.364 1902.66,1012.55 1884.12,1021.24C1856.73,1070.13 1826.91,1118.28 1773.39,1159.1C1755.64,1172.63 1721.93,1190.3 1692.47,1201.3C1666.46,1189.52 1638.71,1176.17 1616.51,1157.48C1582.3,1134.73 1550.21,1104.94 1524.58,1053.65C1504.22,1013.3 1490.62,968.658 1485.89,918.376C1483.03,890.397 1484.91,859.88 1488.76,828.318C1463.57,826.771 1443.76,831.155 1425.88,837.669L1421.77,635.2C1442.03,627.694 1464.64,622.099 1492.04,620.398L1490.48,614.029L1500.41,611.089L1491.52,605.852C1490.12,588.418 1488.13,568.988 1485.27,546.7C1525.18,565.128 1581.6,564.572 1639.68,545.113C1641.9,487.921 1619.12,459.563 1596.13,431.454C1636.23,439.464 1655.74,476.534 1661.15,533.486C1667.66,503.844 1667.49,472.857 1658.95,440.187C1672.66,453.65 1681.81,485.651 1688.96,525.738C1696.03,510.166 1696.98,489.035 1692.47,462.932C1698.97,466.814 1703.63,473.553 1706.35,483.285C1705.44,458.052 1704.09,431.143 1701.97,401.282C1717.85,412.076 1730.27,437.34 1734.64,496.3C1750.1,470.584 1759.52,443.982 1761.26,416.257C1777.82,434.478 1775.94,473.776 1753.16,536.951C1769.28,518.143 1784.12,498.108 1792.81,472.158C1803.68,483.329 1797.3,504.548 1777.43,553.354L1786.17,556.329L1803.84,536.873L1809.84,526.974C1813.48,535.179 1812.67,547.311 1809.6,561.43C1849.23,568.807 1889.11,573.953 1931.27,557.667C1925.16,574.353 1920.67,593.018 1920.11,616.488L1911.35,620.159L1917.18,623.543L1916.66,640.363C1972.15,647.188 1983.45,664.21 1970.65,686.793L1963.2,704.691C1981.14,711.197 1993.84,722.097 2000,741.856Z"/>
        </g>
        <g id="Sky-Blue" serif:id="Sky Blue" transform="matrix(0.924982,0,0,0.924982,-118.238,-336.179)">
            <path d="M1556.15,641.67C1513.12,616.859 1470.5,622.389 1427.27,636.883C1426.99,696.263 1426.14,755.539 1428.74,815.461C1426.07,819.471 1425.78,822.128 1429.22,822.942C1427.7,829.418 1430.19,831.291 1437.08,828.106C1474.92,820.227 1512.84,814.483 1551.48,826.479C1550.94,765.458 1550.87,704.307 1556.15,641.67Z" style="fill:rgb(73,152,194);"/>
        </g>
        <g id="Brown" transform="matrix(0.0961384,0,0,0.0961384,1032.5,13.3692)">
            <path d="M6525.43,1808.89L6466.47,2273.48L6355.24,2335.26L6425.12,2373L6417.8,2528.52C6368.08,2531.11 6320.7,2534.7 6273.83,2538.51C6286.54,2492.98 6278.7,2458.32 6248.91,2419.61C6303.51,2321.65 6358.9,2240.52 6420.95,2156.82C6418.86,1927.87 6280.56,1869.73 6124.6,1992.24C5921.48,1863.8 5700.99,1850.76 5480.51,1923.96C5456.7,1897.98 5424.79,1874.04 5390.98,1850.59L5423.38,1786.92C5788.43,1854.74 6154.07,1906.93 6525.43,1808.89ZM5804.31,2077.5C5707.88,2201.47 5609.89,2199.72 5486.16,2182.76L5454.54,2224.16C5654.86,2274.46 5859.86,2290.52 6051.38,2284.84C5980.11,2388.59 5954.21,2464.41 5966.75,2550.28L5998.83,2547.67C5995.2,2402.41 6033.37,2389.01 6105.03,2254.89L5804.31,2077.5ZM6261.47,3990.16C6340.87,4060.79 6387.77,4137.28 6353.89,4241.76C6291.81,4342.34 6236.13,4441.56 6225.28,4531.3C6323.68,4581.96 6408.75,4643.54 6307.38,4857.84C6241.06,4955.74 6173.75,5053.63 6231.21,5153.2C6281.42,5215.07 6326.86,5279.69 6262.21,5407.72C6204.14,5492.96 6143.04,5577.97 6101.89,5664.42C6179.26,5736.98 6253.58,5798.86 6282.85,5703.01C6326.29,5609.16 6323.06,5543.97 6259.33,5515.9C6329.28,5484.69 6331.01,5438.28 6335.98,5376.85C6361.59,5060.76 6375.9,4697.38 6378.05,4353.43C6379.62,4101.85 6396.63,4014.45 6377.58,4009.34C6358.53,4004.23 6312.78,4001.36 6261.47,3990.16ZM5958.32,3990.16L5994.29,3990.16C6012.59,4116.39 6038.11,4226.05 6101.89,4247.84C6014.27,4443.24 5935.16,4639.58 6052.71,4857.84C5958.56,5002.45 5911.82,5162.48 6023.28,5373.91C5960.99,5451.31 5901.85,5534.73 5857.93,5647.18L5823.56,5641.28C5817.03,5609.43 5876.04,5546.23 5858.04,5526.15C5795.68,5456.53 5858.87,5515.07 5867.96,5469.16C5892.82,5343.68 5922.69,4973.11 5953.88,4579.86C5969.94,4377.27 5959.88,4158.91 5958.32,3990.16ZM6122.47,6195.63L6033.43,6327.84C6032.05,6369.91 6023.58,6396.87 5993.85,6416.7C5917.34,6539.43 5842.64,6669.94 5753.7,6779.46C5753.12,6807.26 5742.18,6835.62 5692.65,6854.25C5558.95,7030.21 5399.03,7211.23 5168.48,7405.92C5120.04,7397.16 5089.86,7404.74 5083.43,7459.71C4847.21,7606.49 4594.02,7763.78 4316.88,7859.66C4188.58,7810.13 4079.61,7752.85 3979.09,7692.2C4400.52,7749.36 4783.41,7760.95 4876.28,7429.75C5127.45,7387.46 5315.23,7307.12 5247.09,7073.17C5521.93,7029.8 5683.87,6931.01 5586.97,6705.18C5843.08,6523.44 5997.9,6456.68 5935.92,6261.36C5994.74,6241.34 6064.24,6215.63 6122.47,6195.63ZM5494.87,6274.07C5460.66,6379.08 5403.3,6511.8 5281.11,6617.94C5312.35,6702.78 5281.89,6718.22 5198.7,6689.87L5036.58,6887.26C4978.11,6898.09 4949.86,6926.37 4948.4,6968.15C4688.76,7203.73 4506.72,7287.05 4310.23,7357.05C4170.07,7296.32 4048.16,7220.66 3941.55,7140.26C3930.58,7083.62 3920.33,7095.79 3883.99,7103.48L3789.19,7028.99C3701.14,7066.38 3695.46,7027.05 3712.45,6966.61C3265.05,6561.82 3155.74,6271.5 3004.11,5966.85C2899.62,5950.56 2900.09,5957.07 2980.1,5899.66C2795.43,5404.84 2803.94,4879.79 2809.49,4355.2L2746.07,4337.63C2771.69,4522.2 2749.75,4676.72 2661.08,4769.88C2744.09,4948.37 2786.43,5127.21 2668.35,5307.39C2823.56,5543.12 2880.47,5738.83 2782.77,5871.56C2963.05,6036.81 3052.62,6206.81 3039.46,6382.22C3239.28,6494.29 3345.97,6629.29 3331.97,6793.98C3534.87,6878.25 3660.48,6993.52 3703.67,7141.85C3945.09,7182.18 4088.05,7288.86 4136.51,7459.22L4465.99,7462.33C4549.28,7276.23 4698.97,7194.52 4897.55,7189.64C4988.41,6970.11 5124.66,6873.98 5281.12,6832.8C5321.14,6617.78 5440.94,6462.75 5638.84,6366.42C5625.44,6320.68 5645.87,6244.35 5677.12,6158.24L5616.16,6134.34C5559.54,6203.94 5547.77,6291.32 5494.87,6274.07ZM2572.24,6111.77C2633.64,6074.06 2620.97,6049.14 2540.88,6035.88C2485.44,5887.6 2451.64,5734.74 2422.19,5585.6C2391.2,5533.01 2392.57,5475.74 2390.36,5419.03C2335.55,5018.64 2356.59,4659.57 2405.32,4326.5C2484.1,4257.47 2605.75,4420.81 2520.48,4461.69C2415.22,4512.14 2348.59,4630.05 2452.42,4813.03C2486.32,4872.78 2542.84,4928.88 2529.23,4995.86C2518.6,5048.18 2374.8,5213.82 2417.73,5310.53C2449.75,5382.67 2481.14,5434.52 2545.17,5507.98C2582.52,5550.82 2597.35,5591.01 2581.87,5643.08C2423.98,5824.84 2520.32,5968.56 2746.43,6146.94C2665.01,6327.23 2716.51,6466.54 3014.32,6632.86C2953.49,6804.46 3014.97,6937.07 3363.42,7025.35C3321.01,7250.29 3455.73,7372.7 3771.81,7390.14C3776.08,7489.8 3807.27,7594.06 3879.03,7648.42C3686.2,7539.9 3419.62,7358.57 3213.05,7132.49C3244.05,7052.61 3226.51,7021.61 3146.05,7053.95C2942.34,6819.95 2723.28,6543.06 2572.24,6111.77ZM3760.54,1992.18C3761.94,2068.76 3744.52,2132.89 3649.94,2146C3439.91,2175.12 3163.24,2225.48 2861.5,2196.27L2888.81,2413.1L2859.74,2400.32C2836.56,2314.36 2805.38,2229.91 2750.76,2149.88C2829.83,2173.9 2936.05,2035.56 3085.7,2074.26C3150.59,2091.04 3295.14,2236.95 3423.94,2140.35C3508.85,2076.68 3634.43,2017.4 3760.54,1992.18ZM2371.67,1692.23C2410.66,1862.33 2422.06,2023.02 2430.15,2182.59L2530,2266.33L2438.09,2293.32L2445.98,2318.55L2600.48,2325.65L2559.73,2228.44C2461.51,2080.55 2435.16,1948.25 2608.98,1859.38C2715.43,1936.09 2805.06,1948.87 2873.36,1919.55C3142.21,1804.16 3292.32,1847.18 3401.68,1944.56C3552.75,1773.48 3675.29,1733.96 3789.03,1734.99L3809.52,1661.44C3325.64,1802.87 2781.44,1874.99 2371.67,1692.23ZM5117.05,1710.72L5199.34,1740.06L5177.68,1776.19L5087.93,1762.43L5117.05,1710.72Z" style="fill:rgb(98,74,55);"/>
        </g>
        <g id="Light-Blue" serif:id="Light Blue" transform="matrix(0.0961384,0,0,0.0961384,1032.5,13.3692)">
            <path d="M6719.99,2625.19C6383.97,2553.14 5806.56,2657.11 5119.9,2747.64C4726.64,2800.16 4341.4,2810.57 3956.35,2819.95C3927.74,2790.52 3883.9,2791.96 3834.23,2805.25L3459.94,2776.18C3107.87,2681.05 2997.81,2685.43 3050.36,2756.66C3150.96,2797.58 3268.57,2832.19 3386.26,2859.01C3169.5,2818.63 2940.43,2826.64 3112.94,2905.95C3287.01,2985.98 3497.8,2957.32 3697.1,2997.76C3558.88,2995.76 3409.11,2987.17 3247.01,2971.54C3083.29,2928.87 2981.99,2932.19 3041.46,2992.43C3269.92,3051.28 3496.69,3070.82 3730.04,3100.1C3003.85,3021.8 2872.86,3056.69 3166.2,3155.87C2991.81,3144.91 3008.35,3175.27 3098.16,3221.49C2995.2,3239.41 3002.22,3269.85 3051.44,3305.07C2991.99,3392.14 3016.85,3445.76 3130.07,3464.35C2998.81,3469.39 3004.02,3500.52 3089.76,3547.05C2993.35,3535.28 2990.57,3561.76 3051.86,3614.41C2985.97,3672.38 2987.3,3710.1 3049.82,3729.38L3037.03,3875.74C3178.49,3928.56 3322.98,3964.97 3469.63,3989.6C3334.2,3983.08 3195.89,3966.68 3055,3941.44C3103.28,4042.17 3284.47,4058.26 3466.8,4073.62C3643.13,4074.68 3818.67,4075.59 3978.51,4073.62L4054.88,4073.62C4619.05,4073.11 5183.68,4005.91 5748.31,3940.65C5780.47,3968.14 5806.1,3966.39 5826.32,3940.42C6122.91,3895.31 6573.53,3907.29 6707.5,4073.62C6671.55,3872.12 6447.08,3853.79 6229.43,3829.48C6404.02,3823.46 6569.12,3842.74 6717.3,3907.06C6706.63,3851.94 6632.61,3799.64 6548.97,3754.08C6613.68,3764.76 6669.66,3779.11 6718.24,3796.56C6704.82,3751.73 6665.4,3712.07 6625.22,3672.56L6706.26,3710.59C6718.98,3667.96 6684.71,3652.46 6648.58,3624.37C6677.94,3625.48 6697.71,3627.63 6732.78,3651.22C6734.87,3599.93 6723.98,3525.25 6700.59,3466.24C6726.4,3469.51 6744.39,3485.96 6756.77,3511.88C6777.03,3441.77 6746.45,3375.31 6711.64,3309.15C6743.57,3328.68 6771.82,3346.53 6795.3,3362.23C6807.12,3290.14 6776.33,3218.91 6735.14,3147.88C6771.52,3168.09 6802.77,3188.1 6826.5,3207.82C6854.62,3102.06 6782.78,3016.96 6698.63,2934.41C6774.39,2960.19 6837.3,3002.33 6882.28,3067.24C6941.67,2904.85 6798.4,2811.95 6648.51,2721.31C6764.97,2749.97 6879.54,2822.55 6971.6,2930.86C7026.36,2823.85 6946.06,2682.63 6775.39,2648.94C6769.52,2597.65 6749.74,2594.23 6719.99,2625.19ZM6943.01,3204.97C7078.53,3236.97 7228.43,3354.03 7183.46,3557.65C7110.21,3498.27 7035.74,3443.16 6960.57,3390.5C7045.28,3481.92 7155.6,3574.91 7061.33,3655.3C7013,3607.22 6960.55,3569.04 6903.98,3540.75C6979.21,3624.07 7070.34,3704.99 7010.17,3771C6963.85,3738.24 6914.66,3709.12 6863.12,3683C6912.48,3740.76 6976.7,3795.47 6952.68,3868.33C6917.44,3862.05 6875.41,3840.79 6840.53,3807.95C6902.2,3860.31 6969.57,3912.08 6911.61,3984.88C6876.14,3966.33 6842.38,3956.98 6810.19,3955.98C6864.16,4002.24 6927.77,4043.79 6901.26,4118.46C6868.45,4106.55 6836.4,4098.55 6805.19,4094.85C6848.48,4131.18 6897.61,4163.31 6892.76,4234.32C6851.71,4224.88 6813.3,4223.7 6777.53,4230.78C6822.02,4251.32 6867.56,4270.44 6886.92,4324.77C6834.86,4318.59 6787.61,4316.83 6746.93,4321.13C6814.34,4340.77 6902.66,4346.33 6884.53,4411.36C6793.17,4406.28 6710.64,4416.15 6650.64,4464.12C6504.03,4561.51 6421.52,4559.9 6432.71,4413.63C6452.4,4328.16 6491.69,4298.82 6557.77,4346.23C6654.43,4406.61 6699.41,4351.49 6724.12,4251.07C6741.52,4068.41 6751.86,3922.57 6766.4,3698.94C6789.3,3518.43 6845.79,3352.97 6943.01,3204.97ZM6702.03,5015.74C6529.69,4798.03 6576.8,4728.58 6684.31,4699.93C6663.08,4739.72 6710.97,4820.79 6724.01,4930.99C6727.13,4957.32 6696.95,4985.4 6702.03,5015.74ZM6724.24,4482.7L6724.24,4531.3C6798.86,4496.2 6845.01,4501.81 6905.82,4505.31L6913.83,4478.88C6859.01,4449.82 6795.3,4452.93 6724.24,4482.7ZM6702.03,4570.82C6782.08,4559.9 6851.57,4546.46 6913.83,4531.3C6924.37,4544.47 6925.78,4557.97 6913.83,4571.95C6843.55,4602.08 6771.56,4623.45 6696.39,4628.41C6690.05,4613.26 6692.78,4593.65 6702.03,4570.82ZM6922.27,4628.41L6922.27,4599.1C6839.07,4648.2 6758.64,4655.4 6679.04,4650.14L6637.53,4684.16C6752.24,4683.8 6847.26,4686.55 6922.27,4628.41ZM6470.67,4258.06C6469.57,4252.13 6469.31,4173.94 6469.31,4173.94C6568.11,4205.93 6702.24,4229.51 6656.09,4296.03C6664.44,4355.33 6474.91,4281 6470.67,4258.06ZM6567.38,4159.72C6515.38,4160.29 6473.17,4139.06 6469.31,4101.38C6572.21,4114.55 6690.62,4110.64 6702.03,4224.7C6634.57,4216.94 6608.7,4189.23 6567.38,4159.72ZM6469.31,4073.62C6530.13,4067.03 6584.75,4081.13 6637.53,4101.38C6590.25,4045.76 6544.13,4026.53 6469.31,4017.27L6469.31,4073.62ZM5611.78,5523.02L5849.14,5356.04L5836.99,5451.32C5788.56,5470.95 5782.35,5484.82 5828.15,5537.86L5794.46,5624.34C5727.79,5602.87 5660.76,5568.79 5611.78,5523.02ZM5387.97,6406.46C5351.85,6480.35 5326.28,6502.56 5280.63,6566.9L5303.71,5921.52L5383.36,5983.05L5387.97,6406.46ZM5127.91,5870.01L5121.58,6696.25L5034.09,6830.74L5050.08,5936.7L5127.91,5870.01ZM4872.34,6075.59L4754.96,6173.51L4734.32,7079.28C4766.93,7057.46 4806.56,7021.19 4847.32,6983.25L4872.34,6075.59ZM4599.43,6293.33L4578.56,7183.72C4535.96,7203.66 4521.98,7212.7 4487.1,7227.81L4495.84,6522.59C4514.12,6528.98 4520.08,6528.4 4542.53,6527.15C4562.69,6463.01 4553.94,6403.73 4546.27,6347.34L4599.43,6293.33ZM4305.5,6528.34L4268.29,6556.42C4305.15,6664.72 4317.44,6706.44 4222.29,6726.94C4237.46,6763.43 4234.4,6798.67 4195.76,6841.81L4195.18,7250.74L4303.29,7318.31L4305.5,6528.34ZM4040.41,6733.96L3933.6,6819.55C3930.16,6897.94 3931.33,6976.24 3928.52,7053.63L4015.75,7128.62L4040.41,6733.96ZM3174.78,5602.16L3248.53,5537.48L3236.38,6333.94L3172.56,6200.59L3174.78,5602.16ZM3549.06,5299.02L3471.79,5367.84L3453.25,6097.2C3471.4,6079.97 3489.78,6073.18 3512.89,6060.07L3549.06,5299.02ZM3792.21,5110.4C3828.46,5243.75 3793.55,5634.63 3779.71,5957.19L3701.51,6034.67C3729.22,5727.73 3734.49,5427.87 3733.79,5160.5L3792.21,5110.4ZM4006.72,5342.22C4029.67,5483.65 4037.3,5637.25 3994.01,5816.56L4073.24,5750.52C4101.63,5688.46 4113.97,5627.9 4121.55,5530.91C4078.23,5469.38 4040.78,5403.54 4006.72,5342.22ZM5806.66,4005.83L5805.15,4443.49L5734.59,4500.27L5746.14,4002.01L5806.66,4005.83ZM5539.19,4540.44L5542.01,4666.39C5539.82,4674.76 5443.75,4747.3 5442.85,4746.06C5439.14,4740.97 5454.03,4677.77 5454.03,4677.77L5502.44,4649.84L5474.64,4585.51L5539.19,4540.44ZM3542.33,4132.13L3541.07,4242.51L3477.12,4295.4L3461.21,4126.75L3542.33,4132.13ZM3279.25,4112.81L3163.41,4094.29C3174.1,4239.88 3175.2,4385.98 3170.12,4533.16L3280.52,4452.03L3279.25,4112.81ZM2947.23,4398.88C2914.1,4389.85 2882.38,4381.87 2851.95,4374.84C2841.2,4530.47 2840.33,4680.06 2844.76,4826.41L2936.06,4746.9L2947.23,4398.88ZM5708.67,2310.94L5710.65,2409.86L5804.83,2324.04L5708.67,2310.94ZM5527.34,2294.51L5519.54,2579.27L5472.69,2628.72L5362.22,2647.18C5406.18,2564.92 5439.47,2478.38 5439.76,2403.04L5420.86,2284.72L5441.28,2270.1L5527.34,2294.51ZM3468.31,2220.2L3473.49,2282.7L3385.26,2357.41L3372.43,2249.16L3468.31,2220.2ZM3219.37,2272.48L3208.24,2486.05L3136.7,2557.5L3124.98,2270.6L3219.37,2272.48ZM2975.18,2258.73L2989.5,2458.34L2940.05,2436.45L2908.47,2243.8L2975.18,2258.73ZM5253.86,2425.57L5256.33,2460.03L5173.37,2510.76L5253.86,2425.57ZM6173.41,2273.46C6144.36,2333.64 6121.12,2391.64 6121.76,2440.72C6146.62,2382.45 6173.01,2355.26 6212.14,2328.35C6157.25,2405.49 6138.6,2471.74 6128.55,2543.29L6168.76,2542.63C6190.47,2464.58 6198.22,2369.24 6268.54,2297.82C6398.3,2166.02 6396.89,2115.56 6368.01,2077.5C6352.95,2126.23 6331.23,2163.59 6305.78,2194.62C6382.75,1987.57 6331.5,1959.91 6258.92,1962.08C6283.21,1991.74 6306.75,2031.06 6277.78,2077.5C6218.17,2173.05 6099.03,2288.93 6049.83,2404.56C6021.44,2471.29 6024.64,2487.48 6020.95,2545.02L6051.02,2545.7C6043.84,2457.32 6099.32,2365.85 6173.41,2273.46ZM6218.16,2077.5C6201.84,2123.38 6177.32,2179.18 6131.87,2200.38C6056.4,2172.4 5979.22,2142.26 5877.84,2077.5C5830.2,2047.07 5720.75,2035.18 5637.5,2042.72C5722.21,1974.68 5877.01,2014.91 6035.32,2116.22C5988.85,2063.28 5922.36,1963.77 5606.98,2010.3C5673.53,1967.03 5752.97,1940.44 5879.2,1974.4C5833.85,1939.2 5768.56,1913.16 5632.25,1919.8C5752.54,1870.49 5858.25,1910.61 6034.91,2008.8C6091.18,2040.08 6134.24,2055.26 6218.16,2077.5ZM5680.07,2134.03C5622.83,2157.82 5560.9,2156.37 5497.17,2145.23L5550.97,2064.01L5680.07,2134.03ZM5335.05,1948.73C5364.81,1943.85 5389.92,1946.52 5407.17,1961.97C5410.38,1936.9 5396.38,1916.44 5372.2,1898.7C5427.41,1902.41 5469.16,1931.97 5467.28,1992L5378.95,2064.01C5361.43,2034.97 5325.16,1996.68 5285.93,1992C5310.05,1982.34 5335.44,1978.5 5364.63,1992L5335.05,1948.73ZM5023.28,1875.23L5087.93,1898.7L5056.76,1923.45L5000.77,1898.7L5023.28,1875.23ZM4960.16,1939.02L5000.77,1948.32L4952.38,1981.36L4960.16,1939.02ZM6105.03,4204.2C6097.28,4226.34 6039.97,4217.25 6020.95,3975.74C6063.95,3963.28 6108.94,3958.89 6159.06,3975.53C6170.72,4022.24 6184.64,4067.97 6202.42,4112.04C6178.6,4163.27 6151.53,4121.94 6122.24,4017.27C6090.09,4028.22 6087.26,4066.05 6148.94,4163.04C6130.66,4207.71 6107.41,4197.91 6066.04,3990.16C6067.76,4059.13 6051.4,4119.27 6105.03,4204.2ZM6270.45,4017.27C6263.75,4112.94 6212.77,4166.77 6148.61,4246.21C6014.99,4411.68 6004.79,4679.16 6081.24,4775.88C6032.76,4625.69 6058.92,4514.17 6105.03,4412.98C6055.94,4658.25 6077.63,4708.48 6111.69,4724.61C6088.35,4584.09 6110.54,4516.57 6138.72,4458.65C6128.11,4589.66 6138.64,4678.42 6180.71,4684.16C6172.99,4580.17 6188.67,4499.29 6218.16,4432.04C6346.59,4274.72 6365.28,4117.51 6270.45,4017.27ZM6244.21,4579.86C6341.99,4665.71 6297.02,4805.93 6202.42,4964.8C6153.42,5047.1 6151.78,5146.58 6162.14,5242.81C6117.24,5216.21 6102.53,5141.48 6154.19,4960.85C6097.21,5055.22 6073.74,5160.55 6096.96,5281.13C6054.21,5199.48 6033.22,5097.14 6111.69,4900.27C6043.76,5012.4 6012.1,5137.38 6033.43,5281.14C5939.92,5155.71 6002.84,4981.66 6128.17,4791.13C6187.92,4724.67 6227.53,4654.42 6244.21,4579.86ZM6033.43,5704.3C6082.76,5612.22 6138.72,5534.02 6202.42,5442.42C6278.89,5353.41 6288.74,5270.2 6218.17,5193.98C6203.24,5254.53 6165.02,5288.28 6111.69,5326.14C6023.89,5388.45 5940.79,5488.53 5899.97,5630.68L5915.67,5652.21C5944.63,5564.68 6008.4,5485.89 6087.34,5410.92C6030.66,5476.73 5979.55,5544.62 5974.68,5629.84C6001.01,5566.03 6037.54,5506.69 6091.63,5469.85C6053.67,5547.08 6023.08,5622.11 6020.95,5688.68L6033.43,5704.3ZM5854.33,6232.17C5845.3,6268.04 5837.2,6300.69 5830.47,6328.61L5804.13,6345.38C5800.16,6310.97 5803.07,6274.93 5810.03,6237.93C5784.14,6253.67 5765.86,6293.53 5754.53,6355.36C5736.31,6351.22 5732.8,6308.2 5749.78,6211.02C5717.18,6230.47 5695.51,6277.34 5687.06,6357.3C5650.5,6379.81 5644.41,6343.12 5711.17,6164.94C5757.24,6189.06 5805.06,6211.37 5854.33,6232.17ZM5920.42,6314.04C5924.16,6388.85 5858.73,6476.08 5713.05,6568.61C5592.89,6644.93 5521.64,6656.89 5494.59,6793.69L5456.79,6797.14C5472.29,6716.45 5514.74,6656.73 5562.79,6601.36C5505.85,6629.39 5451.95,6672.59 5411.9,6785.19C5366.19,6797.4 5392.95,6727.67 5525.63,6538.2C5454.61,6581.91 5387.66,6644.88 5336.39,6782.06C5360.81,6674.44 5379.97,6567.72 5641.14,6419.47C5718.18,6386.73 5817.81,6350.61 5920.42,6314.04ZM5568.94,6774.11C5605.47,6863.49 5551.81,6973.34 5384.02,6996.88C5263.98,7013.72 5204.2,7049.64 5152.59,7140.32L5098.62,7162.93C5098.44,7103.11 5155.06,7040.64 5210.09,6978.24C5146.85,7010.72 5086.55,7053.07 5045.2,7159.42L5018.07,7163.32C5037.1,7088.02 5092.09,7007.08 5199.63,6917.9C5124.53,6965.86 5058.7,7008.15 4992.39,7158.85L4948.44,7162.32C5008.84,7037.33 5111,6956.84 5260.81,6868.06C5328.66,6827.86 5449.87,6843.67 5520.47,6833.19C5555.78,6827.94 5566.06,6813.22 5568.94,6774.11ZM4642.79,7404.3C4658.38,7360.68 4679.55,7316.58 4797.34,7264.4C4659.1,7290.54 4585.54,7355.91 4543.74,7440.55C4553.78,7391.69 4591.52,7328.62 4632.05,7292.35C4731.05,7203.75 4871.6,7210.92 5007.59,7214.12C5098.78,7216.27 5166.85,7174.93 5220.63,7125.28C5242.25,7225.83 5239.69,7298.5 5002.99,7354.72C4924.04,7373.47 4801.05,7384.28 4703.05,7448.74L4657.67,7457.96C4668.2,7398.87 4734.82,7345.97 4846.29,7316.31C4786.58,7321.59 4730.62,7315.78 4642.79,7404.3ZM4837.59,7439.8C4804.23,7557.77 4709.58,7675.44 4334.45,7683.68C4030.78,7690.35 3841.32,7644.48 3827.31,7455.91C3891.76,7521.27 3995.28,7493.82 4113.9,7494.22C4389.12,7495.12 4703.54,7540.78 4837.59,7439.8ZM3773.88,7225.01C3918.03,7253.65 4042.38,7314.61 4088.48,7457.78L4106.08,7453.77C4028.88,7216.52 3734.41,7169.2 3378.38,7113.22C3403.97,7250.7 3495.66,7308.86 3675.95,7329.54C3799.17,7343.67 3868.57,7368.26 3934.14,7470.53L3971.83,7464.73C3933.6,7386.45 3863.88,7346.16 3788.93,7312.2C3861.83,7325.89 3934.66,7336.38 4009.88,7460.82L4042.7,7461.69C3984.01,7357.28 3873.88,7254.61 3773.88,7225.01ZM3650.56,7108.06C3602.07,6987.36 3502.98,6885.38 3295.61,6832.8C3175.56,6822.87 3069.78,6780.75 3034.18,6678.8C2987.6,6761.75 3017.77,6845.09 3127.57,6918.84C3205.38,6971.11 3438.26,6941.69 3492.14,7102.48L3520.39,7105.9C3490.71,7034.74 3433.07,6993.66 3368.51,6944.16C3441.39,6956.62 3507.05,7001.94 3550.3,7106.25L3594.33,7108.54C3562.1,7024.52 3493.49,6973.43 3425.34,6916.17C3493.17,6944.48 3568.66,6964.91 3626.7,7108.19L3650.56,7108.06ZM2741.24,6237.11C2739.55,6337.06 2755.82,6435.41 2908.64,6521.61C3028.64,6589.29 3112.29,6630.22 3136.33,6743.88L3176.2,6759.87C3181.95,6663.38 3122.12,6616.66 3068.4,6565.29C3132.17,6605.35 3205.2,6631.44 3209.66,6760.88L3238.78,6770.44C3255.92,6588.46 3122.21,6541.74 3026.01,6461.4C3144.52,6517.69 3281.88,6548.89 3274.38,6772.9L3301.54,6781.79C3303.38,6639.43 3222.22,6511.41 3006.83,6406.58C2888.62,6349.04 2795.78,6305.4 2741.24,6237.11ZM3006.6,6358.98C3010.86,6231.51 2955.97,6096.5 2811.4,5950.06C2712.72,5884.62 2629.42,5806.25 2575.39,5703.32C2522.84,5788.91 2524.7,5885.12 2668.34,6008.99C2765.04,6084.46 2829.92,6168.06 2824.89,6269.51L2871.21,6289.64C2867.04,6209.1 2825.39,6128.2 2770.97,6047.17C2823.54,6100.52 2882.5,6126.72 2904.47,6309.92L2939.45,6329.86C2942.85,6196.47 2882.72,6108.61 2822.47,6020.83C2883.31,6063.91 2963.95,6118.17 2972.74,6341.58L3006.6,6358.98ZM2481.06,5158.97C2599.47,5283.15 2720.7,5402.98 2791.42,5600.63C2817.35,5673.11 2820.18,5762.15 2762.13,5843.34L2741.79,5828.49C2796.41,5671.44 2758.99,5554.64 2682.66,5454.86C2727.64,5575.98 2750.35,5689.7 2703.71,5805.34C2705.16,5684.1 2680.29,5590.18 2633.36,5495.15C2660.38,5586.82 2689.09,5678.74 2657.62,5761.83C2656.76,5635.15 2600.08,5517.45 2501.47,5406.51C2436.63,5333.55 2432.47,5215.29 2481.06,5158.97ZM2477.26,4787.84C2392.59,4659.62 2432.8,4572.15 2508.46,4533.6C2542.34,4626.79 2607.24,4725.08 2638.05,4792.24C2780.43,5102.74 2693.32,5178.48 2647.65,5281.47L2630.23,5254.07C2715.22,5101.78 2699.04,4990.91 2627.32,4903.36C2657.88,5032.08 2671.69,5147.16 2593.26,5187.22C2641.1,5065.15 2600.24,5003.89 2570.93,4934.71C2617.69,5121.13 2555.26,5224.81 2553.78,5123.41C2552.04,5003.34 2577.19,4939.17 2477.26,4787.84ZM2569,4580.58C2599.1,4544.48 2616.65,4481.47 2609.4,4365.3C2638,4449.84 2642.05,4536.58 2619.42,4625.71C2666.48,4571.66 2677.63,4497.52 2683.22,4420.28C2707.99,4508.37 2702.49,4593.78 2671.08,4676.89C2746.94,4557.64 2735.31,4448.49 2715.05,4340.34C2655.09,4327.03 2601.43,4325.73 2549.31,4327.35C2589.74,4405.73 2594.88,4490.39 2569,4580.58ZM2587.5,1929.45C2482.27,1938.4 2494.33,2065.41 2633.72,2320.58L2672.01,2323.06C2653.32,2267.35 2628.05,2220.67 2600.26,2177.46C2642.74,2216.77 2683.68,2258.41 2708.95,2323.61C2771.07,2354.37 2728.03,2288.35 2602.73,2108.37C2676.85,2172.15 2755.86,2227.87 2784.62,2366.33L2812.29,2368.79C2798.98,2286.35 2785.12,2227.04 2646.28,2086.18C2596.99,2036.18 2592.47,1972.53 2587.5,1929.45ZM2654.34,1957.21C2738.38,1970.79 2840.72,1974.72 2922.44,1936.21C3041.47,1880.11 3236.51,1827.25 3344.44,1953.8C3143.89,1895.22 3056.99,1923.08 2980.07,1950.66C3186.84,1919.14 3260.3,1971.98 3287.34,1997.39L3228.62,1995.01C3116.27,1961.66 3052.07,1975.96 2991.14,1993.49C3082.63,1987.28 3157.64,1997.21 3212.74,2026.61L3159.5,2047.08C3100.93,2039.56 3029.5,2048.93 2986.08,2064.53C2904.6,2093.81 2823.37,2121.04 2746.41,2112.8L2709.89,2081.43C2784.33,2087.7 2845.17,2069.1 2898,2035.82C2831.02,2047.02 2764.26,2059.02 2689.96,2042.42C2666.45,2019.03 2646.42,1982.51 2654.34,1957.21ZM3214.81,2090.87C3325.93,2166.73 3426.17,2129.16 3522.36,2049.46C3595.32,1996.42 3677.98,1963.15 3768.67,1946.28C3720.63,1901.14 3600.74,1959.7 3457.89,2051.39C3535.39,1965.69 3634.64,1895.02 3776.08,1889.07C3793.47,1873.97 3792.41,1860.81 3782.96,1848.54C3711.61,1847.93 3621.11,1882.55 3512.24,1950.98C3571.37,1888.9 3631.26,1827.24 3778.73,1814.43C3796.84,1803.1 3800.12,1789.94 3785.5,1774.58C3636.76,1752.22 3532.42,1851.27 3463.16,1947.01C3418.63,2008.58 3312.09,2067.56 3214.81,2090.87Z" style="fill:rgb(228,248,255);"/>
        </g>
        <g id="Blue" transform="matrix(0.0961384,0,0,0.0961384,1032.5,13.3692)">
            <path d="M3570.51,2207.57L3503.22,2273.86L3500.88,2209.53L3570.51,2207.57ZM3344,2255.24L3259.31,2261.93L3245.62,2463.39C3284.45,2453.96 3319.18,2420.7 3351.43,2373.13C3355.3,2326.53 3353.67,2286.27 3344,2255.24ZM3095.62,2257.48L3103.24,2598.72L3067.78,2617.62L3067.89,2566.94C3093.03,2542.6 3075,2504.24 3018.24,2472.51L3004.8,2257.43C3030.86,2255.52 3062.07,2255.96 3095.62,2257.48ZM3659.66,4130.22C3640.53,4169.35 3614.85,4197.64 3580.69,4211.88L3580.21,4129.2L3659.66,4130.22ZM3427.38,4128.14L3439.42,4308.46C3406.11,4367.9 3369.53,4415.8 3322.68,4427.53L3320.79,4110.29C3350.36,4110.33 3386.07,4116.46 3427.38,4128.14ZM3123.41,4569.34C3137.39,4403.97 3134.65,4239.7 3120.46,4076.18L3050.59,4066.81L3039.48,4392.23L2984.3,4401.15L2976.83,4713.28L3123.41,4569.34ZM3123.51,5619.99L3128.31,6117.01C3096.41,6070.1 3071.2,6008.22 3048.41,5940.97L3000.64,5929.73L3025.48,5888.75L3021.9,5707.41C3045.31,5665.73 3080.84,5638.58 3123.51,5619.99ZM3418.96,5394.62C3366.37,5425.43 3319.41,5467.4 3296.53,5557.16L3287.3,6332.82L3384.21,6247.34L3408.58,6127.1C3425.49,5884.14 3428.29,5639.92 3418.96,5394.62ZM3689.62,5182.77L3600.98,5267.41L3556.91,6069.7L3646.02,6089.23C3686.76,5798.97 3692.82,5492.97 3689.62,5182.77ZM3895.57,5226.59L3889.04,5277.49L3853.69,5271.06L3830.05,5927.91L3939.45,5859.8C3981.54,5677.68 3991.33,5497.51 3967.47,5319.36C3946.69,5263.59 3922.28,5236.1 3895.57,5226.59ZM3898.58,6836.5L3891.08,7035.81L3787.33,6972.92L3797.74,6898.58L3898.58,6836.5ZM4097.83,6675.7L4070.34,6703.52L4054.88,7172.66L4161.16,7237.08L4170.53,6844.2C4136.71,6850.92 4109.05,6845.93 4085.82,6832.53C4199.05,6790.62 4132.49,6709.53 4097.83,6675.7ZM4337.12,7313.36L4445.09,7253.42L4467.53,6506.16C4444.59,6466.33 4423.97,6446.27 4404.42,6435.2L4339.68,6498.05L4337.12,7313.36ZM4697.96,7104.06L4615.05,7166.97L4633.41,6259.55L4725.29,6188.88L4697.96,7104.06ZM5011.46,5956.64L4909.05,6047.42L4883.48,6954.74L4995.76,6861.92L5011.46,5956.64ZM5161.81,5859.21L5154.07,6673.03L5240.39,6666.86L5265.21,5891.02C5244.67,5878.35 5222.86,5864.57 5193.69,5844.33L5161.81,5859.21ZM5415.87,6008.35L5422.04,6358.74L5565.04,6100.61C5514.06,6064.88 5464.58,6035.1 5415.87,6008.35ZM5915.4,3983.76L5926.85,4331.95L5865.3,4403.02L5850.73,3990.8L5915.4,3983.76ZM5690.46,4015.4L5695.23,4084.35L5579.95,4067.76L5593.08,4029.75L5690.46,4015.4ZM5591.15,4146.52L5589.44,4193L5686.41,4211.71L5691.56,4101.6L5672.24,4102.06L5591.15,4146.52ZM5691.3,4269.43L5684.58,4409.62L5580.66,4366.92L5579.43,4324.84L5654.74,4272.17L5691.3,4269.43ZM5690.35,4437.5C5684.39,4523.94 5669.33,4603.47 5585.18,4630.39L5580.9,4493.4C5613.64,4462.35 5649.12,4440.38 5690.35,4437.5ZM5413.98,4694.96C5418.39,4813.86 5313.63,4815.31 5318.49,4728.16L5413.98,4694.96ZM5676.61,2306.19L5681.47,2439.77L5559.6,2560.81L5560.62,2299.25L5676.61,2306.19ZM5395.5,2296.91L5394.54,2386.13C5366.44,2417.86 5330.96,2439.35 5287.37,2449.6L5288.93,2396.64L5395.5,2296.91ZM2853.04,4871.1C3142.94,4625.44 3420.78,4387.74 3736.69,4139.58C3799.89,4142.2 3890.55,4144.12 3947.32,4159.35C3983.43,4254.6 4006.73,4403.23 3986.22,4513.38L3918.17,4506.37L3911.2,4481.96C3845.29,4484.4 3785.1,4480.58 3719.43,4498.13L3720.05,4459.4C3560.53,4469.31 3390.56,4502.21 3254.39,4643.38C3241.3,4675.59 3236.53,4697.19 3235.33,4727.54C3028.23,4983.75 3041.72,5139.33 3270.7,5196.62C3259.37,5142.34 3272.48,5098.36 3307.62,5027.76C3424.12,4967.34 3650.04,4968.79 3758.67,5073.98L2986.35,5675.14C2912.21,5404.97 2877,5147.46 2853.04,4871.1ZM5907.45,4427.91C5893.8,4705.73 5887.98,5008.29 5849.24,5292.23L5560.89,5497.08C5403.08,5402.57 5239.84,5296.88 5108.02,5189.61C5169.9,5190.31 5234.29,5182.39 5301.93,5163.3C5265.61,5149.6 5235.11,5131.86 5217.4,5105.21C5269.42,5091.51 5322.22,5070.54 5375.85,5041.95C5339.55,5035.91 5310.11,5020.12 5290.7,4990.08C5337.01,4960.92 5386.56,4927.66 5425.78,4875.87L5380.62,4847.86C5554.5,4732.52 5730.3,4589.89 5907.45,4427.91ZM3750.66,2376.43C3747.52,2295.38 3754.25,2212.93 3763.41,2130.13C3543.91,2271.91 3277.61,2468.66 3094.99,2643.95C3289.04,2680.82 3544.08,2713.64 3764.56,2715.98C3699.83,2546.11 3648.92,2449.7 3692.51,2310.15L3750.66,2376.43ZM5928.11,2565.42L5514.18,2638.16C5626.91,2547.77 5737.27,2439.93 5850.92,2324.6C5889.44,2320.12 5931.03,2324.71 5980.05,2320.59C5942.03,2400.47 5911.59,2480.34 5928.11,2565.42ZM4533.24,6307.98L5132.13,5821.57C5086.63,5798.85 5035.66,5784.16 4981.4,5774.32C4950.9,5834.34 4900.58,5837.54 4836.02,5799.93C4789.31,5798.25 4801.61,5809.8 4801.61,5864.65C4801.61,5919.5 4723.05,5926.79 4699.52,6034.16C4686.97,6091.44 4681.09,6088.96 4650.43,6046.06C4627.15,6013.48 4624.51,6063.45 4615.74,6150.67C4609.72,6210.61 4574.22,6235.61 4531.48,6204.41C4508.91,6187.93 4511.57,6252.69 4533.24,6307.98ZM3919.21,6280.8C3964.94,6300.97 4011.76,6319.52 4069.59,6321.68C4114.22,6294.68 4141.64,6264.25 4161.88,6232.38C4125.35,6158.18 4022,6265.8 3919.21,6280.8ZM3663.76,6135.1L4075.81,5812.87C4041.23,5938.06 3991.02,6080.9 3883.77,6192.39C3845.13,6239.26 3783.58,6231.99 3738.28,6230.39C3733.91,6189.88 3713.87,6156.17 3663.76,6135.1ZM4126.37,6597.2C4185.57,6515.18 3895.44,6446.87 3872.98,6512.26C3851.89,6573.66 3861.46,6616.74 3883.86,6652.16C3779.69,6672.1 3743.9,6593.18 3717.87,6500.12C3691.8,6544.2 3693.03,6596.44 3714.22,6654.65C3672.24,6653.55 3645.45,6630.67 3623.52,6600.83L3616.63,6656.43C3543.94,6613.78 3519.66,6551.99 3509.04,6495.74C3448.11,6463.85 3437.42,6414.26 3436.84,6360.53C3419.42,6383.64 3424.77,6410.06 3428.84,6433.99C3385.03,6421.78 3350.99,6396.7 3332.31,6351.37L3279.83,6402.94C3406.86,6599.52 3559.97,6771.14 3720.12,6921.27C3861.7,6820.55 3996.43,6721.54 4126.37,6597.2ZM4378.61,6419.41L4254.5,6528.63C4235.52,6492.37 4237.44,6446.55 4289.34,6377.84C4310.61,6349.68 4354.05,6385.53 4378.61,6419.41Z" style="fill:rgb(55,81,138);"/>
        </g>
        <g id="Dark-Blue" serif:id="Dark Blue" transform="matrix(0.0961384,0,0,0.0961384,1032.5,13.3692)">
            <path d="M5836.78,5697.77C6080.65,5769.34 6273.52,5825.99 6448.98,5858.53C6370.82,5999.92 6171.29,5937.69 5945.87,5832.01L5945.01,5880.37C5625.01,5737.92 5421.09,5573.3 5198.43,5412.26L5170.67,5432.36C5067.72,5351.07 4935.32,5291.32 4803.15,5231.4C4914.61,5183.11 5057.92,5185.15 5195.91,5302.25C5379.1,5457.72 5727.39,5665.67 5836.78,5697.77ZM5206.08,5501C5299.23,5552.01 5479.88,5654.67 5446.7,5681.41C5396.25,5722.09 5274.39,5599.49 5206.08,5501ZM5094.81,5488.28C5186.87,5581.56 5346.8,5720.9 5320.43,5726.57C5261.46,5739.26 5159.34,5611.43 5094.81,5488.28ZM5317.77,5812.61C5323.55,5799.62 5499.48,5936.71 5626.11,6014.74C5502.08,5984.72 5302.36,5847.27 5317.77,5812.61ZM5413.5,5768.5C5449.87,5755.68 5648.68,5897.11 5788.5,5976.87C5633.46,5952.89 5361,5787.01 5413.5,5768.5ZM5514.89,5716.84C5525.98,5694.22 5769.65,5850.8 5895.81,5910.84C5748.91,5917.2 5493.24,5761.01 5514.89,5716.84ZM6000.34,5961.31C6008.73,5942.4 6166.14,5977.56 6258.39,6007.94C6176.11,6061.8 5976.96,6014.05 6000.34,5961.31ZM6096.78,6082.14C6009.6,6039.24 5879.31,6000.37 5871.06,6030.54C5862.74,6060.95 6016.66,6103.14 6096.78,6082.14ZM5973.25,6149.59C5886.19,6128.7 5736.32,6066.3 5723.29,6082.4C5696.36,6115.69 5878.26,6163.18 5973.25,6149.59ZM3521.52,4834.09C3439.21,4869.66 3374.54,4922.65 3321.2,4986.82C3428.84,4980.07 3555.8,4902.2 3521.52,4834.09ZM3561.26,4753.17C3421.73,4826 3320.15,4849.49 3254.97,4753.85C3089.79,4961.08 3088.18,5102.16 3243.73,5163.26C3230.47,5010.84 3353.11,4917.57 3561.26,4753.17ZM3788.84,4679.56C3714.16,4649.9 3631.7,4660.15 3542.81,4703.48C3363.58,4811.14 3265.17,4814.94 3284.88,4666.94C3289.43,4632.74 3418.16,4538.49 3673.98,4532.11C3859.36,4527.5 4050.37,4534.41 4027.48,4620.9C4030.71,4636.12 4036.72,4649.31 4057.35,4651.93C4116.75,4489.81 4102.73,4318.23 4066.7,4143.81C4119.27,4126.34 4176.93,4118.22 4220.31,4129.28C4237.31,4220.66 4224.55,4317.41 4187.4,4414.79C4211.01,4400.53 4234.23,4379.31 4256.83,4347.14C4247.38,4442.12 4226.72,4536.96 4196.22,4631.67C4211.85,4628.29 4228.39,4618.69 4246.47,4598.56C4178.98,4817.89 4122.14,5032.04 4222.49,5169.77C4071.25,5067.62 3980.6,4941.16 4028.86,4758.99C3938.06,4691.26 3840.69,4641.96 3736.59,4611.54C3760.34,4633.79 3777.96,4656.45 3788.84,4679.56ZM3727.95,6299.98C3702.17,6357.62 3712.87,6394.22 3687.16,6406.4C3627.23,6434.8 3649.28,6280.6 3727.95,6299.98ZM3591.35,6282.83C3570.88,6323.53 3491.66,6253.82 3560.82,6195.48C3653.25,6117.51 3715.85,6199.08 3673.92,6217.42C3634.13,6234.82 3610.71,6244.33 3591.35,6282.83ZM3555.65,6132.26C3522.3,6165.61 3510.56,6202.16 3472.77,6227.78C3385.17,6287.17 3441.24,6092.19 3555.65,6132.26ZM4242.14,5838.13C4244.15,5880.57 4223.71,5894.43 4209.86,5859.93C4189.29,5808.69 4172.5,5869.58 4183.12,5956.57C4182.65,5986.75 4170.57,6002.58 4146.4,5995.62C4097.77,5981.63 4091.37,6034.95 4087.41,6110.78C4031.91,6099.91 3984.88,6138.12 3936.34,6196.65C4056.42,6016.25 4131.8,5808.08 4164.28,5573.23C4195.77,5618.29 4228.15,5661.49 4263.55,5698.46C4237.87,5730.36 4232.26,5778.12 4242.14,5838.13ZM4219.1,6205.46C4282.44,6064.72 4334.19,5927.67 4324.34,5800.16C4311.94,5639.83 4422.72,5495.03 4531.54,5462.24C4538.98,5529.17 4441.86,5590.46 4435.6,5693.56L4482.02,5665.9C4462.76,5739.73 4446.87,5809.58 4446.36,5861.23C4409.99,5869.71 4410.88,5920.9 4429.51,5992.45C4438.12,6025.51 4410.73,6037.77 4389.67,5999.85C4371.19,5966.59 4369.58,6055.31 4383.32,6125.32C4387.11,6144.61 4366.44,6144.42 4347.59,6128.58C4328.45,6112.5 4329.87,6198.35 4328.79,6261.47C4314.64,6282.01 4285.18,6275.76 4219.1,6205.46ZM4493.31,5798.52C4522.5,5792.41 4550.27,5854 4545.99,5916.04C4504.06,5888.86 4454.31,5806.69 4493.31,5798.52ZM4490.83,5925.76C4466.36,5977.4 4501.73,6038.26 4562.23,6047.53L4490.83,5925.76ZM4450.99,6037.71C4479.76,6058.88 4498.64,6087.81 4503.07,6128.09C4469.89,6113.83 4451.64,6084.59 4450.99,6037.71ZM4422.1,6106.9C4450.68,6125.51 4467.8,6154.49 4462.26,6203.98C4436.41,6183.3 4421.36,6152.5 4422.1,6106.9ZM4389.9,6196.16C4425.03,6225.52 4438.01,6266.72 4423.69,6329.06C4380.36,6277.25 4358.44,6169.86 4389.9,6196.16ZM4360.82,5094.92C4321.77,5121.9 4316.82,5149.75 4326.35,5187.93C4333.51,5216.59 4371.67,5136.09 4360.82,5094.92ZM4391.68,4990.25C4345.96,5030.05 4326.32,5057.88 4306.34,5092.59C4303.64,5025.64 4323.89,4995.31 4391.68,4990.25ZM4318.2,4965.42C4383.27,4917.36 4457.61,4876.48 4554.79,4853.35C4415.96,4826.08 4334.46,4860.6 4318.2,4965.42ZM4324.78,4674.64C4391.8,4676.26 4455.82,4658.24 4516.22,4616.53C4532.68,4645.25 4500.8,4679.02 4415.86,4718.33C4396.08,4808.36 4360.45,4741.65 4324.78,4674.64ZM4333.65,4519.1C4408.51,4509.36 4460.25,4496.03 4529.03,4446C4555.94,4426.41 4631.19,4411.54 4650.02,4445.31C4651.4,4483.19 4626.35,4477.07 4550.92,4492.11C4569.56,4536.26 4572.07,4544.94 4500.4,4533.64C4469.98,4583.15 4393.71,4625.58 4364.4,4615.83C4336.16,4606.44 4323.64,4554.78 4333.65,4519.1ZM4671.52,4371.84C4630.07,4405.68 4762.78,4416.43 4830.38,4359.33C4853.97,4358.28 4892.3,4358.43 4923.84,4357.1C4895.68,4322.31 4900.56,4308.62 4923.01,4305.22C5029.41,4335.41 5065.66,4267.92 5011.08,4250.69C4926.61,4224.03 4910.48,4190.74 4967.12,4182.04C5059.62,4167.82 5100.43,4174.27 5081.03,4150.7C5049.64,4112.52 5001.77,4085.32 4951.16,4059.93C4875.44,4099.88 4806.44,4108.16 4740.27,4103.2C4761.95,4146.57 4714.7,4160.68 4641,4163.56C4549.08,4263.32 4476.24,4279.9 4411.72,4260.18C4469.46,4235.57 4506.79,4211.18 4469.93,4187.57C4540.09,4168.52 4587.92,4142.05 4586.61,4099.24C4448.54,4084.89 4342.73,4099.74 4290.61,4163.17C4294.31,4242.66 4308.8,4303.89 4367.52,4290.21C4342.33,4334.26 4350.12,4379.76 4375.47,4435.98C4388.11,4464.01 4563.94,4400.18 4564.28,4331.87C4645.6,4319.45 4708.42,4283.68 4672.15,4229.21C4731.24,4239.57 4786.87,4246.13 4836.66,4246.23C4831.49,4290.71 4744.32,4312.4 4671.52,4371.84ZM5093.48,4070.93C5141.66,4058.78 5190.19,4058.23 5239.19,4072.69C5161.18,4156.46 5103.81,4148.51 5093.48,4070.93ZM5174.04,4215.09C5236.6,4166.3 5298.26,4115.13 5383.7,4127.62C5435.15,4109.07 5477.4,4105.95 5495.63,4143C5513,4178.29 5428.37,4172.49 5365.63,4165.23C5377.4,4183.93 5379.23,4200.12 5366.56,4212.63C5276.87,4243.61 5211.05,4246.38 5174.04,4215.09ZM5199.43,4325.38C5309.34,4285.68 5415.91,4245.26 5506.41,4201.4C5554.34,4178.18 5633.09,4336.33 5414.6,4293.1C5439.17,4384.7 5325.06,4359.87 5199.43,4325.38ZM5312.89,4441.56C5357.12,4402.97 5549.2,4390.22 5557.12,4432.17C5565.9,4478.66 5289.11,4462.3 5312.89,4441.56ZM5184.62,4455.82C5237.76,4438.42 5296.37,4444.45 5292.03,4485.93C5287.82,4526.19 5219.5,4486.51 5184.62,4455.82ZM5088.59,4366.82C5114.17,4332.56 5165.89,4331.2 5172.55,4364.59C5181.11,4407.54 5128.89,4397.32 5088.59,4366.82ZM5152.32,4265.86C5152.32,4296.2 5091.02,4262.49 5057.43,4229.08C5108.88,4210.65 5129.77,4218.96 5152.32,4265.86ZM5141.21,4499.42C5125.71,4536.18 5067.8,4517.44 5087.26,4486.72C5101.27,4464.61 5149.69,4479.32 5141.21,4499.42ZM4687.12,4532.02C4756.02,4538.91 4829.74,4529.83 4912.99,4489.15C4985.26,4453.84 5095.65,4540.52 4935.82,4563.29C4898.9,4568.55 4891.68,4577.36 4901.53,4607.86C4854.12,4634.18 4776.82,4628.28 4675.16,4612.53C4635.07,4606.32 4654.76,4554.33 4687.12,4532.02ZM4472.84,355.41C4581.13,550.604 4677.25,763.242 4615.72,1201.68C4563.95,1264.2 4542.61,1328.68 4588.22,1397.47C4561.83,1464.89 4533.14,1530.87 4472.25,1576.76C4548.93,1571.85 4543.75,1728.99 4400.03,1841.8C4423.66,1868.54 4422.95,1891.9 4356.8,1948.26C4398.1,1968.13 4343.18,2057.87 4187.42,2220.83C4199.89,2175.3 4219.93,2117.97 4243.12,2055.7C4125.72,2170.89 4062.8,2330.47 4088.11,2557.54C4100.77,2499.44 4122.69,2455.74 4161.66,2395.35C4150.89,2523.53 4157.27,2647.68 4185.3,2739.82L4006.56,2742.92C3921.68,2597.27 3922.84,2391.13 4063.17,2087.14C4116.79,1970.99 4119.37,1884.43 4116.71,1792.86C4142.62,1822.68 4156.49,1871.65 4150.91,1939.1C4457.97,1483.93 4565.28,956.035 4472.84,355.41ZM3921.61,1823.89C3996.43,1754.37 4043.57,1638.58 4024.76,1619.21C4005.94,1599.83 3936.8,1743.51 3921.61,1823.89ZM4027.35,1790.61C4040.93,1803.77 3961.72,1914.48 3896,2017.12C3920.34,1929.24 4000.37,1764.46 4027.35,1790.61ZM4010.4,1961.17C4037.8,1974.2 3965.5,2071.24 3860.37,2170.26C3879.81,2105.75 3974.02,1943.88 4010.4,1961.17ZM5078.6,2700.55L5186.92,2698.71C5224.09,2666.23 5259.37,2633.64 5285.51,2600.49C5280.88,2622.8 5267.6,2648.56 5247.17,2677.2C5303.65,2645.02 5352,2595.82 5376.53,2496.71C5244.8,2528.28 5137.16,2586.88 5078.6,2700.55ZM5431.31,2087.85C5210.39,2219.26 4946.86,2299.8 4763.83,2457.15C4670.2,2537.64 4582.7,2633.48 4503.4,2732.11C4584.21,2757.73 4678.03,2740.01 4788.56,2666.6C4791.53,2642.23 4764.18,2646.72 4732.49,2655.32C4789.88,2635.14 4844.65,2611.99 4881.13,2568.05C4874.01,2549.46 4831.82,2555.19 4789.83,2572.02C4860.59,2531.33 4947.14,2513.58 4999.04,2448.25C5000.85,2423.79 4963.06,2439.21 4921.05,2444.96C5135.26,2339.8 5316.18,2224.17 5431.31,2087.85ZM4199.02,2640.72C4218.85,2547.24 4268.48,2463.45 4353.23,2391.11C4305.06,2498.05 4256.45,2601.73 4199.02,2640.72ZM4229.73,2428.64C4262.91,2348.89 4311.23,2258.43 4378.22,2224.1C4354.52,2293.04 4306.69,2361.27 4229.73,2428.64ZM4309.45,2200.63C4336.58,2132.49 4370.14,2072.27 4428.47,2042.59C4407.34,2109.91 4371.15,2165.35 4309.45,2200.63ZM4846.12,1429.79C4808.47,1527.76 4728.93,1617.61 4662.12,1711.04C4642.11,1739.01 4603.75,1776.58 4631.77,1790.89L4675.98,1785.86C4629.58,1889.91 4562.05,1976.85 4489.05,2059.36C4550.35,1766.1 4638.17,1458.03 4834.91,1088.75C4908.04,951.494 4977.72,703.727 5002.96,534.125C5015.06,728.141 5043.3,930.961 4874.58,1200.93C4900.59,1196.09 4924.27,1176.06 4946.28,1145.13C4940.09,1204.81 4840.78,1348.47 4728.15,1504.13C4747.3,1528.19 4791.11,1492.56 4846.12,1429.79ZM4860.14,1666.61C5079.64,1456.16 5182.43,1299.22 5250.2,1140.29C5250.41,1314.6 5136.1,1484.02 4977.83,1651.56L5045.8,1627.51C4983.23,1716.69 4900.15,1781.55 4818.08,1847.6C4862.41,1835.02 4899.9,1814.19 4931.15,1785.84C4864.73,1892.26 4769.97,1967.51 4675.63,2043.24C4722.6,2031.68 4764.9,2014.05 4801.72,1989.28C4718.67,2126.92 4604.53,2213.88 4487.57,2296.23C4624.15,2038.82 4669.49,1849.39 4860.14,1666.61ZM4862.49,2232.57L4783.09,2225.11C4870.57,2191.12 4963.44,2136.91 5022.85,2094.26L4953.33,2096.13C5373.03,1843.3 5383.95,1731.99 5379.28,1616.06C5185.97,1885.44 5123.07,1901.79 4856.48,2096.74C4658.86,2249.59 4505.81,2430.08 4368.36,2620.25C4446.09,2604.49 4540.86,2569.17 4732.03,2378C4702.18,2359.47 4664.15,2363.33 4617.14,2391.78C4680.44,2324.85 4770.32,2265.04 4862.49,2232.57ZM5169.4,2078.77L5215.6,2104.08C5182.35,2146.43 5125.18,2169.06 5064.03,2188.41C5095.91,2217.5 5147.59,2223.91 5327.42,2083.43C5296.5,2016.54 5238.6,2030.71 5169.4,2078.77ZM3761.88,4745.51C3762.34,4704.99 3910.11,4771.25 3913.9,4852.12C3889.87,4802.62 3761.73,4757.93 3761.88,4745.51ZM4181.71,6690.8C4288.68,6706.39 4293.61,6662.84 4237.12,6559.88C4204,6499.52 4182.17,6477.57 4230.55,6394.21C4273.26,6264.98 4229.84,6222.84 4156.5,6291.23C4122.97,6333.67 4085.06,6367.16 4021.39,6348.04C3887.03,6298.24 3754.05,6250.23 3781.54,6408.84C3814.61,6428 3827.67,6404.91 3839.87,6357.81C3885.08,6362.52 3930.43,6374.05 3975.96,6393.81C3988.81,6425.57 4009.9,6427.11 4036.89,6406.93C4049.47,6439.83 4076.47,6447.11 4113.84,6435.99C4119.91,6483.75 4128.8,6535.28 4174.47,6565.51C4192.97,6577.75 4151.9,6686.45 4181.71,6690.8ZM4249,5957.97C4274.71,5956.03 4276.3,5908.11 4248.04,5910.13C4231.58,5911.3 4220.33,5960.14 4249,5957.97ZM4175.54,6102.56C4145.46,6101.59 4154.74,6042.66 4182.28,6042.28C4212.79,6041.87 4203.32,6103.45 4175.54,6102.56ZM3831.52,6483.29C3812.79,6471.79 3795.59,6468.01 3781.73,6481.2C3757.68,6546.72 3779.44,6594.38 3847.01,6624.2C3817.72,6578.87 3810.39,6532.05 3831.52,6483.29ZM3691.02,6448.78C3676.69,6433.24 3657.75,6432.54 3641.42,6436.69C3613.59,6518.29 3622.52,6572.6 3681.49,6613.32C3647.59,6548.74 3654.06,6497.78 3691.02,6448.78ZM3561.99,6460.11C3589.05,6416.88 3621.12,6446.8 3612.25,6493.7C3590.49,6514.35 3583.47,6548.13 3599.61,6602.54C3568.04,6576.45 3515.58,6534.25 3561.99,6460.11ZM3552.59,6344.38C3561.05,6305.21 3523.99,6310.6 3497.13,6325.53C3455.97,6392.68 3474.91,6427.43 3524.44,6462.72C3503.68,6412.49 3515,6375.42 3552.59,6344.38ZM3419.41,6288.91C3374.21,6303.53 3395.85,6336.37 3401.1,6397.94C3356.41,6350.29 3326.42,6292.82 3393,6260.14C3413.19,6244.71 3435.58,6272.75 3419.41,6288.91ZM4204.26,6774.11C4198.5,6746.75 4186.78,6739.45 4169.1,6752.21C4170.3,6787.91 4161.64,6812.76 4128.24,6829.42C4159.46,6835.08 4186.48,6823.53 4204.26,6774.11Z" style="fill:rgb(32,43,68);"/>
        </g>
        <g id="Black-Details" serif:id="Black Details" transform="matrix(0.0961384,0,0,0.0961384,1032.5,13.3692)">
            <path d="M4035.79,2706.85C3977.97,2638.25 3976.01,2541.56 4016.8,2421.59C4011.37,2520.07 4014.55,2616.07 4035.79,2706.85ZM2494.28,4757.61C2458.28,4711.72 2427.11,4665.07 2479.24,4605.46C2472.16,4657 2481.03,4707.45 2494.28,4757.61ZM3350.68,4723.31C3381.86,4655.88 3420.37,4620.03 3471.11,4636.71C3502.36,4683.19 3425.39,4733.79 3350.68,4723.31ZM3628.6,4619.45C3574.23,4608.57 3506.03,4615.71 3511.81,4646.85C3518.5,4682.85 3588.76,4652.01 3628.6,4619.45ZM2575.26,5431.47C2524.44,5379.22 2483.38,5323 2486.92,5248.65C2527.42,5309.98 2560.2,5371.04 2575.26,5431.47ZM2682.84,5983.46C2635.3,5948.89 2591.38,5911.77 2582.32,5850.25C2614.86,5880.54 2648.55,5927.59 2682.84,5983.46ZM2932.24,6448.51C2878.08,6429.54 2825.33,6408.97 2796.87,6360.88C2840.7,6370.23 2885.97,6401.78 2932.24,6448.51ZM3191.86,6908.76C3132.15,6900.35 3084.43,6877.55 3074.22,6809.78C3099.32,6837.12 3139.39,6870.46 3191.86,6908.76ZM3442.75,7202.64C3465.99,7225.88 3522.42,7278.66 3574.75,7275.1C3532.46,7241.94 3487.89,7206.09 3442.75,7202.64ZM5053.52,7303.79C5086.92,7275.8 5131.8,7250.42 5180.81,7225.97C5159.74,7270.08 5116.98,7295.74 5053.52,7303.79ZM5867.57,6398.01C5825.17,6455.02 5775.38,6496.39 5716.01,6517.5C5756.03,6473.33 5805.96,6433.26 5867.57,6398.01ZM6224.16,5285.91C6255.81,5327.86 6223.89,5386.07 6166.07,5450.75C6192.13,5396.7 6213.62,5342.03 6224.16,5285.91ZM6268.57,4682.24C6289.39,4730.16 6274.93,4779.52 6228.69,4830.07C6242.57,4785.21 6255.94,4736.53 6268.57,4682.24ZM6303.14,4151.88C6320.28,4231.44 6284.34,4286.61 6229.34,4333.04C6258.27,4281.78 6283.65,4223.05 6303.14,4151.88ZM4000.61,7552.04C4198.33,7518.81 4399.54,7508.15 4610.03,7557.31C4407.8,7569.27 4204.9,7571.03 4000.61,7552.04ZM4047.8,7606.35C4204.48,7609.97 4358.13,7609.68 4503.86,7599.2C4366.47,7651.07 4214.77,7654.53 4047.8,7606.35ZM6573.36,2772.93C6664.55,2866.49 6717.97,2972.96 6669.64,3114.17L6701.04,3109.13C6711.11,3368.5 6643.95,3574.77 6509.8,3734.99L6383.9,3440.7L6246.8,3763.45C6196.33,3690.01 6162.91,3620.41 6202.42,3567.18C6158.01,3542.7 6128.24,3436.62 6084.65,3256.84C6075.67,3227.68 6054.44,3208.5 6020.95,3199.28C6032.24,3136.71 6174.66,3161.62 6293.25,3141.4L6218.16,3278.95C6250.95,3298.84 6272.15,3324.92 6277.23,3359.62C6310.98,3354.8 6375.85,3250.57 6412.48,3141.22C6399.66,3145.41 6530.38,3487.83 6548.35,3466.22C6680.73,3307.01 6594.45,2949.93 6383.9,2953.84C6477.78,2916.63 6540.93,2856.33 6573.36,2772.93ZM5414,2891.6C5475.2,2889.39 5511.57,2839.52 5574.23,2791.75C5600.82,2868.91 5605.12,2937.22 5559.46,2989.28C5593.67,3083.35 5576.86,3137.43 5573.81,3282.72C5590.7,3421.93 5594.3,3554.04 5588.62,3681.2C5587.45,3707.49 5660.11,3725.6 5645.21,3748.17C5543.82,3757.04 5452.81,3768.1 5376.64,3782.29C5343.52,3776.5 5375.27,3760.24 5426.61,3725.23C5451.15,3657.79 5431.45,3506.06 5416.39,3359.62C5450.23,3321.53 5444.53,3291.29 5411.39,3268.19L5421.59,2955.6C5350.71,2946.07 5364.23,2902.05 5414,2891.6ZM5236.88,3313.23C5207.82,3231.42 5177.38,3181.15 5143.63,3206.3C5139.62,3293.77 5148.98,3391.63 5113.96,3435.84C5151.95,3460.62 5142.98,3497.42 5159.15,3606.16C5206.61,3755.21 5259.99,3657.32 5313.55,3552.22L5363.08,3601.41C5286.41,3754.29 5196.73,3863.67 5044.35,3763.45C4954.49,3616.48 4984.18,3241.03 5044.35,3149.63C5200.02,3053.82 5215.67,3062.72 5340.8,3227.27C5322.64,3277.02 5292.71,3311.7 5236.88,3313.23ZM4746.45,3807.95C4842.89,3488.1 4838.9,3226.04 4678.37,3287.02C4661.26,3458.44 4634.53,3661.35 4693.03,3730.35C4711.69,3768.92 4695.54,3766.79 4620.86,3782.29C4551.54,3796.68 4494.39,3836.92 4450.86,3851.15C4460.22,3801.03 4511.92,3742.7 4547.76,3682.52C4497.01,3630.28 4516.01,3464.13 4517.82,3322C4509.68,3289.58 4493.91,3269.71 4472.84,3268.19C4515.7,3207.96 4577.69,3164.46 4661.46,3139.99L4685.74,3219.72C4743.23,3171.25 4805.53,3153.52 4870.72,3154.27C4925.2,3264.08 4974.13,3375.07 4894.85,3512.95C4934.24,3543.56 4952.49,3594.64 4926.35,3688.67C4936.75,3720.28 4953.88,3734.08 4976.57,3733.11C4892.04,3756.31 4811.52,3780.41 4746.45,3807.95ZM3805.65,3139.99L3765.21,3198.67L3778.47,3461.75L3756.79,3511.71L3781,3530.94L3830.01,3654.02C3942.3,3479.68 3941.93,3309 3890.35,3139.99L4029.3,3177.38L3985.88,3362.4C3972.66,3520.84 3912.06,3674.56 3814.91,3824.62C3653.51,3765.17 3592.38,3594.14 3605.06,3340.95L3558.07,3215.3C3702.99,3177.68 3779.85,3073.23 3805.65,3139.99ZM2494.51,3923.98C2483.88,3956.78 2443.12,3973.31 2417.16,3998.75C2342.8,4071.64 2369.97,4065.29 2436.1,4052.53C2487.42,4043.13 2538.82,4038.94 2566.14,4013.27C2574.84,4057.53 2633.32,4080.34 2725.42,4074.78C2846.73,4134.43 2913.91,4163.32 2886.83,4128.07C2853.37,4084.52 2829.22,4045.47 2805.47,4000.09C2802.81,3917.13 2818.84,3870.23 2769.84,3864.13C2686.48,3853.74 2719.51,3848.12 2767.01,3824.62C2701.19,3643.84 2634.37,3499.57 2543.55,3445.69L2873.39,3175.98L2837.89,2917.72C2774.72,2879.16 2745.01,2837.45 2803.62,2829.17C2804.98,2750.9 2663.32,2630.84 2417.16,2507.06C2001.55,2585.46 1595.02,2697.4 1416.57,2968.45C1295.44,3152.45 1421.76,3568.41 1757.07,3359.62C2060.56,3170.64 1720.88,2838.76 1570.91,3058.37C1529.61,3118.85 1577.7,3160.26 1639.54,3118.2C1796.35,3011.53 1921.67,3266.24 1709.77,3325.42C1366.07,3421.41 1351.24,2829.74 1934.78,2743.94C1971.77,2925.35 1967.59,3113.48 1973.4,3282.71C2029.66,3335.52 2037.56,3367.84 1954.03,3359.62C2006.66,3500.86 2038.32,3675.2 2025.71,3923.88C2118.97,3998.92 2120.83,4014.91 2022.25,4002.7C2008.47,4243.4 2013.5,4460.38 2048.55,4639.55C2062.83,4812.12 2066.31,5016.48 2066.82,5229.6C2133.97,5027.55 2196.21,4793 2160.37,4482.95C2215.57,4270.66 2236.86,4036.99 2224.65,3782.2C2194.54,3757.67 2193.91,3727.13 2249.32,3685.2L2248.58,3526.94C2379.29,3559.5 2495.87,3620.91 2494.51,3923.98ZM2505.66,2876.09C2532.04,2974.26 2703.57,2989.61 2539.49,3023.99C2559.75,3322.61 2544.7,3342.3 2250.28,3471.41C2221.39,3338.12 2240.06,3199.01 2263.26,3088.09C2205.1,3068.51 2216.95,3038.56 2270.11,3002.5C2257.98,2814.91 2241.36,2631.95 2366.52,2646.11C2442.37,2654.7 2458.13,2699.22 2505.66,2876.09ZM5796.35,3337.94C5872.45,3148.47 5925.27,3180.47 5891.03,3359.62C5791.62,3376.13 5721.28,3437.76 5659.55,3506.38C5677.3,3545.03 5682.22,3569.1 5661.88,3585.8C5597.24,3747.76 5728.91,3840.42 5912.57,3763.45C5908.03,3790.6 5927.64,3802.7 5958.2,3807.95C6042.94,3782.25 6103.23,3746.73 6105.03,3687.75L6045.81,3690.11C6024.67,3571.45 6025.71,3439.25 6038.58,3299.8C6005.23,3191.28 5910.59,3137.31 5779.79,3115.55C5726.33,3152.68 5681.56,3197.5 5666.04,3268.19C5706.89,3295.54 5748.73,3321.33 5796.35,3337.94ZM5887.92,3429.48C5906.76,3565.15 5947.34,3727 5843.16,3694.79C5762.61,3669.9 5813.72,3348.26 5887.92,3429.48ZM4215.5,3554.02L4466.92,3392.98C4414.03,3232.12 4342.11,3098.91 4087.2,3231.47L4082.97,3717.73C4120.52,3730.9 4139.16,3769.8 4126.82,3802.06C4219.47,3931.27 4518.59,3747.08 4396.41,3619.59C4353.16,3680.45 4306.32,3731.87 4251.91,3763.45C4213.81,3717.06 4200.22,3648.57 4215.5,3554.02ZM4189.15,3494.66C4186.36,3406.92 4213.09,3309.65 4254.16,3229.62C4325.09,3275.78 4378.6,3498.14 4189.15,3494.66ZM3383.35,3421.12C2950.49,3588.03 3072.27,3968.6 3401.66,3824.62L3436.38,3877.91C3472.76,3847.89 3514.41,3846.39 3558.07,3824.62C3615.78,3763.94 3608.74,3735.31 3541.15,3752.77L3543.09,3556.62L3492.24,3540.09L3535.58,3495.57L3541.15,3302.07C3501.94,3224.5 3433.83,3187.91 3341.87,3177.38C3253.77,3167.29 3181.38,3211.92 3145.86,3309.38L3305.57,3389.18C3316.96,3307.68 3329.84,3243.91 3380.06,3255.93C3407.56,3262.51 3396.09,3355.77 3383.35,3421.12ZM3382.12,3772.36L3383.56,3667.28C3423.74,3649.86 3418.22,3632.15 3374.85,3614.18L3376.79,3494.7C3253.67,3471.58 3197.05,3879.69 3382.12,3772.36Z"/>
        </g>
    </g>
</svg>
