<?xml version="1.0" encoding="UTF-8" standalone="no"?>
<!DOCTYPE svg PUBLIC "-//W3C//DTD SVG 1.1//EN" "http://www.w3.org/Graphics/SVG/1.1/DTD/svg11.dtd">
<svg width="100%" height="100%" viewBox="0 0 14100 14100" version="1.1" xmlns="http://www.w3.org/2000/svg" xmlns:xlink="http://www.w3.org/1999/xlink" xml:space="preserve" xmlns:serif="http://www.serif.com/" style="fill-rule:evenodd;clip-rule:evenodd;stroke-linejoin:round;stroke-miterlimit:2;">
    <g id="Silhouette" transform="matrix(2.25331,0,0,2.25331,-3977.24,-4442.23)">
        <path d="M2822.28,4524.6C2815.8,4660.11 2806.37,4788.79 2782.91,4916.76C2840.1,4867.46 2910.72,4831.4 2987.73,4801.66L3023.39,4948.86L3063.04,4984.23L3003.79,5056.77C3013.64,5488.37 3011.5,5938.75 2986.62,6351.07C3022.98,6392.49 3022.37,6390.55 2984.48,6426.19C2967.37,6663.33 2952.94,6887.84 2907.34,7100.67C3084.34,7164.48 3271.47,7244.35 3429.84,7367.77C3480.75,7327.65 3525.16,7319.33 3545.99,7426.56C3708.31,7487.23 3872.07,7551.84 4055.96,7671.55C4114.2,7664.63 4147.69,7680.93 4145.02,7731.17C4346.05,7831.24 4547.01,7945.4 4747.53,8148.25C4962.39,7993.51 5183.63,7843.4 5469.46,7740.26C5454.43,7687.67 5472.81,7659.67 5554.74,7678.44C5852.86,7502.33 6155.47,7285.22 6433.64,7291.05L6645.35,7194.37C6602.62,7112.47 6588.68,7009.65 6588.55,6896.79C6623.73,6844.58 6614.64,6759.81 6583.8,6659.05L6595.95,6490.81C6536.71,6482.19 6532.02,6440.77 6603.3,6353.7C6584.07,5786.52 6590.58,5211.24 6629.88,4625.62C6698.9,4654.2 6768.79,4700.58 6846.95,4740.17C6899.25,4536.13 6836.16,4570.74 6849.3,4504.54C6879.21,4353.95 6911.97,4228.24 7000.52,4073.78L6973.45,4016.3C7085.17,3849.93 7096.65,3680.78 7259.31,3577.83L6957.36,3367.01L6883.83,3391.71L6870.36,3334.43L6716.09,3276.4L6763.89,3041.55C6751.44,2993.26 6738.28,2981.37 6794.17,2983.42C6838.52,2853.49 6884.3,2724.21 6945.8,2602.18C6686.05,2664.64 6410.58,2670.89 6168.04,2611.59L6136.34,2658.91C6077.83,2574.76 5984.16,2579.18 5930.33,2646.23L5929.15,2589.95C5760.27,2568.31 5597.26,2555.47 5478.01,2511.45C5469.4,2478.72 5491.9,2475 5551.93,2506.33C5582.08,2450.98 5627.51,2390.83 5678.42,2328.96C5611.65,2278.41 5529.47,2235.8 5435.4,2199.33L5385.95,2267.03L5346,2257.47L5359.92,2198.23L5142.72,2129.7L5104.23,2192.99L5038.25,2181.97L5039.67,2117.69L4922.21,2096.75L4881.98,2052.04L4832,2110.41L4687.33,2109.21L4677.22,2175.5L4599.19,2179.24L4591.53,2126.46L4350.43,2161.45L4349.71,2210.35L4292.83,2220.35L4263.94,2154.19C4156.32,2184.49 4058.76,2226.1 3966.68,2273.88L4092.38,2453.77L4154.22,2430.92L4176.21,2463.91C4051.12,2527.75 3863.43,2521.73 3659.13,2505.74L3661.61,2580.39L3607.8,2535.08C3316.47,2559.49 3060.14,2531.76 2832.3,2461.59C2869.09,2599.46 2901.87,2736.44 2912.6,2868.51L2949.76,2895.19C2934.24,2925.66 2924.85,2964.31 2930.06,3022.49L2792.82,3066.11L2812.76,3239.97C2663.43,3323.84 2521.39,3403.68 2528.51,3537.39L2641.09,3627.72C2668.3,3752.3 2713.05,3827.93 2774.59,3905.95C2774.59,3905.95 2778.54,3901.74 2774.59,3905.95C2698.02,3987.42 2678.33,4121.22 2694.93,4306.07C2703.4,4400.35 2777.45,4517.4 2822.28,4524.6ZM2830.43,4389.44C2810.44,4361.27 2797.92,4310.87 2793.58,4263.75C2785.61,4177.29 2796.3,4096.77 2821.35,4036.06C2828.66,4152.74 2831.62,4276.54 2830.43,4389.44Z"/>
    </g>
    <g id="Yellow" transform="matrix(2.25331,0,0,2.25331,-3977.24,-4442.23)">
        <path d="M7019.96,3838.12C7070.08,3774.19 6996.8,3739.29 6948.53,3700.53L7070.14,3747.26C7079.89,3685.61 6902.89,3607.7 6739.89,3488.31C6987.28,3589.3 7116.7,3750.14 7119.81,3650.12C7065.42,3592.6 6985.67,3532.83 6908.55,3473.29C7005.92,3523.05 7088.73,3568.22 7163.43,3610.83L7209.15,3575.46C7131.57,3515.71 7047.45,3457.62 6955.87,3401.43C6913.1,3404.15 6886.37,3417.2 6868.09,3435.67L6842.9,3369.56C6633.18,3262.61 6412.74,3179.94 6187.27,3108.71C5882.63,3020.3 5565.45,2956.32 5234.07,2920C4957.92,2894.26 4679.31,2877.3 4390.13,2897.94L4320.96,2969.71L4282.78,2910.53C3990.03,2933.81 3696.37,2956.88 3711.43,3047.51L3836.72,3031.65C3697.53,3080.13 3630.35,3118.55 3763.72,3128.92C3688.41,3135.33 3679.01,3189.11 3683.98,3238.52C3688.65,3284.93 3704.21,3327.88 3743.93,3311.46C3690.28,3361.1 3682.03,3394.39 3745.17,3401.97C3681.59,3415.49 3681.7,3499.43 3690.18,3592.64L3759.57,3598.12C3691.25,3621.14 3682,3633.09 3765.18,3638.55C3664.51,3687.27 3639.53,3727.3 3750.33,3751.72C3663.67,3806.98 3672.1,3898.24 3691.63,4028.32L3827.64,4016.98C3761.02,4041.51 3676.57,4062.17 3698.08,4105.9C3720.87,4095.44 3747.38,4092.45 3776.96,4095.65C3725.47,4114.27 3683.09,4135.36 3704.37,4173.75C3730.26,4157.66 3759.95,4155.51 3792.55,4164.12C3739.06,4179.44 3697.87,4202.81 3701.35,4255.47L3867.12,4212.95C3879.36,4186.63 3901.65,4186.61 3953.11,4195.29C4010.93,4168.52 4084.19,4151.54 4137.89,4153.17L4144.98,4092.2C4287.57,4120.06 4409.94,4086.81 4516.73,4006.41C4425.29,3998.96 4327.87,4028.34 4218.84,4044.61C4225.36,4038.43 4364.2,3972.54 4562.35,3986.55C4747.36,3961.11 4911.81,3936.42 5066.44,4001.98C5211.15,4087.24 5329.77,4128.02 5485.47,4141.15C5567.95,4148.11 5830.22,4215.99 5959.77,4287.15C6017.32,4260.57 6028.89,4239.29 6054.04,4324.56C6172.51,4348.82 6503.71,4481.87 6813.7,4659.29C6829.23,4597.43 6805.99,4549.99 6734.63,4515.6C6471.99,4382.53 6192.54,4262.09 5904.65,4147.99C6160.45,4205.27 6390.06,4317.97 6821.15,4520.16C6810.69,4476.36 6813.62,4430.09 6837.65,4379.95C6794.98,4334.81 6728.71,4302.64 6653.97,4275.14C6714.06,4283.52 6778.55,4299.16 6860.06,4342.79C6887.71,4284.53 6887.91,4231.48 6841.56,4187.29C6917.25,4204.49 6923.39,4157.01 6866.73,4074.08C6965.57,4116 6961.16,4069.42 6877.07,3954.54C6985.72,3999.95 6993.47,3965.09 6932.19,3875.29C7020.23,3910.87 7025.66,3890.9 6940.34,3809.94C6976.46,3828.19 7006.03,3840.39 7019.96,3838.12ZM2818.36,3759.11L2755.68,3755.14C2789.72,3742.32 2825.76,3741 2818.71,3702.8L2737.16,3715.73C2780.76,3690.33 2820.13,3666.26 2814.69,3599.1C2774.72,3611.84 2736.73,3631.41 2700.09,3655.65C2754.02,3593.5 2833.91,3566.24 2813.32,3504.05L2674.16,3566.53C2763.15,3486.85 2847.9,3456.09 2809.01,3401.64C2746.45,3417.99 2691.25,3449.29 2641.94,3492.54C2683.74,3428.76 2742.87,3385.25 2815.48,3357.53L2813.99,3281.26C2697.22,3348.1 2578.41,3420.92 2560.3,3505.91C2618.51,3535.79 2658.92,3581.53 2671.35,3652.22C2690.32,3709.02 2743.21,3841.69 2808,3899.95C2828.02,3895.73 2828.56,3877.1 2821.34,3835.23L2789.65,3829.23C2808.53,3815.28 2820.76,3794.59 2818.36,3759.11Z" style="fill:rgb(225,193,43);"/>
    </g>
    <g id="Blue" transform="matrix(2.25331,0,0,2.25331,-3977.24,-4442.23)">
        <path d="M5630.45,2341.17C5570.76,2305.75 5514.56,2270.46 5445.4,2250.36L5396.62,2302.44L5311.05,2275.16L5328.94,2223.21C5274.58,2201.76 5218.31,2182.81 5157.17,2170.26L5120.26,2222.63L5019,2208.38L5008.87,2150.2L4933.39,2135.89L4989.15,2304.62C5177.1,2339.45 5363.15,2390.06 5547.13,2457.72L5630.45,2341.17ZM4969.83,2337.13L5030.52,2341.49L5035.8,2370.39L4985.51,2364.81L4969.83,2337.13ZM5144.1,2361.97L5271.12,2388.45L5254.69,2451.71L5127.41,2412.6L5144.1,2361.97ZM5353.14,2422.61L5459.47,2462.71L5443.89,2502.79C5411.07,2502.07 5383.02,2495.43 5341.23,2475.11L5353.14,2422.61ZM4407.15,2358.67L4551.88,2339.79L4565.91,2389.35L4429.66,2426.37C4414.78,2408.67 4407.72,2385.81 4407.15,2358.67ZM4303.98,2389.07C4297.24,2414.13 4302.37,2431.05 4319.37,2439.84L4226.24,2460.47C4203.82,2454.48 4194.58,2440.74 4194.37,2421.68C4224.07,2403.13 4260.97,2392.66 4303.98,2389.07ZM4741.23,2320.37L4660.92,2325.51L4666.31,2366.58L4744.33,2360.98L4741.23,2320.37ZM4819.65,2141.28L4712.04,2138.21L4706.42,2192.88L4581.13,2211.33L4572.19,2161.95L4389.13,2191.57L4379.38,2231.04L4273.56,2254.59L4241.76,2196.15L4023.78,2282.79L4110.6,2413.01C4306.22,2346.78 4511.64,2303.64 4738.63,2301.2L4819.65,2141.28ZM4264.07,2834.08L4215.25,2866.76L4278.43,2861.61C4323.02,2914.13 4327.61,2921.73 4377.59,2857.28C4440.35,2860.24 4504.2,2857.15 4568.69,2850.49C4645.75,2825.51 4729.49,2800.92 4806.23,2766.64L4817.73,2718.1C4824.36,2660.28 4764.92,2699.14 4711.6,2722.48C4578.15,2772.61 4431.82,2812.15 4264.07,2834.08ZM4888.2,2702.37C5013.38,2752.15 5140.51,2792.79 5270.08,2821.99C5316,2832.34 5361.4,2862.12 5386.07,2904.78C5250.87,2891.06 5134.3,2866.52 5005.19,2831.57C4934.67,2812.48 4862.16,2759.26 4888.2,2702.37Z" style="fill:rgb(94,139,148);"/>
    </g>
    <g id="White" transform="matrix(2.25331,0,0,2.25331,-3977.24,-4442.23)">
        <path d="M5797.38,4564.03C5808.21,4603.62 5813.66,4647.72 5811.43,4698.25C5853.54,4655.69 5871.68,4548.47 5797.38,4564.03ZM5955.43,4669.02C5959.18,4621.08 5962.75,4583.09 5941.26,4554.06C5942.65,4517.62 6008.9,4533.87 6001.86,4563.05C5991.46,4606.11 5978.48,4637.5 5955.43,4669.02Z" style="fill:white;"/>
    </g>
    <g id="Light-Yellow" serif:id="Light Yellow" transform="matrix(2.25331,0,0,2.25331,-3977.24,-4442.23)">
        <path d="M5943.06,6206.86L5901.01,6155.19C5884.76,6087.5 5859.76,6025.38 5852.2,5972.32L5990.74,5852.78L6142.07,6001.46L5943.06,6206.86ZM5867.27,5222.16L6010.97,5390.6L6183.03,5211.08L6046.85,5065L5867.27,5222.16ZM5631.89,5448.05L5785.89,5607.4C5754.19,5644.88 5719.68,5671.69 5688.83,5697.51C5643.91,5649.21 5589.54,5592.54 5533.98,5542.68L5631.89,5448.05ZM5823.29,5611.39L5996.97,5810.53L6173.2,5623.96L6011.52,5432.55L5823.29,5611.39ZM5397.86,7275.4C5488.99,7243.59 5561.94,7205.83 5610.46,7148.69L5493.76,7032.09L5334.15,7214.85L5397.86,7275.4ZM5296.36,7215.67L5227.82,7150.7C5156.76,7178.35 5083.75,7195.98 4996.04,7216.26L5148.35,7366.51L5296.36,7215.67ZM4771.6,7419.07L4903.59,7540.68L4764.65,7642.8L4633.74,7555.43L4771.6,7419.07ZM4649.21,7219.9C4741.29,7229 4829.12,7231.32 4915.4,7229.2L4767.9,7374.19L4649.21,7219.9ZM3574.04,5420.84L3605.06,5451.73C3566,5526.32 3530.07,5601.11 3513.23,5677.21L3402.82,5565.43L3574.04,5420.84ZM5215.91,6709.19L5158.91,6646.97L4970.65,6824.68C5059.71,6806.79 5143.85,6771.94 5215.91,6709.19ZM4065.01,7013.09L3918.74,7141.93C3999.78,7183.86 4065.02,7234.59 4135.51,7268.21L4213.98,7174.06C4152.14,7120.46 4117.74,7069.9 4065.01,7013.09ZM4609.05,6437.39L4799.23,6263.08L4960.13,6436.65L4774.41,6613.64L4609.05,6437.39ZM4776.19,6647.55L4935.19,6821.69C4834.35,6835.6 4736.64,6840.7 4643.85,6807.85L4776.19,6647.55ZM3554.36,6155.18L3663.25,6060.95C3591.03,6004.56 3552.73,5938.68 3530.85,5854.39L3399.83,5972.17C3443.16,6039.64 3486.54,6107.07 3554.36,6155.18ZM3580.61,5379.27L3695.9,5262.84C3682.77,5213.76 3671.82,5182.59 3678.27,5140.59L3576.23,5033.91L3378.36,5185.52L3580.61,5379.27ZM4784.33,4618.12L4655.67,4752.27L4796.19,4888.09L4917.93,4766.88L4784.33,4618.12ZM4654.77,4437.39L4786.11,4589.49L4973.95,4413.17C4868.9,4383.37 4759.62,4380.72 4654.77,4437.39ZM4107.54,4192.97L4189.26,4274.23C4216.68,4230.53 4264.76,4185.57 4306.09,4147.57C4267.7,4147.6 4229.98,4152.29 4185.4,4145.63L4173.03,4193.44L4107.54,4192.97ZM5459.27,4266.67C5430.15,4235.16 5395.45,4199.68 5360.07,4172.62C5414.29,4172.19 5470.44,4175.76 5519.38,4193.07C5503.5,4214.63 5482.75,4245.71 5459.27,4266.67ZM4425.68,7400.44L4500.58,7480.03C4441.38,7478.12 4392.53,7426.15 4425.68,7400.44ZM5015.18,4420.62C5077.87,4426.33 5123.19,4452.82 5168.83,4520.91L5116.3,4569.78L4986.83,4440.98L5015.18,4420.62ZM4255.89,7180L4320.96,7113.71C4398.46,7159.64 4476.22,7190.12 4560.72,7206.87L4423.07,7359.46L4255.89,7180Z" style="fill:rgb(228,201,73);"/>
    </g>
    <g id="Grey" transform="matrix(2.25331,0,0,2.25331,-3977.24,-4442.23)">
        <path d="M4964.15,2407.68C5257.69,2500.08 5567.23,2575.96 5886.56,2641.75L5910.86,2701.48C5976.69,2649.5 6093.3,2619.43 6128.29,2718.1L6193.57,2669.19C6406.82,2696.18 6625.77,2706.38 6862.15,2665.15L6769.5,2945.44L6722.61,2976.51L6730.1,3046.35L6689.16,3236.71L6561.49,3182.22L6625.79,3150.89C6643.15,3045.44 6687.93,2935.04 6752.91,2821C6734.18,2809.26 6736.03,2785.76 6758.47,2750.51C6631.91,2728.59 6535.56,2714.66 6409.47,2712.75C6325.47,2711.48 6227.32,2740.04 6166.58,2780.77L5953.56,2756.76C5925.04,2768.8 5904.52,2767.88 5858.9,2742.06L5573.76,2678.59L5528.96,2621.67L5386.35,2610.86C5246.98,2543.33 5104.19,2486.75 4955.11,2450.25L4964.15,2407.68ZM6491.08,5002.87C6474.63,5023.62 6508.43,5080.92 6534.11,5125.79C6543.18,5253.88 6518.96,5366.25 6489.2,5476.02L6492.11,5981.53C6494.91,6079.98 6516.97,6153.72 6534.28,6235.7C6434.19,6413.09 6466.17,6629.98 6469.4,6798.39C6466.47,6889.28 6483.33,6918.64 6522.03,6976.26C6485.34,7036.66 6480.64,7089.18 6497.84,7136.3C6416.35,7154.91 6362.69,7192.69 6317.94,7236.59C6196.35,7223.77 6064.32,7269.62 5933.48,7348.43C5744.97,7461.97 5561.95,7560.34 5385.65,7640.06C5301.31,7704.93 5203.33,7761.18 5079.44,7801.06L4747.56,8060.4C4627.13,7933.35 4489.2,7898.54 4433.92,7761.63C4194.3,7605.2 4075.24,7579.15 3994.02,7594.02C3842.7,7481.39 3688.14,7388.51 3531.92,7305.8C3429.95,7191.06 3312.01,7135.53 3180.86,7129.06C3136.27,7065.75 3082.86,7033.54 3028.85,7003.44C3040.62,6943.6 3030.49,6877.87 3005.39,6808.1C3069.7,6645.8 3105.8,6487.38 3110.36,6333.29C3082.06,6279.59 3046.47,6126.9 3063.95,6081.35C3143.3,5874.57 3119.23,5668.48 3106.81,5454.86C3098.01,5303.61 3063.13,5164.95 3080.63,5040.58C3129.32,4964.82 3127.57,4938.5 3102.04,4911.78L3085.12,4741.08L3029.8,4773.99L3047.76,4923.12C3124.13,4978.77 3102.18,4978.14 3040.61,5062.67C3026.76,5506.89 3023.43,5924.06 3024.58,6319.87C3045.3,6374.03 3061.19,6424.49 3020.5,6453.56C2991.85,6675.26 2975.5,6880.05 2963.49,7081.15C3148.14,7151.75 3270.63,7217.5 3420.86,7325.07C3504.48,7312.23 3526.49,7297.01 3572,7402.01C3741.39,7476.88 3903.36,7561.22 4057.95,7648.85C4151.28,7643.84 4167.88,7650.98 4172.69,7720.41C4401.9,7836.31 4587.07,7971.23 4762.07,8108.4C4994.87,7937.32 5207.95,7812.18 5428.11,7723.48C5431.1,7642.48 5473.09,7624.18 5543.58,7651.72C5704.6,7535.86 5902.97,7444.7 6063.55,7359.53C6201.9,7286.15 6233.02,7267.86 6421.26,7266.13C6460.64,7222.09 6545.71,7198.17 6605.46,7180.93C6539.11,6992.96 6545.15,6748.17 6565.09,6502.99C6516.64,6489.23 6498.94,6456.04 6560.86,6312.64C6550.67,5731.55 6559.61,5168.74 6574.98,4596.2C6504.74,4691.51 6463.26,4800.29 6519.5,4906.13C6529.73,4946.62 6518.4,4984.47 6491.08,5002.87ZM3308.59,4783.29C3309.25,5280.76 3346.56,4926.12 3345.34,4659.17C3311.98,4633.2 3311.8,4718.08 3308.59,4783.29ZM3283.12,5425.89C3350.42,5525.86 3334.33,5669.02 3291.59,5825.96C3317.41,5843.04 3316.85,5883.51 3292.07,5932.63C3319.66,5941.68 3322.26,5992.73 3334.51,6032.96L3342.1,5740.8C3346.84,5497.8 3348.72,5265.18 3337.53,5079.98C3292,5121.46 3279.42,5185.85 3293.18,5268.57C3300.02,5309.63 3298.68,5373.85 3283.12,5425.89ZM6248.07,6962.75C6251.82,6901.11 6240.87,6840.04 6272.94,6821.37C6272.24,6701.82 6274.26,6580.4 6282.11,6454.96C6278.78,6423.58 6308.42,6397.34 6296.67,6373.49C6281.79,6343.26 6273.74,6324.41 6278.15,6291.53C6284.08,6247.26 6285.37,6204.83 6269.8,6169.1C6245.57,6043.97 6248.26,5865.81 6267.17,5736.27C6293.88,5553.28 6300.35,5384.18 6309,5213.57C6245.25,5134.58 6271.05,4886.47 6288.62,4653.88C6292.42,4565.93 6293.63,4484.93 6275.23,4456.76C6255.14,4464.1 6234.46,4481.44 6235.86,4525.05L6221.94,6155.18C6223.1,6397.1 6225.64,6641.78 6235.02,6882.6L5914.1,7045.16C5818.04,7097.88 5721.38,7156.55 5627.89,7183.46L5555.77,7251.77C5410.42,7286.23 5269.22,7390.74 5121.62,7474.33C5001.63,7538.33 4878.35,7597.53 4761.13,7688.63C4692.52,7626.04 4604.83,7570.5 4519.63,7518.06C4428.78,7517.6 4429.48,7515.24 4393.6,7455.28C4010.14,7233.51 3680.29,7053.96 3357.04,6883.9C3370.62,6671.84 3349.28,6500.77 3344.02,6325.35L3325.08,6335.92C3340.49,6237.04 3339.72,6148.61 3334.41,6063.12C3251.66,6129.65 3276.47,6210.91 3280.83,6362.95C3255.21,6401.08 3253.15,6408.93 3286.88,6438.43C3299.82,6568.08 3290.99,6712.86 3271.72,6864.89C3455.09,6977.78 3652.1,7098.47 3836.69,7212.56C3849.62,7270.11 3831.81,7264.32 3918.11,7264.32C3977.19,7299.22 4029.09,7328.51 4108.09,7352.93C4182.79,7376.02 4263.18,7432.5 4323.89,7493.21C4364.72,7534.05 4466.33,7589.32 4547.33,7639.29L4771.43,7782.35C4811.27,7710.24 4910.05,7678.55 4993.37,7636.41C5040.71,7612.48 5078.61,7582.2 5116.91,7544.01C5206.24,7454.92 5286.48,7385.77 5388.43,7365.27C5425.24,7357.87 5463.72,7375.24 5508.14,7335.15C5539.64,7306.72 5589.6,7282.88 5645.34,7281.92C5707.77,7216.48 5762.87,7182.35 5825.43,7181.16C5855.77,7180.59 5909.94,7129.22 5953.63,7073.31C6004.05,7008.78 6125.75,6982.05 6248.07,6962.75ZM3259.22,2633.22C3393.81,2654.84 3521.29,2671.55 3616.33,2665.85L3957.8,2651.42C4059.95,2597.55 4233.01,2532.15 4359.78,2505.19C4449.48,2486.11 4538.4,2472.48 4624.74,2457.4C4714.48,2449.88 4774.99,2437.4 4746.54,2398.91C4363.85,2464.48 4023.98,2574.96 3702.75,2552.71L3685.16,2630.46L3590.54,2573.11C3322.12,2599.76 3095.73,2561.79 2873.71,2517.1C2894.71,2629.03 2922.23,2739.52 2944.01,2849.57L2982.24,2885.74C2956.64,2933.05 2944.36,2974.81 2973.73,2999.18L3054.56,2974.71L2948.66,2677.89L2975.27,2653.65L2957.94,2591.32C3034.21,2611.09 3165.79,2618.22 3259.22,2633.22ZM4982.53,2847.13C4949.38,2854.57 4907.18,2848.29 4875.74,2846.05C4865.56,2822.48 4868.51,2801.07 4877.42,2780.65C4911.84,2808.18 4955.17,2836.21 4982.53,2847.13ZM4639.78,2573.28L4781.9,2568.48C4778.15,2540.44 4780.9,2516.78 4769.03,2496.25C4726.23,2526.27 4683.62,2552.1 4639.78,2573.28ZM4905.91,2579.26C4943.89,2567.78 4988.22,2562.82 5037.92,2563.37C4912.45,2480.95 4920.81,2539.42 4905.91,2579.26ZM4832.88,2793.16L4829.06,2847.7C4775.63,2848.86 4724.46,2847.36 4674.16,2844.84C4715.24,2824.61 4772.85,2806.86 4832.88,2793.16Z" style="fill:rgb(165,165,165);"/>
    </g>
    <g id="Purple" transform="matrix(2.25331,0,0,2.25331,-3977.24,-4442.23)">
        <path d="M3807.25,7324.44L3858.73,7386.69L3959.42,7406.21L3874.85,7414.29C3881.57,7489.12 3967.43,7502.04 4062.8,7507.51L3941.77,7510.99C3970.58,7582.49 4044.8,7568.73 4204.53,7595.6L4480.74,7626.89C4397.6,7588.62 4296.27,7561.47 4175.88,7545.97C4220.74,7539.41 4282.53,7538.51 4343.79,7546.95C4257.08,7474.82 4205.26,7432.91 4141.11,7395.22C4035.82,7375.15 3929.04,7354.21 3807.25,7324.44ZM6313.14,4644.26C6298.95,4749.6 6337.93,4871.99 6401.58,5002.29L6310.56,4851.55C6291.38,4926.14 6312.14,4999.06 6364.84,5070.64L6302.2,5013.67C6282.73,5077.98 6305.71,5151.22 6342.09,5228.64L6446.64,5542.82C6492.11,5467.36 6441.91,5347.21 6405.11,5233.32L6484.91,5409.88C6522.11,5369.36 6494.29,5263.04 6446.44,5136.44C6470.4,5160.5 6492.86,5193.57 6513.39,5238.33C6535.61,5181.37 6493.44,5093.05 6447.04,4996.13C6400.11,4893.04 6355.4,4776.2 6313.14,4644.26ZM6405.35,5566.74C6425.4,5611.81 6429.32,5657.76 6388.28,5706.16C6384.55,5662.59 6389.63,5616.31 6405.35,5566.74ZM6354.39,5686.97C6350.27,5731.72 6409.76,5925.69 6455.68,6033.94C6488.49,6147.95 6534.9,6244.14 6487.51,6280.08C6468.24,6225.97 6442.97,6165.91 6416.38,6104.55C6440.1,6250.49 6492.72,6360.52 6430.78,6368.59C6418.39,6315.51 6399.69,6278.59 6377.98,6249.36C6411.29,6356.92 6434.84,6455.11 6377.4,6475.36C6319.19,6264.22 6261.81,6054.58 6279.16,5979.02L6359,6130.22C6299.79,5980.6 6273.86,5856.69 6283.45,5760.2C6317.62,5848.15 6351.3,5927.61 6383.92,5988.37L6321.52,5757.26C6293.14,5619.48 6297.14,5502.91 6381.05,5438.69C6403.02,5496.14 6363.69,5586.07 6354.39,5686.97ZM6456.77,7034.3C6522.73,6991.14 6439.59,6910 6402.57,6819.75C6379.88,6764.41 6371.04,6653.8 6371.36,6562.19C6282.51,6623.51 6387.61,6817.69 6354,6877.36C6355.83,6817.24 6351.44,6767.6 6307.38,6733.27C6284.95,6797.3 6311.21,6875.9 6330.85,6964.16L6280.43,6867.15C6246.58,6980.76 6268.46,7083.52 6329.77,7191.05C6369.97,7176.01 6350.06,7105.47 6333.38,7048.13L6352.97,7078.48C6361.42,7086.88 6371.61,7103.71 6382.59,7124.38C6480.05,7072.01 6410.62,7044.98 6388.99,6957.89C6409.8,6993.68 6431.69,7023.26 6456.77,7034.3ZM3226.04,4691.51C3195.96,4844.39 3153.29,4960.23 3102,5050.7L3098.15,5178.92C3133.76,5113.11 3159.24,5032.44 3181.86,4959.11C3185.81,5016.39 3170.57,5093.66 3113.12,5214.91C3111.5,5273.22 3120.03,5335.35 3131.57,5398.62C3142.54,5320.83 3155.13,5244.51 3180.1,5179.31C3127.19,5417.15 3159.86,5566.5 3234.55,5672.41C3252.2,5697.45 3253.49,5652.86 3208.09,5542.51C3180.58,5425.96 3171.28,5307.46 3209.42,5183.86L3210.97,5300.27C3223.85,5234.31 3231.69,5163.21 3278.23,5100.16C3309.34,5058.02 3310.14,4996.29 3285.12,4961.77C3268.93,5008.97 3247.12,5051.06 3224.91,5092.78C3251.38,5023.09 3277.21,4958.2 3270.71,4896.45L3247.05,4934.35C3283.87,4849.34 3301.15,4766.91 3288.81,4688.38C3287.08,4745.9 3254.36,4812.3 3223.93,4850.75C3241.99,4791.03 3265.92,4737.1 3256.97,4690L3226.04,4691.51ZM3267.88,5608.59C3224.54,5554.08 3205.47,5484.73 3224.59,5392.03C3275.51,5436.21 3297.27,5491.58 3299.08,5554.62C3281.65,5536.85 3265.44,5517.12 3253.62,5490.24C3235.14,5507.27 3282.66,5566.79 3267.88,5608.59ZM3137.8,5961.95C3032.22,6126.53 3123.57,6282.73 3185.69,6440.18C3167.46,6206.61 3229.34,6207.67 3268.43,6088.39C3310.85,5958.93 3305.29,5937.3 3232.98,6033.47C3244.59,5959.98 3315.66,5841.58 3258.06,5862.3L3187.97,5952.05C3264.31,5810.77 3320.43,5673.71 3300.36,5593.14C3257.77,5701.67 3195.52,5837.08 3137.8,5961.95ZM3124.07,6704.06C3137.3,6785.44 3047.28,6994.28 3113.68,6975.03C3129.64,6970.4 3136.89,6871.91 3173.34,6828.18C3119.31,6986.66 3168.39,7091.95 3178.58,7052.38C3225.04,6871.99 3253.22,6709.21 3207.62,6617.54C3205.94,6645.5 3194.93,6682.91 3182.37,6721.9C3182.73,6607.55 3184.52,6489.9 3168.18,6413.93L3146.51,6593.69L3151.84,6398.77L3134.94,6380.2C3117.69,6512.61 3089.66,6644.35 3047.59,6784.67C3026.45,6855.17 3092.26,6986.01 3124.07,6704.06ZM3678.23,7203.72C3758.41,7283.25 3807.43,7372.33 3854.22,7462.09C3730.6,7381.41 3645.18,7279.01 3573.6,7168.76C3606.32,7225.23 3645.61,7289.6 3689.96,7360.07L3561.71,7293.53C3457.02,7176.12 3340.43,7094.96 3200.19,7094.41L3215.37,7010.65C3265.42,7055.23 3349.35,7086.19 3432.54,7117.45C3356.28,7073.73 3278.37,7030.92 3223.19,6975.67L3231.49,6945.84C3275.8,6982.43 3355.1,7013.57 3429.25,7042.67C3363.27,7004.57 3286.98,6960.95 3237.61,6917.31L3246.73,6891.37C3375.49,6945.53 3515.72,7037.7 3678.23,7203.72ZM4422.5,7679.57C4449.66,7765.72 4488.83,7832.76 4556.7,7854.14C4544.26,7814.58 4526.01,7777.19 4494.98,7744.54C4537.38,7741.95 4603.03,7902.36 4675.65,7956.52C4686.62,7920.34 4653.55,7861.77 4594.49,7789.99C4633.98,7816.42 4675.44,7853.12 4738.61,8002.92C4768.94,8074.84 4796.94,8004.51 4711.33,7859.15C4645.86,7747.96 4542.57,7678 4422.5,7679.57ZM4809.26,7981.71L4767.25,7859.98C4839.08,7786.83 4909.74,7729.91 4979.24,7689.23C4917.02,7742.02 4872.56,7805.37 4837.99,7874.61C4907.48,7786.6 4980.95,7701.47 5101.2,7650.15C5058.63,7742.78 4998.54,7834.15 4890.03,7921.99L4913.96,7849.31C4880.21,7888.87 4845.34,7932.88 4809.26,7981.71ZM5394.81,7599.8C5485.42,7580.23 5536.92,7562.57 5564.06,7525.41C5460.5,7541.14 5345.19,7541.07 5310.93,7530.05C5527.82,7525.03 5643.68,7493.38 5652.1,7438.48C5534.5,7450.19 5447.01,7450.39 5380.56,7442.54C5614.09,7423.65 5691.8,7411.59 5702,7351.11C5640.03,7375.17 5554.68,7384.55 5462.13,7389.4C5350.07,7397.37 5287.24,7427.08 5251.84,7468.9L5292.69,7475.88C5227.51,7496.46 5174.31,7517.99 5145.6,7555.95L5196.55,7564.42C5118.96,7574.16 5061.22,7610.37 5013.51,7659.97C5096.47,7622.46 5233.58,7606.36 5394.81,7599.8ZM5894.27,7175.76C5814.73,7275.9 5726.48,7385.94 5670.03,7478.69C5933.81,7298.08 6139.08,7212.62 6295.27,7201.92L6271.3,7153.29C6063.19,7175.56 5935.45,7241.38 5819.6,7306.46C5928.36,7225.55 6039.16,7179.93 6198.59,7143.98C6280.09,7136.67 6281.3,7098.7 6248.78,7078.26C6159.12,7087.96 6070.64,7105.1 5986.41,7149.24C6008.53,7122 6071.24,7086.28 6114.58,7081.22C6224.56,7068.37 6285.1,7037.99 6227.31,6984.44C6076.12,7003.4 5956.32,7056.44 5894.27,7175.76ZM5287.96,2761.2C5368.32,2867.63 5479.84,2939.08 5548.19,2921.65C5497.21,2890.62 5472.37,2854.08 5446.01,2817.86C5631.63,2985.11 5782.52,2971.48 5917.61,2875.62C5693.12,2817.63 5585.01,2736.64 5515.91,2647.95C5465.78,2632.9 5422.94,2629.24 5380.17,2625.67C5454.14,2695.41 5516.54,2768.66 5568.81,2840.34C5364.8,2615.94 5244.69,2545.93 5158.57,2538.45C5262.38,2620.35 5315.81,2672.08 5347.28,2718.83C5191.89,2567.1 5069.97,2500.51 4965.26,2477.74C5092.75,2566.04 5194.51,2637.44 5287.96,2761.2ZM5707.56,2755.78C5715.93,2732.69 5758.67,2751.72 5744.42,2769.55C5730.38,2787.1 5701.98,2771.16 5707.56,2755.78ZM5881.89,2986.37C5916.17,2974.42 5945.19,2960.62 5955.15,2940.09C5875.7,2962.87 5832.88,2965.18 5800.92,2961.41C5940.26,2916.53 6048.26,2876.07 6185.7,2791C6300.07,2720.22 6505.03,2688.93 6718.73,2824.21L6690.73,2879.84C6586.84,2832.08 6481.65,2816.99 6375.9,2815.7C6483.81,2837.37 6595.69,2855.2 6675.85,2903.74L6643.89,2991.49C6529.59,2879.08 6305.93,2874.78 6030.17,2921.99C6233.41,2917.44 6526.3,2861.6 6630.86,3021.09C6620.07,3060.34 6610.26,3098.54 6614.88,3121.25L6512.98,3168.18C6362.22,3181.32 6428.82,3091.35 6564.93,3080.2C6493.82,2993.02 6372.29,2956.89 6187.67,2984.58C6079.78,3005.11 5975.57,3013.33 5881.89,2986.37ZM4835.32,2710.17L4857.47,2707.32C4863.23,2510.35 4868.74,2313.35 4867.02,2115.24C4839.94,2180.09 4807.47,2245 4769.06,2309.99L4835.32,2710.17ZM4794.34,2654.89C4674.61,2638.14 4556.34,2670.12 4454.37,2717.06C4476.99,2671.21 4520.89,2624.17 4610.28,2595.91L4793.2,2588.88C4796.94,2611.77 4796.97,2633.68 4794.34,2654.89ZM6491.74,3041.14C6441.48,3012.96 6393.03,3054.47 6347.14,3117.26L6384.5,3129.56C6435.88,3098.28 6502.92,3061.53 6491.74,3041.14ZM6402.69,3008.49C6324.84,3002.05 6276.21,3035.07 6236.27,3079.82C6280.88,3111.66 6400.55,3071.17 6402.69,3008.49ZM6337.95,4652.73L6416.49,4838.63C6442.76,4757.63 6479.88,4682.57 6523.76,4624.22C6562.67,4572.47 6530.09,4549.35 6477.42,4601.4C6462.33,4616.31 6415.78,4745.28 6415.78,4745.28C6415.88,4691.64 6452.21,4630.68 6472.34,4551.67C6485.53,4499.84 6417.08,4540.57 6379.59,4625.95L6404.67,4526.67C6413.77,4482.61 6338.25,4492.84 6337.95,4652.73ZM3270.84,2652.62C3165.38,2630.17 3055.43,2657.76 2993.43,2688.64C2992.99,2723.84 3070.51,2720.29 3153.61,2713.96C3011.92,2757.12 2951.81,2810.59 3119.9,2820.72C3027.14,2867.85 2998.79,2939.55 3199.64,2899.45C3260.35,2882.23 3318.55,2861.72 3372.46,2835.62C3312.45,2822.05 3248.58,2817.48 3182.25,2818.63C3265.69,2800.34 3346.63,2779.8 3478.33,2804.84C3517.88,2770.55 3389.99,2740.72 3221.26,2711.99C3321.41,2715.54 3396.12,2723.7 3531.83,2772.15C3540.7,2705.68 3401.42,2680.43 3270.84,2652.62ZM4344.73,2524.32C4165.48,2590.82 3912.33,2713.92 3739.16,2814.61C3785.52,2885.63 3892.92,2849.06 4019.82,2778.1C4002.88,2805.62 3956.99,2841.12 3900.71,2879.47C4020.76,2902.13 4123.54,2817.25 4251.52,2717.06C4197.36,2776.73 4132.53,2835.72 4061.76,2875.16C4155.54,2886.39 4256.43,2823.69 4371.84,2716.06C4493.86,2633.03 4624.19,2554.69 4758.9,2478.81C4624.65,2468.89 4455.08,2572.41 4297.79,2676.68C4366.88,2607.31 4453.73,2547.66 4559.19,2498.2C4383.92,2515.2 4347.61,2567.26 4116.35,2710.65C4192.71,2647.6 4250.86,2603.81 4344.73,2524.32ZM3695.51,2828.59C3766.78,2868.43 3838.73,2897.53 3911.83,2908.4C3838.73,2979.62 3658.79,2910.27 3695.51,2828.59ZM3685.95,2915.4C3709.89,2933.73 3741.78,2946.43 3771.36,2953.6C3728.07,2981.1 3665.54,2946.49 3685.95,2915.4ZM4897.78,2659.9C4978.56,2644.29 5067.35,2646.11 5164.82,2666.87C5075.31,2541.32 4911.34,2573.58 4897.78,2659.9Z" style="fill:rgb(112,71,122);"/>
    </g>
    <g id="Light-Green" serif:id="Light Green" transform="matrix(2.25331,0,0,2.25331,-3977.24,-4442.23)">
        <path d="M5282.82,4157.57C5215.67,4107.42 5144.48,4066.76 5065.06,4045.44C5061.76,4058.8 5072.67,4075.14 5095.34,4093.95C4926.01,4049.49 4951.5,4100.23 5107.73,4186.46C5064.81,4098.03 5118.66,4087.31 5216.08,4154.27C5224.45,4204.46 5232.94,4244.09 5248.75,4256.95C5256.57,4263.32 5274.95,4273.68 5292.88,4276.58C5305.8,4278.67 5320.55,4286.81 5340.41,4293.82C5326.68,4264.55 5317.63,4237.54 5309.61,4202.66C5301.48,4183.97 5275.79,4175.36 5245.99,4169.1C5255.42,4162.74 5267.69,4158.9 5282.82,4157.57ZM5285.18,4389C5274.86,4355.49 5255.57,4319.84 5233.97,4283.63C5211.72,4242.05 5203.36,4205.19 5198.26,4169.44C5116.3,4109.32 5062.28,4111.44 5172.87,4240.5C5057.66,4165.17 5059.19,4286.1 5285.18,4389ZM5195.94,4452.3L5168.65,4355.56C5112.13,4296.75 5061.32,4285.55 5013.41,4298.44C5045.95,4352.8 5086.53,4399.23 5144.89,4419.32C5160.32,4433.84 5178.25,4441.8 5195.94,4452.3ZM5039.22,4278.35L5004.94,4252.64C4963.56,4220.07 4921.28,4228.3 4879.09,4232.56C4871.15,4258.97 4889.21,4281.84 4917.46,4303.33C4947.3,4312.09 4968.55,4323.79 4977.82,4339.57C5007.91,4372.46 5035.74,4398.2 5051.64,4386.07C5027.82,4353.75 5002.84,4323.33 4993.77,4286.93C5009.33,4280.67 5021.64,4281.73 5039.22,4278.35ZM5093.97,4199.21C5047.03,4177.9 4999.37,4158.94 4949.27,4147.9C4984.64,4205.07 5024.3,4258.4 5096.54,4282.57C5079.25,4249.9 5069.19,4219.38 5093.97,4199.21ZM5001.22,4141.67L4973.37,4118.37C4966.41,4110.15 4944.46,4116.49 4955.67,4125.06C4973.15,4138.41 4985.23,4142.73 5001.22,4141.67ZM5111.41,4421.04C5098.74,4406.54 5079.86,4405.71 5084.81,4417.82C5089.33,4428.9 5107.1,4430.5 5111.41,4421.04ZM5135.39,4446.75L5177.57,4496.38C5155.96,4490.69 5136.29,4465.38 5135.39,4446.75ZM4974.28,4362.6C4962.2,4342.11 4937.44,4325.89 4911.7,4318.27C4888.51,4311.42 4839.41,4231.14 4859.29,4212.92L4717.71,4212.47C4710.77,4251.08 4759.67,4277.48 4843.11,4296.32L4817.25,4302.82C4797.83,4344.46 4885.52,4388.76 4879.01,4321.42C4893.7,4328.34 4898.73,4349.57 4916.72,4360.48C4931.86,4369.66 4954.72,4361.99 4974.28,4362.6ZM4976.05,4214.81C4942.69,4179.89 4922.73,4142.41 4928.97,4121.87C4892.45,4114.1 4861.71,4114.56 4834.43,4119.96C4821.78,4152.25 4854.98,4182.81 4899.54,4212.94C4926.92,4212.33 4951.37,4210.98 4976.05,4214.81ZM4960.41,4103.53L4942.42,4106.33C4865.98,4063.04 4845.23,4029.28 4912.11,4010.51C4965.23,3995.6 5042.46,4008.34 5040.99,4067.28C4995.84,4058.37 4956.39,4056.01 4960.41,4103.53ZM4888.65,4089.76C4846.43,4061.11 4844.26,4032.79 4877.3,4004.77L4705.25,4003.45C4681.05,4012.54 4752.47,4049.51 4818.63,4081.91C4833.92,4089.39 4871.84,4090.96 4888.65,4089.76ZM4841.15,4187.5C4817.58,4134.73 4776.85,4107.99 4695.89,4121.82C4669.72,4141.51 4821.87,4206.09 4841.15,4187.5ZM4751.18,4193.35C4751.18,4203.51 4709.09,4202.6 4690.58,4177.52C4700.18,4157.04 4751.18,4172.17 4751.18,4193.35ZM4794.98,4356.86C4789.45,4338.35 4789.32,4317.93 4793.87,4298.32C4770.38,4291.78 4740.08,4292.14 4708.2,4294.1C4727.42,4342.24 4756.19,4363.59 4794.98,4356.86ZM4728.93,4365.5C4685.88,4383.85 4646.77,4367.41 4611.94,4313.2C4663.2,4289.69 4701.54,4309.3 4728.93,4365.5ZM4642.22,4407C4601.34,4426.22 4570.39,4413.57 4537.43,4347.27C4600.12,4332.56 4638.2,4340.43 4642.22,4407ZM4125.7,4555.62C4160.97,4504.52 4191.3,4448.82 4214.75,4386.7C4186.02,4399.8 4156.53,4403.69 4126.7,4403.4C4122.06,4436.22 4116.07,4474.34 4116.89,4509.65L4098.18,4491.84C4075.72,4551.86 4067.9,4614.29 4073.76,4672.37C4102.63,4751.41 4126.08,4691.87 4168.91,4552.55C4158.91,4680.79 4202.96,4640.81 4265.96,4522.62C4267.98,4567.78 4271.34,4630.46 4282.72,4659.01C4320.64,4754.12 4350.9,4649.58 4353.48,4545.36C4260.49,4627.39 4289.57,4446.58 4311.47,4428.82C4301.81,4475.31 4294.67,4563.46 4321.36,4547.66C4368.99,4519.45 4390.7,4479.32 4409.71,4425.58L4377.18,4421.74C4455.79,4387.22 4540.03,4333.74 4526.9,4324.04C4504.09,4328.4 4482.78,4335.08 4462.69,4332.42C4491.45,4322.79 4519.88,4308.64 4543.77,4311.63C4576.71,4315.75 4609.14,4305.97 4644.01,4282.68C4623.42,4276.38 4606.49,4265.07 4592.23,4250.11C4636.08,4265.54 4678.96,4272.02 4720.21,4263.6C4703.95,4248.33 4696.05,4229.91 4699.78,4207.1C4666.41,4201.8 4634.39,4210.61 4602.56,4221.45C4608.28,4212.75 4617.22,4198.37 4632.19,4190.94C4544.66,4169.36 4529.85,4127.24 4629.08,4090.19C4579.99,4021.26 4498.77,4035.15 4470.65,4084.16C4491.96,4094.6 4532.37,4096.11 4573.38,4097.76C4546.87,4115.9 4512.69,4133.46 4475.91,4150.83C4485.45,4136.84 4495.35,4124.08 4506.37,4115.13C4484.07,4110.01 4464.87,4098.79 4446.59,4090.15C4403,4107.09 4366.62,4137.37 4332.91,4172.62C4360.71,4175.6 4386.56,4175.66 4421.69,4175.87C4435.44,4162.38 4448.24,4172.66 4459.76,4192.71C4416.07,4193.38 4357.03,4191.07 4302.95,4189.58C4236.62,4247.39 4190.68,4311.81 4143.07,4377.41C4210.74,4379.28 4262.27,4355.29 4286.75,4308.26C4268.51,4309.53 4245.28,4304.72 4230.32,4298.81C4298.93,4284.14 4361.64,4264.04 4400.49,4215.61L4425.97,4215.7C4393.16,4237.46 4366.7,4259.21 4373.84,4280.96C4432.18,4297.99 4557.16,4204.01 4499.29,4212.36C4515.92,4197.36 4551.07,4200.99 4589.71,4208.15C4527.9,4235.58 4476.86,4273.02 4438.09,4321.83C4419.83,4251.95 4360.17,4373.02 4340.87,4452.73L4338.83,4388.98C4262.3,4439.85 4208.66,4445.23 4249.61,4373.15L4232.08,4378.25C4211.63,4419.95 4199.19,4457.38 4204.4,4485.4C4174.77,4494.05 4158.8,4517.34 4147.18,4545.31C4140.29,4561.9 4132.95,4560.82 4125.7,4555.62ZM4812.66,4101.61C4778.5,4085.04 4737.1,4059.01 4702.43,4036.28C4601.61,4020.9 4573.67,4039.29 4672.89,4088.1L4812.66,4101.61ZM4342.75,4288.84C4363.63,4293.65 4367.65,4304.04 4373.94,4322.52C4235.36,4480.93 4212.95,4395.93 4342.75,4288.84ZM4474.05,4391.22C4440.83,4423.48 4518.43,4453.46 4579.06,4461.89C4572.38,4416.55 4518.22,4348.32 4474.05,4391.22ZM4548.09,4499.36C4490.46,4497.97 4400.45,4479.56 4422.17,4440.07C4441.34,4405.19 4513.93,4456.28 4548.09,4499.36ZM4379.03,4529.53C4448.57,4563.98 4559.74,4549.64 4499.08,4520.66C4413.41,4479.76 4396.7,4476.05 4379.03,4529.53ZM4368.45,4556.78L4466.19,4566.48C4504.79,4566.48 4516.82,4604.06 4446.33,4609.62L4360.71,4611.69L4368.45,4556.78ZM4447.07,4868.66C4551.05,4847.17 4479.52,4781.6 4435.2,4847.62C4426.23,4833.93 4420.92,4821.22 4431.21,4812.7C4522.7,4824.4 4499.49,4715.19 4381.94,4783.63L4377.83,4745.63L4443.76,4744.54C4501.18,4733.3 4498.57,4677.81 4379.38,4702.04L4369.24,4732.74L4358.75,4682.42C4490.94,4700.91 4531.32,4613.38 4416.73,4626.21C4378.63,4630.47 4355.22,4651.1 4337.04,4688.57C4322.75,4718.05 4303.48,4724.34 4273.14,4681.97C4236.87,4748.39 4231.9,4783.76 4182.62,4745.36C4180.64,4786.12 4185.49,4826.12 4221.6,4862.62C4251.16,4821.75 4264.02,4777.12 4272.73,4731.56C4314.43,4808.29 4369.79,4859.79 4379.38,4808.59C4401.09,4884.55 4335.8,4858.82 4277.35,4778.06C4264.83,4809.22 4252.43,4841.17 4238.99,4865.82C4247.64,4904.12 4282.11,4936.68 4325.36,4961.87C4342.66,4971.95 4316.46,4985.32 4261.78,4930.94C4278.12,5062.92 4256.51,5069.5 4168.87,4966.02L4123.06,4934.41C4146.36,5022.26 4186.62,5089.2 4208.07,5036.36C4227.09,5037.77 4244.81,5057.91 4267.32,5085.04C4290.42,5112.88 4354.62,5151.17 4328.56,5056.76C4322.06,5033.22 4303.19,5010.13 4285.19,4985.57C4386.18,5081.84 4475.42,5112.9 4392.08,4947.28C4466.27,4977.83 4490.18,4995.33 4447.07,4868.66ZM4190.37,4649.15C4210.73,4638.1 4231.24,4609.44 4254.28,4574.67C4274.08,4654.76 4222.94,4766.71 4187.82,4724.01C4185.84,4699.84 4186.84,4674.84 4190.37,4649.15ZM4158.52,4638.39C4125.5,4713.72 4113.71,4772.23 4068.21,4695.75C4070.55,4755.25 4072.67,4814.65 4103.09,4886.16C4225.24,5052.73 4179.03,4816.21 4172.8,4799.22L4150.75,4860.75C4119.72,4835.66 4102.86,4805.6 4093.15,4767.85C4106.87,4791.32 4126.23,4816.92 4142.53,4830.39C4184.12,4736.94 4177.64,4678.19 4158.52,4638.39ZM4191.64,4962.96C4247.83,5043.76 4260.15,5035.66 4243.83,4920.65L4202.71,4869.81C4203.33,4903.8 4204.8,4936.91 4191.64,4962.96ZM4469.9,4888.12C4488.96,4959.61 4501.36,5015.48 4426.09,4979.57C4469.85,5081.03 4440.34,5110.12 4342.93,5057.5C4375.04,5167.81 4306.35,5156.77 4241.39,5073.6C4234.11,5064.28 4218.66,5051.3 4211.5,5057.1C4198.13,5114.85 4228.37,5155.22 4283.63,5185.62C4291.51,5176.52 4295.67,5165.14 4298.14,5152.71C4299.97,5177.51 4302.23,5203.89 4305.05,5232.33C4333.21,5243.1 4364.36,5272.89 4396.22,5307.13C4418.86,5270.67 4379.08,5229.9 4332.81,5188.69C4381.88,5226.11 4415.51,5231.9 4422.98,5184.07C4433.63,5200.7 4438.93,5223.71 4434.6,5258.17C4549.65,5337.91 4607.02,5267.29 4397.24,5117.79C4550.98,5172.94 4530.33,5108.47 4461.78,5036.88C4545.07,5078.19 4547.6,5169.73 4481.57,5164.32C4553.8,5230.06 4683.83,5225.95 4600.7,5138.3C4623.49,5153.6 4646.2,5169.62 4664.76,5224.24C4799.38,5259.14 4793.46,5252.37 4697.67,5126.34C4626.2,5123.11 4556.27,5086.38 4481.99,5017.32C4577.64,5062.05 4614.51,5066.3 4553.19,4967.71C4627.68,4974.03 4564.08,4879 4538.59,4945.44L4518.29,4922.84C4583.33,4892.16 4518.83,4867.91 4469.9,4888.12ZM4592.46,5078C4624.34,5096.1 4646.79,5103.7 4691.66,5107.41C4672.97,5041.59 4633.75,4970.91 4590.06,4975.03C4579.27,4976.05 4589.39,5011.77 4603.97,5037.67C4612.06,5052.03 4609.76,5070.15 4592.46,5078ZM4822.32,5198.64C4917.89,5252.88 5008.71,5234.61 4969.28,5212.09C4877.23,5159.52 4790.28,5100.41 4698.34,5055.07C4716.25,5079.72 4736.53,5106.53 4725.41,5130.49C4718.67,5145 4777.48,5154.34 4845.62,5169.84C4814.48,5172.07 4783.51,5173.54 4752.65,5174.52C4772.86,5201.03 4790.58,5227.98 4798.12,5256.72C4745.43,5276.5 4690.56,5251.73 4635.77,5228.76C4601.76,5225.98 4569.64,5223.09 4538.77,5223.77C4547.26,5250.65 4556,5276.76 4565.52,5300.45C4620.56,5348.88 4761.48,5397.84 4647.56,5277.57C4678.19,5291.27 4701.84,5312.87 4707.51,5360.63C4709.17,5374.61 4661.8,5367.89 4618.86,5352.15C4630.71,5398.09 4788.7,5471.81 4830.31,5425.7C4846.08,5408.21 4801.47,5362.86 4771.21,5330.05C4800.89,5350.29 4829.6,5373.51 4853.88,5410.36C4965.68,5456.34 5027.13,5472.22 4899.48,5331.03C5007.78,5377.86 5115.75,5382.68 5002.39,5283.78C5100.1,5306.89 5170.7,5307.33 5071.11,5250.94C5025.46,5225.09 4977.82,5230.23 4981.43,5262.7C4947.26,5252.12 4912.96,5247.2 4878.58,5245.62C4891.95,5269.99 4900.33,5293.68 4893.1,5315.19C4835.51,5323.92 4782.45,5314.31 4734.38,5284.58C4779.47,5296.48 4824.21,5310.53 4872.68,5301.54C4872.3,5268.49 4848.47,5233.65 4822.32,5198.64ZM4412.74,5263.17C4441.26,5281.76 4469.76,5297.43 4498.25,5310.03C4511.69,5337.64 4522,5364.54 4524.34,5389.61C4454.36,5360.37 4417.17,5318.23 4412.74,5263.17ZM4524.6,5312.55L4548,5405.79C4569.63,5429.4 4595.34,5447.15 4630.8,5450.92C4612.33,5361.12 4575.58,5318.48 4524.6,5312.55ZM4639.84,5406.76L4661.23,5479.58C4705.19,5479.31 4749.78,5502.57 4788.74,5512.6C4825.49,5505.43 4768.66,5450.74 4715.32,5440.26C4695.34,5432.95 4668,5419.75 4639.84,5406.76ZM4799.29,5465.14C4830.88,5520.69 4872.39,5563.8 4909.94,5524.66C4865.2,5447 4826.61,5432.02 4799.29,5465.14ZM4807.88,5549.05C4806.48,5525.9 4781.92,5514.4 4775.24,5528.19C4766.68,5545.87 4788.15,5553.98 4807.88,5549.05ZM4659.06,4109.55C4678.49,4127.97 4697.85,4146.41 4674.39,4176.65C4574.18,4169.65 4530.44,4135.14 4659.06,4109.55ZM4957.93,5378.03C4981.75,5402.61 4997.21,5428.48 4978.39,5459.6C5115.14,5496.98 5172.09,5504.12 5050.65,5379.4C5022.59,5383.04 4990.4,5380.73 4957.93,5378.03ZM5057.48,5311.27C5065.19,5329.9 5069.95,5348.26 5060.56,5365.36C5200.1,5419.48 5242.36,5401.47 5148.6,5308.97C5117.99,5315.95 5087.7,5314.58 5057.48,5311.27ZM5209.89,5414.98C5244.93,5427.81 5281.49,5438.95 5328.74,5438.29C5347.79,5485.59 5381.42,5508.57 5432.66,5502.19C5400.16,5441.02 5360.87,5412.89 5315.95,5412.14C5283.51,5364.41 5244.41,5341.05 5201.37,5332.07C5215.98,5362.68 5224.79,5391.83 5209.89,5414.98ZM5236.35,5447.62C5260.64,5453.15 5285.64,5456.04 5311.59,5455.3C5344.68,5481.25 5374.67,5509.54 5375.01,5560.34C5336.34,5573.42 5298.76,5553.37 5262.48,5519.63C5270.56,5492.96 5255.43,5469.98 5236.35,5447.62ZM5346.69,5590.4C5351.53,5622.02 5385.84,5603.34 5458.69,5629.66L5429.91,5636.25C5462.17,5665.55 5494.57,5685.55 5527.22,5687.16C5531.61,5628.17 5492.42,5591.73 5439.3,5562.5C5452.91,5563.22 5470.82,5567.66 5498.97,5581.01C5523.44,5592.62 5529.51,5537.4 5448.9,5519.72C5391.32,5507.09 5367.64,5516.19 5401.75,5561.32C5408.62,5570.41 5343.68,5570.79 5346.69,5590.4ZM4863.37,5439.78C4894.18,5476.56 4925.16,5513.61 4956.72,5551.58C5067.49,5602.1 5104.1,5565.34 4996.07,5479.57C4942.92,5457.45 4905.66,5443.31 4863.37,5439.78ZM5034.76,5487.57C5067.83,5519.98 5083.48,5553.6 5071.76,5589.12C5192.69,5641.35 5218.46,5610.4 5112.73,5498.91C5083.45,5498.87 5058.25,5494.19 5034.76,5487.57ZM5124.26,5630.47C5165.76,5692.46 5211.58,5747.74 5298.99,5738.43C5259,5640.36 5197.24,5616.36 5124.26,5630.47ZM5138.79,5505.64C5182.51,5581.23 5238.34,5640.94 5315.57,5633.44C5311.09,5545.91 5241.94,5511.74 5138.79,5505.64ZM5069.76,5381.06C5131.73,5454.37 5151.54,5509.18 5242.72,5506.03C5251.04,5434.96 5166.52,5418.7 5069.76,5381.06ZM5490.77,5700.19C5504.4,5733.58 5522.65,5763.65 5553.82,5784.51C5502.06,5783.69 5458.92,5787.85 5420.97,5795C5428,5815.66 5435.34,5837.5 5445.12,5864.69C5418.38,5869.11 5415.64,5870.95 5391.19,5870.47C5430.55,5928.32 5475.54,5989.64 5505.58,5980.8C5529.17,5973.86 5499.05,5912.51 5478.11,5867.54C5554.16,5897.18 5566.92,5905.71 5554.82,5842.63C5606.83,5937.14 5683.26,5934.14 5627.44,5818.44C5613.78,5813.05 5603.08,5809.91 5598.34,5802.16C5646.05,5817.23 5604.91,5762.99 5560.29,5695.86L5490.77,5700.19ZM5386.21,5626.06L5422.87,5698.49L5374.38,5718.94C5406.16,5773.1 5447.64,5794.04 5503.3,5766.41C5472.95,5686.22 5432.53,5646.48 5386.21,5626.06ZM5311.82,5579.72C5321.58,5599.02 5330.06,5618.95 5330.8,5642.69C5304.6,5648.06 5278.79,5646.73 5253.31,5639.7C5289.15,5679.22 5328.31,5712.58 5395.12,5694.69C5375.54,5637.01 5346.16,5602.5 5311.82,5579.72ZM5522.83,5602.97C5541.22,5637.82 5558.51,5672.25 5587.89,5710.61L5647.61,5716.26C5624.89,5690.6 5604.21,5661.05 5584.2,5635.04C5564.2,5609.03 5542.48,5600.9 5522.83,5602.97ZM5607.88,5735.15C5632.17,5789.03 5660.58,5834.7 5712.49,5833.59C5714.48,5761.76 5663.7,5724.48 5607.88,5735.15ZM5646.31,5828.14C5646.48,5826.26 5660.81,5930.62 5660.81,5930.62C5639.41,5924.69 5629.44,5921.64 5605.71,5916.9L5607.67,5943.72L5573.75,5888.22C5560.82,5910.2 5550.71,5910.24 5508.19,5894.64C5519,5933.66 5537.84,5970.71 5567.65,6005.05L5618.5,6006.53C5688.8,6102.64 5721.33,6110.84 5686.09,5961.34C5749.9,5985.79 5757.4,5941.46 5717.95,5860.78C5717.95,5860.78 5646.14,5830.01 5646.31,5828.14ZM4882.15,5559.38C4853.83,5550.46 4833.11,5546.19 4825.42,5564.6C4856,5593.98 4883.07,5583.04 4882.15,5559.38ZM4970.2,5576.22C5054.81,5580.92 5117.75,5626.23 5100.06,5641.11L4970.2,5576.22ZM4973.82,5600.13C4937.54,5564.27 4895.3,5555.42 4883.04,5604.86C4926.85,5634.5 4956.29,5631.03 4973.82,5600.13ZM4961.73,5658.78C4998.34,5670.01 5023.86,5659.32 5051.59,5638.17C5024.69,5616 4982.62,5622.31 4961.73,5658.78ZM5114.46,5660.67C5114.28,5680.95 5087.64,5699.05 5029.95,5705.05C5029.23,5645.75 5070.24,5649.4 5114.46,5660.67ZM5056.66,5732.47C5052.81,5716.64 5064.93,5707.94 5089.38,5704.73C5084.46,5721.8 5077.55,5736.26 5056.66,5732.47ZM5091.04,5745.96C5109.72,5705.21 5138.95,5681.56 5179.15,5712.36C5163.79,5735.7 5138.21,5756.61 5091.04,5745.96ZM5141.97,5779.93C5180.19,5784 5210.13,5775.48 5230.08,5751.75C5202.21,5720.49 5166.87,5734.1 5141.97,5779.93ZM5285.18,5803.73C5281.85,5828.74 5244.41,5833.15 5191.87,5831.62C5189.43,5789.1 5238.28,5766.07 5285.18,5803.73ZM5256.4,5845.11C5234.65,5842.12 5217.46,5851.91 5226.35,5862.41C5237.4,5875.44 5250.57,5862.64 5256.4,5845.11ZM5260.08,5882.18C5298.34,5876.72 5344.62,5876.03 5349.25,5862.04C5357.75,5836.37 5269.56,5844.03 5260.08,5882.18ZM5277.19,5926.66C5286.5,5921.29 5287.19,5911.27 5289.52,5900.25C5280.01,5896.59 5276.07,5895.7 5268.31,5895.96C5262.35,5907.68 5267.07,5917.62 5277.19,5926.66ZM5282.05,5763.57C5292.6,5759.41 5307.5,5758.96 5324.97,5760.7C5315.82,5741.56 5313.43,5725.79 5314.11,5711.57C5379.22,5738.17 5411,5789.69 5427.24,5852.82C5358.47,5860.49 5314.51,5822.6 5282.05,5763.57ZM5307.6,5901.52C5285.7,5974.63 5371.68,5941.22 5392.95,5910.31C5375.9,5888.8 5344.54,5893.65 5307.6,5901.52ZM5447.23,5976.77C5441.4,5957.69 5429.13,5945.64 5413.46,5937.28C5380.2,5957.25 5346.67,5968.75 5312.68,5965.06C5318.21,5988.03 5333.55,5999.6 5354.44,6006.13C5372.98,6011.92 5397.52,5976.49 5447.23,5976.77ZM5372.66,6052.29C5378.58,6000.81 5450.68,5964.48 5468.11,6012.01C5460.17,6042 5420.16,6055.49 5372.66,6052.29ZM5406.59,6118.4C5399.32,6059.39 5473.81,6045.02 5497.99,6079.91C5497.52,6108.62 5445.66,6136.07 5406.59,6118.4ZM5527.95,6140.2C5504.25,6106.68 5439.07,6130.69 5431.61,6176.26C5462.79,6185.04 5520.6,6178.97 5527.95,6140.2ZM5535.8,6193.54C5517.39,6171.22 5462.1,6188.69 5453.36,6239.37C5503.1,6241.88 5540.98,6234.92 5535.8,6193.54ZM5541.87,6260.11C5492.94,6250.25 5455.94,6254.2 5456.23,6301.4C5514.94,6307.5 5553.04,6300.03 5541.87,6260.11ZM5535.37,6325.99C5489.06,6313.06 5456.54,6313.39 5462.43,6350.7C5512.32,6356.78 5544.74,6353.08 5535.37,6325.99ZM5533.18,6375.66C5479.03,6368.32 5444.51,6374.54 5460.06,6415.3C5515.14,6427.36 5542.27,6416.41 5533.18,6375.66ZM5473.88,6439.93C5465.68,6427.68 5455.21,6424.43 5440.91,6436.42C5449.36,6442.99 5460.36,6444.16 5473.88,6439.93ZM5424.02,6461.13C5424.56,6449.91 5477.94,6451.13 5508.25,6452.82C5521.64,6513.73 5420.86,6526.03 5424.02,6461.13ZM5482.19,6523.42L5397.69,6525.49C5398.57,6598.35 5489.5,6575.08 5482.19,6523.42ZM5449.65,6590.62C5419.12,6588.07 5389.97,6586.21 5367.48,6587.59C5368.36,6668.75 5451.42,6630.98 5449.65,6590.62ZM5046.62,6838.59C5056.52,6820.81 5070.98,6813.12 5095.49,6827.62C5082.81,6837.98 5066.53,6841.64 5046.62,6838.59ZM5154.38,6801.49C5127.67,6785.47 5112.91,6789.66 5114.8,6821.99C5139.02,6825.57 5151.54,6818.11 5154.38,6801.49ZM5187.6,6786.04C5176.17,6761.81 5181.16,6750.51 5228.94,6772.92C5226.01,6786.19 5212.93,6791.14 5187.6,6786.04ZM5240.21,6761.68C5226.96,6731.23 5237.2,6721.23 5281.79,6741.12C5281.09,6758.92 5267.23,6765.77 5240.21,6761.68ZM5293.25,6725.55C5268.86,6685.22 5285.89,6676.28 5334.24,6698.64C5342.82,6719.39 5330.83,6731.23 5293.25,6725.55ZM5385.66,6655.33C5331.04,6628.94 5301.35,6643.02 5346.86,6686.42C5378.75,6687.99 5393.05,6677.06 5385.66,6655.33ZM5488.44,5996.19C5508.41,6004.98 5519.74,5997.58 5527.15,5982.81C5553.44,6000.12 5568.52,6048.93 5570.07,6135.74C5542.06,6139.62 5512.77,6087.19 5488.44,5996.19ZM5592.1,6050.63C5607.02,6118.15 5588.93,6151.09 5643.35,6143.03C5645.77,6041.01 5640.12,6034.28 5592.1,6050.63ZM5661.5,6090.18C5680.43,6138.22 5710.03,6165.7 5756.42,6160.85C5755.9,6093.13 5744.11,6045.33 5716.19,6026.02L5705.66,6092.78C5689.56,6094.9 5677.83,6095.68 5661.5,6090.18ZM5712.66,5983.33C5738.64,6023.69 5770.85,6050.4 5811.72,6058.1C5798.11,6066.32 5781.99,6069.2 5763.8,6067.64C5771.76,6163.04 5762.86,6219.16 5854.49,6218.74C5846.82,6044.78 5819.55,5905.87 5737.71,5864.58C5765.65,5941.86 5771.52,5996.22 5712.66,5983.33ZM5760.65,6173.04C5739.9,6176.01 5719.62,6176.29 5702.51,6166.06C5710.59,6265.99 5787.91,6336.29 5760.65,6173.04ZM5781.46,6220.45C5803.35,6234.84 5826.43,6244.53 5852.31,6243.01C5843.91,6420.05 5769.38,6377.37 5781.46,6220.45ZM5589.08,6305.21C5543.47,6292.06 5535.3,6194.69 5588.42,6142.21C5635.74,6167.4 5662.91,6165.82 5673.02,6132.69C5724.85,6250.82 5663.97,6315.18 5622,6204.26C5621.66,6244.81 5619.25,6318.87 5589.08,6305.21ZM5636.43,6270.34C5646.78,6313.98 5644.17,6365.07 5605.45,6436.88C5551.83,6427.43 5541.56,6375.47 5557.35,6297.95C5592.2,6350.26 5617.38,6332.56 5636.43,6270.34ZM5656.95,6277.55C5671.73,6341.47 5692.85,6394.4 5738.36,6404.96C5755.67,6333.18 5741.26,6282.78 5705.13,6247.01C5698.82,6273.13 5684.32,6285.87 5656.95,6277.55ZM5763.03,6322.58C5760.46,6379.04 5753.45,6442.35 5779.73,6495.26C5818.63,6460.24 5840.23,6412.25 5850.09,6365.43C5821.37,6385.6 5789.9,6369.6 5763.03,6322.58ZM5676.64,6550.69C5708.51,6532.18 5726.86,6493.05 5746.67,6456.15C5757.78,6487.06 5760.6,6514.84 5757.03,6540.21L5826.7,6469.03C5828.12,6520.28 5807.48,6571.74 5753.63,6617.89C5747.02,6599.72 5748.57,6578.99 5748.78,6560.09C5724.69,6588.49 5700.03,6615.57 5667.44,6624.06C5660.76,6605.3 5664.12,6580.66 5676.64,6550.69ZM5731.19,6596.17C5684.55,6630.5 5654.31,6673.33 5668.26,6739.06C5747.43,6703.28 5751.83,6652.28 5731.19,6596.17ZM5412.89,6869.44C5404.68,6883.03 5408.59,6898.34 5410.84,6909.15C5487.33,6911.69 5511.54,6866.17 5530.31,6815.64L5583.39,6816.72C5525.21,6843.21 5492.02,6877.49 5517.94,6930.19C5599.06,6894.94 5670.34,6805.53 5664.81,6752.63C5649.29,6771.27 5630.02,6790.81 5617.63,6800.07C5647.32,6748.19 5658.84,6695.08 5657.01,6641.07C5644.45,6655.59 5628.8,6663.5 5615.43,6668.38C5631.95,6647.66 5645.43,6627.5 5651.43,6600.19C5611.91,6625.61 5574.06,6644.22 5548.99,6611.15C5531.37,6647.1 5515.97,6683.36 5517.36,6721.94C5545.19,6727.84 5574.18,6713.88 5603.67,6691.62C5580.26,6719.26 5552.55,6739.55 5554.57,6765.34L5541,6740.85L5511.22,6738.42L5501.67,6700.31L5489.14,6699.45C5511.49,6665.79 5531.75,6632.49 5522.77,6604.28C5509.62,6596.94 5502.27,6579 5497.14,6556.99C5466.96,6593.46 5443.49,6633.55 5450.22,6698.45L5475.14,6707.02C5433.81,6742.25 5407.12,6786.95 5412.73,6838.31C5442.27,6816.11 5473.01,6800.05 5504.82,6789.4C5469.93,6810.5 5435.43,6832.11 5412.89,6869.44ZM5657.23,6351.26C5624.77,6431.44 5605.71,6482.88 5683.26,6520.71C5762.72,6430.18 5704.56,6421.87 5657.23,6351.26ZM5618.08,6489.77C5629,6503.18 5639.09,6508.36 5652.73,6518.67C5654.74,6540.25 5653.45,6561.16 5648.25,6581.3C5539.45,6655.53 5554.48,6598.41 5618.08,6489.77ZM5545.6,6415.21C5478.37,6600.01 5517.78,6647.4 5611.23,6455.11C5585.21,6456.42 5564.25,6439.87 5545.6,6415.21ZM5432.68,6646.45C5382.5,6693.66 5342.32,6739.19 5344.92,6777.54C5380.41,6777.19 5411.47,6757.96 5438.52,6721.53C5428.93,6696.58 5430.64,6671.52 5432.68,6646.45ZM5397.3,6786.84C5342.44,6837.32 5284.73,6879.11 5278.65,6943.11C5311.62,6943.21 5355.78,6917.57 5392.51,6894.18C5396.94,6851.79 5395.44,6820.55 5397.3,6786.84ZM5358.08,6797.84C5313.2,6833.78 5270.04,6861.85 5227.46,6859.84C5236.97,6821.27 5272.33,6785.31 5332.91,6746.3L5325.62,6795.52L5358.08,6797.84ZM5402.48,6923.75C5334.78,6964.09 5311.85,7014.07 5428.01,6992.16C5443.33,6966.31 5469.84,6955.11 5499.09,6947.48L5494.95,6908.44C5461.57,6917.33 5427.74,6930.04 5402.48,6923.75ZM5361.07,6934.83C5340.98,6945.05 5302.49,6960.62 5280.88,6969.66L5305.81,6982.44C5265.88,6996.77 5230.34,7015.54 5213.53,7053.31C5245.1,7071.51 5287.47,7057.91 5331.63,7039.02C5305.38,7055.79 5278.45,7072.18 5260.01,7093.23C5315.88,7093.8 5358.95,7058.08 5400.19,7017.18C5373.86,7014.14 5348.32,7009.92 5327.56,6998.69C5329.69,6980.74 5344.61,6952.8 5361.07,6934.83ZM5284.62,6868.52C5268.69,6901.52 5258.05,6933.51 5265.23,6962.06C5229.77,6979.59 5192.46,6989.53 5147.57,6968.32L5152.9,6990.57C5122.03,7008.43 5084.78,7015.9 5036.11,7004.73C4997.41,6995.85 5089.07,6936.69 5184.25,6917.18L5184.87,6932.05C5217.02,6906.75 5250.48,6886.35 5284.62,6868.52ZM5256.1,6989.26C5171.46,6998.01 5085.55,7005.95 5082.69,7067.07C5106.64,7082.28 5144.35,7074.26 5190.17,7052.54C5204.48,7031.49 5228.07,7010.39 5256.1,6989.26ZM5244.71,7077.36L5197.71,7070.7C5108.78,7096.81 5053.19,7208.45 5235.37,7109.46C5240.87,7098.92 5244.05,7088.23 5244.71,7077.36ZM5088.41,6895.49L5112.38,6847.83C4968.89,6884.8 4858.96,6951.74 5026.35,6946.71C4790.89,6964.76 4822.34,7018.48 4985.68,7041.91C4869.45,7101.14 4922.11,7120.15 5060.21,7118.81C4877.02,7164.97 4912.9,7222.59 5080.92,7166.92C5092.47,7139 5109.02,7113.86 5127.18,7089.6C5102.12,7091.34 5077.05,7085.29 5059.31,7078.85C5058.22,7063.62 5064.2,7047.33 5077.26,7029.98C4988.84,7026.22 4989.7,6982.76 5071.3,6941.24C5109.62,6922.15 5160.48,6908.57 5207.57,6896.08C5207.79,6865.03 5217.07,6834.35 5227.43,6803.72C5195.33,6816.7 5164.41,6829.27 5135.21,6841.21C5112.9,6863.52 5109.44,6888.16 5088.41,6895.49ZM4925.91,6940.21C4914.96,6922.28 4946.52,6898.91 4981.85,6870.46C4925.39,6867.84 4862.7,6867.81 4806.23,6886.65C4768.95,6869.55 4725.51,6860.08 4673.49,6861.23C4636.21,6831.83 4593.12,6810.34 4509.44,6844.23C4524.59,6876.89 4564.3,6899.34 4621.97,6914.33C4622.64,6898.34 4633.74,6889.49 4652.34,6885.77C4640.58,6893.08 4636.71,6916.37 4652.28,6930.28C4556.59,6930.53 4497.89,6941.77 4617.42,7005.96C4664.5,7031.25 4684.56,7014.54 4676.96,6993.22C4723.33,6969.47 4727.12,6961.77 4683.07,6942.32C4761.4,6959.97 4842.48,6958.34 4925.91,6940.21ZM4845.88,6969.84C4791.63,6966.63 4737.6,6964.74 4690.14,7003.29C4708.14,7043.6 4748.06,7048.27 4799.69,7033.93C4772.32,7058.63 4797.12,7079.49 4857.61,7097.73L4906.13,7099C4907,7079.93 4918.98,7064.89 4937.49,7052.22C4904.97,7037.5 4870.9,7024.54 4821.93,7028.6C4831.67,7011.58 4840.08,6992.62 4845.88,6969.84ZM4919.2,7185.82C4883.65,7184.09 4849.44,7172.33 4816.35,7152.06C4853.81,7114.43 4906.63,7109.55 4971.73,7130.87C4944.89,7142.85 4921.54,7157.2 4919.2,7185.82ZM4741.93,7178.83C4753.55,7205.61 4796.71,7201.14 4847.56,7189.06C4824.63,7172.53 4793.36,7159.29 4771.79,7159.07L4836.14,7108.02C4775.59,7071.13 4722.35,7055.91 4689.73,7102.21L4721.93,7124.86C4676.3,7123.9 4634.47,7126.66 4599.57,7142.56C4603.74,7131.11 4617.16,7118.1 4668.51,7098.63C4678.56,7083.02 4698.12,7064.72 4721.19,7051.53C4664.66,7023.6 4596.72,7011.18 4572.53,7059.99C4562.29,7080.65 4614.71,7087.84 4639.11,7098.36C4573.08,7094.93 4492.41,7086.76 4481.94,7104.41C4456.93,7146.54 4528.82,7176.61 4604.88,7167.78C4646,7187.99 4693.12,7186.46 4741.93,7178.83ZM4237.41,6729.93C4241.85,6711.44 4254.6,6715.84 4255.62,6736.82C4259.51,6816.65 4287.25,6852.97 4331.33,6859.53C4320.91,6831.29 4335.16,6808.99 4378.5,6793.68C4409.43,6824.73 4443.44,6847.38 4484.56,6850.77L4494.26,6833.79L4540.13,6814.26C4500.02,6753.83 4443.72,6717.3 4367.83,6740L4372.31,6778.95C4354.48,6766.82 4345.27,6749.21 4339.99,6729.11C4362.29,6722.27 4398.5,6711.86 4422.9,6713.16C4355.05,6620.97 4193.86,6537.85 4306.14,6724.62C4291.83,6735.03 4274.12,6708.22 4255.29,6668.95C4239.74,6662.5 4223.11,6645.95 4205.76,6622.5C4181.56,6623.86 4154.34,6608.49 4125.19,6582.48C4087.17,6581.48 4074.35,6525.07 4083.94,6516.16C4090.16,6534.3 4098.31,6550.19 4119.99,6550.33C4120.93,6519.45 4127.78,6486.1 4137.11,6451.72C4133.98,6525.3 4129.57,6599.98 4208.58,6603.88C4209.54,6497.06 4196.72,6420.91 4142.78,6436.27C4144.85,6335.1 4096.88,6307.28 4070.42,6405.82C4064.6,6362.57 4076.89,6318.93 4037.15,6303.6C4025.64,6331.65 4023.34,6366.31 4024.89,6403.75C4052.05,6417.57 4062.95,6442.41 4064.81,6473.39C4058.51,6451.41 4046.74,6436.73 4026.36,6433.54C4023.52,6482.56 4017.91,6527.77 4023.04,6579.1C4037.89,6609.42 4058.83,6625.06 4080.94,6610.07C4089.28,6723.38 4182.23,6760.82 4175.52,6670.26C4183.95,6697.21 4193.48,6723.7 4204.97,6749.37C4179.53,6738.16 4153.63,6732.54 4127.56,6729.24C4127.4,6775.41 4155.71,6813.58 4194.58,6848.79L4211.46,6827.57L4253.55,6825.51C4245.68,6801.79 4235.77,6781.32 4222.63,6765.97C4239.64,6768.4 4242.3,6753.68 4237.41,6729.93ZM4320.81,7044.81C4335.53,7039.74 4354.73,7040.77 4378.83,7048.48C4328.93,6984.74 4270.93,6931.5 4198.57,6958.29C4323.87,7081.35 4412.7,7135.99 4469.34,7130.23C4455.64,7089.35 4364.3,7051.09 4320.81,7044.81ZM4555.95,7075.87C4557.01,7051.45 4575,7030.1 4607.96,7016.94C4576.16,6991.69 4541.9,6970.28 4496.45,6966.45C4527.46,6958.55 4551.78,6938.7 4572.07,6911.67C4516.66,6871.89 4463.75,6839.66 4434.77,6879.98C4433.45,6891.67 4447.82,6907.52 4463.74,6923.77C4438.56,6906.57 4413.43,6889.31 4414.86,6842.85C4389.97,6816.66 4368.91,6793.49 4346.54,6823.98C4333.07,6842.34 4353.41,6879.19 4364.59,6902.81C4315.78,6862.48 4268.73,6840.65 4223.85,6841.95C4224.4,6874.24 4247.96,6910.24 4272.71,6938.95C4325.14,6962.08 4361.74,6994.19 4390.87,7042.89C4415.54,7061.98 4440.47,7078.15 4465.65,7091.77C4492.02,7081.93 4524.88,7081.36 4555.95,7075.87ZM4243.27,6928.79C4217.02,6878.89 4178.87,6845.12 4111.75,6837.3C4139.41,6919.92 4180.89,6952.07 4243.27,6928.79ZM4072.6,6762.9C4080.55,6823.97 4112.74,6839.12 4123.23,6814.13C4132.05,6793.1 4113.69,6770.7 4072.6,6762.9ZM4035.11,6623.78C4084.93,6641.98 4103.41,6692.51 4110.27,6755.04C4076.15,6752.01 4048.23,6721.15 4035.11,6623.78ZM4012.97,6597.71C4019.67,6619.18 4020.16,6641.32 4021.63,6664.12C3978.7,6664.51 3967.7,6592.14 4012.97,6597.71ZM4008.05,6579.92L4002.36,6511.62C3925.24,6496.02 3972.19,6591.64 4008.05,6579.92ZM4254.51,6644.84C4250.97,6611.45 4261.73,6595.2 4324.87,6600.15C4310.39,6561.5 4290.2,6526.11 4265.84,6493.1L4220.78,6489.21L4223.42,6614.95C4231.04,6631.82 4241.49,6641.57 4254.51,6644.84ZM4218.56,6473.8L4267.61,6479.06L4227.72,6360.5C4207.31,6394.87 4204.6,6436.86 4218.56,6473.8ZM4189.43,6425.2C4200.76,6370.36 4225.86,6328.51 4205.53,6296.3C4185.76,6250.94 4175.23,6268.61 4152.91,6316.97C4151.24,6302.47 4146.86,6292 4164.77,6264.97C4196.45,6217.14 4140.32,6161.16 4110.07,6214.59L4078.85,6275.36C4083.05,6237.13 4121.39,6196.6 4107.69,6149.63C4095.96,6109.39 4022.5,6208.56 4039.44,6283.94C4048.03,6297.32 4059.02,6299.33 4072.89,6287.63C4071.84,6348.99 4083.12,6338.94 4105.38,6327.77C4124.11,6318.36 4146.76,6363.51 4157.01,6398.6C4162.05,6415.85 4176.1,6436.41 4189.43,6425.2ZM4004.98,6486.68C4009.97,6452.46 3995.24,6421.19 3950.04,6411.21C3944.35,6466.24 3968.56,6491.84 4004.98,6486.68ZM4003.51,6405.67C3971.77,6402.7 3949.98,6381.66 3943.27,6333.2C3979.8,6328.71 4002.3,6348.66 4003.51,6405.67ZM4011.59,6326.98C3975.25,6320.87 3949.68,6301.84 3952.16,6249.11C3991.62,6253.79 4013.2,6277.84 4011.59,6326.98ZM4023.27,6258.62C3979.91,6242.74 3953.55,6216.28 3962.81,6167.6C4013.29,6183.02 4028.79,6215.64 4023.27,6258.62ZM3963.16,6091.4C3972.22,6143.02 4022.25,6201.29 4037.01,6178.1C4048.97,6159.31 3997.66,6107.46 3963.16,6091.4ZM4001.07,6063.66C4008.76,6106.68 4031.22,6125.8 4060.63,6118.27C4075.89,6084.22 4053.63,6061.7 4001.07,6063.66ZM4086.14,5995.59C4037.3,6027.88 4029.18,6049.47 4072.49,6063.84C4084.81,6044.01 4090.39,6023.93 4086.14,5995.59ZM4130.36,5899.05C4109.18,5928.41 4104.89,5972.99 4107.22,6023.54C4136,6022.54 4195.18,5957.19 4130.36,5899.05ZM4141.49,5882.49C4139.46,5848.11 4138.69,5811.09 4150.7,5787.21C4196.17,5803.59 4187.71,5865.47 4178.54,5923.94C4164.37,5914.06 4152.36,5899.5 4141.49,5882.49ZM4145.47,6172.32C4173.94,6187.82 4185.88,6212 4189.55,6254.02C4206.03,6263.5 4217.25,6280.52 4226.09,6300.99C4231.35,6206.95 4239.08,6109.54 4192.06,6087.54C4172.75,6110.24 4160.04,6144.03 4145.47,6172.32ZM4077.72,6118.43C4115.35,6118.95 4121.34,6141.71 4127.26,6164.5C4160.19,6109.24 4174.13,6060.08 4144.51,6024.92C4113.67,6035.95 4093.31,6071.59 4077.72,6118.43ZM4182.88,6069.69C4162.24,6015.24 4172.98,5966.28 4199.13,5920.02C4234.04,5938.46 4224.13,6054.2 4182.88,6069.69ZM4250.51,6142.51C4210.43,6079.42 4234.4,5956.53 4267.56,5954.42C4291.07,5963.59 4272.6,6067.73 4250.51,6142.51ZM4292.11,5948.83C4316.38,5893.05 4326.43,5838.26 4310.97,5785.24C4280.86,5831.04 4269.63,5913.82 4292.11,5948.83ZM4260.34,5802.57C4272.48,5857.99 4268.1,5907.2 4242.3,5948.35C4202.72,5881 4193.95,5867.92 4252.03,5783.5C4232.86,5719.76 4237.97,5680.18 4255.36,5654.66C4286.42,5662.35 4305.09,5695.6 4315.58,5745.72C4305.94,5769.1 4285.67,5787.11 4260.34,5802.57ZM4227.46,5733.61C4199.59,5702.56 4176.83,5690.72 4159.18,5698.09C4155.33,5746.82 4171.94,5782.42 4199.64,5823.27C4225.75,5803.83 4232.69,5772.5 4227.46,5733.61ZM4139.47,5581.51C4137.67,5618.01 4138.28,5651.85 4141.07,5683.28C4166.5,5660.53 4196.77,5673.06 4227.96,5692.24C4230.33,5674.5 4230.54,5657.26 4224.31,5641.53C4200.75,5610.5 4170.98,5593.97 4139.47,5581.51ZM4293.7,5654.13C4282.56,5590.79 4259.83,5546.41 4223.37,5516.52C4217.89,5597.98 4216.89,5634.24 4293.7,5654.13ZM4114.83,5395.04C4108.72,5466.34 4148.24,5480.75 4214.14,5501.41C4200.02,5450.02 4166.44,5415.47 4114.83,5395.04ZM4127.03,5487.95C4175.32,5498.74 4207.44,5529.02 4207.61,5597.85L4135.44,5563.52C4135.45,5543.61 4132.83,5518.77 4127.03,5487.95ZM3793.65,5045.46C3826.9,5020.47 3844.4,4993.02 3835.01,4964.7C3774.29,4993.67 3770.68,5021.23 3793.65,5045.46ZM3807.57,5051.78L3796.72,5076.76C3811.07,5081.39 3825.38,5063.29 3807.57,5051.78ZM3755.27,5031.85C3720.77,5077.86 3728.6,5106.19 3765.4,5122.41C3777.57,5127.53 3775.33,5155.13 3774.24,5180.91C3798.21,5213.23 3825.47,5238.74 3853.59,5262.49C3857.52,5214.3 3852.34,5176.67 3814.04,5177.42C3824.37,5125.98 3820.5,5085.64 3775.26,5098.05C3773.48,5063.48 3774.47,5032.45 3755.27,5031.85ZM4029.33,5547.84C4028.66,5506.44 4001.89,5481.05 3962.66,5445.1L3960.39,5378.36L3905.83,5325.44C3925.58,5310.09 3904.66,5292.36 3872.56,5273.98L3875.51,5304.58C3832.98,5259.97 3790.11,5212.41 3750.98,5198.61C3759.14,5152.79 3751.91,5122 3719.11,5116.23C3719.74,5171.85 3727.82,5231.81 3739.55,5293.9L3791.79,5294.45L3816.57,5282.2C3813.95,5343.03 3836.96,5376.21 3873.82,5389.51L3878.51,5352.09C3882.96,5370.88 3888.58,5389.19 3897.23,5406.24C3935.83,5432.38 3957.74,5462.83 3951.87,5500.43C3942.48,5477.34 3929.64,5456.19 3905.17,5441.59C3879.83,5495.7 3890.59,5555.58 3937.45,5621.24C3955.28,5620.69 3971.91,5625.52 3987.84,5633.51C3991.56,5611.46 3973.66,5581.98 3937.86,5546.34C3942.55,5523.91 3968.43,5552.46 3998.72,5591.34C4005.84,5572.89 4012.21,5551.26 4029.33,5547.84ZM3761.45,5308.22C3813.27,5315.7 3823.15,5350.93 3805.35,5404.47C3785.58,5416.73 3771.16,5371.36 3761.45,5308.22ZM3834.66,5384.26C3804.43,5441.61 3827.38,5471.31 3872.91,5502.21C3894.99,5431.86 3906.71,5411.55 3834.66,5384.26ZM3833.7,5563.51C3805.23,5555.77 3780.9,5544.89 3798.39,5502.25C3841.29,5496.32 3843.14,5525.14 3833.7,5563.51ZM3798.91,5591.9C3799.46,5558.3 3792.65,5538.37 3761.43,5539.16C3755.27,5582.86 3770.05,5593.41 3798.91,5591.9ZM3764.39,5632.02C3747.99,5642.2 3732.85,5621.15 3745.37,5592.61C3763.83,5589.17 3768.87,5602.62 3764.39,5632.02ZM3723.34,5522.54C3754.39,5510.64 3790.78,5496.93 3809.17,5473.6C3796.48,5444.69 3779.08,5421.79 3745.84,5419.06C3730.53,5448.7 3719.59,5481.06 3723.34,5522.54ZM3649.43,5446.66C3700.33,5438.59 3767.86,5398.53 3748.89,5381.6C3734.8,5369.02 3677.55,5426.36 3649.43,5446.66ZM3712.63,5444.3C3686.69,5454.15 3655.38,5467.77 3633.97,5464.95C3606.36,5500.97 3586.27,5537.42 3585.32,5574.95C3610.89,5581.55 3643.84,5548.44 3678.17,5507.84C3662.33,5575.55 3647.49,5641.95 3686.61,5639.32C3676.86,5697.99 3678.52,5744.69 3713.62,5756.32C3680.93,5780.86 3700.97,5821.28 3768.99,5876.15C3830.93,5895.26 3875.01,5895.32 3881.62,5855.39C3889.45,5864.62 3893.43,5874.31 3892.75,5884.53C3954.54,5876.17 4016.53,5824.76 3983.29,5783.81C3968.12,5765.13 3912.81,5794.03 3885.6,5842.66C3852.14,5829.9 3821.4,5824.86 3807.11,5866.3C3795.73,5828.18 3778.89,5790.98 3740.98,5757.32C3742.9,5713.94 3737.38,5670.99 3706.82,5629.53C3743.04,5572.35 3762.27,5528.99 3715.95,5538.94C3700.38,5510.06 3707.03,5473.04 3712.63,5444.3ZM4119.68,5581.11C4110.6,5523.39 4121.66,5494.11 4091.77,5462.19C4131.72,5459.55 4088.98,5379.06 4037.6,5376.8C4028.81,5409.63 4046.68,5435.43 4074.78,5458.53C4050.71,5474.27 4086.02,5528.22 4119.68,5581.11ZM4011.39,5386.38C4006.2,5349.64 4036.13,5349.95 4091.72,5377.36C4070.88,5355.67 4039.58,5338.17 3971.03,5335.61C3975.81,5356.44 3989.79,5373.13 4011.39,5386.38ZM3975.44,5412.83C3975.89,5441.1 3992.91,5465.27 4020.46,5486.82C4032.81,5459.6 4018.23,5434.9 3975.44,5412.83ZM4040.73,5513.63C4048.29,5547.42 4060.49,5573.76 4080.56,5587.48C4076.71,5546.34 4063.58,5521.46 4040.73,5513.63ZM4112.38,5759.85L4086.37,5767.16L4080.24,5657.74L4073.77,5671.16C4056.41,5656.11 4037.41,5654.66 4017.57,5660.35C4011.79,5616.53 4013.98,5580.95 4033.72,5563.51C4060.91,5577.47 4078.72,5600.31 4075.88,5642.69C4129.82,5674.79 4133.16,5715.31 4112.38,5759.85ZM4006.79,5782.12C4005.62,5702.97 4015.7,5649.8 4065.85,5689.19L4073.03,5774.8C4051.93,5769.53 4029.52,5774.57 4006.79,5782.12ZM3989.9,5759.37C4006.61,5688.82 4008.14,5637.02 3950.06,5642.95C3960.14,5682.91 3960.25,5725.06 3953.95,5766.44C3968.7,5761.82 3981.2,5759.04 3989.9,5759.37ZM4055.65,5896.33C4115.95,5890.27 4119.43,5835.73 4119.16,5780.14C4075.53,5780.14 4110.8,5843.5 4055.65,5896.33ZM4043.55,5884.81C4061.98,5858.01 4071.83,5827.62 4072.68,5793.49C4013.75,5771.67 4015.65,5840.52 3953.4,5893.67C4004.13,5866.04 4034.84,5862.31 4043.55,5884.81ZM3950.46,5926.66C3943,5940.78 3939.05,5954.67 3936.94,5968.44L3981.69,5976.88L4034.41,5905.74C4022.63,5876.95 3994.64,5883.92 3950.46,5926.66ZM4093.15,5905.3C4081.63,5955.21 4054.6,5992.22 4007.48,6012.52L3996.28,5984.4C4021.61,5937.28 4053.68,5910.25 4093.15,5905.3ZM3980.47,6020.77L3977.29,5990.67L3873.34,5988.8L3864.79,6017.74C3831.15,5999.35 3794.8,5986.3 3754.15,5981.63C3764.34,6005.98 3762.26,6029.95 3752.38,6053.68C3786.69,6065.38 3826.53,6067.54 3869.86,6063.65C3876.62,6051.23 3878.77,6039.7 3873.1,6029.69C3887.23,6028.6 3896.83,6034.89 3900.97,6050.1C3935.6,6057.48 3962.36,6048.25 3980.47,6020.77ZM3835.91,5912.98L3868.64,5982.15C3923.23,5957.92 3952.78,5930.86 3934.74,5898.44C3911.26,5892.15 3875.54,5900.26 3835.91,5912.98ZM3750.31,5885.49C3792.06,5897.44 3833.44,5923.13 3845.55,5981.47L3755.47,5963.83C3760.44,5941.81 3752.66,5912.25 3750.31,5885.49ZM3624.35,5935.35L3641.02,5959.42L3664.47,5911.45C3672.03,5908.47 3678.14,5908.15 3682.49,5911.02C3673.58,5876.2 3659.92,5853.29 3650.33,5826.98C3665.27,5821.1 3676.78,5811.6 3685.37,5798.79C3722.09,5865.8 3752.21,5930.69 3716.74,5935.24C3734.41,5976.12 3749.62,6020.34 3736.86,6047.04C3653.81,6017.59 3597.01,5950.64 3563.17,5856.74C3582.85,5844.96 3595.7,5823.15 3602.89,5793.02L3619.91,5806.03C3603.44,5746.33 3614.22,5703.91 3648.94,5676.69C3674.61,5732.98 3702.32,5798.64 3629.85,5816.54C3652.33,5876.43 3663.71,5927.06 3624.35,5935.35ZM3560.28,5828.86C3548.06,5780.51 3541.57,5728.18 3540.96,5671.77C3555.14,5680.48 3566.87,5690.57 3575.01,5702.67C3574.84,5669.64 3575.48,5635.48 3580.34,5595.4C3601,5598.23 3623.08,5586.05 3645.74,5567.6C3653.72,5631.01 3643.36,5686.1 3586.67,5720.15C3587.92,5770.36 3583.82,5813.13 3560.28,5828.86ZM5692.3,4903.52C5711.86,4923.09 5737.75,4934.56 5769.97,4937.92C5841.43,4963.59 5814.51,4995.05 5774.04,4973.42C5748.36,4974.89 5732.28,4968.68 5727.78,4953.2C5703.49,4960.66 5688.48,4950.07 5679.82,4927.12C5647.84,4935.41 5630.06,4922.22 5619.45,4898.15C5599.13,4907.47 5582.85,4899.4 5569.93,4876.92C5555.37,4897.19 5533.91,4883.53 5508.38,4849.86C5500.94,4896.29 5479.13,4870.03 5452.51,4819.42C5426.14,4870.58 5406.14,4846.11 5389.89,4777.01C5361.09,4845.02 5343.93,4837.43 5338.41,4754.24C5279.28,4814.98 5274.01,4769.6 5289.41,4683.49C5229.49,4756.88 5218.42,4722.21 5240.78,4613.61C5200.3,4668.41 5196.29,4625.14 5213.81,4524.01L5143.11,4438.54C5167.4,4458.88 5197.47,4482.03 5221.29,4470.9C5208.5,4433.46 5198.08,4396.61 5191.12,4360.63C5228.25,4380.79 5266.44,4403.84 5299.55,4412.97C5313.14,4379.82 5291.81,4335.77 5260.12,4288.48C5304.04,4296.34 5343.5,4314.1 5382.59,4332.68C5355.82,4291.75 5337.29,4250.05 5331.72,4207.11L5484.43,4343.03L5465.49,4371.09C5567.47,4369.55 5647.79,4383.56 5696.48,4420.32C5766.15,4399.74 5823.93,4410.34 5879.1,4427.77C5864.99,4450.67 5828.45,4453.12 5795.43,4460.11C5842.6,4486.89 5892.37,4489.46 5917.8,4446.35C6074.84,4426.42 6061.56,4574.04 5955.78,4491.04C5926.03,4539.1 5835.93,4535.38 5715.82,4529.81C5661.31,4527.29 5499.67,4652 5371.75,4575.56C5332.21,4588.46 5340.97,4626.33 5353.82,4671.37C5371.79,4734.4 5486.44,4831.89 5692.3,4903.52Z" style="fill:rgb(115,159,120);"/>
    </g>
    <path id="Dark-Green" serif:id="Dark Green" d="M2474.8,4501.37C2589.87,4348.5 2756.31,4255.81 2949.62,4253.11C3126.32,4545.03 3068.63,4815.75 2908.75,4998.57L2728.49,4925.45C2796.06,5032.22 2869.94,5095.36 2955.83,5075.58C3540.68,4945 3432.81,4470.55 2943.08,4086.26C2756.96,4091.64 2605.02,4132.63 2479.69,4202.12C2483.32,3640.82 2470.01,3084.06 2432.19,2510.79C2754.94,2455.05 3105.05,2319.66 3562.13,2067.97L3658.87,2196.55L3721.45,1993.71C3898.49,1894.38 4086.68,1821.14 4285.52,1772.82L4195.75,2664.95C4306.37,2981.03 4247.84,2866.21 3999.77,3074.85C4078.57,3076.53 4166.03,3045.92 4258.59,2996.25C4347.81,3097.86 4224.87,3188.37 3915.47,3269.14C4001.49,3283.74 4106.3,3259.81 4256.53,3216.52C4285.09,3288.76 4222.35,3346.64 4089.16,3393.44C4136.36,3415.23 4186.23,3427.73 4247.46,3400.46C4211.17,4213.88 4236.42,4971.64 4287.02,5706.49L4006.65,5822.9C3935.01,5692.79 3872.95,5677.14 3824.22,5820.89C3735.38,5807.39 3671.14,5832.63 3637.86,5914.22C3234.39,6042.63 2830.79,6194.39 2426.65,6449.31C2431.67,6216.1 2439.84,5997.89 2446.47,5765.18C2942.49,5840.73 3188.15,5754.27 3469.69,5544.52C4038.73,5120.58 4140.05,4644.37 3948.1,4135.39C3864.93,4142.18 3870.11,4130.57 3858.57,4073.05C3784.96,3706.21 3538.31,3418.37 3156.93,3192.03C2907.33,3056.69 2722.35,2852.98 2892.85,2672.25C2996.07,2562.84 3507.5,2614.22 3394.96,2851.86C3316.38,3017.8 3413.4,3067.32 3445.16,2968.94C3512.37,2760.72 3684.36,2665.13 3923.57,2641.81C4118.84,2511.89 4053.17,2485.06 3833.54,2519.07C3380.35,2167.71 3078.89,2333.12 2781.81,2597.12C2513.98,2897.29 2615.58,3253.84 2978.9,3650.32C3073.41,3577.2 3113.57,3645.34 3116.53,3810.13L3452.13,4152.83C3586.85,4093.68 3565.61,4198.6 3525.83,4422.54C3809.3,5018.17 3510.2,5455.92 3184.42,5599.53C2862.31,5629.96 2600.18,5680.97 2452.68,5473C2452.68,5473 2437.92,4550.36 2474.8,4501.37ZM6808.54,8113.75C6739.88,8226.35 6651.53,8301.04 6492.68,8274.57C6565.47,8360.5 6743.78,8363.09 6775.03,8441.84C6831.08,8583.1 6838.95,8793.14 6688.55,8775.61C6735,8851.85 6842.74,8813.36 6875.92,8632.98C6877.77,8622.9 6879.4,8612.38 6880.76,8601.41C6887.82,8544.63 6911.58,8467.32 6956.83,8412.36C6997.52,8362.93 7069.6,8344.34 7133.42,8312.53C7487.57,8555.97 7797.3,8858.5 7979.46,9095.45C7923.6,9235.92 7847.48,9377.93 7654.37,9345.76C7727.17,9431.69 7905.47,9434.28 7936.72,9513.03C7992.77,9654.28 8000.64,9864.33 7850.24,9846.8C7896.7,9923.04 8004.43,9884.55 8037.61,9704.17C8039.47,9694.09 8041.09,9683.57 8042.45,9672.6C8049.52,9615.82 8073.28,9538.51 8118.53,9483.55L8164.7,9434.53C8201.5,9603.19 8223.33,9782.63 8206.06,9920.71C8169.43,10213.7 8011.41,10418.8 7831.48,10624.8L6837.64,9572.87L5886.32,10472.4C5649.4,10136.8 5625.82,9730.76 5676.45,9372.54C5709.01,9386.82 5729.55,9385.88 5740.31,9412.98C5796.36,9554.24 5804.23,9764.29 5653.83,9746.75C5700.29,9822.99 5808.02,9784.51 5841.2,9604.13C5843.06,9594.05 5844.68,9583.52 5846.04,9572.55C5853.11,9515.78 5876.87,9438.46 5922.12,9383.5C5980.03,9313.15 6111.79,9310.69 6173.91,9233.65C5936.65,9289.51 5764.67,9010.52 5894.6,8793.43C5825.03,8821.15 5790.18,8939.3 5735.52,9055.48C5745.94,9016.55 5754.28,8996.65 5765.67,8960.66C6005.8,8202.53 5573.28,7546.24 4882.75,7518.62C4659.92,7186.27 4651.83,6889.68 4839.25,6625.64C4581.77,6701.74 4406.28,6845.55 4324.09,7066.4L3651.39,6326.01L3616.72,6045.91C3681.7,6051.94 3703.26,6017.84 3709.61,5935.15C3791.77,5971.34 3856.6,5946.53 3902.42,5854.72C3934.42,5921.47 3999.9,5944.93 4114.32,5905.13L4379.92,5793.58L4361.09,5535.1C4421.96,5557.51 4479.63,5572.19 4496.02,5613.5C4552.07,5754.76 4559.94,5964.8 4409.54,5947.27C4456,6023.51 4563.73,5985.02 4596.91,5804.64C4598.77,5794.56 4600.39,5784.04 4601.75,5773.07C4608.82,5716.29 4632.58,5638.98 4677.82,5584.02C4735.74,5513.67 4867.5,5511.21 4929.62,5434.17C4759.56,5474.2 4623.03,5342.21 4607.19,5184.29L5204.73,5038.94L5413.68,5254.77C5079.8,5670.14 5014.07,6207.95 5248.02,6782.25C5459.43,7301.21 6081.13,7768.87 6808.54,8113.75ZM8120.52,6499.99C8056.62,6614.91 7992.94,6732.07 7830.17,6704.96C7902.96,6790.89 8081.27,6793.47 8112.52,6872.22C8168.57,7013.48 8176.44,7223.52 8026.04,7205.99C8072.49,7282.23 8180.23,7243.75 8213.41,7063.36C8215.26,7053.28 8216.89,7042.76 8218.25,7031.79C8225.31,6975.02 8249.08,6897.7 8294.32,6842.74C8352.24,6772.39 8484,6769.93 8546.11,6692.89C8398.19,6728.1 8293.92,6651.8 8250.61,6546.18L9065.4,6839.5C9127.14,6844.23 9191.12,6817.82 9176.85,6752.68C9394.67,6837.1 9550.58,6758.18 9631.27,6539.34C9658.1,6466.55 9717.37,6419.54 9802.35,6403.61C9766.04,6379.41 9718.44,6370.43 9577.02,6487.85C9576.04,6406.65 9597.22,6328.02 9664.89,6254.77C9606.3,6272.08 9535.51,6326.8 9490.46,6526.09C9471.13,6611.58 9416.34,6650.94 9343.27,6671.02C9270.07,6691.14 9216.54,6404.68 9025.67,6354.26C8948.93,6333.99 8885.89,6230.01 8852.48,6110.31C8924.51,6089.21 8992.91,6066.98 9046.47,6040.11C9083.36,6089.87 9068.3,6175.29 9049.72,6263.13C9126.63,6215.68 9194.55,6146.41 9229.82,5997.82L9387.64,5944.34C9412.37,6025.53 9394.14,6120.59 9355.45,6222.26C9465.6,6120.66 9558.57,6007.43 9590.28,5852.72C9781.94,5781.36 9760.1,5437.43 9365.65,5503.12C9254.49,5437.95 9095.99,5405.4 8884,5411.39C8636.36,5322.74 8751.07,5320.36 8460.08,5311.96C8452.93,5311.76 8383.71,5249.18 8394.49,5232.46C8416.75,5197.91 8506.55,5046.63 8573.67,5021.33C8643.85,4994.88 9165.93,5128.15 9377.49,5284.76C9562.74,5250.55 9562.42,5295.55 9545.54,5378.77C9530.86,5451.14 9839.36,5444.93 9980,5520.98C10011.7,5851.22 10010.9,6199.85 10000,6554.15C9486.99,7056.33 8947,7458.46 8448.04,7993.35C8171.27,7728.78 7841.99,7473.93 7219.53,7204.73C6818.22,6979.25 6381.49,6792.05 6211.55,6380.64C6159.6,6256.26 6180.5,6206.63 6180.44,6044.23L6828.18,6661.14L7678.03,5809.35C7688.81,6093.95 7752.73,6398.65 8120.52,6499.99ZM4521.66,5205.81C4483.67,5295.89 4437.28,5389.87 4355.14,5430.35L4342.8,5249.5L4521.66,5205.81ZM9029.58,10607.8C9022.3,10620.1 9014,10640.2 9006.17,10653.2C8858.64,10898.6 8665.04,11121.5 8415.83,11317.4C8493.72,11437.9 8638.23,11578.8 8773.65,11668.1C9154.47,11474.1 9580.8,11260.3 10015.4,11042.8L10007.3,10191C9765.8,9968.34 9527.37,9788.3 9319.87,9570.8C9306.64,9815.1 9285.83,10022.4 9189.49,10274.5C9293.56,10356.7 9353.49,10502.6 9498.4,10468.5C9436.29,10545.5 9304.53,10548 9246.61,10618.3C9201.36,10673.3 9177.6,10750.6 9170.54,10807.4C9169.17,10818.3 9167.55,10828.9 9165.7,10838.9C9132.52,11019.3 9024.78,11057.8 8978.32,10981.6C9128.73,10999.1 9120.85,10789 9064.8,10647.8C9058.79,10632.6 9044.64,10618.5 9029.58,10607.8ZM4793.56,11627.4L5296.56,11168.1C4767.12,10365.7 4771.01,10032.3 4822.52,9316.29C4644.62,9377.81 4486.76,9338.17 4338.82,9240.94L3629.1,9867.68L3643.77,11039.1L4793.56,11627.4Z" style="fill:rgb(52,96,34);"/>
    <path id="Bright-Green" serif:id="Bright Green" d="M3630.11,8971.07L3955.53,8682.23C3942.99,8583.35 3931.39,8532.72 3928.57,8429.32L3621.91,8135.57L3624.36,8384.98L3714.03,8548.02L3633.68,8702.17L3630.11,8971.07ZM6365.31,10109.8L6731.68,10505.7L6415.29,10892C6229.32,10815.6 6079.16,10705.2 5932.87,10542.7L6365.31,10109.8ZM6822.62,10503.9L7245.05,10099.7L7607.88,10485.2L7187.57,10898.1L6822.62,10503.9ZM7501.79,5896.58L7222.23,5609.92L6857.2,5932.82L7150.64,6263.07L7501.79,5896.58ZM6758.57,5930.19L6459.12,5584.1C6347.45,5670.34 6220.82,5777.1 6186.62,5960.41L6454.38,6220.51L6758.57,5930.19ZM8754.6,7789.01L9102.61,8144.74L9512.27,7739.6L9182.64,7373.28L8754.6,7789.01ZM3638.66,6623.79L3730.38,6785.78L3639.98,6951.19L3643.53,7134.35L4030.54,6843.84L3633.7,6414.78L3638.66,6623.79ZM3628.27,7538.14L3719.11,7701.69L3629.09,7870.98L3631.3,8070.65L4029.33,7730.61L3623.04,7322.17L3628.27,7538.14ZM3627.66,9617.82L3628.85,9795.11L3969.37,9466.37L3623.9,9058.57L3625.45,9288.75L3717.12,9451.34L3627.66,9617.82ZM5545.39,12062.3L5402.22,11976.5L5558.44,11772.8L5949.02,12186.5L5891.67,12269.6L5681.86,12144L5587.31,11977L5545.39,12062.3ZM9959.7,9501.82L9964.6,9230.82L9909.14,9142.49L9469.29,9595.57L9950.13,10031.6L9957.9,9666.1L9921.18,9729.18L9828.45,9582.64L9917.24,9428.58L9959.7,9501.82ZM9095.77,8774.35C9121.54,8823.87 9145.69,8877.59 9168.02,8939.18L9480.01,8686.45L9101.19,8240.26L8888.7,8445.65C8931.16,8511.42 8973.71,8569.94 9011.67,8628.6L9095.4,8469.33L9177.11,8627.85L9095.77,8774.35ZM9979.56,8542.53L9979.16,8276.92L9584.25,8702.67L9980.41,9107.37L9980.03,8853.13L9874.59,8695.03L9979.56,8542.53ZM10006.7,7619.39L10015.6,7345.85L9626.36,7747.3L9988.13,8186.36L9998.14,7906L9908.08,7773.04L10006.7,7619.39ZM10022.7,7057.97L9931.37,6916.51L10031,6758.94L10035.6,6594.57L9715.6,6925.36L10017.4,7247.85L10022.7,7057.97ZM4128.87,7716.71L4196.52,7794.2C4360.09,7723.37 4452.57,7625.46 4382.11,7465.48L4128.87,7716.71ZM4619.01,8603.28C4407.06,8563.86 4503.61,8139.85 4755.48,8154.25C4871.84,8349.33 4901.68,8655.84 4619.01,8603.28ZM7996.71,11768.7L7866.86,11638.6C8041.48,11551.6 8200.43,11457.2 8353.22,11359.9C8237.86,11509.6 8116.29,11637.6 7996.71,11768.7ZM8007.69,11867.8L7672.17,12217L7702.8,12258C7851.07,12161.3 7998.31,12067.2 8138.85,11989.5L8007.69,11867.8ZM7583.44,12232.9L7216.33,11841.6L6822.08,12220.4L7141.67,12520.6L7583.44,12232.9ZM6721.59,12219.1L6427.26,11818.4L6373.09,11813.6L6033.19,12181.1L6398.03,12553.7L6721.59,12219.1ZM5565.68,11693.2L5705.2,11556C5588.51,11461.8 5471.41,11361.6 5351.43,11219.6L5238.25,11307.1L5565.68,11693.2Z" style="fill:rgb(57,138,36);"/>
    <g id="Black-Details" serif:id="Black Details" transform="matrix(2.25331,0,0,2.25331,-3977.24,-4442.23)">
        <path d="M6322.41,2819.52C6317.8,2800.66 6245.25,2824.31 6208.39,2834.79C6254.5,2837.86 6326.9,2837.9 6322.41,2819.52ZM5654.34,2883.92C5665.57,2872.69 5693.43,2886.47 5710.82,2904.77C5691.06,2913.67 5639.93,2898.33 5654.34,2883.92ZM5523.33,2413.96C5490.33,2385.18 5456.81,2361.12 5419.84,2367.52C5453.77,2388.25 5488.25,2403.89 5523.33,2413.96ZM5475.15,2340.43C5514.92,2353.25 5553.85,2369.55 5590.19,2396.78C5549.57,2385.23 5510.89,2367.51 5475.15,2340.43ZM5523.47,2319.76C5527.15,2308.78 5547.41,2316.22 5561.46,2328.98C5541.24,2333.51 5519.53,2331.47 5523.47,2319.76ZM5822.72,5343.95L5858.98,5414.3L5824.47,5477.36L5786.81,5412.06L5822.72,5343.95ZM4972.72,4530.94L5008.98,4601.29L4974.47,4664.35L4936.8,4599.04L4972.72,4530.94ZM4618.64,4520.21L4654.91,4590.56L4620.39,4653.61L4582.73,4588.31L4618.64,4520.21ZM3824.66,5632.77L3860.93,5703.12L3826.42,5766.18L3788.75,5700.88L3824.66,5632.77ZM4580.87,6569.57L4617.13,6639.92L4582.62,6702.98L4544.95,6637.67L4580.87,6569.57ZM4970.58,6558.9L5006.84,6629.25L4972.33,6692.3L4934.66,6627L4970.58,6558.9ZM4970.08,7321.57L5006.34,7391.91L4971.83,7454.97L4934.16,7389.67L4970.08,7321.57ZM4608.75,7312.43L4645.02,7382.78L4610.51,7445.84L4572.84,7380.53L4608.75,7312.43ZM3644.57,6775.77C3665.19,6809.61 3713,6792.53 3727.72,6712.48C3728.55,6708 3729.27,6703.33 3729.87,6698.46C3733.01,6673.27 3743.55,6638.96 3763.63,6614.57C3789.34,6583.35 3847.81,6582.25 3875.38,6548.06C3770.09,6572.85 3693.76,6449.04 3751.42,6352.7C3691.33,6376.64 3694.96,6576.3 3557.65,6553.42C3589.95,6591.55 3669.08,6592.7 3682.95,6627.65C3707.82,6690.34 3711.32,6783.55 3644.57,6775.77ZM4016.35,7416.13C4055.57,7430.53 4094.12,7438.96 4131.85,7440.19C4085.89,7456.16 4047.16,7448.9 4016.35,7416.13ZM3604.95,7268.08C3584.56,7212.66 3537.31,7177.09 3487.82,7143.16C3533.73,7203.89 3588.37,7294.64 3604.95,7268.08ZM3150.91,6270.06C3144.36,6237.09 3148.8,6205.01 3166.49,6174.01C3178.91,6142.36 3179.79,6115.75 3173.34,6092.34C3135.64,6190.56 3121.84,6257.96 3150.91,6270.06ZM3108.95,6162.61C3118.39,6057.47 3142.71,6025.71 3167.88,5998.2C3152.41,6035.95 3141.12,6074.03 3144.76,6113.31C3139.65,6141.46 3127.3,6157.18 3108.95,6162.61ZM5439.29,4417.61C5470.08,4439.05 5497.74,4465.29 5521.71,4497.2L5493.03,4442.1C5505.63,4421.19 5543.18,4425.15 5534.06,4482.08C5544.09,4446.14 5603.13,4428.57 5595.61,4484.6L5575.93,4496.16C5614.53,4493.01 5652.45,4486.27 5689.6,4475.45C5653.01,4470.56 5633.83,4463.69 5593.55,4442.37C5563.1,4426.26 5486.51,4406.1 5439.29,4417.61ZM5329.61,4474C5361.21,4485.46 5387.99,4499.61 5391.51,4526.74L5329.61,4474ZM5241.32,4476.03C5248.2,4512.02 5260.66,4543.62 5288.65,4562.97C5240.86,4553.14 5228.85,4521.91 5241.32,4476.03ZM4373.22,4924.24C4356.22,4908.2 4345.81,4885.37 4341.38,4856.35C4326.3,4889.59 4327.95,4915.92 4373.22,4924.24ZM4507.45,7048.92C4465.09,7024.17 4426.27,6999.12 4469.13,6967.37C4437.56,6957.95 4406.97,6944.96 4379.33,6921.34C4366.65,6934.2 4348.19,6939.32 4323.39,6935.94C4337.44,6946.09 4359.98,6950.74 4389.08,6951.15L4437.34,6968.64C4415.68,7003.88 4439.75,7030.51 4507.45,7048.92ZM3916.52,3117.6C3922.31,3096.13 3955.08,3082.76 3956.12,3096.81L3957.46,3763.46C3980.95,3782.53 4000.92,3795.81 4017.7,3803.81C3974.99,3831.72 3903.91,3833.89 3822.64,3826.81C3790.33,3876.71 3737.31,3868.2 3759.98,3850.53C3797.78,3821.08 3824.71,3789.42 3810.7,3719.66C3824.68,3569.67 3818.81,3409.27 3803.69,3245.51L3771.71,3238.62C3728.33,3200.91 3912.19,3133.66 3916.52,3117.6ZM3985.84,3424.31C4020.66,3445.58 4040.44,3487.37 4047.46,3546.57C4054.78,3576.97 4072.56,3598.8 4097.52,3614.77C4080.75,3698.56 4120.6,3774.49 4169.2,3849.22C4117.64,3899.2 4054.72,3922.03 3984.59,3927.57L3972.25,3874.7C3936.41,3870.97 3920.98,3930.8 3904.72,3988.06C3879.15,4022.51 3848.29,4054.63 3815.86,4086.06C3902.36,4056.7 3988.27,4029.81 4068.29,4028.02C4085.8,4013.08 4100.04,3995.07 4111.58,3974.53C4229.01,3917.63 4311.41,3824.28 4341.68,3676.69C4383.5,3627.17 4398.37,3557.95 4388.69,3470.77L4453.57,3380.59C4404.24,3387.66 4346.47,3394.76 4285.82,3401.87C4322.92,3493.61 4311.39,3589.43 4258.24,3688.73C4194.77,3619.51 4146.44,3539.1 4213.18,3373.55C4138.14,3402.93 4062.48,3421.85 3985.84,3424.31ZM4717.69,3629.06C4774.05,3700.8 4631.24,3834.49 4492.69,3838.09L4477.72,3600.91L4520.58,3510.36L4491.13,3478.17L4493.97,3322.21L4449.88,3317.84C4453.1,3268.36 4565.47,3183.61 4642.17,3099.67C4659.43,3116.84 4649.95,3178.02 4648.09,3241.61C4671.55,3224.62 4707.29,3214.36 4728.2,3216.59C4738.21,3273.03 4698.62,3292.8 4649.87,3288C4592.4,3465.47 4580.17,3742.68 4658.47,3712.81C4679.19,3704.91 4695.36,3665.56 4717.69,3629.06ZM4967.99,3023.97C4964.69,3135.69 4953.55,3270.04 4941.1,3408.16C5051.17,3340.63 5158.25,3319.5 5173.57,3398.23C5192.98,3498 5172.15,3642.56 5165.19,3780.57C5242.84,3821.2 5234.07,3838.95 5185.72,3848.35C5117.69,3824.32 5083.05,3825.89 5037.98,3845.92C4941.27,3860.36 4962.97,3823.07 5033.4,3792.48C5134.7,3245.15 4863.05,3441.38 4934.07,3742.32C4960.44,3754.61 4975.49,3769.85 4988.92,3785.52C4893.91,3790.64 4797.09,3804.01 4697.69,3829.18C4724.42,3798.87 4757.93,3774.99 4793.7,3753.26L4811.84,3157.21C4793.68,3136.22 4777.07,3143.23 4752.25,3159.48C4735.9,3138.34 4766.55,3111.64 4835.34,3083.78C4887.35,3070.94 4915.41,3034.21 4967.99,3023.97ZM5700.62,3911.75C5740.01,3903.43 5777.7,3905.04 5820.62,3923.26C5853.7,3937.32 5876.58,3943.69 5888.71,3942.57C5888.85,3919.52 5871.12,3899.96 5838.58,3883.3C5847.24,3763.28 5838.57,3645.02 5890.9,3518.88C5915.33,3494.45 5981.13,3564.12 5919.02,3637.37C5916.34,3669.79 5996.64,3614.1 6079.65,3555.54C6055.47,3432.42 6016.96,3347.82 5913.03,3439.24C5888.1,3461.16 5877.22,3423.58 5907.14,3365.02C5894.74,3341.46 5876.06,3354.62 5852.86,3394.13L5677.67,3489.31C5664.43,3510.51 5693.54,3509.01 5733.61,3519.02C5767.62,3527.51 5731.45,3585.36 5706.11,3610.4L5749.63,3655.98L5698.38,3711.27C5701.04,3863.16 5697.64,3842.82 5629.63,3902.22C5609.04,3920.21 5624.69,3927.8 5700.62,3911.75ZM6169.33,3397.12L6253.43,3338.29C6380.96,3376.21 6221.92,3572.38 6169.33,3397.12ZM6096.33,3568.78L6123.29,3616.02C6103.35,3804.94 6068.61,3944.22 5989.72,3935.36C5944.61,3930.29 5961.59,4002.2 6031.95,3996.32C6078.48,3985.03 6122.19,4025.63 6200.92,4044.9C6253.85,4057.85 6263.9,4021.38 6207.12,4004.51C6172.24,3994.14 6194.15,3914.49 6227.98,3829.85C6241.23,3796.7 6212.01,3770.75 6221.09,3761.38C6270.99,3709.88 6290.36,3625.97 6301.94,3534.14L6096.33,3568.78ZM6686.41,4259.54C6709.95,4251.95 6674.78,4214.64 6649.04,4186.21C6671.92,4144.4 6699.04,4095.61 6698.58,4063.85C6716.56,4028.53 6727.8,3988.17 6722.91,3935.74C6745.27,3909.52 6766.36,3856.36 6785.91,3770.67C6773.75,3658.32 6681.01,3659.28 6568.62,3687.88L6594.51,3585.73L6353.9,3670.2C6402.77,3663.12 6411.25,3704.58 6390.2,3781.54C6352.88,3833.4 6366.97,3873.97 6351.66,3925.29C6301.57,3967.56 6323.4,3993.18 6315.28,4038.88C6243.96,4070.81 6239.71,4104.62 6288.9,4103.17C6346.4,4101.47 6367.12,4121.38 6415.08,4147.51C6473.08,4179.11 6475.13,4134.59 6426.36,4091.94C6459.09,4019.82 6533.8,3797.06 6558.94,3757.73C6589.56,3709.83 6687.28,3715.85 6609.92,3871.3L6539.88,4110.38C6466.89,4129.32 6491.24,4155.37 6541.02,4164.57L6630.31,4229.25C6648.77,4249.25 6669.73,4264.91 6686.41,4259.54ZM5528.35,3794.25L5526.6,3754.65C5552.32,3716.22 5574.92,3691.2 5595.12,3676.54C5612.08,3768.77 5614.42,3855.47 5476.22,3889.07C5441.09,3897.61 5394.63,3890.45 5349,3887.08C5254.27,3812.38 5174.52,3612.42 5294.07,3559.38L5271.47,3497.28C5292.45,3448.74 5332.73,3399.05 5405.14,3347.42L5521.36,3348.29C5575.05,3397.76 5614.5,3462.34 5633.56,3548.53L5401.05,3669.6C5385.28,3754.63 5398.72,3796.66 5456.42,3845.29L5498.02,3795.89L5528.35,3794.25ZM5503.84,3561.9L5493.54,3434.39C5493.06,3394.39 5456.78,3396.89 5424.56,3476.43L5393.41,3627.26C5426.76,3614.65 5465.23,3588.47 5503.84,3561.9Z"/>
    </g>
    <g id="Red" transform="matrix(2.25331,0,0,2.25331,-3977.24,-4442.23)">
        <path d="M3719.83,6638.97C3719,6588.56 3717.72,6529.5 3715.12,6478.03C3731.49,6517.22 3749.62,6552.66 3790.59,6564.05C3756.18,6577.77 3734.72,6603.13 3719.83,6638.97ZM4349.43,6160.14C4348.6,6109.73 4347.32,6050.67 4344.73,5999.19C4361.09,6038.39 4379.22,6073.83 4420.2,6085.22C4385.78,6098.94 4364.32,6124.3 4349.43,6160.14ZM4809.39,5580.9C4824.53,5614.86 4842.9,5644.09 4879.4,5654.23C4844.98,5667.95 4823.52,5693.31 4808.63,5729.15C4807.86,5682.11 4806.69,5627.53 4804.43,5578.61M5827.68,6577.56C5842.92,6612.45 5856.94,6622.47 5895.58,6633.21C5861.16,6646.93 5839.7,6672.29 5824.81,6708.13C5824.04,6661.12 5829.42,6624.6 5827.68,6577.56ZM5402.2,5032.57C5401.37,4982.16 5400.09,4923.1 5397.49,4871.63C5413.86,4910.82 5431.99,4946.26 5472.96,4957.65C5438.55,4971.37 5417.09,4996.73 5402.2,5032.57ZM3797.23,4473.96C3796.4,4423.55 3795.12,4364.49 3792.53,4313.02C3808.89,4352.21 3827.02,4387.65 3867.99,4399.04C3833.58,4412.76 3812.12,4438.12 3797.23,4473.96ZM5747.65,4563.46C5662.69,4563.62 5631.55,4606.12 5517.46,4629.86C5521.95,4648.81 5533.43,4662.6 5549.93,4672.69C5536.53,4676.37 5517.7,4668.94 5488.55,4640.4C5502.24,4676.94 5521.89,4710.85 5553.32,4739.55C5526.43,4728.5 5495.07,4704.51 5450.39,4641.88C5452.15,4674.87 5462.63,4707.05 5482.67,4738.34C5449.23,4722.49 5420.62,4697.88 5419.49,4628.11C5396.56,4589.56 5362.01,4614.09 5420.74,4717.86C5452.78,4774.46 5584.14,4828.31 5707.06,4872.74C5690.49,4861.5 5673.56,4846.73 5656.19,4827.79C5709.22,4845.34 5761.96,4858.67 5813.93,4861.01C5801.41,4832.81 5769.9,4813.63 5723.32,4792.81C5674.35,4770.92 5632.74,4700.72 5624.61,4642.08C5661.68,4624.31 5735.68,4647.98 5764.62,4633.03C5800.03,4614.74 5771.15,4563.42 5747.65,4563.46ZM5871.69,4608.48C5865.11,4571.29 5874.28,4545.63 5922.38,4558.72C5935.06,4593.35 5908.62,4606.16 5871.69,4608.48ZM5383.73,6135.95C5356.2,6150.47 5337.26,6173.06 5324.18,6204.53C5323.35,6154.13 5322.07,6095.07 5319.48,6043.59C5333.55,6077.29 5352.58,6108.73 5382.65,6123.98L5383.73,6135.95ZM5736.2,4889.67C5744.21,4864.9 5836.15,4881.67 5873.3,4941.96C5833.78,4932.55 5726.99,4900.57 5736.2,4889.67Z" style="fill:rgb(138,0,0);"/>
    </g>
</svg>
